<?xml version="1.0" standalone="no"?>
 <!DOCTYPE svg PUBLIC "-//W3C//DTD SVG 1.1//EN" 
 "http://www.w3.org/Graphics/SVG/1.1/DTD/svg11.dtd"> 
<svg
  xmlns:svg="http://www.w3.org/2000/svg"
  xmlns="http://www.w3.org/2000/svg"
  xmlns:xlink="http://www.w3.org/1999/xlink"
  version="1.1"
  width="29.700220cm" height="21.000720cm" viewBox="0 0 116930 82680">
<title>SVG Picture created as Universal Controller Mk1-F_SilkS.svg date 2021/01/15 08:25:24 </title>
  <desc>Picture generated by PCBNEW </desc>
<g style="fill:#000000; fill-opacity:1;stroke:#000000; stroke-opacity:1;
stroke-linecap:round; stroke-linejoin:round;"
 transform="translate(0 0) scale(1 1)">
</g>
<g style="fill:#000000; fill-opacity:0.0; 
stroke:#000000; stroke-width:-0.000393701; stroke-opacity:1; 
stroke-linecap:round; stroke-linejoin:round;">
</g>
<g style="fill:#000000; fill-opacity:0.0; 
stroke:#000000; stroke-width:39.3701; stroke-opacity:1; 
stroke-linecap:round; stroke-linejoin:round;">
</g>
<g style="fill:#000000; fill-opacity:0.0; 
stroke:#000000; stroke-width:59.0551; stroke-opacity:1; 
stroke-linecap:round; stroke-linejoin:round;">
<rect x="69685.9" y="65357.2" width="42519.7" height="12598.4" rx="0" />
</g>
<g style="fill:#000000; fill-opacity:0.0; 
stroke:#000000; stroke-width:39.3701; stroke-opacity:1; 
stroke-linecap:round; stroke-linejoin:round;">
</g>
<g style="fill:#000000; fill-opacity:0.0; 
stroke:#000000; stroke-width:59.0551; stroke-opacity:1; 
stroke-linecap:round; stroke-linejoin:round;">
<rect x="3937.01" y="3937.01" width="109056" height="74806" rx="0" />
</g>
<g style="fill:#000000; fill-opacity:0.0; 
stroke:#000000; stroke-width:39.3701; stroke-opacity:1; 
stroke-linecap:round; stroke-linejoin:round;">
</g>
<g style="fill:#000000; fill-opacity:0.0; 
stroke:#000000; stroke-width:59.0551; stroke-opacity:1; 
stroke-linecap:round; stroke-linejoin:round;">
<rect x="4724.41" y="4724.41" width="107481" height="73231.2" rx="0" />
</g>
<g style="fill:#000000; fill-opacity:0.0; 
stroke:#000000; stroke-width:39.3701; stroke-opacity:1; 
stroke-linecap:round; stroke-linejoin:round;">
</g>
<g style="fill:#000000; fill-opacity:0.0; 
stroke:#000000; stroke-width:59.0551; stroke-opacity:1; 
stroke-linecap:round; stroke-linejoin:round;">
<path d="M23622 4724
L23622 3937
" />
</g>
<g style="fill:#000000; fill-opacity:0.0; 
stroke:#000000; stroke-width:39.3701; stroke-opacity:1; 
stroke-linecap:round; stroke-linejoin:round;">
</g>
<g style="fill:#000000; fill-opacity:0.0; 
stroke:#000000; stroke-width:59.0551; stroke-opacity:1; 
stroke-linecap:round; stroke-linejoin:round;">
<path d="M43307 4724
L43307 3937
" />
</g>
<g style="fill:#000000; fill-opacity:0.0; 
stroke:#000000; stroke-width:39.3701; stroke-opacity:1; 
stroke-linecap:round; stroke-linejoin:round;">
</g>
<g style="fill:#000000; fill-opacity:0.0; 
stroke:#000000; stroke-width:59.0551; stroke-opacity:1; 
stroke-linecap:round; stroke-linejoin:round;">
<path d="M62992 4724
L62992 3937
" />
</g>
<g style="fill:#000000; fill-opacity:0.0; 
stroke:#000000; stroke-width:39.3701; stroke-opacity:1; 
stroke-linecap:round; stroke-linejoin:round;">
</g>
<g style="fill:#000000; fill-opacity:0.0; 
stroke:#000000; stroke-width:59.0551; stroke-opacity:1; 
stroke-linecap:round; stroke-linejoin:round;">
<path d="M82677 4724
L82677 3937
" />
</g>
<g style="fill:#000000; fill-opacity:0.0; 
stroke:#000000; stroke-width:39.3701; stroke-opacity:1; 
stroke-linecap:round; stroke-linejoin:round;">
</g>
<g style="fill:#000000; fill-opacity:0.0; 
stroke:#000000; stroke-width:59.0551; stroke-opacity:1; 
stroke-linecap:round; stroke-linejoin:round;">
<path d="M102362 4724
L102362 3937
" />
</g>
<g style="fill:#000000; fill-opacity:0.0; 
stroke:#000000; stroke-width:39.3701; stroke-opacity:1; 
stroke-linecap:round; stroke-linejoin:round;">
</g>
<g style="fill:#000000; fill-opacity:0.0; 
stroke:#000000; stroke-width:59.0551; stroke-opacity:1; 
stroke-linecap:round; stroke-linejoin:round;">
<text x="13779.5" y="4586.61"
textLength="487.439" font-size="682.415" lengthAdjust="spacingAndGlyphs"
text-anchor="start" opacity="0">1</text>
<path d="M14199 4562
L13906 4562
" />
<path d="M14052 4562
L14052 4050
L14004 4123
L13955 4172
L13906 4196
" />
</g>
<g style="fill:#000000; fill-opacity:0.0; 
stroke:#000000; stroke-width:39.3701; stroke-opacity:1; 
stroke-linecap:round; stroke-linejoin:round;">
</g>
<g style="fill:#000000; fill-opacity:0.0; 
stroke:#000000; stroke-width:59.0551; stroke-opacity:1; 
stroke-linecap:round; stroke-linejoin:round;">
<text x="33464.6" y="4586.61"
textLength="546.494" font-size="682.415" lengthAdjust="spacingAndGlyphs"
text-anchor="start" opacity="0">2</text>
<path d="M33591 4099
L33615 4074
L33664 4050
L33786 4050
L33835 4074
L33859 4099
L33884 4147
L33884 4196
L33859 4269
L33567 4562
L33884 4562
" />
</g>
<g style="fill:#000000; fill-opacity:0.0; 
stroke:#000000; stroke-width:39.3701; stroke-opacity:1; 
stroke-linecap:round; stroke-linejoin:round;">
</g>
<g style="fill:#000000; fill-opacity:0.0; 
stroke:#000000; stroke-width:59.0551; stroke-opacity:1; 
stroke-linecap:round; stroke-linejoin:round;">
<text x="53149.6" y="4586.61"
textLength="546.494" font-size="682.415" lengthAdjust="spacingAndGlyphs"
text-anchor="start" opacity="0">3</text>
<path d="M53252 4050
L53569 4050
L53398 4245
L53471 4245
L53520 4269
L53544 4294
L53569 4342
L53569 4464
L53544 4513
L53520 4537
L53471 4562
L53325 4562
L53276 4537
L53252 4513
" />
</g>
<g style="fill:#000000; fill-opacity:0.0; 
stroke:#000000; stroke-width:39.3701; stroke-opacity:1; 
stroke-linecap:round; stroke-linejoin:round;">
</g>
<g style="fill:#000000; fill-opacity:0.0; 
stroke:#000000; stroke-width:59.0551; stroke-opacity:1; 
stroke-linecap:round; stroke-linejoin:round;">
<text x="72834.6" y="4586.61"
textLength="546.494" font-size="682.415" lengthAdjust="spacingAndGlyphs"
text-anchor="start" opacity="0">4</text>
<path d="M73205 4221
L73205 4562
" />
<path d="M73083 4026
L72961 4391
L73278 4391
" />
</g>
<g style="fill:#000000; fill-opacity:0.0; 
stroke:#000000; stroke-width:39.3701; stroke-opacity:1; 
stroke-linecap:round; stroke-linejoin:round;">
</g>
<g style="fill:#000000; fill-opacity:0.0; 
stroke:#000000; stroke-width:59.0551; stroke-opacity:1; 
stroke-linecap:round; stroke-linejoin:round;">
<text x="92519.7" y="4586.61"
textLength="546.494" font-size="682.415" lengthAdjust="spacingAndGlyphs"
text-anchor="start" opacity="0">5</text>
<path d="M92914 4050
L92671 4050
L92646 4294
L92671 4269
L92719 4245
L92841 4245
L92890 4269
L92914 4294
L92939 4342
L92939 4464
L92914 4513
L92890 4537
L92841 4562
L92719 4562
L92671 4537
L92646 4513
" />
</g>
<g style="fill:#000000; fill-opacity:0.0; 
stroke:#000000; stroke-width:39.3701; stroke-opacity:1; 
stroke-linecap:round; stroke-linejoin:round;">
</g>
<g style="fill:#000000; fill-opacity:0.0; 
stroke:#000000; stroke-width:59.0551; stroke-opacity:1; 
stroke-linecap:round; stroke-linejoin:round;">
<text x="112205" y="4586.61"
textLength="546.494" font-size="682.415" lengthAdjust="spacingAndGlyphs"
text-anchor="start" opacity="0">6</text>
<path d="M112575 4050
L112477 4050
L112429 4074
L112404 4099
L112356 4172
L112331 4269
L112331 4464
L112356 4513
L112380 4537
L112429 4562
L112526 4562
L112575 4537
L112599 4513
L112624 4464
L112624 4342
L112599 4294
L112575 4269
L112526 4245
L112429 4245
L112380 4269
L112356 4294
L112331 4342
" />
</g>
<g style="fill:#000000; fill-opacity:0.0; 
stroke:#000000; stroke-width:39.3701; stroke-opacity:1; 
stroke-linecap:round; stroke-linejoin:round;">
</g>
<g style="fill:#000000; fill-opacity:0.0; 
stroke:#000000; stroke-width:59.0551; stroke-opacity:1; 
stroke-linecap:round; stroke-linejoin:round;">
<path d="M23622 77955
L23622 78742
" />
</g>
<g style="fill:#000000; fill-opacity:0.0; 
stroke:#000000; stroke-width:39.3701; stroke-opacity:1; 
stroke-linecap:round; stroke-linejoin:round;">
</g>
<g style="fill:#000000; fill-opacity:0.0; 
stroke:#000000; stroke-width:59.0551; stroke-opacity:1; 
stroke-linecap:round; stroke-linejoin:round;">
<path d="M43307 77955
L43307 78742
" />
</g>
<g style="fill:#000000; fill-opacity:0.0; 
stroke:#000000; stroke-width:39.3701; stroke-opacity:1; 
stroke-linecap:round; stroke-linejoin:round;">
</g>
<g style="fill:#000000; fill-opacity:0.0; 
stroke:#000000; stroke-width:59.0551; stroke-opacity:1; 
stroke-linecap:round; stroke-linejoin:round;">
<path d="M62992 77955
L62992 78742
" />
</g>
<g style="fill:#000000; fill-opacity:0.0; 
stroke:#000000; stroke-width:39.3701; stroke-opacity:1; 
stroke-linecap:round; stroke-linejoin:round;">
</g>
<g style="fill:#000000; fill-opacity:0.0; 
stroke:#000000; stroke-width:59.0551; stroke-opacity:1; 
stroke-linecap:round; stroke-linejoin:round;">
<path d="M82677 77955
L82677 78742
" />
</g>
<g style="fill:#000000; fill-opacity:0.0; 
stroke:#000000; stroke-width:39.3701; stroke-opacity:1; 
stroke-linecap:round; stroke-linejoin:round;">
</g>
<g style="fill:#000000; fill-opacity:0.0; 
stroke:#000000; stroke-width:59.0551; stroke-opacity:1; 
stroke-linecap:round; stroke-linejoin:round;">
<path d="M102362 77955
L102362 78742
" />
</g>
<g style="fill:#000000; fill-opacity:0.0; 
stroke:#000000; stroke-width:39.3701; stroke-opacity:1; 
stroke-linecap:round; stroke-linejoin:round;">
</g>
<g style="fill:#000000; fill-opacity:0.0; 
stroke:#000000; stroke-width:59.0551; stroke-opacity:1; 
stroke-linecap:round; stroke-linejoin:round;">
<text x="13779.5" y="78605.2"
textLength="546.494" font-size="682.415" lengthAdjust="spacingAndGlyphs"
text-anchor="start" opacity="0">1</text>
<path d="M14199 78580
L13906 78580
" />
<path d="M14052 78580
L14052 78069
L14004 78142
L13955 78190
L13906 78215
" />
</g>
<g style="fill:#000000; fill-opacity:0.0; 
stroke:#000000; stroke-width:39.3701; stroke-opacity:1; 
stroke-linecap:round; stroke-linejoin:round;">
</g>
<g style="fill:#000000; fill-opacity:0.0; 
stroke:#000000; stroke-width:59.0551; stroke-opacity:1; 
stroke-linecap:round; stroke-linejoin:round;">
<text x="33464.6" y="78605.2"
textLength="546.494" font-size="682.415" lengthAdjust="spacingAndGlyphs"
text-anchor="start" opacity="0">2</text>
<path d="M33591 78117
L33615 78093
L33664 78069
L33786 78069
L33835 78093
L33859 78117
L33884 78166
L33884 78215
L33859 78288
L33567 78580
L33884 78580
" />
</g>
<g style="fill:#000000; fill-opacity:0.0; 
stroke:#000000; stroke-width:39.3701; stroke-opacity:1; 
stroke-linecap:round; stroke-linejoin:round;">
</g>
<g style="fill:#000000; fill-opacity:0.0; 
stroke:#000000; stroke-width:59.0551; stroke-opacity:1; 
stroke-linecap:round; stroke-linejoin:round;">
<text x="53149.6" y="78605.2"
textLength="546.494" font-size="682.415" lengthAdjust="spacingAndGlyphs"
text-anchor="start" opacity="0">3</text>
<path d="M53252 78069
L53569 78069
L53398 78263
L53471 78263
L53520 78288
L53544 78312
L53569 78361
L53569 78483
L53544 78532
L53520 78556
L53471 78580
L53325 78580
L53276 78556
L53252 78532
" />
</g>
<g style="fill:#000000; fill-opacity:0.0; 
stroke:#000000; stroke-width:39.3701; stroke-opacity:1; 
stroke-linecap:round; stroke-linejoin:round;">
</g>
<g style="fill:#000000; fill-opacity:0.0; 
stroke:#000000; stroke-width:59.0551; stroke-opacity:1; 
stroke-linecap:round; stroke-linejoin:round;">
<text x="72834.6" y="78605.2"
textLength="546.494" font-size="682.415" lengthAdjust="spacingAndGlyphs"
text-anchor="start" opacity="0">4</text>
<path d="M73205 78239
L73205 78580
" />
<path d="M73083 78044
L72961 78410
L73278 78410
" />
</g>
<g style="fill:#000000; fill-opacity:0.0; 
stroke:#000000; stroke-width:39.3701; stroke-opacity:1; 
stroke-linecap:round; stroke-linejoin:round;">
</g>
<g style="fill:#000000; fill-opacity:0.0; 
stroke:#000000; stroke-width:59.0551; stroke-opacity:1; 
stroke-linecap:round; stroke-linejoin:round;">
<text x="92519.7" y="78605.2"
textLength="546.494" font-size="682.415" lengthAdjust="spacingAndGlyphs"
text-anchor="start" opacity="0">5</text>
<path d="M92914 78069
L92671 78069
L92646 78312
L92671 78288
L92719 78263
L92841 78263
L92890 78288
L92914 78312
L92939 78361
L92939 78483
L92914 78532
L92890 78556
L92841 78580
L92719 78580
L92671 78556
L92646 78532
" />
</g>
<g style="fill:#000000; fill-opacity:0.0; 
stroke:#000000; stroke-width:39.3701; stroke-opacity:1; 
stroke-linecap:round; stroke-linejoin:round;">
</g>
<g style="fill:#000000; fill-opacity:0.0; 
stroke:#000000; stroke-width:59.0551; stroke-opacity:1; 
stroke-linecap:round; stroke-linejoin:round;">
<text x="112205" y="78605.2"
textLength="546.494" font-size="682.415" lengthAdjust="spacingAndGlyphs"
text-anchor="start" opacity="0">6</text>
<path d="M112575 78069
L112477 78069
L112429 78093
L112404 78117
L112356 78190
L112331 78288
L112331 78483
L112356 78532
L112380 78556
L112429 78580
L112526 78580
L112575 78556
L112599 78532
L112624 78483
L112624 78361
L112599 78312
L112575 78288
L112526 78263
L112429 78263
L112380 78288
L112356 78312
L112331 78361
" />
</g>
<g style="fill:#000000; fill-opacity:0.0; 
stroke:#000000; stroke-width:39.3701; stroke-opacity:1; 
stroke-linecap:round; stroke-linejoin:round;">
</g>
<g style="fill:#000000; fill-opacity:0.0; 
stroke:#000000; stroke-width:59.0551; stroke-opacity:1; 
stroke-linecap:round; stroke-linejoin:round;">
<path d="M3937 23622
L4724 23622
" />
</g>
<g style="fill:#000000; fill-opacity:0.0; 
stroke:#000000; stroke-width:39.3701; stroke-opacity:1; 
stroke-linecap:round; stroke-linejoin:round;">
</g>
<g style="fill:#000000; fill-opacity:0.0; 
stroke:#000000; stroke-width:59.0551; stroke-opacity:1; 
stroke-linecap:round; stroke-linejoin:round;">
<path d="M3937 43307
L4724 43307
" />
</g>
<g style="fill:#000000; fill-opacity:0.0; 
stroke:#000000; stroke-width:39.3701; stroke-opacity:1; 
stroke-linecap:round; stroke-linejoin:round;">
</g>
<g style="fill:#000000; fill-opacity:0.0; 
stroke:#000000; stroke-width:59.0551; stroke-opacity:1; 
stroke-linecap:round; stroke-linejoin:round;">
<path d="M3937 62992
L4724 62992
" />
</g>
<g style="fill:#000000; fill-opacity:0.0; 
stroke:#000000; stroke-width:39.3701; stroke-opacity:1; 
stroke-linecap:round; stroke-linejoin:round;">
</g>
<g style="fill:#000000; fill-opacity:0.0; 
stroke:#000000; stroke-width:59.0551; stroke-opacity:1; 
stroke-linecap:round; stroke-linejoin:round;">
<text x="4330.71" y="14035.4"
textLength="497.75" font-size="682.415" lengthAdjust="spacingAndGlyphs"
text-anchor="middle" opacity="0">A</text>
<path d="M4208 13864
L4452 13864
" />
<path d="M4160 14011
L4330 13499
L4501 14011
" />
</g>
<g style="fill:#000000; fill-opacity:0.0; 
stroke:#000000; stroke-width:39.3701; stroke-opacity:1; 
stroke-linecap:round; stroke-linejoin:round;">
</g>
<g style="fill:#000000; fill-opacity:0.0; 
stroke:#000000; stroke-width:59.0551; stroke-opacity:1; 
stroke-linecap:round; stroke-linejoin:round;">
<text x="4330.71" y="33720.5"
textLength="570.866" font-size="682.415" lengthAdjust="spacingAndGlyphs"
text-anchor="middle" opacity="0">B</text>
<path d="M4367 33428
L4440 33452
L4464 33476
L4489 33525
L4489 33598
L4464 33647
L4440 33671
L4391 33696
L4196 33696
L4196 33184
L4367 33184
L4416 33208
L4440 33233
L4464 33281
L4464 33330
L4440 33379
L4416 33403
L4367 33428
L4196 33428
" />
</g>
<g style="fill:#000000; fill-opacity:0.0; 
stroke:#000000; stroke-width:39.3701; stroke-opacity:1; 
stroke-linecap:round; stroke-linejoin:round;">
</g>
<g style="fill:#000000; fill-opacity:0.0; 
stroke:#000000; stroke-width:59.0551; stroke-opacity:1; 
stroke-linecap:round; stroke-linejoin:round;">
<text x="4330.71" y="53405.5"
textLength="570.866" font-size="682.415" lengthAdjust="spacingAndGlyphs"
text-anchor="middle" opacity="0">C</text>
<path d="M4489 53332
L4464 53356
L4391 53381
L4342 53381
L4269 53356
L4221 53308
L4196 53259
L4172 53161
L4172 53088
L4196 52991
L4221 52942
L4269 52893
L4342 52869
L4391 52869
L4464 52893
L4489 52918
" />
</g>
<g style="fill:#000000; fill-opacity:0.0; 
stroke:#000000; stroke-width:39.3701; stroke-opacity:1; 
stroke-linecap:round; stroke-linejoin:round;">
</g>
<g style="fill:#000000; fill-opacity:0.0; 
stroke:#000000; stroke-width:59.0551; stroke-opacity:1; 
stroke-linecap:round; stroke-linejoin:round;">
<text x="4330.71" y="73090.6"
textLength="570.866" font-size="682.415" lengthAdjust="spacingAndGlyphs"
text-anchor="middle" opacity="0">D</text>
<path d="M4196 73066
L4196 72554
L4318 72554
L4391 72578
L4440 72627
L4464 72676
L4489 72773
L4489 72846
L4464 72944
L4440 72993
L4391 73041
L4318 73066
L4196 73066
" />
</g>
<g style="fill:#000000; fill-opacity:0.0; 
stroke:#000000; stroke-width:39.3701; stroke-opacity:1; 
stroke-linecap:round; stroke-linejoin:round;">
</g>
<g style="fill:#000000; fill-opacity:0.0; 
stroke:#000000; stroke-width:59.0551; stroke-opacity:1; 
stroke-linecap:round; stroke-linejoin:round;">
<path d="M112992 23622
L112205 23622
" />
</g>
<g style="fill:#000000; fill-opacity:0.0; 
stroke:#000000; stroke-width:39.3701; stroke-opacity:1; 
stroke-linecap:round; stroke-linejoin:round;">
</g>
<g style="fill:#000000; fill-opacity:0.0; 
stroke:#000000; stroke-width:59.0551; stroke-opacity:1; 
stroke-linecap:round; stroke-linejoin:round;">
<path d="M112992 43307
L112205 43307
" />
</g>
<g style="fill:#000000; fill-opacity:0.0; 
stroke:#000000; stroke-width:39.3701; stroke-opacity:1; 
stroke-linecap:round; stroke-linejoin:round;">
</g>
<g style="fill:#000000; fill-opacity:0.0; 
stroke:#000000; stroke-width:59.0551; stroke-opacity:1; 
stroke-linecap:round; stroke-linejoin:round;">
<path d="M112992 62992
L112205 62992
" />
</g>
<g style="fill:#000000; fill-opacity:0.0; 
stroke:#000000; stroke-width:39.3701; stroke-opacity:1; 
stroke-linecap:round; stroke-linejoin:round;">
</g>
<g style="fill:#000000; fill-opacity:0.0; 
stroke:#000000; stroke-width:59.0551; stroke-opacity:1; 
stroke-linecap:round; stroke-linejoin:round;">
<text x="112599" y="14035.4"
textLength="497.75" font-size="682.415" lengthAdjust="spacingAndGlyphs"
text-anchor="middle" opacity="0">A</text>
<path d="M112477 13864
L112721 13864
" />
<path d="M112428 14011
L112599 13499
L112769 14011
" />
</g>
<g style="fill:#000000; fill-opacity:0.0; 
stroke:#000000; stroke-width:39.3701; stroke-opacity:1; 
stroke-linecap:round; stroke-linejoin:round;">
</g>
<g style="fill:#000000; fill-opacity:0.0; 
stroke:#000000; stroke-width:59.0551; stroke-opacity:1; 
stroke-linecap:round; stroke-linejoin:round;">
<text x="112599" y="33720.5"
textLength="570.866" font-size="682.415" lengthAdjust="spacingAndGlyphs"
text-anchor="middle" opacity="0">B</text>
<path d="M112635 33428
L112708 33452
L112733 33476
L112757 33525
L112757 33598
L112733 33647
L112708 33671
L112660 33696
L112465 33696
L112465 33184
L112635 33184
L112684 33208
L112708 33233
L112733 33281
L112733 33330
L112708 33379
L112684 33403
L112635 33428
L112465 33428
" />
</g>
<g style="fill:#000000; fill-opacity:0.0; 
stroke:#000000; stroke-width:39.3701; stroke-opacity:1; 
stroke-linecap:round; stroke-linejoin:round;">
</g>
<g style="fill:#000000; fill-opacity:0.0; 
stroke:#000000; stroke-width:59.0551; stroke-opacity:1; 
stroke-linecap:round; stroke-linejoin:round;">
<text x="112599" y="53405.5"
textLength="570.866" font-size="682.415" lengthAdjust="spacingAndGlyphs"
text-anchor="middle" opacity="0">C</text>
<path d="M112757 53332
L112733 53356
L112660 53381
L112611 53381
L112538 53356
L112489 53308
L112465 53259
L112440 53161
L112440 53088
L112465 52991
L112489 52942
L112538 52893
L112611 52869
L112660 52869
L112733 52893
L112757 52918
" />
</g>
<g style="fill:#000000; fill-opacity:0.0; 
stroke:#000000; stroke-width:39.3701; stroke-opacity:1; 
stroke-linecap:round; stroke-linejoin:round;">
</g>
<g style="fill:#000000; fill-opacity:0.0; 
stroke:#000000; stroke-width:59.0551; stroke-opacity:1; 
stroke-linecap:round; stroke-linejoin:round;">
<text x="112599" y="73090.6"
textLength="570.866" font-size="682.415" lengthAdjust="spacingAndGlyphs"
text-anchor="middle" opacity="0">D</text>
<path d="M112465 73066
L112465 72554
L112587 72554
L112660 72578
L112708 72627
L112733 72676
L112757 72773
L112757 72846
L112733 72944
L112708 72993
L112660 73041
L112587 73066
L112465 73066
" />
</g>
<g style="fill:#000000; fill-opacity:0.0; 
stroke:#000000; stroke-width:39.3701; stroke-opacity:1; 
stroke-linecap:round; stroke-linejoin:round;">
</g>
<g style="fill:#000000; fill-opacity:0.0; 
stroke:#000000; stroke-width:59.0551; stroke-opacity:1; 
stroke-linecap:round; stroke-linejoin:round;">
<text x="78741" y="76321.7"
textLength="2758.72" font-size="787.402" lengthAdjust="spacingAndGlyphs"
text-anchor="start" opacity="0">Date: </text>
<path d="M78911 76293
L78911 75703
L79051 75703
L79136 75731
L79192 75787
L79220 75843
L79248 75956
L79248 76040
L79220 76153
L79192 76209
L79136 76265
L79051 76293
L78911 76293
" />
<path d="M79754 76293
L79754 75984
L79726 75928
L79670 75899
L79557 75899
L79501 75928
" />
<path d="M79754 76265
L79698 76293
L79557 76293
L79501 76265
L79473 76209
L79473 76153
L79501 76096
L79557 76068
L79698 76068
L79754 76040
" />
<path d="M79951 75899
L80176 75899
" />
<path d="M80036 75703
L80036 76209
L80064 76265
L80120 76293
L80176 76293
" />
<path d="M80598 76265
L80542 76293
L80429 76293
L80373 76265
L80345 76209
L80345 75984
L80373 75928
L80429 75899
L80542 75899
L80598 75928
L80626 75984
L80626 76040
L80345 76096
" />
<path d="M80879 76237
L80907 76265
L80879 76293
L80851 76265
L80879 76237
L80879 76293
" />
<path d="M80879 75928
L80907 75956
L80879 75984
L80851 75956
L80879 75928
L80879 75984
" />
</g>
<g style="fill:#000000; fill-opacity:0.0; 
stroke:#000000; stroke-width:39.3701; stroke-opacity:1; 
stroke-linecap:round; stroke-linejoin:round;">
</g>
<g style="fill:#000000; fill-opacity:0.0; 
stroke:#000000; stroke-width:59.0551; stroke-opacity:1; 
stroke-linecap:round; stroke-linejoin:round;">
<path d="M69685 76577
L112205 76577
" />
</g>
<g style="fill:#000000; fill-opacity:0.0; 
stroke:#000000; stroke-width:39.3701; stroke-opacity:1; 
stroke-linecap:round; stroke-linejoin:round;">
</g>
<g style="fill:#000000; fill-opacity:0.0; 
stroke:#000000; stroke-width:59.0551; stroke-opacity:1; 
stroke-linecap:round; stroke-linejoin:round;">
<text x="70079.6" y="77424.1"
textLength="13529.2" font-size="787.402" lengthAdjust="spacingAndGlyphs"
text-anchor="start" opacity="0">KiCad E.D.A.  kicad (5.1.7)-1</text>
<path d="M70249 77395
L70249 76805
" />
<path d="M70587 77395
L70334 77058
" />
<path d="M70587 76805
L70249 77142
" />
<path d="M70840 77395
L70840 77002
" />
<path d="M70840 76805
L70812 76833
L70840 76861
L70868 76833
L70840 76805
L70840 76861
" />
<path d="M71458 77339
L71430 77367
L71346 77395
L71290 77395
L71205 77367
L71149 77311
L71121 77255
L71093 77142
L71093 77058
L71121 76946
L71149 76889
L71205 76833
L71290 76805
L71346 76805
L71430 76833
L71458 76861
" />
<path d="M71965 77395
L71965 77086
L71937 77030
L71880 77002
L71768 77002
L71712 77030
" />
<path d="M71965 77367
L71908 77395
L71768 77395
L71712 77367
L71683 77311
L71683 77255
L71712 77199
L71768 77171
L71908 77171
L71965 77142
" />
<path d="M72499 77395
L72499 76805
" />
<path d="M72499 77367
L72443 77395
L72330 77395
L72274 77367
L72246 77339
L72218 77283
L72218 77114
L72246 77058
L72274 77030
L72330 77002
L72443 77002
L72499 77030
" />
<path d="M73230 77086
L73427 77086
" />
<path d="M73511 77395
L73230 77395
L73230 76805
L73511 76805
" />
<path d="M73764 77339
L73793 77367
L73764 77395
L73736 77367
L73764 77339
L73764 77395
" />
<path d="M74046 77395
L74046 76805
L74186 76805
L74271 76833
L74327 76889
L74355 76946
L74383 77058
L74383 77142
L74355 77255
L74327 77311
L74271 77367
L74186 77395
L74046 77395
" />
<path d="M74636 77339
L74664 77367
L74636 77395
L74608 77367
L74636 77339
L74636 77395
" />
<path d="M74889 77227
L75171 77227
" />
<path d="M74833 77395
L75030 76805
L75227 77395
" />
<path d="M75424 77339
L75452 77367
L75424 77395
L75395 77367
L75424 77339
L75424 77395
" />
<path d="M76605 77395
L76605 76805
" />
<path d="M76661 77171
L76830 77395
" />
<path d="M76830 77002
L76605 77227
" />
<path d="M77083 77395
L77083 77002
" />
<path d="M77083 76805
L77055 76833
L77083 76861
L77111 76833
L77083 76805
L77083 76861
" />
<path d="M77617 77367
L77561 77395
L77448 77395
L77392 77367
L77364 77339
L77336 77283
L77336 77114
L77364 77058
L77392 77030
L77448 77002
L77561 77002
L77617 77030
" />
<path d="M78123 77395
L78123 77086
L78095 77030
L78039 77002
L77926 77002
L77870 77030
" />
<path d="M78123 77367
L78067 77395
L77926 77395
L77870 77367
L77842 77311
L77842 77255
L77870 77199
L77926 77171
L78067 77171
L78123 77142
" />
<path d="M78658 77395
L78658 76805
" />
<path d="M78658 77367
L78601 77395
L78489 77395
L78433 77367
L78404 77339
L78376 77283
L78376 77114
L78404 77058
L78433 77030
L78489 77002
L78601 77002
L78658 77030
" />
<path d="M79557 77620
L79529 77592
L79473 77508
L79445 77452
L79417 77367
L79389 77227
L79389 77114
L79417 76974
L79445 76889
L79473 76833
L79529 76749
L79557 76721
" />
<path d="M80064 76805
L79782 76805
L79754 77086
L79782 77058
L79839 77030
L79979 77030
L80036 77058
L80064 77086
L80092 77142
L80092 77283
L80064 77339
L80036 77367
L79979 77395
L79839 77395
L79782 77367
L79754 77339
" />
<path d="M80345 77339
L80373 77367
L80345 77395
L80317 77367
L80345 77339
L80345 77395
" />
<path d="M80935 77395
L80598 77395
" />
<path d="M80767 77395
L80767 76805
L80710 76889
L80654 76946
L80598 76974
" />
<path d="M81188 77339
L81217 77367
L81188 77395
L81160 77367
L81188 77339
L81188 77395
" />
<path d="M81413 76805
L81807 76805
L81554 77395
" />
<path d="M81976 77620
L82004 77592
L82060 77508
L82088 77452
L82117 77367
L82145 77227
L82145 77114
L82117 76974
L82088 76889
L82060 76833
L82004 76749
L81976 76721
" />
<path d="M82426 77171
L82876 77171
" />
<path d="M83466 77395
L83129 77395
" />
<path d="M83298 77395
L83298 76805
L83241 76889
L83185 76946
L83129 76974
" />
</g>
<g style="fill:#000000; fill-opacity:0.0; 
stroke:#000000; stroke-width:39.3701; stroke-opacity:1; 
stroke-linecap:round; stroke-linejoin:round;">
</g>
<g style="fill:#000000; fill-opacity:0.0; 
stroke:#000000; stroke-width:59.0551; stroke-opacity:1; 
stroke-linecap:round; stroke-linejoin:round;">
<path d="M69685 75396
L112205 75396
" />
</g>
<g style="fill:#000000; fill-opacity:0.0; 
stroke:#000000; stroke-width:39.3701; stroke-opacity:1; 
stroke-linecap:round; stroke-linejoin:round;">
</g>
<g style="fill:#000000; fill-opacity:0.0; 
stroke:#000000; stroke-width:118.11; stroke-opacity:1; 
stroke-linecap:round; stroke-linejoin:round;">
<text x="103544" y="76321.7"
textLength="2336.9" font-size="787.402" lengthAdjust="spacingAndGlyphs"
text-anchor="start" opacity="0">Rev: </text>
<path d="M104099 76293
L103902 76012
" />
<path d="M103761 76293
L103761 75703
L103986 75703
L104042 75731
L104070 75759
L104099 75815
L104099 75899
L104070 75956
L104042 75984
L103986 76012
L103761 76012
" />
<path d="M104577 76265
L104520 76293
L104408 76293
L104352 76265
L104323 76209
L104323 75984
L104352 75928
L104408 75899
L104520 75899
L104577 75928
L104605 75984
L104605 76040
L104323 76096
" />
<path d="M104802 75899
L104942 76293
L105083 75899
" />
<path d="M105308 76237
L105336 76265
L105308 76293
L105280 76265
L105308 76237
L105308 76293
" />
<path d="M105308 75928
L105336 75956
L105308 75984
L105280 75956
L105308 75928
L105308 75984
" />
</g>
<g style="fill:#000000; fill-opacity:0.0; 
stroke:#000000; stroke-width:39.3701; stroke-opacity:1; 
stroke-linecap:round; stroke-linejoin:round;">
</g>
<g style="fill:#000000; fill-opacity:0.0; 
stroke:#000000; stroke-width:59.0551; stroke-opacity:1; 
stroke-linecap:round; stroke-linejoin:round;">
<text x="70079.6" y="76321.7"
textLength="3781.21" font-size="787.402" lengthAdjust="spacingAndGlyphs"
text-anchor="start" opacity="0">Size: A4</text>
<path d="M70221 76265
L70305 76293
L70446 76293
L70502 76265
L70530 76237
L70559 76181
L70559 76124
L70530 76068
L70502 76040
L70446 76012
L70334 75984
L70277 75956
L70249 75928
L70221 75871
L70221 75815
L70249 75759
L70277 75731
L70334 75703
L70474 75703
L70559 75731
" />
<path d="M70812 76293
L70812 75899
" />
<path d="M70812 75703
L70784 75731
L70812 75759
L70840 75731
L70812 75703
L70812 75759
" />
<path d="M71037 75899
L71346 75899
L71037 76293
L71346 76293
" />
<path d="M71796 76265
L71740 76293
L71627 76293
L71571 76265
L71543 76209
L71543 75984
L71571 75928
L71627 75899
L71740 75899
L71796 75928
L71824 75984
L71824 76040
L71543 76096
" />
<path d="M72077 76237
L72105 76265
L72077 76293
L72049 76265
L72077 76237
L72077 76293
" />
<path d="M72077 75928
L72105 75956
L72077 75984
L72049 75956
L72077 75928
L72077 75984
" />
<path d="M72780 76124
L73061 76124
" />
<path d="M72724 76293
L72921 75703
L73118 76293
" />
<path d="M73568 75899
L73568 76293
" />
<path d="M73427 75674
L73286 76096
L73652 76096
" />
</g>
<g style="fill:#000000; fill-opacity:0.0; 
stroke:#000000; stroke-width:39.3701; stroke-opacity:1; 
stroke-linecap:round; stroke-linejoin:round;">
</g>
<g style="fill:#000000; fill-opacity:0.0; 
stroke:#000000; stroke-width:59.0551; stroke-opacity:1; 
stroke-linecap:round; stroke-linejoin:round;">
<text x="103544" y="77424.1"
textLength="3349.27" font-size="787.402" lengthAdjust="spacingAndGlyphs"
text-anchor="start" opacity="0">Id: 1/1</text>
<path d="M103714 77395
L103714 76805
" />
<path d="M104248 77395
L104248 76805
" />
<path d="M104248 77367
L104192 77395
L104079 77395
L104023 77367
L103995 77339
L103967 77283
L103967 77114
L103995 77058
L104023 77030
L104079 77002
L104192 77002
L104248 77030
" />
<path d="M104529 77339
L104557 77367
L104529 77395
L104501 77367
L104529 77339
L104529 77395
" />
<path d="M104529 77030
L104557 77058
L104529 77086
L104501 77058
L104529 77030
L104529 77086
" />
<path d="M105570 77395
L105232 77395
" />
<path d="M105401 77395
L105401 76805
L105345 76889
L105289 76946
L105232 76974
" />
<path d="M106245 76777
L105739 77536
" />
<path d="M106751 77395
L106413 77395
" />
<path d="M106582 77395
L106582 76805
L106526 76889
L106470 76946
L106413 76974
" />
</g>
<g style="fill:#000000; fill-opacity:0.0; 
stroke:#000000; stroke-width:39.3701; stroke-opacity:1; 
stroke-linecap:round; stroke-linejoin:round;">
</g>
<g style="fill:#000000; fill-opacity:0.0; 
stroke:#000000; stroke-width:59.0551; stroke-opacity:1; 
stroke-linecap:round; stroke-linejoin:round;">
<path d="M69685 73821
L112205 73821
" />
</g>
<g style="fill:#000000; fill-opacity:0.0; 
stroke:#000000; stroke-width:39.3701; stroke-opacity:1; 
stroke-linecap:round; stroke-linejoin:round;">
</g>
<g style="fill:#000000; fill-opacity:0.0; 
stroke:#000000; stroke-width:157.48; stroke-opacity:1; 
stroke-linecap:round; stroke-linejoin:round;">
<text x="70079.6" y="74924.1"
textLength="3701.14" font-size="1049.87" lengthAdjust="spacingAndGlyphs"
text-anchor="start" opacity="0">Title: </text>
<path d="M70360 74099
L70810 74099
" />
<path d="M70486 74886
L70585 74099
" />
<path d="M70974 74886
L71039 74361
" />
<path d="M71072 74099
L71030 74136
L71063 74174
L71105 74136
L71072 74099
L71063 74174
" />
<path d="M71302 74361
L71602 74361
" />
<path d="M71447 74099
L71363 74774
L71391 74849
L71461 74886
L71536 74886
" />
<path d="M71911 74886
L71841 74849
L71813 74774
L71897 74099
" />
<path d="M72516 74849
L72436 74886
L72286 74886
L72216 74849
L72187 74774
L72225 74474
L72272 74399
L72352 74361
L72501 74361
L72572 74399
L72600 74474
L72591 74549
L72206 74624
" />
<path d="M72895 74811
L72928 74849
L72886 74886
L72853 74849
L72895 74811
L72886 74886
" />
<path d="M72947 74399
L72980 74436
L72937 74474
L72905 74436
L72947 74399
L72937 74474
" />
</g>
<g style="fill:#000000; fill-opacity:0.0; 
stroke:#000000; stroke-width:39.3701; stroke-opacity:1; 
stroke-linecap:round; stroke-linejoin:round;">
</g>
<g style="fill:#000000; fill-opacity:0.0; 
stroke:#000000; stroke-width:59.0551; stroke-opacity:1; 
stroke-linecap:round; stroke-linejoin:round;">
<text x="70079.6" y="73408.3"
textLength="18258.7" font-size="787.402" lengthAdjust="spacingAndGlyphs"
text-anchor="start" opacity="0">File: Universal Controller Mk1.kicad_pcb</text>
<path d="M70446 73070
L70249 73070
" />
<path d="M70249 73380
L70249 72789
L70530 72789
" />
<path d="M70755 73380
L70755 72986
" />
<path d="M70755 72789
L70727 72817
L70755 72845
L70784 72817
L70755 72789
L70755 72845
" />
<path d="M71121 73380
L71065 73352
L71037 73295
L71037 72789
" />
<path d="M71571 73352
L71515 73380
L71402 73380
L71346 73352
L71318 73295
L71318 73070
L71346 73014
L71402 72986
L71515 72986
L71571 73014
L71599 73070
L71599 73127
L71318 73183
" />
<path d="M71852 73323
L71880 73352
L71852 73380
L71824 73352
L71852 73323
L71852 73380
" />
<path d="M71852 73014
L71880 73042
L71852 73070
L71824 73042
L71852 73014
L71852 73070
" />
<path d="M72583 72789
L72583 73267
L72611 73323
L72640 73352
L72696 73380
L72808 73380
L72865 73352
L72893 73323
L72921 73267
L72921 72789
" />
<path d="M73202 72986
L73202 73380
" />
<path d="M73202 73042
L73230 73014
L73286 72986
L73371 72986
L73427 73014
L73455 73070
L73455 73380
" />
<path d="M73736 73380
L73736 72986
" />
<path d="M73736 72789
L73708 72817
L73736 72845
L73764 72817
L73736 72789
L73736 72845
" />
<path d="M73961 72986
L74102 73380
L74242 72986
" />
<path d="M74692 73352
L74636 73380
L74524 73380
L74467 73352
L74439 73295
L74439 73070
L74467 73014
L74524 72986
L74636 72986
L74692 73014
L74721 73070
L74721 73127
L74439 73183
" />
<path d="M74974 73380
L74974 72986
" />
<path d="M74974 73099
L75002 73042
L75030 73014
L75086 72986
L75142 72986
" />
<path d="M75311 73352
L75367 73380
L75480 73380
L75536 73352
L75564 73295
L75564 73267
L75536 73211
L75480 73183
L75395 73183
L75339 73155
L75311 73099
L75311 73070
L75339 73014
L75395 72986
L75480 72986
L75536 73014
" />
<path d="M76070 73380
L76070 73070
L76042 73014
L75986 72986
L75874 72986
L75817 73014
" />
<path d="M76070 73352
L76014 73380
L75874 73380
L75817 73352
L75789 73295
L75789 73239
L75817 73183
L75874 73155
L76014 73155
L76070 73127
" />
<path d="M76436 73380
L76380 73352
L76352 73295
L76352 72789
" />
<path d="M77448 73323
L77420 73352
L77336 73380
L77280 73380
L77195 73352
L77139 73295
L77111 73239
L77083 73127
L77083 73042
L77111 72930
L77139 72874
L77195 72817
L77280 72789
L77336 72789
L77420 72817
L77448 72845
" />
<path d="M77786 73380
L77730 73352
L77701 73323
L77673 73267
L77673 73099
L77701 73042
L77730 73014
L77786 72986
L77870 72986
L77926 73014
L77955 73042
L77983 73099
L77983 73267
L77955 73323
L77926 73352
L77870 73380
L77786 73380
" />
<path d="M78236 72986
L78236 73380
" />
<path d="M78236 73042
L78264 73014
L78320 72986
L78404 72986
L78461 73014
L78489 73070
L78489 73380
" />
<path d="M78686 72986
L78911 72986
" />
<path d="M78770 72789
L78770 73295
L78798 73352
L78854 73380
L78911 73380
" />
<path d="M79108 73380
L79108 72986
" />
<path d="M79108 73099
L79136 73042
L79164 73014
L79220 72986
L79276 72986
" />
<path d="M79557 73380
L79501 73352
L79473 73323
L79445 73267
L79445 73099
L79473 73042
L79501 73014
L79557 72986
L79642 72986
L79698 73014
L79726 73042
L79754 73099
L79754 73267
L79726 73323
L79698 73352
L79642 73380
L79557 73380
" />
<path d="M80092 73380
L80036 73352
L80007 73295
L80007 72789
" />
<path d="M80401 73380
L80345 73352
L80317 73295
L80317 72789
" />
<path d="M80851 73352
L80795 73380
L80682 73380
L80626 73352
L80598 73295
L80598 73070
L80626 73014
L80682 72986
L80795 72986
L80851 73014
L80879 73070
L80879 73127
L80598 73183
" />
<path d="M81132 73380
L81132 72986
" />
<path d="M81132 73099
L81160 73042
L81188 73014
L81245 72986
L81301 72986
" />
<path d="M81948 73380
L81948 72789
L82145 73211
L82341 72789
L82341 73380
" />
<path d="M82623 73380
L82623 72789
" />
<path d="M82679 73155
L82848 73380
" />
<path d="M82848 72986
L82623 73211
" />
<path d="M83410 73380
L83073 73380
" />
<path d="M83241 73380
L83241 72789
L83185 72874
L83129 72930
L83073 72958
" />
<path d="M83663 73323
L83691 73352
L83663 73380
L83635 73352
L83663 73323
L83663 73380
" />
<path d="M83944 73380
L83944 72789
" />
<path d="M84001 73155
L84169 73380
" />
<path d="M84169 72986
L83944 73211
" />
<path d="M84422 73380
L84422 72986
" />
<path d="M84422 72789
L84394 72817
L84422 72845
L84451 72817
L84422 72789
L84422 72845
" />
<path d="M84957 73352
L84901 73380
L84788 73380
L84732 73352
L84704 73323
L84676 73267
L84676 73099
L84704 73042
L84732 73014
L84788 72986
L84901 72986
L84957 73014
" />
<path d="M85463 73380
L85463 73070
L85435 73014
L85379 72986
L85266 72986
L85210 73014
" />
<path d="M85463 73352
L85407 73380
L85266 73380
L85210 73352
L85182 73295
L85182 73239
L85210 73183
L85266 73155
L85407 73155
L85463 73127
" />
<path d="M85997 73380
L85997 72789
" />
<path d="M85997 73352
L85941 73380
L85829 73380
L85772 73352
L85744 73323
L85716 73267
L85716 73099
L85744 73042
L85772 73014
L85829 72986
L85941 72986
L85997 73014
" />
<path d="M86138 73436
L86588 73436
" />
<path d="M86728 72986
L86728 73577
" />
<path d="M86728 73014
L86785 72986
L86897 72986
L86953 73014
L86982 73042
L87010 73099
L87010 73267
L86982 73323
L86953 73352
L86897 73380
L86785 73380
L86728 73352
" />
<path d="M87516 73352
L87460 73380
L87347 73380
L87291 73352
L87263 73323
L87235 73267
L87235 73099
L87263 73042
L87291 73014
L87347 72986
L87460 72986
L87516 73014
" />
<path d="M87769 73380
L87769 72789
" />
<path d="M87769 73014
L87825 72986
L87938 72986
L87994 73014
L88022 73042
L88050 73099
L88050 73267
L88022 73323
L87994 73352
L87938 73380
L87825 73380
L87769 73352
" />
</g>
<g style="fill:#000000; fill-opacity:0.0; 
stroke:#000000; stroke-width:39.3701; stroke-opacity:1; 
stroke-linecap:round; stroke-linejoin:round;">
</g>
<g style="fill:#000000; fill-opacity:0.0; 
stroke:#000000; stroke-width:59.0551; stroke-opacity:1; 
stroke-linecap:round; stroke-linejoin:round;">
<path d="M69685 71459
L112205 71459
" />
</g>
<g style="fill:#000000; fill-opacity:0.0; 
stroke:#000000; stroke-width:39.3701; stroke-opacity:1; 
stroke-linecap:round; stroke-linejoin:round;">
</g>
<g style="fill:#000000; fill-opacity:0.0; 
stroke:#000000; stroke-width:59.0551; stroke-opacity:1; 
stroke-linecap:round; stroke-linejoin:round;">
<text x="70079.6" y="72345.4"
textLength="3236.78" font-size="787.402" lengthAdjust="spacingAndGlyphs"
text-anchor="start" opacity="0">Sheet: </text>
<path d="M70221 72289
L70305 72317
L70446 72317
L70502 72289
L70530 72260
L70559 72204
L70559 72148
L70530 72092
L70502 72064
L70446 72036
L70334 72007
L70277 71979
L70249 71951
L70221 71895
L70221 71839
L70249 71782
L70277 71754
L70334 71726
L70474 71726
L70559 71754
" />
<path d="M70812 72317
L70812 71726
" />
<path d="M71065 72317
L71065 72007
L71037 71951
L70980 71923
L70896 71923
L70840 71951
L70812 71979
" />
<path d="M71571 72289
L71515 72317
L71402 72317
L71346 72289
L71318 72232
L71318 72007
L71346 71951
L71402 71923
L71515 71923
L71571 71951
L71599 72007
L71599 72064
L71318 72120
" />
<path d="M72077 72289
L72021 72317
L71908 72317
L71852 72289
L71824 72232
L71824 72007
L71852 71951
L71908 71923
L72021 71923
L72077 71951
L72105 72007
L72105 72064
L71824 72120
" />
<path d="M72274 71923
L72499 71923
" />
<path d="M72358 71726
L72358 72232
L72386 72289
L72443 72317
L72499 72317
" />
<path d="M72696 72260
L72724 72289
L72696 72317
L72668 72289
L72696 72260
L72696 72317
" />
<path d="M72696 71951
L72724 71979
L72696 72007
L72668 71979
L72696 71951
L72696 72007
" />
</g>
<g style="fill:#000000; fill-opacity:0.0; 
stroke:#000000; stroke-width:39.3701; stroke-opacity:1; 
stroke-linecap:round; stroke-linejoin:round;">
</g>
<g style="fill:#000000; fill-opacity:0.0; 
stroke:#000000; stroke-width:59.0551; stroke-opacity:1; 
stroke-linecap:round; stroke-linejoin:round;">
<path d="M77559 75396
L77559 76577
" />
</g>
<g style="fill:#000000; fill-opacity:0.0; 
stroke:#000000; stroke-width:39.3701; stroke-opacity:1; 
stroke-linecap:round; stroke-linejoin:round;">
</g>
<g style="fill:#000000; fill-opacity:0.0; 
stroke:#000000; stroke-width:59.0551; stroke-opacity:1; 
stroke-linecap:round; stroke-linejoin:round;">
<path d="M102756 75396
L102756 77955
" />
</g>
<g style="fill:#008484; fill-opacity:0.0; 
stroke:#008484; stroke-width:59.0551; stroke-opacity:1; 
stroke-linecap:round; stroke-linejoin:round;">
<text x="56250" y="23446.9"
textLength="1540.12" font-size="524.934" lengthAdjust="spacingAndGlyphs"
text-anchor="middle" opacity="0">OLED</text>
<path d="M55678 23034
L55753 23034
L55790 23053
L55828 23090
L55846 23165
L55846 23296
L55828 23371
L55790 23409
L55753 23428
L55678 23428
L55640 23409
L55603 23371
L55584 23296
L55584 23165
L55603 23090
L55640 23053
L55678 23034
" />
<path d="M56203 23428
L56015 23428
L56015 23034
" />
<path d="M56334 23221
L56465 23221
" />
<path d="M56521 23428
L56334 23428
L56334 23034
L56521 23034
" />
<path d="M56690 23428
L56690 23034
L56784 23034
L56840 23053
L56878 23090
L56896 23128
L56915 23203
L56915 23259
L56896 23334
L56878 23371
L56840 23409
L56784 23428
L56690 23428
" />
<g transform="rotate(-90 32500 29500)">
<text x="32500" y="29696.9"
textLength="6938.41" font-size="524.934" lengthAdjust="spacingAndGlyphs"
text-anchor="middle" opacity="0">Arduino Nano Breakout</text>
</g>
<path d="M32565 32855
L32565 32668
" />
<path d="M32678 32893
L32284 32762
L32678 32630
" />
<path d="M32678 32499
L32415 32499
" />
<path d="M32490 32499
L32453 32480
L32434 32462
L32415 32424
L32415 32387
" />
<path d="M32678 32087
L32284 32087
" />
<path d="M32659 32087
L32678 32124
L32678 32199
L32659 32237
L32640 32255
L32603 32274
L32490 32274
L32453 32255
L32434 32237
L32415 32199
L32415 32124
L32434 32087
" />
<path d="M32415 31730
L32678 31730
" />
<path d="M32415 31899
L32621 31899
L32659 31880
L32678 31843
L32678 31787
L32659 31749
L32640 31730
" />
<path d="M32678 31543
L32415 31543
" />
<path d="M32284 31543
L32303 31562
L32321 31543
L32303 31524
L32284 31543
L32321 31543
" />
<path d="M32415 31356
L32678 31356
" />
<path d="M32453 31356
L32434 31337
L32415 31299
L32415 31243
L32434 31206
L32471 31187
L32678 31187
" />
<path d="M32678 30943
L32659 30981
L32640 30999
L32603 31018
L32490 31018
L32453 30999
L32434 30981
L32415 30943
L32415 30887
L32434 30849
L32453 30831
L32490 30812
L32603 30812
L32640 30831
L32659 30849
L32678 30887
L32678 30943
" />
<path d="M32678 30343
L32284 30343
L32678 30118
L32284 30118
" />
<path d="M32678 29762
L32471 29762
L32434 29781
L32415 29818
L32415 29893
L32434 29931
" />
<path d="M32659 29762
L32678 29799
L32678 29893
L32659 29931
L32621 29949
L32584 29949
L32546 29931
L32528 29893
L32528 29799
L32509 29762
" />
<path d="M32415 29574
L32678 29574
" />
<path d="M32453 29574
L32434 29556
L32415 29518
L32415 29462
L32434 29425
L32471 29406
L32678 29406
" />
<path d="M32678 29162
L32659 29200
L32640 29218
L32603 29237
L32490 29237
L32453 29218
L32434 29200
L32415 29162
L32415 29106
L32434 29068
L32453 29050
L32490 29031
L32603 29031
L32640 29050
L32659 29068
L32678 29106
L32678 29162
" />
<path d="M32471 28431
L32490 28375
L32509 28356
L32546 28337
L32603 28337
L32640 28356
L32659 28375
L32678 28412
L32678 28562
L32284 28562
L32284 28431
L32303 28393
L32321 28375
L32359 28356
L32396 28356
L32434 28375
L32453 28393
L32471 28431
L32471 28562
" />
<path d="M32678 28168
L32415 28168
" />
<path d="M32490 28168
L32453 28150
L32434 28131
L32415 28093
L32415 28056
" />
<path d="M32659 27775
L32678 27812
L32678 27887
L32659 27925
L32621 27943
L32471 27943
L32434 27925
L32415 27887
L32415 27812
L32434 27775
L32471 27756
L32509 27756
L32546 27943
" />
<path d="M32678 27419
L32471 27419
L32434 27437
L32415 27475
L32415 27550
L32434 27587
" />
<path d="M32659 27419
L32678 27456
L32678 27550
L32659 27587
L32621 27606
L32584 27606
L32546 27587
L32528 27550
L32528 27456
L32509 27419
" />
<path d="M32678 27231
L32284 27231
" />
<path d="M32528 27194
L32678 27081
" />
<path d="M32415 27081
L32565 27231
" />
<path d="M32678 26856
L32659 26894
L32640 26912
L32603 26931
L32490 26931
L32453 26912
L32434 26894
L32415 26856
L32415 26800
L32434 26762
L32453 26744
L32490 26725
L32603 26725
L32640 26744
L32659 26762
L32678 26800
L32678 26856
" />
<path d="M32415 26387
L32678 26387
" />
<path d="M32415 26556
L32621 26556
L32659 26537
L32678 26500
L32678 26444
L32659 26406
L32640 26387
" />
<path d="M32415 26256
L32415 26106
" />
<path d="M32284 26200
L32621 26200
L32659 26181
L32678 26144
L32678 26106
" />
<text x="53750" y="20946.9"
textLength="1276.62" font-size="524.934" lengthAdjust="spacingAndGlyphs"
text-anchor="middle" opacity="0">GND</text>
<path d="M53450 20553
L53412 20534
L53356 20534
L53300 20553
L53262 20590
L53243 20628
L53225 20703
L53225 20759
L53243 20834
L53262 20871
L53300 20909
L53356 20928
L53393 20928
L53450 20909
L53468 20890
L53468 20759
L53393 20759
" />
<path d="M53637 20928
L53637 20534
L53862 20928
L53862 20534
" />
<path d="M54049 20928
L54049 20534
L54143 20534
L54199 20553
L54237 20590
L54256 20628
L54274 20703
L54274 20759
L54256 20834
L54237 20871
L54199 20909
L54143 20928
L54049 20928
" />
<text x="54500" y="22446.9"
textLength="1276.62" font-size="524.934" lengthAdjust="spacingAndGlyphs"
text-anchor="middle" opacity="0">+5V</text>
<path d="M53993 22278
L54293 22278
" />
<path d="M54143 22428
L54143 22128
" />
<path d="M54668 22034
L54481 22034
L54462 22221
L54481 22203
L54518 22184
L54612 22184
L54649 22203
L54668 22221
L54687 22259
L54687 22353
L54668 22390
L54649 22409
L54612 22428
L54518 22428
L54481 22409
L54462 22390
" />
<path d="M54799 22034
L54931 22428
L55062 22034
" />
<text x="55250" y="30196.9"
textLength="1285.05" font-size="524.934" lengthAdjust="spacingAndGlyphs"
text-anchor="middle" opacity="0">002</text>
<path d="M54866 29784
L54903 29784
L54938 29803
L54955 29821
L54969 29859
L54978 29934
L54966 30028
L54938 30103
L54915 30140
L54894 30159
L54854 30178
L54816 30178
L54781 30159
L54765 30140
L54751 30103
L54741 30028
L54753 29934
L54781 29859
L54805 29821
L54826 29803
L54866 29784
" />
<path d="M55241 29784
L55278 29784
L55313 29803
L55330 29821
L55344 29859
L55353 29934
L55341 30028
L55313 30103
L55290 30140
L55269 30159
L55229 30178
L55191 30178
L55156 30159
L55140 30140
L55126 30103
L55116 30028
L55128 29934
L55156 29859
L55180 29821
L55201 29803
L55241 29784
" />
<path d="M55517 29821
L55538 29803
L55578 29784
L55672 29784
L55707 29803
L55723 29821
L55737 29859
L55733 29896
L55707 29953
L55454 30178
L55698 30178
" />
<text x="55500" y="29446.9"
textLength="8306.99" font-size="524.934" lengthAdjust="spacingAndGlyphs"
text-anchor="middle" opacity="0">Ryan Williamson 17/12/20</text>
<path d="M51703 29428
L51572 29240
" />
<path d="M51478 29428
L51478 29034
L51628 29034
L51666 29053
L51684 29071
L51703 29109
L51703 29165
L51684 29203
L51666 29221
L51628 29240
L51478 29240
" />
<path d="M51834 29165
L51928 29428
" />
<path d="M52022 29165
L51928 29428
L51891 29521
L51872 29540
L51834 29559
" />
<path d="M52341 29428
L52341 29221
L52322 29184
L52284 29165
L52209 29165
L52172 29184
" />
<path d="M52341 29409
L52303 29428
L52209 29428
L52172 29409
L52153 29371
L52153 29334
L52172 29296
L52209 29278
L52303 29278
L52341 29259
" />
<path d="M52528 29165
L52528 29428
" />
<path d="M52528 29203
L52547 29184
L52584 29165
L52640 29165
L52678 29184
L52697 29221
L52697 29428
" />
<path d="M53147 29034
L53240 29428
L53315 29146
L53390 29428
L53484 29034
" />
<path d="M53634 29428
L53634 29165
" />
<path d="M53634 29034
L53615 29053
L53634 29071
L53653 29053
L53634 29034
L53634 29071
" />
<path d="M53878 29428
L53840 29409
L53822 29371
L53822 29034
" />
<path d="M54084 29428
L54047 29409
L54028 29371
L54028 29034
" />
<path d="M54234 29428
L54234 29165
" />
<path d="M54234 29034
L54215 29053
L54234 29071
L54253 29053
L54234 29034
L54234 29071
" />
<path d="M54590 29428
L54590 29221
L54571 29184
L54534 29165
L54459 29165
L54422 29184
" />
<path d="M54590 29409
L54553 29428
L54459 29428
L54422 29409
L54403 29371
L54403 29334
L54422 29296
L54459 29278
L54553 29278
L54590 29259
" />
<path d="M54778 29428
L54778 29165
" />
<path d="M54778 29203
L54796 29184
L54834 29165
L54890 29165
L54928 29184
L54946 29221
L54946 29428
" />
<path d="M54946 29221
L54965 29184
L55003 29165
L55059 29165
L55096 29184
L55115 29221
L55115 29428
" />
<path d="M55284 29409
L55321 29428
L55396 29428
L55434 29409
L55453 29371
L55453 29353
L55434 29315
L55396 29296
L55340 29296
L55303 29278
L55284 29240
L55284 29221
L55303 29184
L55340 29165
L55396 29165
L55434 29184
" />
<path d="M55678 29428
L55640 29409
L55621 29390
L55603 29353
L55603 29240
L55621 29203
L55640 29184
L55678 29165
L55734 29165
L55771 29184
L55790 29203
L55809 29240
L55809 29353
L55790 29390
L55771 29409
L55734 29428
L55678 29428
" />
<path d="M55978 29165
L55978 29428
" />
<path d="M55978 29203
L55996 29184
L56034 29165
L56090 29165
L56128 29184
L56146 29221
L56146 29428
" />
<path d="M56840 29428
L56615 29428
" />
<path d="M56727 29428
L56727 29034
L56690 29090
L56652 29128
L56615 29146
" />
<path d="M56971 29034
L57234 29034
L57065 29428
" />
<path d="M57665 29015
L57327 29521
" />
<path d="M58002 29428
L57777 29428
" />
<path d="M57890 29428
L57890 29034
L57852 29090
L57815 29128
L57777 29146
" />
<path d="M58152 29071
L58171 29053
L58209 29034
L58302 29034
L58340 29053
L58359 29071
L58377 29109
L58377 29146
L58359 29203
L58134 29428
L58377 29428
" />
<path d="M58827 29015
L58490 29521
" />
<path d="M58940 29071
L58958 29053
L58996 29034
L59090 29034
L59127 29053
L59146 29071
L59165 29109
L59165 29146
L59146 29203
L58921 29428
L59165 29428
" />
<path d="M59408 29034
L59446 29034
L59483 29053
L59502 29071
L59521 29109
L59540 29184
L59540 29278
L59521 29353
L59502 29390
L59483 29409
L59446 29428
L59408 29428
L59371 29409
L59352 29390
L59333 29353
L59315 29278
L59315 29184
L59333 29109
L59352 29071
L59371 29053
L59408 29034
" />
<text x="55500" y="28696.9"
textLength="8494.47" font-size="524.934" lengthAdjust="spacingAndGlyphs"
text-anchor="middle" opacity="0">Universal RF Controller Mk2</text>
<path d="M51384 28284
L51384 28603
L51403 28640
L51422 28659
L51459 28678
L51534 28678
L51572 28659
L51591 28640
L51609 28603
L51609 28284
" />
<path d="M51797 28415
L51797 28678
" />
<path d="M51797 28453
L51816 28434
L51853 28415
L51909 28415
L51947 28434
L51966 28471
L51966 28678
" />
<path d="M52153 28678
L52153 28415
" />
<path d="M52153 28284
L52134 28303
L52153 28321
L52172 28303
L52153 28284
L52153 28321
" />
<path d="M52303 28415
L52397 28678
L52491 28415
" />
<path d="M52790 28659
L52753 28678
L52678 28678
L52640 28659
L52622 28621
L52622 28471
L52640 28434
L52678 28415
L52753 28415
L52790 28434
L52809 28471
L52809 28509
L52622 28546
" />
<path d="M52978 28678
L52978 28415
" />
<path d="M52978 28490
L52997 28453
L53015 28434
L53053 28415
L53090 28415
" />
<path d="M53203 28659
L53240 28678
L53315 28678
L53353 28659
L53372 28621
L53372 28603
L53353 28565
L53315 28546
L53259 28546
L53222 28528
L53203 28490
L53203 28471
L53222 28434
L53259 28415
L53315 28415
L53353 28434
" />
<path d="M53709 28678
L53709 28471
L53690 28434
L53653 28415
L53578 28415
L53540 28434
" />
<path d="M53709 28659
L53672 28678
L53578 28678
L53540 28659
L53522 28621
L53522 28584
L53540 28546
L53578 28528
L53672 28528
L53709 28509
" />
<path d="M53953 28678
L53915 28659
L53897 28621
L53897 28284
" />
<path d="M54628 28678
L54497 28490
" />
<path d="M54403 28678
L54403 28284
L54553 28284
L54590 28303
L54609 28321
L54628 28359
L54628 28415
L54609 28453
L54590 28471
L54553 28490
L54403 28490
" />
<path d="M54928 28471
L54796 28471
" />
<path d="M54796 28678
L54796 28284
L54984 28284
" />
<path d="M55659 28640
L55640 28659
L55584 28678
L55546 28678
L55490 28659
L55453 28621
L55434 28584
L55415 28509
L55415 28453
L55434 28378
L55453 28340
L55490 28303
L55546 28284
L55584 28284
L55640 28303
L55659 28321
" />
<path d="M55884 28678
L55846 28659
L55828 28640
L55809 28603
L55809 28490
L55828 28453
L55846 28434
L55884 28415
L55940 28415
L55978 28434
L55996 28453
L56015 28490
L56015 28603
L55996 28640
L55978 28659
L55940 28678
L55884 28678
" />
<path d="M56184 28415
L56184 28678
" />
<path d="M56184 28453
L56203 28434
L56240 28415
L56296 28415
L56334 28434
L56353 28471
L56353 28678
" />
<path d="M56484 28415
L56634 28415
" />
<path d="M56540 28284
L56540 28621
L56559 28659
L56596 28678
L56634 28678
" />
<path d="M56765 28678
L56765 28415
" />
<path d="M56765 28490
L56784 28453
L56802 28434
L56840 28415
L56877 28415
" />
<path d="M57065 28678
L57027 28659
L57009 28640
L56990 28603
L56990 28490
L57009 28453
L57027 28434
L57065 28415
L57121 28415
L57159 28434
L57177 28453
L57196 28490
L57196 28603
L57177 28640
L57159 28659
L57121 28678
L57065 28678
" />
<path d="M57421 28678
L57384 28659
L57365 28621
L57365 28284
" />
<path d="M57627 28678
L57590 28659
L57571 28621
L57571 28284
" />
<path d="M57927 28659
L57890 28678
L57815 28678
L57777 28659
L57759 28621
L57759 28471
L57777 28434
L57815 28415
L57890 28415
L57927 28434
L57946 28471
L57946 28509
L57759 28546
" />
<path d="M58115 28678
L58115 28415
" />
<path d="M58115 28490
L58134 28453
L58152 28434
L58190 28415
L58227 28415
" />
<path d="M58658 28678
L58658 28284
L58790 28565
L58921 28284
L58921 28678
" />
<path d="M59108 28678
L59108 28284
" />
<path d="M59146 28528
L59258 28678
" />
<path d="M59258 28415
L59108 28565
" />
<path d="M59408 28321
L59427 28303
L59465 28284
L59558 28284
L59596 28303
L59615 28321
L59633 28359
L59633 28396
L59615 28453
L59390 28678
L59633 28678
" />
<text x="41520" y="23876.9"
textLength="5926.04" font-size="524.934" lengthAdjust="spacingAndGlyphs"
text-anchor="middle" opacity="0">NRF24L01 Breakout</text>
<path d="M38689 23858
L38689 23464
L38914 23858
L38914 23464
" />
<path d="M39326 23858
L39195 23670
" />
<path d="M39101 23858
L39101 23464
L39251 23464
L39289 23483
L39307 23501
L39326 23539
L39326 23595
L39307 23633
L39289 23651
L39251 23670
L39101 23670
" />
<path d="M39626 23651
L39495 23651
" />
<path d="M39495 23858
L39495 23464
L39682 23464
" />
<path d="M39813 23501
L39832 23483
L39870 23464
L39963 23464
L40001 23483
L40020 23501
L40038 23539
L40038 23576
L40020 23633
L39795 23858
L40038 23858
" />
<path d="M40376 23595
L40376 23858
" />
<path d="M40282 23445
L40188 23726
L40432 23726
" />
<path d="M40770 23858
L40582 23858
L40582 23464
" />
<path d="M40976 23464
L41013 23464
L41051 23483
L41070 23501
L41088 23539
L41107 23614
L41107 23708
L41088 23783
L41070 23820
L41051 23839
L41013 23858
L40976 23858
L40938 23839
L40920 23820
L40901 23783
L40882 23708
L40882 23614
L40901 23539
L40920 23501
L40938 23483
L40976 23464
" />
<path d="M41482 23858
L41257 23858
" />
<path d="M41370 23858
L41370 23464
L41332 23520
L41295 23558
L41257 23576
" />
<path d="M42082 23651
L42138 23670
L42157 23689
L42176 23726
L42176 23783
L42157 23820
L42138 23839
L42101 23858
L41951 23858
L41951 23464
L42082 23464
L42119 23483
L42138 23501
L42157 23539
L42157 23576
L42138 23614
L42119 23633
L42082 23651
L41951 23651
" />
<path d="M42344 23858
L42344 23595
" />
<path d="M42344 23670
L42363 23633
L42382 23614
L42419 23595
L42457 23595
" />
<path d="M42738 23839
L42701 23858
L42626 23858
L42588 23839
L42569 23801
L42569 23651
L42588 23614
L42626 23595
L42701 23595
L42738 23614
L42757 23651
L42757 23689
L42569 23726
" />
<path d="M43094 23858
L43094 23651
L43076 23614
L43038 23595
L42963 23595
L42926 23614
" />
<path d="M43094 23839
L43057 23858
L42963 23858
L42926 23839
L42907 23801
L42907 23764
L42926 23726
L42963 23708
L43057 23708
L43094 23689
" />
<path d="M43282 23858
L43282 23464
" />
<path d="M43319 23708
L43432 23858
" />
<path d="M43432 23595
L43282 23745
" />
<path d="M43657 23858
L43619 23839
L43600 23820
L43582 23783
L43582 23670
L43600 23633
L43619 23614
L43657 23595
L43713 23595
L43750 23614
L43769 23633
L43788 23670
L43788 23783
L43769 23820
L43750 23839
L43713 23858
L43657 23858
" />
<path d="M44125 23595
L44125 23858
" />
<path d="M43957 23595
L43957 23801
L43975 23839
L44013 23858
L44069 23858
L44107 23839
L44125 23820
" />
<path d="M44257 23595
L44407 23595
" />
<path d="M44313 23464
L44313 23801
L44332 23839
L44369 23858
L44407 23858
" />
<g transform="rotate(-90 48540 21540)">
<text x="48540" y="21736.9"
textLength="1520.34" font-size="524.934" lengthAdjust="spacingAndGlyphs"
text-anchor="middle" opacity="0">10uF</text>
</g>
<path d="M48718 21961
L48718 22186
" />
<path d="M48718 22074
L48324 22074
L48380 22111
L48418 22149
L48436 22186
" />
<path d="M48324 21718
L48324 21680
L48343 21643
L48361 21624
L48399 21605
L48474 21586
L48568 21586
L48643 21605
L48680 21624
L48699 21643
L48718 21680
L48718 21718
L48699 21755
L48680 21774
L48643 21793
L48568 21811
L48474 21811
L48399 21793
L48361 21774
L48343 21755
L48324 21718
" />
<path d="M48455 21249
L48718 21249
" />
<path d="M48455 21418
L48661 21418
L48699 21399
L48718 21361
L48718 21305
L48699 21268
L48680 21249
" />
<path d="M48511 20930
L48511 21061
" />
<path d="M48718 21061
L48324 21061
L48324 20874
" />
<text x="56420" y="39776.9"
textLength="957.911" font-size="524.934" lengthAdjust="spacingAndGlyphs"
text-anchor="middle" opacity="0">Vin</text>
<path d="M56016 39364
L56148 39758
L56279 39364
" />
<path d="M56410 39758
L56410 39495
" />
<path d="M56410 39364
L56391 39383
L56410 39401
L56429 39383
L56410 39364
L56410 39401
" />
<path d="M56598 39495
L56598 39758
" />
<path d="M56598 39533
L56616 39514
L56654 39495
L56710 39495
L56748 39514
L56766 39551
L56766 39758
" />
<text x="69250" y="21366.9"
textLength="1895.29" font-size="524.934" lengthAdjust="spacingAndGlyphs"
text-anchor="middle" opacity="0">200nF</text>
<path d="M68415 20991
L68434 20973
L68471 20954
L68565 20954
L68603 20973
L68621 20991
L68640 21029
L68640 21066
L68621 21123
L68396 21348
L68640 21348
" />
<path d="M68884 20954
L68921 20954
L68959 20973
L68978 20991
L68996 21029
L69015 21104
L69015 21198
L68996 21273
L68978 21310
L68959 21329
L68921 21348
L68884 21348
L68846 21329
L68828 21310
L68809 21273
L68790 21198
L68790 21104
L68809 21029
L68828 20991
L68846 20973
L68884 20954
" />
<path d="M69259 20954
L69296 20954
L69334 20973
L69353 20991
L69371 21029
L69390 21104
L69390 21198
L69371 21273
L69353 21310
L69334 21329
L69296 21348
L69259 21348
L69221 21329
L69203 21310
L69184 21273
L69165 21198
L69165 21104
L69184 21029
L69203 20991
L69221 20973
L69259 20954
" />
<path d="M69559 21085
L69559 21348
" />
<path d="M69559 21123
L69578 21104
L69615 21085
L69671 21085
L69709 21104
L69728 21141
L69728 21348
" />
<path d="M70046 21141
L69915 21141
" />
<path d="M69915 21348
L69915 20954
L70103 20954
" />
<text x="78980" y="43776.9"
textLength="1895.29" font-size="524.934" lengthAdjust="spacingAndGlyphs"
text-anchor="middle" opacity="0">200nF</text>
<path d="M78145 43401
L78164 43383
L78201 43364
L78295 43364
L78333 43383
L78351 43401
L78370 43439
L78370 43476
L78351 43533
L78126 43758
L78370 43758
" />
<path d="M78614 43364
L78651 43364
L78689 43383
L78708 43401
L78726 43439
L78745 43514
L78745 43608
L78726 43683
L78708 43720
L78689 43739
L78651 43758
L78614 43758
L78576 43739
L78558 43720
L78539 43683
L78520 43608
L78520 43514
L78539 43439
L78558 43401
L78576 43383
L78614 43364
" />
<path d="M78989 43364
L79026 43364
L79064 43383
L79083 43401
L79101 43439
L79120 43514
L79120 43608
L79101 43683
L79083 43720
L79064 43739
L79026 43758
L78989 43758
L78951 43739
L78933 43720
L78914 43683
L78895 43608
L78895 43514
L78914 43439
L78933 43401
L78951 43383
L78989 43364
" />
<path d="M79289 43495
L79289 43758
" />
<path d="M79289 43533
L79308 43514
L79345 43495
L79401 43495
L79439 43514
L79458 43551
L79458 43758
" />
<path d="M79776 43551
L79645 43551
" />
<path d="M79645 43758
L79645 43364
L79833 43364
" />
<text x="75290" y="20766.9"
textLength="4594.96" font-size="524.934" lengthAdjust="spacingAndGlyphs"
text-anchor="middle" opacity="0">Rotary Encoder</text>
<path d="M73349 20748
L73218 20560
" />
<path d="M73124 20748
L73124 20354
L73274 20354
L73312 20373
L73330 20391
L73349 20429
L73349 20485
L73330 20523
L73312 20541
L73274 20560
L73124 20560
" />
<path d="M73574 20748
L73537 20729
L73518 20710
L73499 20673
L73499 20560
L73518 20523
L73537 20504
L73574 20485
L73630 20485
L73668 20504
L73687 20523
L73705 20560
L73705 20673
L73687 20710
L73668 20729
L73630 20748
L73574 20748
" />
<path d="M73818 20485
L73968 20485
" />
<path d="M73874 20354
L73874 20691
L73893 20729
L73930 20748
L73968 20748
" />
<path d="M74268 20748
L74268 20541
L74249 20504
L74212 20485
L74137 20485
L74099 20504
" />
<path d="M74268 20729
L74230 20748
L74137 20748
L74099 20729
L74080 20691
L74080 20654
L74099 20616
L74137 20598
L74230 20598
L74268 20579
" />
<path d="M74455 20748
L74455 20485
" />
<path d="M74455 20560
L74474 20523
L74493 20504
L74530 20485
L74568 20485
" />
<path d="M74661 20485
L74755 20748
" />
<path d="M74849 20485
L74755 20748
L74718 20841
L74699 20860
L74661 20879
" />
<path d="M75299 20541
L75430 20541
" />
<path d="M75486 20748
L75299 20748
L75299 20354
L75486 20354
" />
<path d="M75655 20485
L75655 20748
" />
<path d="M75655 20523
L75674 20504
L75711 20485
L75768 20485
L75805 20504
L75824 20541
L75824 20748
" />
<path d="M76180 20729
L76143 20748
L76068 20748
L76030 20729
L76011 20710
L75993 20673
L75993 20560
L76011 20523
L76030 20504
L76068 20485
L76143 20485
L76180 20504
" />
<path d="M76405 20748
L76367 20729
L76349 20710
L76330 20673
L76330 20560
L76349 20523
L76367 20504
L76405 20485
L76461 20485
L76499 20504
L76517 20523
L76536 20560
L76536 20673
L76517 20710
L76499 20729
L76461 20748
L76405 20748
" />
<path d="M76874 20748
L76874 20354
" />
<path d="M76874 20729
L76836 20748
L76761 20748
L76724 20729
L76705 20710
L76686 20673
L76686 20560
L76705 20523
L76724 20504
L76761 20485
L76836 20485
L76874 20504
" />
<path d="M77211 20729
L77174 20748
L77099 20748
L77061 20729
L77042 20691
L77042 20541
L77061 20504
L77099 20485
L77174 20485
L77211 20504
L77230 20541
L77230 20579
L77042 20616
" />
<path d="M77399 20748
L77399 20485
" />
<path d="M77399 20560
L77417 20523
L77436 20504
L77474 20485
L77511 20485
" />
<text x="67660" y="43836.9"
textLength="2420.23" font-size="524.934" lengthAdjust="spacingAndGlyphs"
text-anchor="middle" opacity="0">Joystick</text>
<path d="M66694 43424
L66694 43705
L66675 43761
L66638 43799
L66582 43818
L66544 43818
" />
<path d="M66938 43818
L66900 43799
L66881 43780
L66863 43743
L66863 43630
L66881 43593
L66900 43574
L66938 43555
L66994 43555
L67031 43574
L67050 43593
L67069 43630
L67069 43743
L67050 43780
L67031 43799
L66994 43818
L66938 43818
" />
<path d="M67200 43555
L67294 43818
" />
<path d="M67388 43555
L67294 43818
L67256 43911
L67238 43930
L67200 43949
" />
<path d="M67519 43799
L67556 43818
L67631 43818
L67669 43799
L67688 43761
L67688 43743
L67669 43705
L67631 43686
L67575 43686
L67538 43668
L67519 43630
L67519 43611
L67538 43574
L67575 43555
L67631 43555
L67669 43574
" />
<path d="M67800 43555
L67950 43555
" />
<path d="M67856 43424
L67856 43761
L67875 43799
L67913 43818
L67950 43818
" />
<path d="M68081 43818
L68081 43555
" />
<path d="M68081 43424
L68063 43443
L68081 43461
L68100 43443
L68081 43424
L68081 43461
" />
<path d="M68438 43799
L68400 43818
L68325 43818
L68288 43799
L68269 43780
L68250 43743
L68250 43630
L68269 43593
L68288 43574
L68325 43555
L68400 43555
L68438 43574
" />
<path d="M68606 43818
L68606 43424
" />
<path d="M68644 43668
L68756 43818
" />
<path d="M68756 43555
L68606 43705
" />
<text x="45960" y="43976.9"
textLength="2420.23" font-size="524.934" lengthAdjust="spacingAndGlyphs"
text-anchor="middle" opacity="0">Joystick</text>
<path d="M44994 43564
L44994 43845
L44975 43901
L44938 43939
L44882 43958
L44844 43958
" />
<path d="M45238 43958
L45200 43939
L45181 43920
L45163 43883
L45163 43770
L45181 43733
L45200 43714
L45238 43695
L45294 43695
L45331 43714
L45350 43733
L45369 43770
L45369 43883
L45350 43920
L45331 43939
L45294 43958
L45238 43958
" />
<path d="M45500 43695
L45594 43958
" />
<path d="M45688 43695
L45594 43958
L45556 44051
L45538 44070
L45500 44089
" />
<path d="M45819 43939
L45856 43958
L45931 43958
L45969 43939
L45988 43901
L45988 43883
L45969 43845
L45931 43826
L45875 43826
L45838 43808
L45819 43770
L45819 43751
L45838 43714
L45875 43695
L45931 43695
L45969 43714
" />
<path d="M46100 43695
L46250 43695
" />
<path d="M46156 43564
L46156 43901
L46175 43939
L46213 43958
L46250 43958
" />
<path d="M46381 43958
L46381 43695
" />
<path d="M46381 43564
L46363 43583
L46381 43601
L46400 43583
L46381 43564
L46381 43601
" />
<path d="M46738 43939
L46700 43958
L46625 43958
L46588 43939
L46569 43920
L46550 43883
L46550 43770
L46569 43733
L46588 43714
L46625 43695
L46700 43695
L46738 43714
" />
<path d="M46906 43958
L46906 43564
" />
<path d="M46944 43808
L47056 43958
" />
<path d="M47056 43695
L46906 43845
" />
<text x="33200" y="41776.9"
textLength="5719.82" font-size="524.934" lengthAdjust="spacingAndGlyphs"
text-anchor="middle" opacity="0">MPU6050 Breakout</text>
<path d="M30472 41758
L30472 41364
L30603 41645
L30734 41364
L30734 41758
" />
<path d="M30922 41758
L30922 41364
L31072 41364
L31109 41383
L31128 41401
L31147 41439
L31147 41495
L31128 41533
L31109 41551
L31072 41570
L30922 41570
" />
<path d="M31315 41364
L31315 41683
L31334 41720
L31353 41739
L31390 41758
L31465 41758
L31503 41739
L31522 41720
L31540 41683
L31540 41364
" />
<path d="M31897 41364
L31822 41364
L31784 41383
L31765 41401
L31728 41458
L31709 41533
L31709 41683
L31728 41720
L31747 41739
L31784 41758
L31859 41758
L31897 41739
L31915 41720
L31934 41683
L31934 41589
L31915 41551
L31897 41533
L31859 41514
L31784 41514
L31747 41533
L31728 41551
L31709 41589
" />
<path d="M32178 41364
L32215 41364
L32253 41383
L32271 41401
L32290 41439
L32309 41514
L32309 41608
L32290 41683
L32271 41720
L32253 41739
L32215 41758
L32178 41758
L32140 41739
L32122 41720
L32103 41683
L32084 41608
L32084 41514
L32103 41439
L32122 41401
L32140 41383
L32178 41364
" />
<path d="M32665 41364
L32478 41364
L32459 41551
L32478 41533
L32515 41514
L32609 41514
L32646 41533
L32665 41551
L32684 41589
L32684 41683
L32665 41720
L32646 41739
L32609 41758
L32515 41758
L32478 41739
L32459 41720
" />
<path d="M32928 41364
L32965 41364
L33003 41383
L33021 41401
L33040 41439
L33059 41514
L33059 41608
L33040 41683
L33021 41720
L33003 41739
L32965 41758
L32928 41758
L32890 41739
L32871 41720
L32853 41683
L32834 41608
L32834 41514
L32853 41439
L32871 41401
L32890 41383
L32928 41364
" />
<path d="M33659 41551
L33715 41570
L33734 41589
L33753 41626
L33753 41683
L33734 41720
L33715 41739
L33678 41758
L33528 41758
L33528 41364
L33659 41364
L33696 41383
L33715 41401
L33734 41439
L33734 41476
L33715 41514
L33696 41533
L33659 41551
L33528 41551
" />
<path d="M33921 41758
L33921 41495
" />
<path d="M33921 41570
L33940 41533
L33959 41514
L33996 41495
L34034 41495
" />
<path d="M34315 41739
L34277 41758
L34202 41758
L34165 41739
L34146 41701
L34146 41551
L34165 41514
L34202 41495
L34277 41495
L34315 41514
L34334 41551
L34334 41589
L34146 41626
" />
<path d="M34671 41758
L34671 41551
L34652 41514
L34615 41495
L34540 41495
L34502 41514
" />
<path d="M34671 41739
L34634 41758
L34540 41758
L34502 41739
L34484 41701
L34484 41664
L34502 41626
L34540 41608
L34634 41608
L34671 41589
" />
<path d="M34859 41758
L34859 41364
" />
<path d="M34896 41608
L35009 41758
" />
<path d="M35009 41495
L34859 41645
" />
<path d="M35234 41758
L35196 41739
L35177 41720
L35159 41683
L35159 41570
L35177 41533
L35196 41514
L35234 41495
L35290 41495
L35327 41514
L35346 41533
L35365 41570
L35365 41683
L35346 41720
L35327 41739
L35290 41758
L35234 41758
" />
<path d="M35702 41495
L35702 41758
" />
<path d="M35534 41495
L35534 41701
L35552 41739
L35590 41758
L35646 41758
L35684 41739
L35702 41720
" />
<path d="M35834 41495
L35984 41495
" />
<path d="M35890 41364
L35890 41701
L35909 41739
L35946 41758
L35984 41758
" />
<text x="35300" y="36656.9"
textLength="451.725" font-size="524.934" lengthAdjust="spacingAndGlyphs"
text-anchor="middle" opacity="0">1</text>
<path d="M35412 36638
L35187 36638
" />
<path d="M35300 36638
L35300 36244
L35262 36300
L35225 36338
L35187 36356
" />
</g>
<g style="fill:#008484; fill-opacity:0.0; 
stroke:#008484; stroke-width:47.2441; stroke-opacity:1; 
stroke-linecap:round; stroke-linejoin:round;">
<path d="M60273 20976
L60273 21500
" />
<path d="M59750 20976
L60273 20976
" />
<path d="M59250 20976
L59250 22023
" />
<path d="M59250 22023
L53226 22023
" />
<path d="M59250 20976
L53226 20976
" />
<path d="M53226 20976
L53226 22023
" />
</g>
<g style="fill:#008484; fill-opacity:0.0; 
stroke:#008484; stroke-width:50; stroke-opacity:1; 
stroke-linecap:round; stroke-linejoin:round;">
<path d="M65110 34850
L65354 34850
" />
<path d="M65354 34850
L65354 32370
" />
<path d="M65354 32370
L69645 32370
" />
<path d="M69645 32370
L69645 34850
" />
<path d="M69645 34850
L69893 34850
" />
<path d="M70629 36385
L71240 36385
" />
<path d="M71240 36385
L71240 39574
" />
<path d="M71240 39574
L70629 39574
" />
<path d="M70629 39574
L70629 40015
" />
<path d="M69893 41110
L69409 41110
" />
<path d="M69409 41110
L69409 42370
" />
<path d="M65590 42370
L65590 41110
" />
<path d="M65590 41110
L65110 41110
" />
<path d="M64370 40035
L64370 39929
" />
<path d="M64370 39929
L63129 39929
" />
<path d="M63129 39929
L63129 36070
" />
<path d="M63129 36070
L64370 36070
" />
</g>
<g style="fill:#008484; fill-opacity:0.0; 
stroke:#008484; stroke-width:78.7402; stroke-opacity:1; 
stroke-linecap:round; stroke-linejoin:round;">
<circle cx="65118.1" cy="32744.1" r="39.3701" /> 
</g>
<g style="fill:#008484; fill-opacity:0.0; 
stroke:#008484; stroke-width:47.2441; stroke-opacity:1; 
stroke-linecap:round; stroke-linejoin:round;">
<path d="M29448 38051
L36551 38051
" />
<path d="M29448 20948
L29448 38051
" />
<path d="M36551 20948
L29448 20948
" />
<path d="M35500 22000
L36551 22000
" />
<path d="M35500 36000
L35500 22000
" />
<path d="M35500 36000
L36551 36000
" />
<path d="M30500 22000
L29448 22000
" />
<path d="M30500 37000
L30500 22000
" />
<path d="M30500 37000
L29448 37000
" />
<path d="M36551 38051
L36551 37000
" />
<path d="M36551 36000
L36551 20948
" />
<path d="M35500 37000
L36551 37000
" />
<path d="M35500 36000
L35500 37000
" />
<circle cx="72547.2" cy="24515.7" r="1181.1" /> 
<path d="M71759 26838
L70145 26838
" />
<path d="M70145 22192
L71759 22192
" />
<path d="M73334 22192
L74948 22192
" />
<path d="M73334 26838
L74948 26838
" />
<path d="M74948 26838
L74948 22192
" />
<path d="M75500 26011
L75618 26129
" />
<path d="M75618 26129
L75381 26129
" />
<path d="M75381 26129
L75500 26011
" />
<path d="M70145 26838
L70145 25893
" />
<path d="M70145 25027
L70145 24003
" />
<path d="M70145 23137
L70145 22192
" />
<path d="M72547 24712
L72547 24318
" />
<path d="M72744 24515
L72350 24515
" />
<path d="M64905 25681
L64905 25996
" />
<path d="M64748 25838
L65063 25838
" />
<circle cx="66484.3" cy="26750" r="1622.05" /> 
<path d="M68344 23568
L68344 23253
" />
<path d="M68501 23411
L68186 23411
" />
<circle cx="66765.7" cy="22500" r="1622.05" /> 
<path d="M45431 23094
L45746 23094
" />
<path d="M45588 23251
L45588 22936
" />
<circle cx="46500" cy="21515.7" r="1622.05" /> 
<path d="M29476 40023
L29476 39500
" />
<path d="M30000 40023
L29476 40023
" />
<path d="M30500 40023
L30500 38976
" />
<path d="M30500 38976
L37523 38976
" />
<path d="M30500 40023
L37523 40023
" />
<path d="M37523 40023
L37523 38976
" />
<path d="M58023 39976
L58023 40500
" />
<path d="M57500 39976
L58023 39976
" />
<path d="M57000 39976
L57000 41023
" />
<path d="M57000 41023
L55976 41023
" />
<path d="M57000 39976
L55976 39976
" />
<path d="M55976 39976
L55976 41023
" />
<path d="M44023 19976
L44023 20500
" />
<path d="M43500 19976
L44023 19976
" />
<path d="M44023 21000
L44023 22023
" />
<path d="M43000 21000
L44023 21000
" />
<path d="M43000 19976
L43000 21000
" />
<path d="M44023 22023
L38976 22023
" />
<path d="M43000 19976
L38976 19976
" />
<path d="M38976 19976
L38976 22023
" />
</g>
<g style="fill:#008484; fill-opacity:0.0; 
stroke:#008484; stroke-width:78.7402; stroke-opacity:1; 
stroke-linecap:round; stroke-linejoin:round;">
<circle cx="43618.1" cy="32744.1" r="39.3701" /> 
</g>
<g style="fill:#008484; fill-opacity:0.0; 
stroke:#008484; stroke-width:50; stroke-opacity:1; 
stroke-linecap:round; stroke-linejoin:round;">
<path d="M41629 36070
L42870 36070
" />
<path d="M41629 39929
L41629 36070
" />
<path d="M42870 39929
L41629 39929
" />
<path d="M42870 40035
L42870 39929
" />
<path d="M44090 41110
L43610 41110
" />
<path d="M44090 42370
L44090 41110
" />
<path d="M47909 41110
L47909 42370
" />
<path d="M48393 41110
L47909 41110
" />
<path d="M49129 39574
L49129 40015
" />
<path d="M49740 39574
L49129 39574
" />
<path d="M49740 36385
L49740 39574
" />
<path d="M49129 36385
L49740 36385
" />
<path d="M48145 34850
L48393 34850
" />
<path d="M48145 32370
L48145 34850
" />
<path d="M43854 32370
L48145 32370
" />
<path d="M43854 34850
L43854 32370
" />
<path d="M43610 34850
L43854 34850
" />
</g>
<g style="fill:#008484; fill-opacity:0.0; 
stroke:#008484; stroke-width:78.7402; stroke-opacity:1; 
stroke-linecap:round; stroke-linejoin:round;">
<circle cx="74175.2" cy="30149.6" r="39.3701" /> 
</g>
<g style="fill:#008484; fill-opacity:0.0; 
stroke:#008484; stroke-width:50; stroke-opacity:1; 
stroke-linecap:round; stroke-linejoin:round;">
<path d="M75076 29500
L74399 29500
" />
<path d="M77100 29500
L76423 29500
" />
<path d="M74399 34500
L74399 29500
" />
<path d="M75076 34500
L74399 34500
" />
<path d="M77100 34500
L76423 34500
" />
<path d="M77100 29500
L77100 34500
" />
</g>
<g style="fill:#008484; fill-opacity:0.0; 
stroke:#008484; stroke-width:59.0551; stroke-opacity:1; 
stroke-linecap:round; stroke-linejoin:round;">
<g transform="rotate(-90 60667.3 21500)">
<text x="60667.3" y="21696.9"
textLength="751.687" font-size="524.934" lengthAdjust="spacingAndGlyphs"
text-anchor="middle" opacity="0">J3</text>
</g>
<path d="M60451 21631
L60732 21631
L60789 21649
L60826 21687
L60845 21743
L60845 21781
" />
<path d="M60451 21481
L60451 21237
L60601 21368
L60601 21312
L60620 21275
L60639 21256
L60676 21237
L60770 21237
L60807 21256
L60826 21275
L60845 21312
L60845 21425
L60826 21462
L60807 21481
" />
</g>
<g style="fill:#008484; fill-opacity:0.0; 
stroke:#008484; stroke-width:5.90551; stroke-opacity:1; 
stroke-linecap:round; stroke-linejoin:round;">
<text x="66466.5" y="32198.8"
textLength="864.173" font-size="524.934" lengthAdjust="spacingAndGlyphs"
text-anchor="middle" opacity="0">U1</text>
<path d="M66166 31786
L66166 32105
L66185 32142
L66204 32161
L66241 32180
L66316 32180
L66354 32161
L66372 32142
L66391 32105
L66391 31786
" />
<path d="M66785 32180
L66560 32180
" />
<path d="M66672 32180
L66672 31786
L66635 31842
L66597 31880
L66560 31898
" />
</g>
<g style="fill:#008484; fill-opacity:0.0; 
stroke:#008484; stroke-width:59.0551; stroke-opacity:1; 
stroke-linecap:round; stroke-linejoin:round;">
<text x="33000" y="38696.9"
textLength="720.088" font-size="524.934" lengthAdjust="spacingAndGlyphs"
text-anchor="middle" opacity="0">A1</text>
<path d="M32718 38565
L32906 38565
" />
<path d="M32681 38678
L32812 38284
L32943 38678
" />
<path d="M33281 38678
L33056 38678
" />
<path d="M33168 38678
L33168 38284
L33131 38340
L33093 38378
L33056 38396
" />
<text x="74397.6" y="27547.2"
textLength="1276.62" font-size="524.934" lengthAdjust="spacingAndGlyphs"
text-anchor="middle" opacity="0">SW1</text>
<path d="M73872 27509
L73928 27528
L74022 27528
L74060 27509
L74078 27491
L74097 27453
L74097 27416
L74078 27378
L74060 27359
L74022 27341
L73947 27322
L73910 27303
L73891 27284
L73872 27247
L73872 27209
L73891 27172
L73910 27153
L73947 27134
L74041 27134
L74097 27153
" />
<path d="M74228 27134
L74322 27528
L74397 27247
L74472 27528
L74566 27134
" />
<path d="M74922 27528
L74697 27528
" />
<path d="M74810 27528
L74810 27134
L74772 27191
L74735 27228
L74697 27247
" />
<text x="66484.3" y="24879.9"
textLength="845.426" font-size="524.934" lengthAdjust="spacingAndGlyphs"
text-anchor="middle" opacity="0">C1</text>
<path d="M66418 24823
L66399 24842
L66343 24861
L66306 24861
L66249 24842
L66212 24804
L66193 24767
L66174 24692
L66174 24636
L66193 24561
L66212 24523
L66249 24486
L66306 24467
L66343 24467
L66399 24486
L66418 24504
" />
<path d="M66793 24861
L66568 24861
" />
<path d="M66681 24861
L66681 24467
L66643 24523
L66606 24561
L66568 24579
" />
<text x="66765.7" y="24763.8"
textLength="845.426" font-size="524.934" lengthAdjust="spacingAndGlyphs"
text-anchor="middle" opacity="0">C2</text>
<path d="M66700 24707
L66681 24726
L66625 24745
L66587 24745
L66531 24726
L66493 24688
L66475 24651
L66456 24576
L66456 24520
L66475 24445
L66493 24407
L66531 24370
L66587 24351
L66625 24351
L66681 24370
L66700 24388
" />
<path d="M66850 24388
L66868 24370
L66906 24351
L67000 24351
L67037 24370
L67056 24388
L67075 24426
L67075 24463
L67056 24520
L66831 24745
L67075 24745
" />
<g transform="rotate(-90 44433.1 21515.7)">
<text x="44433.1" y="21712.6"
textLength="845.426" font-size="524.934" lengthAdjust="spacingAndGlyphs"
text-anchor="middle" opacity="0">C3</text>
</g>
<path d="M44573 21581
L44592 21600
L44611 21656
L44611 21693
L44592 21750
L44554 21787
L44517 21806
L44442 21825
L44386 21825
L44311 21806
L44273 21787
L44236 21750
L44217 21693
L44217 21656
L44236 21600
L44254 21581
" />
<path d="M44217 21450
L44217 21206
L44367 21337
L44367 21281
L44386 21243
L44404 21225
L44442 21206
L44536 21206
L44573 21225
L44592 21243
L44611 21281
L44611 21393
L44592 21431
L44573 21450
" />
<g transform="rotate(-90 29082.7 39500)">
<text x="29082.7" y="39696.9"
textLength="751.687" font-size="524.934" lengthAdjust="spacingAndGlyphs"
text-anchor="middle" opacity="0">J1</text>
</g>
<path d="M28867 39631
L29148 39631
L29204 39649
L29242 39687
L29260 39743
L29260 39781
" />
<path d="M29260 39237
L29260 39462
" />
<path d="M29260 39350
L28867 39350
L28923 39387
L28960 39425
L28979 39462
" />
<g transform="rotate(-90 58417.3 40500)">
<text x="58417.3" y="40696.9"
textLength="751.687" font-size="524.934" lengthAdjust="spacingAndGlyphs"
text-anchor="middle" opacity="0">J6</text>
</g>
<path d="M58201 40631
L58482 40631
L58539 40649
L58576 40687
L58595 40743
L58595 40781
" />
<path d="M58201 40275
L58201 40350
L58220 40387
L58239 40406
L58295 40443
L58370 40462
L58520 40462
L58557 40443
L58576 40425
L58595 40387
L58595 40312
L58576 40275
L58557 40256
L58520 40237
L58426 40237
L58389 40256
L58370 40275
L58351 40312
L58351 40387
L58370 40425
L58389 40443
L58426 40462
" />
<g transform="rotate(-90 44417.3 21000)">
<text x="44417.3" y="21196.9"
textLength="751.687" font-size="524.934" lengthAdjust="spacingAndGlyphs"
text-anchor="middle" opacity="0">J2</text>
</g>
<path d="M44201 21131
L44482 21131
L44539 21149
L44576 21187
L44595 21243
L44595 21281
" />
<path d="M44239 20962
L44220 20943
L44201 20906
L44201 20812
L44220 20775
L44239 20756
L44276 20737
L44314 20737
L44370 20756
L44595 20981
L44595 20737
" />
</g>
<g style="fill:#008484; fill-opacity:0.0; 
stroke:#008484; stroke-width:5.90551; stroke-opacity:1; 
stroke-linecap:round; stroke-linejoin:round;">
<text x="44966.5" y="32198.8"
textLength="864.173" font-size="524.934" lengthAdjust="spacingAndGlyphs"
text-anchor="middle" opacity="0">U2</text>
<path d="M44666 31786
L44666 32105
L44685 32142
L44704 32161
L44741 32180
L44816 32180
L44854 32161
L44872 32142
L44891 32105
L44891 31786
" />
<path d="M45060 31823
L45079 31805
L45116 31786
L45210 31786
L45247 31805
L45266 31823
L45285 31861
L45285 31898
L45266 31955
L45041 32180
L45285 32180
" />
<text x="75622" y="29190.9"
textLength="757.583" font-size="524.934" lengthAdjust="spacingAndGlyphs"
text-anchor="middle" opacity="0">S1</text>
<path d="M75322 29153
L75378 29172
L75472 29172
L75509 29153
L75528 29134
L75547 29097
L75547 29059
L75528 29022
L75509 29003
L75472 28984
L75397 28965
L75359 28947
L75340 28928
L75322 28890
L75322 28853
L75340 28815
L75359 28797
L75397 28778
L75490 28778
L75547 28797
" />
<path d="M75922 29172
L75697 29172
" />
<path d="M75809 29172
L75809 28778
L75772 28834
L75734 28872
L75697 28890
" />
<g >
</g>
</g>
<g style="fill:#000000; fill-opacity:0.0; 
stroke:#000000; stroke-width:5.90551; stroke-opacity:1; 
stroke-linecap:round; stroke-linejoin:round;">
</g>
<g style="fill:#C2C200; fill-opacity:0.0; 
stroke:#C2C200; stroke-width:5.90551; stroke-opacity:1; 
stroke-linecap:round; stroke-linejoin:round;">
</g>
<g style="fill:#C2C200; fill-opacity:0.0; 
stroke:#C2C200; stroke-width:78.7402; stroke-opacity:1; 
stroke-linecap:round; stroke-linejoin:round;">
<path d="M29808 42616
L29925 42701
" />
<path d="M29250 43872
L29118 43813
" />
<path d="M30139 43071
L30154 43214
" />
<path d="M28832 42933
L28904 42808
" />
<path d="M29391 43902
L29250 43872
" />
<path d="M76779 43902
L76635 43902
" />
<path d="M30094 42933
L30139 43071
" />
<path d="M29001 42701
L29118 42616
" />
<path d="M30022 42808
L30094 42933
" />
<path d="M29925 42701
L30022 42808
" />
<path d="M29535 42527
L29677 42557
" />
<path d="M28832 43495
L28787 43358
" />
<path d="M28772 43214
L28787 43071
" />
<path d="M28904 42808
L29001 42701
" />
<path d="M29391 42527
L29535 42527
" />
<path d="M29250 42557
L29391 42527
" />
<path d="M29118 42616
L29250 42557
" />
<path d="M28787 43071
L28832 42933
" />
<path d="M29001 43728
L28904 43621
" />
<path d="M28787 43358
L28772 43214
" />
<path d="M29118 43813
L29001 43728
" />
<path d="M28904 43621
L28832 43495
" />
<path d="M29677 42557
L29808 42616
" />
<path d="M77495 19592
L77477 19429
" />
<path d="M77234 19007
L77101 18910
" />
<path d="M29069 43896
L29220 43963
" />
<path d="M28826 19130
L28744 19272
" />
<path d="M28936 43800
L29069 43896
" />
<path d="M28693 19429
L28676 19592
" />
<path d="M76950 18844
L76789 18809
" />
<path d="M28744 43535
L28826 43677
" />
<path d="M28693 43378
L28744 43535
" />
<path d="M28676 43214
L28693 43378
" />
<path d="M28744 19272
L28693 19429
" />
<path d="M77477 19429
L77426 19272
" />
<path d="M29220 18844
L29069 18910
" />
<path d="M76789 18809
L29381 18809
" />
<path d="M29381 18809
L29220 18844
" />
<path d="M28826 43677
L28936 43800
" />
<path d="M77426 19272
L77344 19130
" />
<path d="M28676 19592
L28676 43214
" />
<path d="M28936 19007
L28826 19130
" />
<path d="M77101 18910
L76950 18844
" />
<path d="M77344 19130
L77234 19007
" />
<path d="M77495 43214
L77495 19592
" />
<path d="M29069 18910
L28936 19007
" />
<path d="M76076 43495
L76031 43358
" />
<path d="M76635 43902
L76494 43872
" />
<path d="M29808 18994
L29925 19079
" />
<path d="M30094 19873
L30022 19999
" />
<path d="M76921 43872
L76779 43902
" />
<path d="M76494 43872
L76362 43813
" />
<path d="M29250 18935
L29391 18905
" />
<path d="M77266 43621
L77169 43728
" />
<path d="M77338 43495
L77266 43621
" />
<path d="M77383 43071
L77398 43214
" />
<path d="M77338 42933
L77383 43071
" />
<path d="M77266 42808
L77338 42933
" />
<path d="M29677 18935
L29808 18994
" />
<path d="M29925 20106
L29808 20191
" />
<path d="M77169 42701
L77266 42808
" />
<path d="M76076 42933
L76148 42808
" />
<path d="M76362 43813
L76245 43728
" />
<path d="M29925 19079
L30022 19186
" />
<path d="M77053 43813
L76921 43872
" />
<path d="M77169 43728
L77053 43813
" />
<path d="M77383 43358
L77338 43495
" />
<path d="M76148 43621
L76076 43495
" />
<path d="M29391 18905
L29535 18905
" />
<path d="M30139 19449
L30154 19592
" />
<path d="M77053 42616
L77169 42701
" />
<path d="M29535 20280
L29391 20280
" />
<path d="M29808 20191
L29677 20250
" />
<path d="M29677 20250
L29535 20280
" />
<path d="M30022 19186
L30094 19311
" />
<path d="M76921 42557
L77053 42616
" />
<path d="M30094 19311
L30139 19449
" />
<path d="M30154 19592
L30139 19736
" />
<path d="M29535 18905
L29677 18935
" />
<path d="M76635 42527
L76779 42527
" />
<path d="M76494 42557
L76635 42527
" />
<path d="M76245 42701
L76362 42616
" />
<path d="M76148 42808
L76245 42701
" />
<path d="M76031 43071
L76076 42933
" />
<path d="M76245 43728
L76148 43621
" />
<path d="M76031 43358
L76016 43214
" />
<path d="M30022 19999
L29925 20106
" />
<path d="M30139 19736
L30094 19873
" />
<path d="M77398 43214
L77383 43358
" />
<path d="M76016 43214
L76031 43071
" />
<path d="M76779 42527
L76921 42557
" />
<path d="M76362 42616
L76494 42557
" />
<path d="M29677 43872
L29535 43902
" />
<path d="M29808 43813
L29677 43872
" />
<path d="M30154 43214
L30139 43358
" />
<path d="M30139 43358
L30094 43495
" />
<path d="M29535 43902
L29391 43902
" />
<path d="M30022 43621
L29925 43728
" />
<path d="M29925 43728
L29808 43813
" />
<path d="M30094 43495
L30022 43621
" />
<path d="M77477 43378
L77495 43214
" />
<path d="M77101 43896
L77234 43800
" />
<path d="M76950 43963
L77101 43896
" />
<path d="M77426 43535
L77477 43378
" />
<path d="M77344 43677
L77426 43535
" />
<path d="M77234 43800
L77344 43677
" />
<path d="M29118 18994
L29250 18935
" />
<path d="M29118 20191
L29001 20106
" />
<path d="M76921 18935
L77053 18994
" />
<path d="M76362 20191
L76245 20106
" />
<path d="M29001 19079
L29118 18994
" />
<path d="M28904 19186
L29001 19079
" />
<path d="M28832 19311
L28904 19186
" />
<path d="M28772 19592
L28787 19449
" />
<path d="M76635 20280
L76494 20250
" />
<path d="M28787 19449
L28832 19311
" />
<path d="M28787 19736
L28772 19592
" />
<path d="M77338 19873
L77266 19999
" />
<path d="M28832 19873
L28787 19736
" />
<path d="M77169 20106
L77053 20191
" />
<path d="M76494 20250
L76362 20191
" />
<path d="M76779 18905
L76921 18935
" />
<path d="M76016 19592
L76031 19449
" />
<path d="M28904 19999
L28832 19873
" />
<path d="M76076 19311
L76148 19186
" />
<path d="M29001 20106
L28904 19999
" />
<path d="M29391 20280
L29250 20250
" />
<path d="M77266 19999
L77169 20106
" />
<path d="M77338 19311
L77383 19449
" />
<path d="M77398 19592
L77383 19736
" />
<path d="M76148 19186
L76245 19079
" />
<path d="M76494 18935
L76635 18905
" />
<path d="M76076 19873
L76031 19736
" />
<path d="M76789 43997
L76950 43963
" />
<path d="M76779 20280
L76635 20280
" />
<path d="M29220 43963
L29381 43997
" />
<path d="M77383 19736
L77338 19873
" />
<path d="M77169 19079
L77266 19186
" />
<path d="M76362 18994
L76494 18935
" />
<path d="M76245 19079
L76362 18994
" />
<path d="M76031 19449
L76076 19311
" />
<path d="M76245 20106
L76148 19999
" />
<path d="M76148 19999
L76076 19873
" />
<path d="M76635 18905
L76779 18905
" />
<path d="M77053 20191
L76921 20250
" />
<path d="M76921 20250
L76779 20280
" />
<path d="M77053 18994
L77169 19079
" />
<path d="M77383 19449
L77398 19592
" />
<path d="M77266 19186
L77338 19311
" />
<path d="M29381 43997
L76789 43997
" />
<path d="M76031 19736
L76016 19592
" />
<path d="M29250 20250
L29118 20191
" />
<g >
</g>
<g >
</g>
<g >
</g>
<g >
</g>
<g >
</g>
<g >
</g>
<g >
</g>
<g >
</g>
<g >
</g>
<g >
</g>
<g >
</g>
<g >
</g>
<g >
</g>
</g> 
</svg>
