%TF.GenerationSoftware,KiCad,Pcbnew,(5.1.7)-1*%
%TF.CreationDate,2020-12-08T13:51:12+10:00*%
%TF.ProjectId,Universal Controller Mk1,556e6976-6572-4736-916c-20436f6e7472,rev?*%
%TF.SameCoordinates,Original*%
%TF.FileFunction,Profile,NP*%
%FSLAX46Y46*%
G04 Gerber Fmt 4.6, Leading zero omitted, Abs format (unit mm)*
G04 Created by KiCad (PCBNEW (5.1.7)-1) date 2020-12-08 13:51:12*
%MOMM*%
%LPD*%
G01*
G04 APERTURE LIST*
%TA.AperFunction,Profile*%
%ADD10C,0.200000*%
%TD*%
G04 APERTURE END LIST*
D10*
X225269000Y-49309000D02*
X74851000Y-49309000D01*
X227060000Y-51298000D02*
X227016300Y-50882200D01*
X226678000Y-50122400D02*
X226398300Y-49811700D01*
X227060000Y-111298000D02*
X227060000Y-51298000D01*
X226398300Y-49811700D02*
X226060000Y-49566000D01*
X73442000Y-112473600D02*
X73721700Y-112784300D01*
X73232900Y-112111500D02*
X73442000Y-112473600D01*
X227016300Y-50882200D02*
X226887100Y-50484500D01*
X73060000Y-111298000D02*
X73103700Y-111713800D01*
X73232900Y-50484500D02*
X73103700Y-50882200D01*
X73060000Y-51298000D02*
X73060000Y-111298000D01*
X74851000Y-49309000D02*
X74442000Y-49395900D01*
X226887100Y-50484500D02*
X226678000Y-50122400D01*
X73721700Y-112784300D02*
X74060000Y-113030000D01*
X73103700Y-111713800D02*
X73232900Y-112111500D01*
X73721700Y-49811700D02*
X73442000Y-50122400D01*
X74060000Y-113030000D02*
X74442000Y-113200100D01*
X226060000Y-49566000D02*
X225678000Y-49395900D01*
X73103700Y-50882200D02*
X73060000Y-51298000D01*
X73442000Y-50122400D02*
X73232900Y-50484500D01*
X74060000Y-49566000D02*
X73721700Y-49811700D01*
X74442000Y-49395900D02*
X74060000Y-49566000D01*
X225678000Y-49395900D02*
X225269000Y-49309000D01*
X74851000Y-113287000D02*
X225269000Y-113287000D01*
X224246900Y-55707300D02*
X224387500Y-55551100D01*
X224141900Y-55889200D02*
X224246900Y-55707300D01*
X224077000Y-56507000D02*
X224055000Y-56298000D01*
X224954900Y-57297500D02*
X224749400Y-57253800D01*
X224749400Y-55342200D02*
X224954900Y-55298500D01*
X224055000Y-56298000D02*
X224077000Y-56089100D01*
X225269000Y-113287000D02*
X225678000Y-113200100D01*
X225732500Y-55551100D02*
X225873000Y-55707300D01*
X225562500Y-55427700D02*
X225732500Y-55551100D01*
X225165000Y-55298500D02*
X225370500Y-55342200D01*
X224954900Y-55298500D02*
X225165000Y-55298500D01*
X224387500Y-55551100D02*
X224557500Y-55427700D01*
X224387500Y-57044900D02*
X224246900Y-56888700D01*
X224557500Y-57168400D02*
X224387500Y-57044900D01*
X224077000Y-56089100D02*
X224141900Y-55889200D01*
X225873000Y-55707300D02*
X225978100Y-55889200D01*
X225370500Y-55342200D02*
X225562500Y-55427700D01*
X224557500Y-55427700D02*
X224749400Y-55342200D01*
X74442000Y-113200100D02*
X74851000Y-113287000D01*
X224141900Y-56706800D02*
X224077000Y-56507000D01*
X224749400Y-57253800D02*
X224557500Y-57168400D01*
X224246900Y-56888700D02*
X224141900Y-56706800D01*
X225732500Y-57044900D02*
X225562500Y-57168400D01*
X226065000Y-56298000D02*
X226043000Y-56507000D01*
X225165000Y-57297500D02*
X224954900Y-57297500D01*
X225978100Y-55889200D02*
X226043000Y-56089100D01*
X225370500Y-57253800D02*
X225165000Y-57297500D01*
X226043000Y-56089100D02*
X226065000Y-56298000D01*
X225873000Y-56888700D02*
X225732500Y-57044900D01*
X226043000Y-56507000D02*
X225978100Y-56706800D01*
X225562500Y-57168400D02*
X225370500Y-57253800D01*
X225978100Y-56706800D02*
X225873000Y-56888700D01*
X227016300Y-111713800D02*
X227060000Y-111298000D01*
X226678000Y-112473600D02*
X226887100Y-112111500D01*
X225678000Y-113200100D02*
X226060000Y-113030000D01*
X226887100Y-112111500D02*
X227016300Y-111713800D01*
X226398300Y-112784300D02*
X226678000Y-112473600D01*
X226060000Y-113030000D02*
X226398300Y-112784300D01*
M02*
