M48
METRIC,TZ
T1C0.800
T2C0.889
T3C0.900
T4C1.000
T5C1.397
T6C1.500
%
G90
G05
T1
X118110Y-52150
X118110Y-57150
X198200Y-96520
X203200Y-96520
X198120Y-105410
X203120Y-105410
T2
X106680Y-93980
X106680Y-96520
X106680Y-99060
X114300Y-106680
X116840Y-106680
X119380Y-106680
X161290Y-93980
X161290Y-96520
X161290Y-99060
X168910Y-106680
X171450Y-106680
X173990Y-106680
T3
X113665Y-83820
X113665Y-88900
X120015Y-83820
X120015Y-88900
X168275Y-83820
X168275Y-88900
X174625Y-83820
X174625Y-88900
T4
X129540Y-54610
X132080Y-54610
X134620Y-54610
X137160Y-54610
X139700Y-54610
X142240Y-54610
X144780Y-54610
X147320Y-54610
X149860Y-54610
X152400Y-54610
X154940Y-54610
X157480Y-54610
X160020Y-54610
X162560Y-54610
X165100Y-54610
X167640Y-54610
X143510Y-102870
X146050Y-102870
X76200Y-57150
X76200Y-59690
X76200Y-62230
X76200Y-64770
X76200Y-67310
X76200Y-69850
X76200Y-72390
X76200Y-74930
X76200Y-77470
X76200Y-80010
X76200Y-82550
X76200Y-85090
X76200Y-87630
X76200Y-90170
X76200Y-92710
X91440Y-57150
X91440Y-59690
X91440Y-62230
X91440Y-64770
X91440Y-67310
X91440Y-69850
X91440Y-72390
X91440Y-74930
X91440Y-77470
X91440Y-80010
X91440Y-82550
X91440Y-85090
X91440Y-87630
X91440Y-90170
X91440Y-92710
X181610Y-63500
X184150Y-63500
X186690Y-63500
X189230Y-63500
X191770Y-63500
X194310Y-63500
X196850Y-63500
X199390Y-63500
X201930Y-63500
X204470Y-63500
X207010Y-63500
X209550Y-63500
X212090Y-63500
X214630Y-63500
X217170Y-63500
X219710Y-63500
X207750Y-96600
X207750Y-101600
X222250Y-96600
X222250Y-99100
X222250Y-101600
X220980Y-67310
X220980Y-69850
X220980Y-72390
X220980Y-74930
X100330Y-52070
X100330Y-54610
X102870Y-52070
X102870Y-54610
X105410Y-52070
X105410Y-54610
X107950Y-52070
X107950Y-54610
X110490Y-52070
X110490Y-54610
X76200Y-100330
X78740Y-100330
X81280Y-100330
X83820Y-100330
X86360Y-100330
X88900Y-100330
X91440Y-100330
X93980Y-100330
T5
X109220Y-89852
X109220Y-103188
X124460Y-89852
X124460Y-103188
X163830Y-89852
X163830Y-103188
X179070Y-89852
X179070Y-103188
T6
G00X215400Y-93500
M15
G01X214100Y-93500
M16
G05
G00X215400Y-104700
M15
G01X214100Y-104700
M16
G05
T0
M30
