%TF.GenerationSoftware,KiCad,Pcbnew,(5.1.7)-1*%
%TF.CreationDate,2020-12-08T13:51:12+10:00*%
%TF.ProjectId,Universal Controller Mk1,556e6976-6572-4736-916c-20436f6e7472,rev?*%
%TF.SameCoordinates,Original*%
%TF.FileFunction,Copper,L2,Bot*%
%TF.FilePolarity,Positive*%
%FSLAX46Y46*%
G04 Gerber Fmt 4.6, Leading zero omitted, Abs format (unit mm)*
G04 Created by KiCad (PCBNEW (5.1.7)-1) date 2020-12-08 13:51:12*
%MOMM*%
%LPD*%
G01*
G04 APERTURE LIST*
%TA.AperFunction,ComponentPad*%
%ADD10C,1.778000*%
%TD*%
%TA.AperFunction,ComponentPad*%
%ADD11C,2.286000*%
%TD*%
%TA.AperFunction,ComponentPad*%
%ADD12O,1.600000X1.600000*%
%TD*%
%TA.AperFunction,ComponentPad*%
%ADD13R,1.600000X1.600000*%
%TD*%
%TA.AperFunction,ComponentPad*%
%ADD14R,2.000000X2.000000*%
%TD*%
%TA.AperFunction,ComponentPad*%
%ADD15C,2.000000*%
%TD*%
%TA.AperFunction,ComponentPad*%
%ADD16R,3.200000X2.000000*%
%TD*%
%TA.AperFunction,ComponentPad*%
%ADD17C,1.600000*%
%TD*%
%TA.AperFunction,ComponentPad*%
%ADD18O,1.700000X1.700000*%
%TD*%
%TA.AperFunction,ComponentPad*%
%ADD19R,1.700000X1.700000*%
%TD*%
%TA.AperFunction,Conductor*%
%ADD20C,0.250000*%
%TD*%
%TA.AperFunction,Conductor*%
%ADD21C,0.254000*%
%TD*%
%TA.AperFunction,Conductor*%
%ADD22C,0.100000*%
%TD*%
G04 APERTURE END LIST*
D10*
%TO.P,U2,V3*%
%TO.N,GND*%
X106680000Y-99060000D03*
%TO.P,U2,V2*%
%TO.N,A2*%
X106680000Y-96520000D03*
%TO.P,U2,V1*%
%TO.N,5V*%
X106680000Y-93980000D03*
D11*
%TO.P,U2,S4*%
%TO.N,Net-(U2-PadS1)*%
X124460000Y-89852500D03*
%TO.P,U2,S3*%
X124460000Y-103187500D03*
%TO.P,U2,S2*%
X109220000Y-103187500D03*
%TO.P,U2,S1*%
X109220000Y-89852500D03*
D10*
%TO.P,U2,H3*%
%TO.N,GND*%
X119380000Y-106680000D03*
%TO.P,U2,H2*%
%TO.N,A3*%
X116840000Y-106680000D03*
%TO.P,U2,H1*%
%TO.N,5V*%
X114300000Y-106680000D03*
%TO.P,U2,B2B*%
%TO.N,N/C*%
X120015000Y-88900000D03*
%TO.P,U2,B2A*%
%TO.N,GND*%
X113665000Y-88900000D03*
%TO.P,U2,B1B*%
%TO.N,N/C*%
X120015000Y-83820000D03*
%TO.P,U2,B1A*%
%TO.N,D5*%
X113665000Y-83820000D03*
%TD*%
D12*
%TO.P,A1,16*%
%TO.N,D13*%
X76200000Y-57150000D03*
%TO.P,A1,15*%
%TO.N,D12*%
X91440000Y-57150000D03*
%TO.P,A1,30*%
%TO.N,VIN*%
X76200000Y-92710000D03*
%TO.P,A1,14*%
%TO.N,D11*%
X91440000Y-59690000D03*
%TO.P,A1,29*%
%TO.N,GND*%
X76200000Y-90170000D03*
%TO.P,A1,13*%
%TO.N,Net-(A1-Pad13)*%
X91440000Y-62230000D03*
%TO.P,A1,28*%
%TO.N,Net-(A1-Pad28)*%
X76200000Y-87630000D03*
%TO.P,A1,12*%
%TO.N,D9*%
X91440000Y-64770000D03*
%TO.P,A1,27*%
%TO.N,5V*%
X76200000Y-85090000D03*
%TO.P,A1,11*%
%TO.N,D8*%
X91440000Y-67310000D03*
%TO.P,A1,26*%
%TO.N,A7*%
X76200000Y-82550000D03*
%TO.P,A1,10*%
%TO.N,D7*%
X91440000Y-69850000D03*
%TO.P,A1,25*%
%TO.N,A6*%
X76200000Y-80010000D03*
%TO.P,A1,9*%
%TO.N,Net-(A1-Pad9)*%
X91440000Y-72390000D03*
%TO.P,A1,24*%
%TO.N,A5*%
X76200000Y-77470000D03*
%TO.P,A1,8*%
%TO.N,D5*%
X91440000Y-74930000D03*
%TO.P,A1,23*%
%TO.N,A4*%
X76200000Y-74930000D03*
%TO.P,A1,7*%
%TO.N,D4*%
X91440000Y-77470000D03*
%TO.P,A1,22*%
%TO.N,A3*%
X76200000Y-72390000D03*
%TO.P,A1,6*%
%TO.N,D3*%
X91440000Y-80010000D03*
%TO.P,A1,21*%
%TO.N,A2*%
X76200000Y-69850000D03*
%TO.P,A1,5*%
%TO.N,D2*%
X91440000Y-82550000D03*
%TO.P,A1,20*%
%TO.N,Net-(A1-Pad20)*%
X76200000Y-67310000D03*
%TO.P,A1,4*%
%TO.N,GND*%
X91440000Y-85090000D03*
%TO.P,A1,19*%
%TO.N,Net-(A1-Pad19)*%
X76200000Y-64770000D03*
%TO.P,A1,3*%
%TO.N,Net-(A1-Pad3)*%
X91440000Y-87630000D03*
%TO.P,A1,18*%
%TO.N,Net-(A1-Pad18)*%
X76200000Y-62230000D03*
%TO.P,A1,2*%
%TO.N,Net-(A1-Pad2)*%
X91440000Y-90170000D03*
%TO.P,A1,17*%
%TO.N,3V3*%
X76200000Y-59690000D03*
D13*
%TO.P,A1,1*%
%TO.N,Net-(A1-Pad1)*%
X91440000Y-92710000D03*
%TD*%
D14*
%TO.P,SW1,A*%
%TO.N,D3*%
X222250000Y-101600000D03*
D15*
%TO.P,SW1,C*%
%TO.N,GND*%
X222250000Y-99100000D03*
%TO.P,SW1,B*%
%TO.N,D2*%
X222250000Y-96600000D03*
D16*
%TO.P,SW1,MP*%
%TO.N,N/C*%
X214750000Y-104700000D03*
X214750000Y-93500000D03*
D15*
%TO.P,SW1,S2*%
%TO.N,D9*%
X207750000Y-101600000D03*
%TO.P,SW1,S1*%
%TO.N,GND*%
X207750000Y-96600000D03*
%TD*%
D17*
%TO.P,C1,2*%
%TO.N,D3*%
X203120000Y-105410000D03*
D13*
%TO.P,C1,1*%
%TO.N,GND*%
X198120000Y-105410000D03*
%TD*%
D17*
%TO.P,C2,2*%
%TO.N,GND*%
X198200000Y-96520000D03*
D13*
%TO.P,C2,1*%
%TO.N,D2*%
X203200000Y-96520000D03*
%TD*%
D17*
%TO.P,C3,2*%
%TO.N,GND*%
X118110000Y-52150000D03*
D13*
%TO.P,C3,1*%
%TO.N,3V3*%
X118110000Y-57150000D03*
%TD*%
D18*
%TO.P,J1,8*%
%TO.N,Net-(J1-Pad8)*%
X93980000Y-100330000D03*
%TO.P,J1,7*%
%TO.N,Net-(J1-Pad7)*%
X91440000Y-100330000D03*
%TO.P,J1,6*%
%TO.N,Net-(J1-Pad6)*%
X88900000Y-100330000D03*
%TO.P,J1,5*%
%TO.N,Net-(J1-Pad5)*%
X86360000Y-100330000D03*
%TO.P,J1,4*%
%TO.N,A4*%
X83820000Y-100330000D03*
%TO.P,J1,3*%
%TO.N,A5*%
X81280000Y-100330000D03*
%TO.P,J1,2*%
%TO.N,GND*%
X78740000Y-100330000D03*
D19*
%TO.P,J1,1*%
%TO.N,3V3*%
X76200000Y-100330000D03*
%TD*%
%TO.P,J3,1*%
%TO.N,A5*%
X220980000Y-67310000D03*
D18*
%TO.P,J3,2*%
%TO.N,A4*%
X220980000Y-69850000D03*
%TO.P,J3,3*%
%TO.N,5V*%
X220980000Y-72390000D03*
%TO.P,J3,4*%
%TO.N,GND*%
X220980000Y-74930000D03*
%TD*%
D19*
%TO.P,J4,1*%
%TO.N,Net-(J4-Pad1)*%
X181610000Y-63500000D03*
D18*
%TO.P,J4,2*%
%TO.N,Net-(J4-Pad2)*%
X184150000Y-63500000D03*
%TO.P,J4,3*%
%TO.N,Net-(J4-Pad3)*%
X186690000Y-63500000D03*
%TO.P,J4,4*%
%TO.N,Net-(J4-Pad4)*%
X189230000Y-63500000D03*
%TO.P,J4,5*%
%TO.N,Net-(J4-Pad5)*%
X191770000Y-63500000D03*
%TO.P,J4,6*%
%TO.N,Net-(J4-Pad6)*%
X194310000Y-63500000D03*
%TO.P,J4,7*%
%TO.N,Net-(J4-Pad7)*%
X196850000Y-63500000D03*
%TO.P,J4,8*%
%TO.N,Net-(J4-Pad8)*%
X199390000Y-63500000D03*
%TO.P,J4,9*%
%TO.N,Net-(J4-Pad9)*%
X201930000Y-63500000D03*
%TO.P,J4,10*%
%TO.N,Net-(J4-Pad10)*%
X204470000Y-63500000D03*
%TO.P,J4,11*%
%TO.N,Net-(J4-Pad11)*%
X207010000Y-63500000D03*
%TO.P,J4,12*%
%TO.N,Net-(J4-Pad12)*%
X209550000Y-63500000D03*
%TO.P,J4,13*%
%TO.N,Net-(J4-Pad13)*%
X212090000Y-63500000D03*
%TO.P,J4,14*%
%TO.N,Net-(J4-Pad14)*%
X214630000Y-63500000D03*
%TO.P,J4,15*%
%TO.N,Net-(J4-Pad15)*%
X217170000Y-63500000D03*
%TO.P,J4,16*%
%TO.N,Net-(J4-Pad16)*%
X219710000Y-63500000D03*
%TD*%
%TO.P,J5,16*%
%TO.N,Net-(J4-Pad16)*%
X167640000Y-54610000D03*
%TO.P,J5,15*%
%TO.N,Net-(J4-Pad15)*%
X165100000Y-54610000D03*
%TO.P,J5,14*%
%TO.N,Net-(J4-Pad14)*%
X162560000Y-54610000D03*
%TO.P,J5,13*%
%TO.N,Net-(J4-Pad13)*%
X160020000Y-54610000D03*
%TO.P,J5,12*%
%TO.N,Net-(J4-Pad12)*%
X157480000Y-54610000D03*
%TO.P,J5,11*%
%TO.N,Net-(J4-Pad11)*%
X154940000Y-54610000D03*
%TO.P,J5,10*%
%TO.N,Net-(J4-Pad10)*%
X152400000Y-54610000D03*
%TO.P,J5,9*%
%TO.N,Net-(J4-Pad9)*%
X149860000Y-54610000D03*
%TO.P,J5,8*%
%TO.N,Net-(J4-Pad8)*%
X147320000Y-54610000D03*
%TO.P,J5,7*%
%TO.N,Net-(J4-Pad7)*%
X144780000Y-54610000D03*
%TO.P,J5,6*%
%TO.N,Net-(J4-Pad6)*%
X142240000Y-54610000D03*
%TO.P,J5,5*%
%TO.N,Net-(J4-Pad5)*%
X139700000Y-54610000D03*
%TO.P,J5,4*%
%TO.N,Net-(J4-Pad4)*%
X137160000Y-54610000D03*
%TO.P,J5,3*%
%TO.N,Net-(J4-Pad3)*%
X134620000Y-54610000D03*
%TO.P,J5,2*%
%TO.N,Net-(J4-Pad2)*%
X132080000Y-54610000D03*
D19*
%TO.P,J5,1*%
%TO.N,Net-(J4-Pad1)*%
X129540000Y-54610000D03*
%TD*%
D18*
%TO.P,J6,2*%
%TO.N,VIN*%
X143510000Y-102870000D03*
D19*
%TO.P,J6,1*%
%TO.N,GND*%
X146050000Y-102870000D03*
%TD*%
D10*
%TO.P,U1,V3*%
%TO.N,GND*%
X161290000Y-99060000D03*
%TO.P,U1,V2*%
%TO.N,A7*%
X161290000Y-96520000D03*
%TO.P,U1,V1*%
%TO.N,5V*%
X161290000Y-93980000D03*
D11*
%TO.P,U1,S4*%
%TO.N,Net-(U1-PadS1)*%
X179070000Y-89852500D03*
%TO.P,U1,S3*%
X179070000Y-103187500D03*
%TO.P,U1,S2*%
X163830000Y-103187500D03*
%TO.P,U1,S1*%
X163830000Y-89852500D03*
D10*
%TO.P,U1,H3*%
%TO.N,GND*%
X173990000Y-106680000D03*
%TO.P,U1,H2*%
%TO.N,A6*%
X171450000Y-106680000D03*
%TO.P,U1,H1*%
%TO.N,5V*%
X168910000Y-106680000D03*
%TO.P,U1,B2B*%
%TO.N,N/C*%
X174625000Y-88900000D03*
%TO.P,U1,B2A*%
%TO.N,GND*%
X168275000Y-88900000D03*
%TO.P,U1,B1B*%
%TO.N,N/C*%
X174625000Y-83820000D03*
%TO.P,U1,B1A*%
%TO.N,D4*%
X168275000Y-83820000D03*
%TD*%
D18*
%TO.P,J2,10*%
%TO.N,N/C*%
X100330000Y-54610000D03*
%TO.P,J2,9*%
%TO.N,Net-(J2-Pad9)*%
X100330000Y-52070000D03*
%TO.P,J2,8*%
%TO.N,Net-(J2-Pad8)*%
X102870000Y-54610000D03*
%TO.P,J2,7*%
%TO.N,D12*%
X102870000Y-52070000D03*
%TO.P,J2,6*%
%TO.N,D11*%
X105410000Y-54610000D03*
%TO.P,J2,5*%
%TO.N,D13*%
X105410000Y-52070000D03*
%TO.P,J2,4*%
%TO.N,D8*%
X107950000Y-54610000D03*
%TO.P,J2,3*%
%TO.N,D7*%
X107950000Y-52070000D03*
%TO.P,J2,2*%
%TO.N,3V3*%
X110490000Y-54610000D03*
D19*
%TO.P,J2,1*%
%TO.N,GND*%
X110490000Y-52070000D03*
%TD*%
D20*
%TO.N,D3*%
X199429499Y-101719499D02*
X203120000Y-105410000D01*
X179297777Y-101719499D02*
X199429499Y-101719499D01*
X165962777Y-88384499D02*
X179297777Y-101719499D01*
X123755359Y-88384499D02*
X165962777Y-88384499D01*
X122025857Y-90114001D02*
X123755359Y-88384499D01*
X111654143Y-90114001D02*
X122025857Y-90114001D01*
X101550142Y-80010000D02*
X111654143Y-90114001D01*
X91440000Y-80010000D02*
X101550142Y-80010000D01*
%TO.N,A3*%
X116840000Y-102343278D02*
X116840000Y-106680000D01*
X95921721Y-81424999D02*
X116840000Y-102343278D01*
X91026199Y-81424999D02*
X95921721Y-81424999D01*
X81991200Y-72390000D02*
X91026199Y-81424999D01*
X76200000Y-72390000D02*
X81991200Y-72390000D01*
%TO.N,A6*%
X104084001Y-107894001D02*
X76200000Y-80010000D01*
X171450000Y-106680000D02*
X170706722Y-106680000D01*
X104084001Y-107894001D02*
X104084001Y-108910001D01*
X104084001Y-108910001D02*
X106222800Y-111048800D01*
X167081200Y-111048800D02*
X171450000Y-106680000D01*
X106222800Y-111048800D02*
X167081200Y-111048800D01*
%TO.N,D9*%
X168967002Y-64770000D02*
X91440000Y-64770000D01*
X205797002Y-101600000D02*
X168967002Y-64770000D01*
X207750000Y-101600000D02*
X205797002Y-101600000D01*
%TO.N,3V3*%
X101744999Y-63355001D02*
X110490000Y-54610000D01*
X91189997Y-63355001D02*
X101744999Y-63355001D01*
X83279999Y-71264999D02*
X91189997Y-63355001D01*
X76200000Y-100330000D02*
X75074999Y-99204999D01*
X76740001Y-63644999D02*
X80256599Y-67161597D01*
X75949997Y-63644999D02*
X76740001Y-63644999D01*
X75074999Y-62770001D02*
X75949997Y-63644999D01*
X75074999Y-60815001D02*
X75074999Y-62770001D01*
X76200000Y-59690000D02*
X75074999Y-60815001D01*
X80256599Y-71264999D02*
X83279999Y-71264999D01*
X80256599Y-67161597D02*
X80256599Y-71264999D01*
X75659999Y-71264999D02*
X80256599Y-71264999D01*
X75074999Y-99204999D02*
X74973399Y-99204999D01*
X74973399Y-99204999D02*
X74218800Y-98450400D01*
X74218800Y-72706198D02*
X75342099Y-71582899D01*
X74218800Y-98450400D02*
X74218800Y-72706198D01*
X75342099Y-71582899D02*
X75659999Y-71264999D01*
X75074999Y-71849999D02*
X75342099Y-71582899D01*
%TO.N,5V*%
X75659999Y-78884999D02*
X81029997Y-78884999D01*
X75074999Y-79469999D02*
X75659999Y-78884999D01*
X101744999Y-89044999D02*
X106680000Y-93980000D01*
X75074999Y-83964999D02*
X75074999Y-79469999D01*
X76200000Y-85090000D02*
X75074999Y-83964999D01*
X96375001Y-83675001D02*
X106680000Y-93980000D01*
X85819999Y-83675001D02*
X96375001Y-83675001D01*
X81029997Y-78884999D02*
X85819999Y-83675001D01*
%TD*%
D21*
%TO.N,GND*%
X225449630Y-50098785D02*
X225690521Y-50206050D01*
X225903793Y-50360945D01*
X226080100Y-50556792D01*
X226211947Y-50785113D01*
X226293400Y-51035837D01*
X226325001Y-51336524D01*
X226325001Y-55110752D01*
X226299651Y-55082570D01*
X226274621Y-55049534D01*
X226224323Y-55004877D01*
X226174695Y-54959553D01*
X226139227Y-54938112D01*
X226019732Y-54851373D01*
X225988796Y-54824595D01*
X225929885Y-54791089D01*
X225871413Y-54756852D01*
X225832749Y-54743463D01*
X225698088Y-54683497D01*
X225662102Y-54663648D01*
X225597669Y-54643171D01*
X225533547Y-54621867D01*
X225492774Y-54616767D01*
X225348454Y-54586078D01*
X225309085Y-54574135D01*
X225241815Y-54567510D01*
X225174735Y-54560009D01*
X225133758Y-54563500D01*
X224986141Y-54563500D01*
X224945164Y-54560009D01*
X224878076Y-54567510D01*
X224810815Y-54574135D01*
X224771447Y-54586077D01*
X224627054Y-54616783D01*
X224586212Y-54621899D01*
X224522165Y-54643192D01*
X224457798Y-54663648D01*
X224421750Y-54683531D01*
X224287180Y-54743488D01*
X224248587Y-54756852D01*
X224190064Y-54791119D01*
X224131088Y-54824677D01*
X224100211Y-54851414D01*
X223980883Y-54938033D01*
X223945514Y-54959397D01*
X223895738Y-55004823D01*
X223845379Y-55049534D01*
X223820430Y-55082464D01*
X223721562Y-55192301D01*
X223691584Y-55220383D01*
X223652212Y-55275336D01*
X223612123Y-55329778D01*
X223594687Y-55366973D01*
X223520954Y-55494707D01*
X223497429Y-55528477D01*
X223470381Y-55590353D01*
X223442520Y-55651857D01*
X223433178Y-55691938D01*
X223387631Y-55832228D01*
X223371710Y-55869942D01*
X223358043Y-55936305D01*
X223343544Y-56002463D01*
X223342750Y-56043387D01*
X223327305Y-56190044D01*
X223319532Y-56230537D01*
X223319984Y-56297990D01*
X223319529Y-56365426D01*
X223327299Y-56405917D01*
X223342754Y-56552736D01*
X223343556Y-56593745D01*
X223358060Y-56659877D01*
X223371699Y-56726123D01*
X223387646Y-56763904D01*
X223433192Y-56904121D01*
X223442520Y-56944143D01*
X223470388Y-57005661D01*
X223497482Y-57067618D01*
X223520981Y-57101341D01*
X223594687Y-57229027D01*
X223612123Y-57266222D01*
X223652212Y-57320664D01*
X223691584Y-57375617D01*
X223721562Y-57403699D01*
X223820331Y-57513427D01*
X223845186Y-57546258D01*
X223895662Y-57591108D01*
X223945514Y-57636603D01*
X223980757Y-57657892D01*
X224100234Y-57744688D01*
X224131350Y-57771608D01*
X224190067Y-57804984D01*
X224248328Y-57839128D01*
X224287200Y-57852606D01*
X224421890Y-57912546D01*
X224457798Y-57932352D01*
X224522290Y-57952847D01*
X224586526Y-57974173D01*
X224627220Y-57979253D01*
X224771447Y-58009923D01*
X224810815Y-58021865D01*
X224878076Y-58028490D01*
X224945164Y-58035991D01*
X224986141Y-58032500D01*
X225133758Y-58032500D01*
X225174735Y-58035991D01*
X225241815Y-58028490D01*
X225309085Y-58021865D01*
X225348454Y-58009922D01*
X225492613Y-57979267D01*
X225533234Y-57974204D01*
X225597546Y-57952868D01*
X225662102Y-57932352D01*
X225697945Y-57912582D01*
X225832726Y-57852632D01*
X225871672Y-57839129D01*
X225929890Y-57805010D01*
X225988533Y-57771691D01*
X226019711Y-57744727D01*
X226139347Y-57657815D01*
X226174695Y-57636447D01*
X226224421Y-57591034D01*
X226274814Y-57546258D01*
X226299750Y-57513320D01*
X226325001Y-57485248D01*
X226325000Y-111259486D01*
X226293400Y-111560163D01*
X226211947Y-111810887D01*
X226080100Y-112039208D01*
X225903793Y-112235055D01*
X225690521Y-112389950D01*
X225449630Y-112497215D01*
X225191783Y-112552000D01*
X74928217Y-112552000D01*
X74670369Y-112497215D01*
X74429483Y-112389952D01*
X74216205Y-112235053D01*
X74039901Y-112039209D01*
X73908054Y-111810889D01*
X73826600Y-111560163D01*
X73795000Y-111259486D01*
X73795000Y-99101401D01*
X74409600Y-99716001D01*
X74433398Y-99745000D01*
X74462396Y-99768798D01*
X74549122Y-99839973D01*
X74655516Y-99896842D01*
X74681152Y-99910545D01*
X74711928Y-99919881D01*
X74711928Y-101180000D01*
X74724188Y-101304482D01*
X74760498Y-101424180D01*
X74819463Y-101534494D01*
X74898815Y-101631185D01*
X74995506Y-101710537D01*
X75105820Y-101769502D01*
X75225518Y-101805812D01*
X75350000Y-101818072D01*
X77050000Y-101818072D01*
X77174482Y-101805812D01*
X77294180Y-101769502D01*
X77404494Y-101710537D01*
X77501185Y-101631185D01*
X77580537Y-101534494D01*
X77639502Y-101424180D01*
X77663966Y-101343534D01*
X77739731Y-101427588D01*
X77973080Y-101601641D01*
X78235901Y-101726825D01*
X78383110Y-101771476D01*
X78613000Y-101650155D01*
X78613000Y-100457000D01*
X78593000Y-100457000D01*
X78593000Y-100203000D01*
X78613000Y-100203000D01*
X78613000Y-99009845D01*
X78383110Y-98888524D01*
X78235901Y-98933175D01*
X77973080Y-99058359D01*
X77739731Y-99232412D01*
X77663966Y-99316466D01*
X77639502Y-99235820D01*
X77580537Y-99125506D01*
X77501185Y-99028815D01*
X77404494Y-98949463D01*
X77294180Y-98890498D01*
X77174482Y-98854188D01*
X77050000Y-98841928D01*
X75786729Y-98841928D01*
X75638803Y-98694001D01*
X75615000Y-98664998D01*
X75499275Y-98570025D01*
X75367246Y-98499453D01*
X75331947Y-98488745D01*
X74978800Y-98135599D01*
X74978800Y-93465276D01*
X75085363Y-93624759D01*
X75285241Y-93824637D01*
X75520273Y-93981680D01*
X75781426Y-94089853D01*
X76058665Y-94145000D01*
X76341335Y-94145000D01*
X76618574Y-94089853D01*
X76879727Y-93981680D01*
X77114759Y-93824637D01*
X77314637Y-93624759D01*
X77471680Y-93389727D01*
X77579853Y-93128574D01*
X77635000Y-92851335D01*
X77635000Y-92568665D01*
X77579853Y-92291426D01*
X77471680Y-92030273D01*
X77314637Y-91795241D01*
X77114759Y-91595363D01*
X76879727Y-91438320D01*
X76869135Y-91433933D01*
X77055131Y-91322385D01*
X77263519Y-91133414D01*
X77431037Y-90907420D01*
X77551246Y-90653087D01*
X77591904Y-90519039D01*
X77469915Y-90297000D01*
X76327000Y-90297000D01*
X76327000Y-90317000D01*
X76073000Y-90317000D01*
X76073000Y-90297000D01*
X76053000Y-90297000D01*
X76053000Y-90043000D01*
X76073000Y-90043000D01*
X76073000Y-90023000D01*
X76327000Y-90023000D01*
X76327000Y-90043000D01*
X77469915Y-90043000D01*
X77591904Y-89820961D01*
X77551246Y-89686913D01*
X77431037Y-89432580D01*
X77263519Y-89206586D01*
X77055131Y-89017615D01*
X76869135Y-88906067D01*
X76879727Y-88901680D01*
X77114759Y-88744637D01*
X77314637Y-88544759D01*
X77471680Y-88309727D01*
X77579853Y-88048574D01*
X77635000Y-87771335D01*
X77635000Y-87488665D01*
X77579853Y-87211426D01*
X77471680Y-86950273D01*
X77314637Y-86715241D01*
X77114759Y-86515363D01*
X76882241Y-86360000D01*
X77114759Y-86204637D01*
X77314637Y-86004759D01*
X77471680Y-85769727D01*
X77579853Y-85508574D01*
X77635000Y-85231335D01*
X77635000Y-84948665D01*
X77579853Y-84671426D01*
X77471680Y-84410273D01*
X77314637Y-84175241D01*
X77114759Y-83975363D01*
X76882241Y-83820000D01*
X77114759Y-83664637D01*
X77314637Y-83464759D01*
X77471680Y-83229727D01*
X77579853Y-82968574D01*
X77635000Y-82691335D01*
X77635000Y-82519801D01*
X93960198Y-98845000D01*
X93833740Y-98845000D01*
X93546842Y-98902068D01*
X93276589Y-99014010D01*
X93033368Y-99176525D01*
X92826525Y-99383368D01*
X92710000Y-99557760D01*
X92593475Y-99383368D01*
X92386632Y-99176525D01*
X92143411Y-99014010D01*
X91873158Y-98902068D01*
X91586260Y-98845000D01*
X91293740Y-98845000D01*
X91006842Y-98902068D01*
X90736589Y-99014010D01*
X90493368Y-99176525D01*
X90286525Y-99383368D01*
X90170000Y-99557760D01*
X90053475Y-99383368D01*
X89846632Y-99176525D01*
X89603411Y-99014010D01*
X89333158Y-98902068D01*
X89046260Y-98845000D01*
X88753740Y-98845000D01*
X88466842Y-98902068D01*
X88196589Y-99014010D01*
X87953368Y-99176525D01*
X87746525Y-99383368D01*
X87630000Y-99557760D01*
X87513475Y-99383368D01*
X87306632Y-99176525D01*
X87063411Y-99014010D01*
X86793158Y-98902068D01*
X86506260Y-98845000D01*
X86213740Y-98845000D01*
X85926842Y-98902068D01*
X85656589Y-99014010D01*
X85413368Y-99176525D01*
X85206525Y-99383368D01*
X85090000Y-99557760D01*
X84973475Y-99383368D01*
X84766632Y-99176525D01*
X84523411Y-99014010D01*
X84253158Y-98902068D01*
X83966260Y-98845000D01*
X83673740Y-98845000D01*
X83386842Y-98902068D01*
X83116589Y-99014010D01*
X82873368Y-99176525D01*
X82666525Y-99383368D01*
X82550000Y-99557760D01*
X82433475Y-99383368D01*
X82226632Y-99176525D01*
X81983411Y-99014010D01*
X81713158Y-98902068D01*
X81426260Y-98845000D01*
X81133740Y-98845000D01*
X80846842Y-98902068D01*
X80576589Y-99014010D01*
X80333368Y-99176525D01*
X80126525Y-99383368D01*
X80004805Y-99565534D01*
X79935178Y-99448645D01*
X79740269Y-99232412D01*
X79506920Y-99058359D01*
X79244099Y-98933175D01*
X79096890Y-98888524D01*
X78867000Y-99009845D01*
X78867000Y-100203000D01*
X78887000Y-100203000D01*
X78887000Y-100457000D01*
X78867000Y-100457000D01*
X78867000Y-101650155D01*
X79096890Y-101771476D01*
X79244099Y-101726825D01*
X79506920Y-101601641D01*
X79740269Y-101427588D01*
X79935178Y-101211355D01*
X80004805Y-101094466D01*
X80126525Y-101276632D01*
X80333368Y-101483475D01*
X80576589Y-101645990D01*
X80846842Y-101757932D01*
X81133740Y-101815000D01*
X81426260Y-101815000D01*
X81713158Y-101757932D01*
X81983411Y-101645990D01*
X82226632Y-101483475D01*
X82433475Y-101276632D01*
X82550000Y-101102240D01*
X82666525Y-101276632D01*
X82873368Y-101483475D01*
X83116589Y-101645990D01*
X83386842Y-101757932D01*
X83673740Y-101815000D01*
X83966260Y-101815000D01*
X84253158Y-101757932D01*
X84523411Y-101645990D01*
X84766632Y-101483475D01*
X84973475Y-101276632D01*
X85090000Y-101102240D01*
X85206525Y-101276632D01*
X85413368Y-101483475D01*
X85656589Y-101645990D01*
X85926842Y-101757932D01*
X86213740Y-101815000D01*
X86506260Y-101815000D01*
X86793158Y-101757932D01*
X87063411Y-101645990D01*
X87306632Y-101483475D01*
X87513475Y-101276632D01*
X87630000Y-101102240D01*
X87746525Y-101276632D01*
X87953368Y-101483475D01*
X88196589Y-101645990D01*
X88466842Y-101757932D01*
X88753740Y-101815000D01*
X89046260Y-101815000D01*
X89333158Y-101757932D01*
X89603411Y-101645990D01*
X89846632Y-101483475D01*
X90053475Y-101276632D01*
X90170000Y-101102240D01*
X90286525Y-101276632D01*
X90493368Y-101483475D01*
X90736589Y-101645990D01*
X91006842Y-101757932D01*
X91293740Y-101815000D01*
X91586260Y-101815000D01*
X91873158Y-101757932D01*
X92143411Y-101645990D01*
X92386632Y-101483475D01*
X92593475Y-101276632D01*
X92710000Y-101102240D01*
X92826525Y-101276632D01*
X93033368Y-101483475D01*
X93276589Y-101645990D01*
X93546842Y-101757932D01*
X93833740Y-101815000D01*
X94126260Y-101815000D01*
X94413158Y-101757932D01*
X94683411Y-101645990D01*
X94926632Y-101483475D01*
X95133475Y-101276632D01*
X95295990Y-101033411D01*
X95407932Y-100763158D01*
X95465000Y-100476260D01*
X95465000Y-100349802D01*
X103324001Y-108208804D01*
X103324002Y-108872669D01*
X103320325Y-108910001D01*
X103334999Y-109058986D01*
X103378455Y-109202247D01*
X103449027Y-109334277D01*
X103520202Y-109421003D01*
X103544001Y-109450002D01*
X103572999Y-109473800D01*
X105659001Y-111559803D01*
X105682799Y-111588801D01*
X105785252Y-111672882D01*
X105798524Y-111683774D01*
X105930553Y-111754346D01*
X106073814Y-111797803D01*
X106222800Y-111812477D01*
X106260133Y-111808800D01*
X167043878Y-111808800D01*
X167081200Y-111812476D01*
X167118522Y-111808800D01*
X167118533Y-111808800D01*
X167230186Y-111797803D01*
X167373447Y-111754346D01*
X167505476Y-111683774D01*
X167621201Y-111588801D01*
X167645004Y-111559797D01*
X171050425Y-108154377D01*
X171299899Y-108204000D01*
X171600101Y-108204000D01*
X171894534Y-108145434D01*
X172171885Y-108030551D01*
X172421493Y-107863768D01*
X172549030Y-107736231D01*
X173113374Y-107736231D01*
X173195727Y-107989289D01*
X173466418Y-108119086D01*
X173757230Y-108193580D01*
X174056988Y-108209908D01*
X174354171Y-108167443D01*
X174637359Y-108067816D01*
X174784273Y-107989289D01*
X174866626Y-107736231D01*
X173990000Y-106859605D01*
X173113374Y-107736231D01*
X172549030Y-107736231D01*
X172633768Y-107651493D01*
X172739417Y-107493378D01*
X172933769Y-107556626D01*
X173810395Y-106680000D01*
X174169605Y-106680000D01*
X175046231Y-107556626D01*
X175299289Y-107474273D01*
X175429086Y-107203582D01*
X175503580Y-106912770D01*
X175519908Y-106613012D01*
X175477443Y-106315829D01*
X175440212Y-106210000D01*
X196681928Y-106210000D01*
X196694188Y-106334482D01*
X196730498Y-106454180D01*
X196789463Y-106564494D01*
X196868815Y-106661185D01*
X196965506Y-106740537D01*
X197075820Y-106799502D01*
X197195518Y-106835812D01*
X197320000Y-106848072D01*
X197834250Y-106845000D01*
X197993000Y-106686250D01*
X197993000Y-105537000D01*
X198247000Y-105537000D01*
X198247000Y-106686250D01*
X198405750Y-106845000D01*
X198920000Y-106848072D01*
X199044482Y-106835812D01*
X199164180Y-106799502D01*
X199274494Y-106740537D01*
X199371185Y-106661185D01*
X199450537Y-106564494D01*
X199509502Y-106454180D01*
X199545812Y-106334482D01*
X199558072Y-106210000D01*
X199555000Y-105695750D01*
X199396250Y-105537000D01*
X198247000Y-105537000D01*
X197993000Y-105537000D01*
X196843750Y-105537000D01*
X196685000Y-105695750D01*
X196681928Y-106210000D01*
X175440212Y-106210000D01*
X175377816Y-106032641D01*
X175299289Y-105885727D01*
X175046231Y-105803374D01*
X174169605Y-106680000D01*
X173810395Y-106680000D01*
X172933769Y-105803374D01*
X172739417Y-105866622D01*
X172633768Y-105708507D01*
X172549030Y-105623769D01*
X173113374Y-105623769D01*
X173990000Y-106500395D01*
X174866626Y-105623769D01*
X174784273Y-105370711D01*
X174513582Y-105240914D01*
X174222770Y-105166420D01*
X173923012Y-105150092D01*
X173625829Y-105192557D01*
X173342641Y-105292184D01*
X173195727Y-105370711D01*
X173113374Y-105623769D01*
X172549030Y-105623769D01*
X172421493Y-105496232D01*
X172171885Y-105329449D01*
X171894534Y-105214566D01*
X171600101Y-105156000D01*
X171299899Y-105156000D01*
X171005466Y-105214566D01*
X170728115Y-105329449D01*
X170478507Y-105496232D01*
X170266232Y-105708507D01*
X170180000Y-105837562D01*
X170093768Y-105708507D01*
X169881493Y-105496232D01*
X169631885Y-105329449D01*
X169354534Y-105214566D01*
X169060101Y-105156000D01*
X168759899Y-105156000D01*
X168465466Y-105214566D01*
X168188115Y-105329449D01*
X167938507Y-105496232D01*
X167726232Y-105708507D01*
X167559449Y-105958115D01*
X167444566Y-106235466D01*
X167386000Y-106529899D01*
X167386000Y-106830101D01*
X167444566Y-107124534D01*
X167559449Y-107401885D01*
X167726232Y-107651493D01*
X167938507Y-107863768D01*
X168188115Y-108030551D01*
X168465466Y-108145434D01*
X168759899Y-108204000D01*
X168851198Y-108204000D01*
X166766399Y-110288800D01*
X106537602Y-110288800D01*
X104844001Y-108595200D01*
X104844001Y-107931323D01*
X104847677Y-107894000D01*
X104844001Y-107856677D01*
X104844001Y-107856668D01*
X104833004Y-107745015D01*
X104789547Y-107601754D01*
X104718975Y-107469725D01*
X104694580Y-107440000D01*
X104647800Y-107382997D01*
X104647796Y-107382993D01*
X104624002Y-107354000D01*
X104595011Y-107330208D01*
X100277185Y-103012382D01*
X107442000Y-103012382D01*
X107442000Y-103362618D01*
X107510328Y-103706123D01*
X107644357Y-104029699D01*
X107838937Y-104320909D01*
X108086591Y-104568563D01*
X108377801Y-104763143D01*
X108701377Y-104897172D01*
X109044882Y-104965500D01*
X109395118Y-104965500D01*
X109738623Y-104897172D01*
X110062199Y-104763143D01*
X110353409Y-104568563D01*
X110601063Y-104320909D01*
X110795643Y-104029699D01*
X110929672Y-103706123D01*
X110998000Y-103362618D01*
X110998000Y-103012382D01*
X110929672Y-102668877D01*
X110795643Y-102345301D01*
X110601063Y-102054091D01*
X110353409Y-101806437D01*
X110062199Y-101611857D01*
X109738623Y-101477828D01*
X109395118Y-101409500D01*
X109044882Y-101409500D01*
X108701377Y-101477828D01*
X108377801Y-101611857D01*
X108086591Y-101806437D01*
X107838937Y-102054091D01*
X107644357Y-102345301D01*
X107510328Y-102668877D01*
X107442000Y-103012382D01*
X100277185Y-103012382D01*
X97381034Y-100116231D01*
X105803374Y-100116231D01*
X105885727Y-100369289D01*
X106156418Y-100499086D01*
X106447230Y-100573580D01*
X106746988Y-100589908D01*
X107044171Y-100547443D01*
X107327359Y-100447816D01*
X107474273Y-100369289D01*
X107556626Y-100116231D01*
X106680000Y-99239605D01*
X105803374Y-100116231D01*
X97381034Y-100116231D01*
X96391791Y-99126988D01*
X105150092Y-99126988D01*
X105192557Y-99424171D01*
X105292184Y-99707359D01*
X105370711Y-99854273D01*
X105623769Y-99936626D01*
X106500395Y-99060000D01*
X106859605Y-99060000D01*
X107736231Y-99936626D01*
X107989289Y-99854273D01*
X108119086Y-99583582D01*
X108193580Y-99292770D01*
X108209908Y-98993012D01*
X108167443Y-98695829D01*
X108067816Y-98412641D01*
X107989289Y-98265727D01*
X107736231Y-98183374D01*
X106859605Y-99060000D01*
X106500395Y-99060000D01*
X105623769Y-98183374D01*
X105370711Y-98265727D01*
X105240914Y-98536418D01*
X105166420Y-98827230D01*
X105150092Y-99126988D01*
X96391791Y-99126988D01*
X91412874Y-94148072D01*
X92240000Y-94148072D01*
X92364482Y-94135812D01*
X92484180Y-94099502D01*
X92594494Y-94040537D01*
X92691185Y-93961185D01*
X92770537Y-93864494D01*
X92829502Y-93754180D01*
X92865812Y-93634482D01*
X92878072Y-93510000D01*
X92878072Y-91910000D01*
X92865812Y-91785518D01*
X92829502Y-91665820D01*
X92770537Y-91555506D01*
X92691185Y-91458815D01*
X92594494Y-91379463D01*
X92484180Y-91320498D01*
X92364482Y-91284188D01*
X92356039Y-91283357D01*
X92554637Y-91084759D01*
X92711680Y-90849727D01*
X92819853Y-90588574D01*
X92875000Y-90311335D01*
X92875000Y-90028665D01*
X92819853Y-89751426D01*
X92711680Y-89490273D01*
X92554637Y-89255241D01*
X92354759Y-89055363D01*
X92122241Y-88900000D01*
X92354759Y-88744637D01*
X92554637Y-88544759D01*
X92711680Y-88309727D01*
X92819853Y-88048574D01*
X92875000Y-87771335D01*
X92875000Y-87488665D01*
X92819853Y-87211426D01*
X92711680Y-86950273D01*
X92554637Y-86715241D01*
X92354759Y-86515363D01*
X92119727Y-86358320D01*
X92109135Y-86353933D01*
X92295131Y-86242385D01*
X92503519Y-86053414D01*
X92671037Y-85827420D01*
X92791246Y-85573087D01*
X92831904Y-85439039D01*
X92709915Y-85217000D01*
X91567000Y-85217000D01*
X91567000Y-85237000D01*
X91313000Y-85237000D01*
X91313000Y-85217000D01*
X90170085Y-85217000D01*
X90048096Y-85439039D01*
X90088754Y-85573087D01*
X90208963Y-85827420D01*
X90376481Y-86053414D01*
X90584869Y-86242385D01*
X90770865Y-86353933D01*
X90760273Y-86358320D01*
X90525241Y-86515363D01*
X90325363Y-86715241D01*
X90168320Y-86950273D01*
X90060147Y-87211426D01*
X90005000Y-87488665D01*
X90005000Y-87771335D01*
X90060147Y-88048574D01*
X90168320Y-88309727D01*
X90325363Y-88544759D01*
X90525241Y-88744637D01*
X90757759Y-88900000D01*
X90525241Y-89055363D01*
X90325363Y-89255241D01*
X90168320Y-89490273D01*
X90060147Y-89751426D01*
X90005000Y-90028665D01*
X90005000Y-90311335D01*
X90060147Y-90588574D01*
X90168320Y-90849727D01*
X90325363Y-91084759D01*
X90523961Y-91283357D01*
X90515518Y-91284188D01*
X90395820Y-91320498D01*
X90285506Y-91379463D01*
X90188815Y-91458815D01*
X90109463Y-91555506D01*
X90050498Y-91665820D01*
X90014188Y-91785518D01*
X90001928Y-91910000D01*
X90001928Y-92737126D01*
X77598688Y-80333887D01*
X77635000Y-80151335D01*
X77635000Y-79868665D01*
X77590509Y-79644999D01*
X80715196Y-79644999D01*
X85256199Y-84186003D01*
X85279998Y-84215002D01*
X85395723Y-84309975D01*
X85527752Y-84380547D01*
X85671013Y-84424004D01*
X85782666Y-84435001D01*
X85782674Y-84435001D01*
X85819999Y-84438677D01*
X85857324Y-84435001D01*
X90170007Y-84435001D01*
X90088754Y-84606913D01*
X90048096Y-84740961D01*
X90170085Y-84963000D01*
X91313000Y-84963000D01*
X91313000Y-84943000D01*
X91567000Y-84943000D01*
X91567000Y-84963000D01*
X92709915Y-84963000D01*
X92831904Y-84740961D01*
X92791246Y-84606913D01*
X92709993Y-84435001D01*
X96060200Y-84435001D01*
X103770704Y-92145506D01*
X105205623Y-93580425D01*
X105156000Y-93829899D01*
X105156000Y-94130101D01*
X105214566Y-94424534D01*
X105329449Y-94701885D01*
X105496232Y-94951493D01*
X105708507Y-95163768D01*
X105837562Y-95250000D01*
X105708507Y-95336232D01*
X105496232Y-95548507D01*
X105329449Y-95798115D01*
X105214566Y-96075466D01*
X105156000Y-96369899D01*
X105156000Y-96670101D01*
X105214566Y-96964534D01*
X105329449Y-97241885D01*
X105496232Y-97491493D01*
X105708507Y-97703768D01*
X105866622Y-97809417D01*
X105803374Y-98003769D01*
X106680000Y-98880395D01*
X107556626Y-98003769D01*
X107493378Y-97809417D01*
X107651493Y-97703768D01*
X107863768Y-97491493D01*
X108030551Y-97241885D01*
X108145434Y-96964534D01*
X108204000Y-96670101D01*
X108204000Y-96369899D01*
X108145434Y-96075466D01*
X108030551Y-95798115D01*
X107863768Y-95548507D01*
X107651493Y-95336232D01*
X107522438Y-95250000D01*
X107651493Y-95163768D01*
X107863768Y-94951493D01*
X108030551Y-94701885D01*
X108057865Y-94635944D01*
X116080000Y-102658080D01*
X116080001Y-105354916D01*
X115868507Y-105496232D01*
X115656232Y-105708507D01*
X115570000Y-105837562D01*
X115483768Y-105708507D01*
X115271493Y-105496232D01*
X115021885Y-105329449D01*
X114744534Y-105214566D01*
X114450101Y-105156000D01*
X114149899Y-105156000D01*
X113855466Y-105214566D01*
X113578115Y-105329449D01*
X113328507Y-105496232D01*
X113116232Y-105708507D01*
X112949449Y-105958115D01*
X112834566Y-106235466D01*
X112776000Y-106529899D01*
X112776000Y-106830101D01*
X112834566Y-107124534D01*
X112949449Y-107401885D01*
X113116232Y-107651493D01*
X113328507Y-107863768D01*
X113578115Y-108030551D01*
X113855466Y-108145434D01*
X114149899Y-108204000D01*
X114450101Y-108204000D01*
X114744534Y-108145434D01*
X115021885Y-108030551D01*
X115271493Y-107863768D01*
X115483768Y-107651493D01*
X115570000Y-107522438D01*
X115656232Y-107651493D01*
X115868507Y-107863768D01*
X116118115Y-108030551D01*
X116395466Y-108145434D01*
X116689899Y-108204000D01*
X116990101Y-108204000D01*
X117284534Y-108145434D01*
X117561885Y-108030551D01*
X117811493Y-107863768D01*
X117939030Y-107736231D01*
X118503374Y-107736231D01*
X118585727Y-107989289D01*
X118856418Y-108119086D01*
X119147230Y-108193580D01*
X119446988Y-108209908D01*
X119744171Y-108167443D01*
X120027359Y-108067816D01*
X120174273Y-107989289D01*
X120256626Y-107736231D01*
X119380000Y-106859605D01*
X118503374Y-107736231D01*
X117939030Y-107736231D01*
X118023768Y-107651493D01*
X118129417Y-107493378D01*
X118323769Y-107556626D01*
X119200395Y-106680000D01*
X119559605Y-106680000D01*
X120436231Y-107556626D01*
X120689289Y-107474273D01*
X120819086Y-107203582D01*
X120893580Y-106912770D01*
X120909908Y-106613012D01*
X120867443Y-106315829D01*
X120767816Y-106032641D01*
X120689289Y-105885727D01*
X120436231Y-105803374D01*
X119559605Y-106680000D01*
X119200395Y-106680000D01*
X118323769Y-105803374D01*
X118129417Y-105866622D01*
X118023768Y-105708507D01*
X117939030Y-105623769D01*
X118503374Y-105623769D01*
X119380000Y-106500395D01*
X120256626Y-105623769D01*
X120174273Y-105370711D01*
X119903582Y-105240914D01*
X119612770Y-105166420D01*
X119313012Y-105150092D01*
X119015829Y-105192557D01*
X118732641Y-105292184D01*
X118585727Y-105370711D01*
X118503374Y-105623769D01*
X117939030Y-105623769D01*
X117811493Y-105496232D01*
X117600000Y-105354917D01*
X117600000Y-103012382D01*
X122682000Y-103012382D01*
X122682000Y-103362618D01*
X122750328Y-103706123D01*
X122884357Y-104029699D01*
X123078937Y-104320909D01*
X123326591Y-104568563D01*
X123617801Y-104763143D01*
X123941377Y-104897172D01*
X124284882Y-104965500D01*
X124635118Y-104965500D01*
X124978623Y-104897172D01*
X125302199Y-104763143D01*
X125593409Y-104568563D01*
X125841063Y-104320909D01*
X126035643Y-104029699D01*
X126169672Y-103706123D01*
X126238000Y-103362618D01*
X126238000Y-103012382D01*
X126180586Y-102723740D01*
X142025000Y-102723740D01*
X142025000Y-103016260D01*
X142082068Y-103303158D01*
X142194010Y-103573411D01*
X142356525Y-103816632D01*
X142563368Y-104023475D01*
X142806589Y-104185990D01*
X143076842Y-104297932D01*
X143363740Y-104355000D01*
X143656260Y-104355000D01*
X143943158Y-104297932D01*
X144213411Y-104185990D01*
X144456632Y-104023475D01*
X144588487Y-103891620D01*
X144610498Y-103964180D01*
X144669463Y-104074494D01*
X144748815Y-104171185D01*
X144845506Y-104250537D01*
X144955820Y-104309502D01*
X145075518Y-104345812D01*
X145200000Y-104358072D01*
X145764250Y-104355000D01*
X145923000Y-104196250D01*
X145923000Y-102997000D01*
X146177000Y-102997000D01*
X146177000Y-104196250D01*
X146335750Y-104355000D01*
X146900000Y-104358072D01*
X147024482Y-104345812D01*
X147144180Y-104309502D01*
X147254494Y-104250537D01*
X147351185Y-104171185D01*
X147430537Y-104074494D01*
X147489502Y-103964180D01*
X147525812Y-103844482D01*
X147538072Y-103720000D01*
X147535000Y-103155750D01*
X147391632Y-103012382D01*
X162052000Y-103012382D01*
X162052000Y-103362618D01*
X162120328Y-103706123D01*
X162254357Y-104029699D01*
X162448937Y-104320909D01*
X162696591Y-104568563D01*
X162987801Y-104763143D01*
X163311377Y-104897172D01*
X163654882Y-104965500D01*
X164005118Y-104965500D01*
X164348623Y-104897172D01*
X164672199Y-104763143D01*
X164963409Y-104568563D01*
X165211063Y-104320909D01*
X165405643Y-104029699D01*
X165539672Y-103706123D01*
X165608000Y-103362618D01*
X165608000Y-103012382D01*
X165539672Y-102668877D01*
X165405643Y-102345301D01*
X165211063Y-102054091D01*
X164963409Y-101806437D01*
X164672199Y-101611857D01*
X164348623Y-101477828D01*
X164005118Y-101409500D01*
X163654882Y-101409500D01*
X163311377Y-101477828D01*
X162987801Y-101611857D01*
X162696591Y-101806437D01*
X162448937Y-102054091D01*
X162254357Y-102345301D01*
X162120328Y-102668877D01*
X162052000Y-103012382D01*
X147391632Y-103012382D01*
X147376250Y-102997000D01*
X146177000Y-102997000D01*
X145923000Y-102997000D01*
X145903000Y-102997000D01*
X145903000Y-102743000D01*
X145923000Y-102743000D01*
X145923000Y-101543750D01*
X146177000Y-101543750D01*
X146177000Y-102743000D01*
X147376250Y-102743000D01*
X147535000Y-102584250D01*
X147538072Y-102020000D01*
X147525812Y-101895518D01*
X147489502Y-101775820D01*
X147430537Y-101665506D01*
X147351185Y-101568815D01*
X147254494Y-101489463D01*
X147144180Y-101430498D01*
X147024482Y-101394188D01*
X146900000Y-101381928D01*
X146335750Y-101385000D01*
X146177000Y-101543750D01*
X145923000Y-101543750D01*
X145764250Y-101385000D01*
X145200000Y-101381928D01*
X145075518Y-101394188D01*
X144955820Y-101430498D01*
X144845506Y-101489463D01*
X144748815Y-101568815D01*
X144669463Y-101665506D01*
X144610498Y-101775820D01*
X144588487Y-101848380D01*
X144456632Y-101716525D01*
X144213411Y-101554010D01*
X143943158Y-101442068D01*
X143656260Y-101385000D01*
X143363740Y-101385000D01*
X143076842Y-101442068D01*
X142806589Y-101554010D01*
X142563368Y-101716525D01*
X142356525Y-101923368D01*
X142194010Y-102166589D01*
X142082068Y-102436842D01*
X142025000Y-102723740D01*
X126180586Y-102723740D01*
X126169672Y-102668877D01*
X126035643Y-102345301D01*
X125841063Y-102054091D01*
X125593409Y-101806437D01*
X125302199Y-101611857D01*
X124978623Y-101477828D01*
X124635118Y-101409500D01*
X124284882Y-101409500D01*
X123941377Y-101477828D01*
X123617801Y-101611857D01*
X123326591Y-101806437D01*
X123078937Y-102054091D01*
X122884357Y-102345301D01*
X122750328Y-102668877D01*
X122682000Y-103012382D01*
X117600000Y-103012382D01*
X117600000Y-102380601D01*
X117603676Y-102343278D01*
X117600000Y-102305955D01*
X117600000Y-102305945D01*
X117589003Y-102194292D01*
X117545546Y-102051031D01*
X117474974Y-101919002D01*
X117380001Y-101803277D01*
X117351004Y-101779480D01*
X115687755Y-100116231D01*
X160413374Y-100116231D01*
X160495727Y-100369289D01*
X160766418Y-100499086D01*
X161057230Y-100573580D01*
X161356988Y-100589908D01*
X161654171Y-100547443D01*
X161937359Y-100447816D01*
X162084273Y-100369289D01*
X162166626Y-100116231D01*
X161290000Y-99239605D01*
X160413374Y-100116231D01*
X115687755Y-100116231D01*
X114698512Y-99126988D01*
X159760092Y-99126988D01*
X159802557Y-99424171D01*
X159902184Y-99707359D01*
X159980711Y-99854273D01*
X160233769Y-99936626D01*
X161110395Y-99060000D01*
X161469605Y-99060000D01*
X162346231Y-99936626D01*
X162599289Y-99854273D01*
X162729086Y-99583582D01*
X162803580Y-99292770D01*
X162819908Y-98993012D01*
X162777443Y-98695829D01*
X162677816Y-98412641D01*
X162599289Y-98265727D01*
X162346231Y-98183374D01*
X161469605Y-99060000D01*
X161110395Y-99060000D01*
X160233769Y-98183374D01*
X159980711Y-98265727D01*
X159850914Y-98536418D01*
X159776420Y-98827230D01*
X159760092Y-99126988D01*
X114698512Y-99126988D01*
X109401423Y-93829899D01*
X159766000Y-93829899D01*
X159766000Y-94130101D01*
X159824566Y-94424534D01*
X159939449Y-94701885D01*
X160106232Y-94951493D01*
X160318507Y-95163768D01*
X160447562Y-95250000D01*
X160318507Y-95336232D01*
X160106232Y-95548507D01*
X159939449Y-95798115D01*
X159824566Y-96075466D01*
X159766000Y-96369899D01*
X159766000Y-96670101D01*
X159824566Y-96964534D01*
X159939449Y-97241885D01*
X160106232Y-97491493D01*
X160318507Y-97703768D01*
X160476622Y-97809417D01*
X160413374Y-98003769D01*
X161290000Y-98880395D01*
X162166626Y-98003769D01*
X162103378Y-97809417D01*
X162261493Y-97703768D01*
X162473768Y-97491493D01*
X162640551Y-97241885D01*
X162755434Y-96964534D01*
X162814000Y-96670101D01*
X162814000Y-96369899D01*
X162755434Y-96075466D01*
X162640551Y-95798115D01*
X162473768Y-95548507D01*
X162261493Y-95336232D01*
X162132438Y-95250000D01*
X162261493Y-95163768D01*
X162473768Y-94951493D01*
X162640551Y-94701885D01*
X162755434Y-94424534D01*
X162814000Y-94130101D01*
X162814000Y-93829899D01*
X162755434Y-93535466D01*
X162640551Y-93258115D01*
X162473768Y-93008507D01*
X162261493Y-92796232D01*
X162011885Y-92629449D01*
X161734534Y-92514566D01*
X161440101Y-92456000D01*
X161139899Y-92456000D01*
X160845466Y-92514566D01*
X160568115Y-92629449D01*
X160318507Y-92796232D01*
X160106232Y-93008507D01*
X159939449Y-93258115D01*
X159824566Y-93535466D01*
X159766000Y-93829899D01*
X109401423Y-93829899D01*
X96485525Y-80914002D01*
X96461722Y-80884998D01*
X96345997Y-80790025D01*
X96308533Y-80770000D01*
X101235341Y-80770000D01*
X108635468Y-88170128D01*
X108377801Y-88276857D01*
X108086591Y-88471437D01*
X107838937Y-88719091D01*
X107644357Y-89010301D01*
X107510328Y-89333877D01*
X107442000Y-89677382D01*
X107442000Y-90027618D01*
X107510328Y-90371123D01*
X107644357Y-90694699D01*
X107838937Y-90985909D01*
X108086591Y-91233563D01*
X108377801Y-91428143D01*
X108701377Y-91562172D01*
X109044882Y-91630500D01*
X109395118Y-91630500D01*
X109738623Y-91562172D01*
X110062199Y-91428143D01*
X110353409Y-91233563D01*
X110601063Y-90985909D01*
X110795643Y-90694699D01*
X110902372Y-90437032D01*
X111090344Y-90625004D01*
X111114142Y-90654002D01*
X111229867Y-90748975D01*
X111361896Y-90819547D01*
X111505157Y-90863004D01*
X111616810Y-90874001D01*
X111616819Y-90874001D01*
X111654142Y-90877677D01*
X111691465Y-90874001D01*
X121988535Y-90874001D01*
X122025857Y-90877677D01*
X122063179Y-90874001D01*
X122063190Y-90874001D01*
X122174843Y-90863004D01*
X122318104Y-90819547D01*
X122450133Y-90748975D01*
X122565858Y-90654002D01*
X122589661Y-90624998D01*
X122777628Y-90437031D01*
X122884357Y-90694699D01*
X123078937Y-90985909D01*
X123326591Y-91233563D01*
X123617801Y-91428143D01*
X123941377Y-91562172D01*
X124284882Y-91630500D01*
X124635118Y-91630500D01*
X124978623Y-91562172D01*
X125302199Y-91428143D01*
X125593409Y-91233563D01*
X125841063Y-90985909D01*
X126035643Y-90694699D01*
X126169672Y-90371123D01*
X126238000Y-90027618D01*
X126238000Y-89677382D01*
X126169672Y-89333877D01*
X126091229Y-89144499D01*
X162198771Y-89144499D01*
X162120328Y-89333877D01*
X162052000Y-89677382D01*
X162052000Y-90027618D01*
X162120328Y-90371123D01*
X162254357Y-90694699D01*
X162448937Y-90985909D01*
X162696591Y-91233563D01*
X162987801Y-91428143D01*
X163311377Y-91562172D01*
X163654882Y-91630500D01*
X164005118Y-91630500D01*
X164348623Y-91562172D01*
X164672199Y-91428143D01*
X164963409Y-91233563D01*
X165211063Y-90985909D01*
X165405643Y-90694699D01*
X165539672Y-90371123D01*
X165608000Y-90027618D01*
X165608000Y-89677382D01*
X165539672Y-89333877D01*
X165461229Y-89144499D01*
X165647976Y-89144499D01*
X178160381Y-101656905D01*
X177936591Y-101806437D01*
X177688937Y-102054091D01*
X177494357Y-102345301D01*
X177360328Y-102668877D01*
X177292000Y-103012382D01*
X177292000Y-103362618D01*
X177360328Y-103706123D01*
X177494357Y-104029699D01*
X177688937Y-104320909D01*
X177936591Y-104568563D01*
X178227801Y-104763143D01*
X178551377Y-104897172D01*
X178894882Y-104965500D01*
X179245118Y-104965500D01*
X179588623Y-104897172D01*
X179912199Y-104763143D01*
X180141394Y-104610000D01*
X196681928Y-104610000D01*
X196685000Y-105124250D01*
X196843750Y-105283000D01*
X197993000Y-105283000D01*
X197993000Y-104133750D01*
X198247000Y-104133750D01*
X198247000Y-105283000D01*
X199396250Y-105283000D01*
X199555000Y-105124250D01*
X199558072Y-104610000D01*
X199545812Y-104485518D01*
X199509502Y-104365820D01*
X199450537Y-104255506D01*
X199371185Y-104158815D01*
X199274494Y-104079463D01*
X199164180Y-104020498D01*
X199044482Y-103984188D01*
X198920000Y-103971928D01*
X198405750Y-103975000D01*
X198247000Y-104133750D01*
X197993000Y-104133750D01*
X197834250Y-103975000D01*
X197320000Y-103971928D01*
X197195518Y-103984188D01*
X197075820Y-104020498D01*
X196965506Y-104079463D01*
X196868815Y-104158815D01*
X196789463Y-104255506D01*
X196730498Y-104365820D01*
X196694188Y-104485518D01*
X196681928Y-104610000D01*
X180141394Y-104610000D01*
X180203409Y-104568563D01*
X180451063Y-104320909D01*
X180645643Y-104029699D01*
X180779672Y-103706123D01*
X180848000Y-103362618D01*
X180848000Y-103012382D01*
X180779672Y-102668877D01*
X180701229Y-102479499D01*
X199114698Y-102479499D01*
X201721312Y-105086114D01*
X201685000Y-105268665D01*
X201685000Y-105551335D01*
X201740147Y-105828574D01*
X201848320Y-106089727D01*
X202005363Y-106324759D01*
X202205241Y-106524637D01*
X202440273Y-106681680D01*
X202701426Y-106789853D01*
X202978665Y-106845000D01*
X203261335Y-106845000D01*
X203538574Y-106789853D01*
X203799727Y-106681680D01*
X204034759Y-106524637D01*
X204234637Y-106324759D01*
X204391680Y-106089727D01*
X204499853Y-105828574D01*
X204555000Y-105551335D01*
X204555000Y-105268665D01*
X204499853Y-104991426D01*
X204391680Y-104730273D01*
X204234637Y-104495241D01*
X204034759Y-104295363D01*
X203799727Y-104138320D01*
X203538574Y-104030147D01*
X203261335Y-103975000D01*
X202978665Y-103975000D01*
X202796114Y-104011312D01*
X202484802Y-103700000D01*
X212511928Y-103700000D01*
X212511928Y-105700000D01*
X212524188Y-105824482D01*
X212560498Y-105944180D01*
X212619463Y-106054494D01*
X212698815Y-106151185D01*
X212795506Y-106230537D01*
X212905820Y-106289502D01*
X213025518Y-106325812D01*
X213150000Y-106338072D01*
X216350000Y-106338072D01*
X216474482Y-106325812D01*
X216594180Y-106289502D01*
X216704494Y-106230537D01*
X216801185Y-106151185D01*
X216880537Y-106054494D01*
X216939502Y-105944180D01*
X216975812Y-105824482D01*
X216988072Y-105700000D01*
X216988072Y-103700000D01*
X216975812Y-103575518D01*
X216939502Y-103455820D01*
X216880537Y-103345506D01*
X216801185Y-103248815D01*
X216704494Y-103169463D01*
X216594180Y-103110498D01*
X216474482Y-103074188D01*
X216350000Y-103061928D01*
X213150000Y-103061928D01*
X213025518Y-103074188D01*
X212905820Y-103110498D01*
X212795506Y-103169463D01*
X212698815Y-103248815D01*
X212619463Y-103345506D01*
X212560498Y-103455820D01*
X212524188Y-103575518D01*
X212511928Y-103700000D01*
X202484802Y-103700000D01*
X199993303Y-101208502D01*
X199969500Y-101179498D01*
X199853775Y-101084525D01*
X199721746Y-101013953D01*
X199578485Y-100970496D01*
X199466832Y-100959499D01*
X199466821Y-100959499D01*
X199429499Y-100955823D01*
X199392177Y-100959499D01*
X179612579Y-100959499D01*
X176165782Y-97512702D01*
X197386903Y-97512702D01*
X197458486Y-97756671D01*
X197713996Y-97877571D01*
X197988184Y-97946300D01*
X198270512Y-97960217D01*
X198550130Y-97918787D01*
X198816292Y-97823603D01*
X198941514Y-97756671D01*
X199013097Y-97512702D01*
X198200000Y-96699605D01*
X197386903Y-97512702D01*
X176165782Y-97512702D01*
X175243592Y-96590512D01*
X196759783Y-96590512D01*
X196801213Y-96870130D01*
X196896397Y-97136292D01*
X196963329Y-97261514D01*
X197207298Y-97333097D01*
X198020395Y-96520000D01*
X197207298Y-95706903D01*
X196963329Y-95778486D01*
X196842429Y-96033996D01*
X196773700Y-96308184D01*
X196759783Y-96590512D01*
X175243592Y-96590512D01*
X168934439Y-90281359D01*
X169069273Y-90209289D01*
X169151626Y-89956231D01*
X168275000Y-89079605D01*
X168260858Y-89093748D01*
X168081253Y-88914143D01*
X168095395Y-88900000D01*
X168454605Y-88900000D01*
X169331231Y-89776626D01*
X169584289Y-89694273D01*
X169714086Y-89423582D01*
X169788580Y-89132770D01*
X169804908Y-88833012D01*
X169793032Y-88749899D01*
X173101000Y-88749899D01*
X173101000Y-89050101D01*
X173159566Y-89344534D01*
X173274449Y-89621885D01*
X173441232Y-89871493D01*
X173653507Y-90083768D01*
X173903115Y-90250551D01*
X174180466Y-90365434D01*
X174474899Y-90424000D01*
X174775101Y-90424000D01*
X175069534Y-90365434D01*
X175346885Y-90250551D01*
X175596493Y-90083768D01*
X175808768Y-89871493D01*
X175938469Y-89677382D01*
X177292000Y-89677382D01*
X177292000Y-90027618D01*
X177360328Y-90371123D01*
X177494357Y-90694699D01*
X177688937Y-90985909D01*
X177936591Y-91233563D01*
X178227801Y-91428143D01*
X178551377Y-91562172D01*
X178894882Y-91630500D01*
X179245118Y-91630500D01*
X179588623Y-91562172D01*
X179912199Y-91428143D01*
X180203409Y-91233563D01*
X180451063Y-90985909D01*
X180645643Y-90694699D01*
X180779672Y-90371123D01*
X180848000Y-90027618D01*
X180848000Y-89677382D01*
X180779672Y-89333877D01*
X180645643Y-89010301D01*
X180451063Y-88719091D01*
X180203409Y-88471437D01*
X179912199Y-88276857D01*
X179588623Y-88142828D01*
X179245118Y-88074500D01*
X178894882Y-88074500D01*
X178551377Y-88142828D01*
X178227801Y-88276857D01*
X177936591Y-88471437D01*
X177688937Y-88719091D01*
X177494357Y-89010301D01*
X177360328Y-89333877D01*
X177292000Y-89677382D01*
X175938469Y-89677382D01*
X175975551Y-89621885D01*
X176090434Y-89344534D01*
X176149000Y-89050101D01*
X176149000Y-88749899D01*
X176090434Y-88455466D01*
X175975551Y-88178115D01*
X175808768Y-87928507D01*
X175596493Y-87716232D01*
X175346885Y-87549449D01*
X175069534Y-87434566D01*
X174775101Y-87376000D01*
X174474899Y-87376000D01*
X174180466Y-87434566D01*
X173903115Y-87549449D01*
X173653507Y-87716232D01*
X173441232Y-87928507D01*
X173274449Y-88178115D01*
X173159566Y-88455466D01*
X173101000Y-88749899D01*
X169793032Y-88749899D01*
X169762443Y-88535829D01*
X169662816Y-88252641D01*
X169584289Y-88105727D01*
X169331231Y-88023374D01*
X168454605Y-88900000D01*
X168095395Y-88900000D01*
X167218769Y-88023374D01*
X166965711Y-88105727D01*
X166898654Y-88245575D01*
X166526581Y-87873502D01*
X166502778Y-87844498D01*
X166501890Y-87843769D01*
X167398374Y-87843769D01*
X168275000Y-88720395D01*
X169151626Y-87843769D01*
X169069273Y-87590711D01*
X168798582Y-87460914D01*
X168507770Y-87386420D01*
X168208012Y-87370092D01*
X167910829Y-87412557D01*
X167627641Y-87512184D01*
X167480727Y-87590711D01*
X167398374Y-87843769D01*
X166501890Y-87843769D01*
X166387053Y-87749525D01*
X166255024Y-87678953D01*
X166111763Y-87635496D01*
X166000110Y-87624499D01*
X166000099Y-87624499D01*
X165962777Y-87620823D01*
X165925455Y-87624499D01*
X123792681Y-87624499D01*
X123755358Y-87620823D01*
X123718035Y-87624499D01*
X123718026Y-87624499D01*
X123606373Y-87635496D01*
X123463112Y-87678953D01*
X123331083Y-87749525D01*
X123215358Y-87844498D01*
X123191560Y-87873496D01*
X121711056Y-89354001D01*
X121476513Y-89354001D01*
X121480434Y-89344534D01*
X121539000Y-89050101D01*
X121539000Y-88749899D01*
X121480434Y-88455466D01*
X121365551Y-88178115D01*
X121198768Y-87928507D01*
X120986493Y-87716232D01*
X120736885Y-87549449D01*
X120459534Y-87434566D01*
X120165101Y-87376000D01*
X119864899Y-87376000D01*
X119570466Y-87434566D01*
X119293115Y-87549449D01*
X119043507Y-87716232D01*
X118831232Y-87928507D01*
X118664449Y-88178115D01*
X118549566Y-88455466D01*
X118491000Y-88749899D01*
X118491000Y-89050101D01*
X118549566Y-89344534D01*
X118553487Y-89354001D01*
X115121910Y-89354001D01*
X115178580Y-89132770D01*
X115194908Y-88833012D01*
X115152443Y-88535829D01*
X115052816Y-88252641D01*
X114974289Y-88105727D01*
X114721231Y-88023374D01*
X113844605Y-88900000D01*
X113858748Y-88914143D01*
X113679143Y-89093748D01*
X113665000Y-89079605D01*
X113650858Y-89093748D01*
X113471253Y-88914143D01*
X113485395Y-88900000D01*
X112608769Y-88023374D01*
X112355711Y-88105727D01*
X112225914Y-88376418D01*
X112151420Y-88667230D01*
X112135092Y-88966988D01*
X112177557Y-89264171D01*
X112209160Y-89354001D01*
X111968945Y-89354001D01*
X110458713Y-87843769D01*
X112788374Y-87843769D01*
X113665000Y-88720395D01*
X114541626Y-87843769D01*
X114459273Y-87590711D01*
X114188582Y-87460914D01*
X113897770Y-87386420D01*
X113598012Y-87370092D01*
X113300829Y-87412557D01*
X113017641Y-87512184D01*
X112870727Y-87590711D01*
X112788374Y-87843769D01*
X110458713Y-87843769D01*
X106284843Y-83669899D01*
X112141000Y-83669899D01*
X112141000Y-83970101D01*
X112199566Y-84264534D01*
X112314449Y-84541885D01*
X112481232Y-84791493D01*
X112693507Y-85003768D01*
X112943115Y-85170551D01*
X113220466Y-85285434D01*
X113514899Y-85344000D01*
X113815101Y-85344000D01*
X114109534Y-85285434D01*
X114386885Y-85170551D01*
X114636493Y-85003768D01*
X114848768Y-84791493D01*
X115015551Y-84541885D01*
X115130434Y-84264534D01*
X115189000Y-83970101D01*
X115189000Y-83669899D01*
X118491000Y-83669899D01*
X118491000Y-83970101D01*
X118549566Y-84264534D01*
X118664449Y-84541885D01*
X118831232Y-84791493D01*
X119043507Y-85003768D01*
X119293115Y-85170551D01*
X119570466Y-85285434D01*
X119864899Y-85344000D01*
X120165101Y-85344000D01*
X120459534Y-85285434D01*
X120736885Y-85170551D01*
X120986493Y-85003768D01*
X121198768Y-84791493D01*
X121365551Y-84541885D01*
X121480434Y-84264534D01*
X121539000Y-83970101D01*
X121539000Y-83669899D01*
X166751000Y-83669899D01*
X166751000Y-83970101D01*
X166809566Y-84264534D01*
X166924449Y-84541885D01*
X167091232Y-84791493D01*
X167303507Y-85003768D01*
X167553115Y-85170551D01*
X167830466Y-85285434D01*
X168124899Y-85344000D01*
X168425101Y-85344000D01*
X168719534Y-85285434D01*
X168996885Y-85170551D01*
X169246493Y-85003768D01*
X169458768Y-84791493D01*
X169625551Y-84541885D01*
X169740434Y-84264534D01*
X169799000Y-83970101D01*
X169799000Y-83669899D01*
X173101000Y-83669899D01*
X173101000Y-83970101D01*
X173159566Y-84264534D01*
X173274449Y-84541885D01*
X173441232Y-84791493D01*
X173653507Y-85003768D01*
X173903115Y-85170551D01*
X174180466Y-85285434D01*
X174474899Y-85344000D01*
X174775101Y-85344000D01*
X175069534Y-85285434D01*
X175346885Y-85170551D01*
X175596493Y-85003768D01*
X175808768Y-84791493D01*
X175975551Y-84541885D01*
X176090434Y-84264534D01*
X176149000Y-83970101D01*
X176149000Y-83669899D01*
X176090434Y-83375466D01*
X175975551Y-83098115D01*
X175808768Y-82848507D01*
X175596493Y-82636232D01*
X175346885Y-82469449D01*
X175069534Y-82354566D01*
X174775101Y-82296000D01*
X174474899Y-82296000D01*
X174180466Y-82354566D01*
X173903115Y-82469449D01*
X173653507Y-82636232D01*
X173441232Y-82848507D01*
X173274449Y-83098115D01*
X173159566Y-83375466D01*
X173101000Y-83669899D01*
X169799000Y-83669899D01*
X169740434Y-83375466D01*
X169625551Y-83098115D01*
X169458768Y-82848507D01*
X169246493Y-82636232D01*
X168996885Y-82469449D01*
X168719534Y-82354566D01*
X168425101Y-82296000D01*
X168124899Y-82296000D01*
X167830466Y-82354566D01*
X167553115Y-82469449D01*
X167303507Y-82636232D01*
X167091232Y-82848507D01*
X166924449Y-83098115D01*
X166809566Y-83375466D01*
X166751000Y-83669899D01*
X121539000Y-83669899D01*
X121480434Y-83375466D01*
X121365551Y-83098115D01*
X121198768Y-82848507D01*
X120986493Y-82636232D01*
X120736885Y-82469449D01*
X120459534Y-82354566D01*
X120165101Y-82296000D01*
X119864899Y-82296000D01*
X119570466Y-82354566D01*
X119293115Y-82469449D01*
X119043507Y-82636232D01*
X118831232Y-82848507D01*
X118664449Y-83098115D01*
X118549566Y-83375466D01*
X118491000Y-83669899D01*
X115189000Y-83669899D01*
X115130434Y-83375466D01*
X115015551Y-83098115D01*
X114848768Y-82848507D01*
X114636493Y-82636232D01*
X114386885Y-82469449D01*
X114109534Y-82354566D01*
X113815101Y-82296000D01*
X113514899Y-82296000D01*
X113220466Y-82354566D01*
X112943115Y-82469449D01*
X112693507Y-82636232D01*
X112481232Y-82848507D01*
X112314449Y-83098115D01*
X112199566Y-83375466D01*
X112141000Y-83669899D01*
X106284843Y-83669899D01*
X102113946Y-79499003D01*
X102090143Y-79469999D01*
X101974418Y-79375026D01*
X101842389Y-79304454D01*
X101699128Y-79260997D01*
X101587475Y-79250000D01*
X101587464Y-79250000D01*
X101550142Y-79246324D01*
X101512820Y-79250000D01*
X92658043Y-79250000D01*
X92554637Y-79095241D01*
X92354759Y-78895363D01*
X92122241Y-78740000D01*
X92354759Y-78584637D01*
X92554637Y-78384759D01*
X92711680Y-78149727D01*
X92819853Y-77888574D01*
X92875000Y-77611335D01*
X92875000Y-77328665D01*
X92819853Y-77051426D01*
X92711680Y-76790273D01*
X92554637Y-76555241D01*
X92354759Y-76355363D01*
X92122241Y-76200000D01*
X92354759Y-76044637D01*
X92554637Y-75844759D01*
X92711680Y-75609727D01*
X92819853Y-75348574D01*
X92875000Y-75071335D01*
X92875000Y-74788665D01*
X92819853Y-74511426D01*
X92711680Y-74250273D01*
X92554637Y-74015241D01*
X92354759Y-73815363D01*
X92122241Y-73660000D01*
X92354759Y-73504637D01*
X92554637Y-73304759D01*
X92711680Y-73069727D01*
X92819853Y-72808574D01*
X92875000Y-72531335D01*
X92875000Y-72248665D01*
X92819853Y-71971426D01*
X92711680Y-71710273D01*
X92554637Y-71475241D01*
X92354759Y-71275363D01*
X92122241Y-71120000D01*
X92354759Y-70964637D01*
X92554637Y-70764759D01*
X92711680Y-70529727D01*
X92819853Y-70268574D01*
X92875000Y-69991335D01*
X92875000Y-69708665D01*
X92819853Y-69431426D01*
X92711680Y-69170273D01*
X92554637Y-68935241D01*
X92354759Y-68735363D01*
X92122241Y-68580000D01*
X92354759Y-68424637D01*
X92554637Y-68224759D01*
X92711680Y-67989727D01*
X92819853Y-67728574D01*
X92875000Y-67451335D01*
X92875000Y-67168665D01*
X92819853Y-66891426D01*
X92711680Y-66630273D01*
X92554637Y-66395241D01*
X92354759Y-66195363D01*
X92122241Y-66040000D01*
X92354759Y-65884637D01*
X92554637Y-65684759D01*
X92658043Y-65530000D01*
X168652201Y-65530000D01*
X198205742Y-95083542D01*
X198129488Y-95079783D01*
X197849870Y-95121213D01*
X197583708Y-95216397D01*
X197458486Y-95283329D01*
X197386903Y-95527298D01*
X198200000Y-96340395D01*
X198214143Y-96326253D01*
X198393748Y-96505858D01*
X198379605Y-96520000D01*
X199192702Y-97333097D01*
X199436671Y-97261514D01*
X199557571Y-97006004D01*
X199626300Y-96731816D01*
X199636998Y-96514797D01*
X205233203Y-102111003D01*
X205257001Y-102140001D01*
X205285999Y-102163799D01*
X205372726Y-102234974D01*
X205504755Y-102305546D01*
X205648016Y-102349003D01*
X205797002Y-102363677D01*
X205834335Y-102360000D01*
X206295091Y-102360000D01*
X206301082Y-102374463D01*
X206480013Y-102642252D01*
X206707748Y-102869987D01*
X206975537Y-103048918D01*
X207273088Y-103172168D01*
X207588967Y-103235000D01*
X207911033Y-103235000D01*
X208226912Y-103172168D01*
X208524463Y-103048918D01*
X208792252Y-102869987D01*
X209019987Y-102642252D01*
X209198918Y-102374463D01*
X209322168Y-102076912D01*
X209385000Y-101761033D01*
X209385000Y-101438967D01*
X209322168Y-101123088D01*
X209198918Y-100825537D01*
X209019987Y-100557748D01*
X208792252Y-100330013D01*
X208524463Y-100151082D01*
X208226912Y-100027832D01*
X207911033Y-99965000D01*
X207588967Y-99965000D01*
X207273088Y-100027832D01*
X206975537Y-100151082D01*
X206707748Y-100330013D01*
X206480013Y-100557748D01*
X206301082Y-100825537D01*
X206295091Y-100840000D01*
X206111804Y-100840000D01*
X204434399Y-99162595D01*
X220608282Y-99162595D01*
X220652039Y-99481675D01*
X220757205Y-99786088D01*
X220850186Y-99960044D01*
X220999223Y-100014024D01*
X220895506Y-100069463D01*
X220798815Y-100148815D01*
X220719463Y-100245506D01*
X220660498Y-100355820D01*
X220624188Y-100475518D01*
X220611928Y-100600000D01*
X220611928Y-102600000D01*
X220624188Y-102724482D01*
X220660498Y-102844180D01*
X220719463Y-102954494D01*
X220798815Y-103051185D01*
X220895506Y-103130537D01*
X221005820Y-103189502D01*
X221125518Y-103225812D01*
X221250000Y-103238072D01*
X223250000Y-103238072D01*
X223374482Y-103225812D01*
X223494180Y-103189502D01*
X223604494Y-103130537D01*
X223701185Y-103051185D01*
X223780537Y-102954494D01*
X223839502Y-102844180D01*
X223875812Y-102724482D01*
X223888072Y-102600000D01*
X223888072Y-100600000D01*
X223875812Y-100475518D01*
X223839502Y-100355820D01*
X223780537Y-100245506D01*
X223701185Y-100148815D01*
X223604494Y-100069463D01*
X223500777Y-100014024D01*
X223649814Y-99960044D01*
X223790704Y-99670429D01*
X223872384Y-99358892D01*
X223891718Y-99037405D01*
X223847961Y-98718325D01*
X223742795Y-98413912D01*
X223649814Y-98239956D01*
X223385413Y-98144192D01*
X222429605Y-99100000D01*
X222443748Y-99114143D01*
X222264143Y-99293748D01*
X222250000Y-99279605D01*
X222235858Y-99293748D01*
X222056253Y-99114143D01*
X222070395Y-99100000D01*
X221114587Y-98144192D01*
X220850186Y-98239956D01*
X220709296Y-98529571D01*
X220627616Y-98841108D01*
X220608282Y-99162595D01*
X204434399Y-99162595D01*
X203229876Y-97958072D01*
X204000000Y-97958072D01*
X204124482Y-97945812D01*
X204244180Y-97909502D01*
X204354494Y-97850537D01*
X204451185Y-97771185D01*
X204480542Y-97735413D01*
X206794192Y-97735413D01*
X206889956Y-97999814D01*
X207179571Y-98140704D01*
X207491108Y-98222384D01*
X207812595Y-98241718D01*
X208131675Y-98197961D01*
X208436088Y-98092795D01*
X208610044Y-97999814D01*
X208705808Y-97735413D01*
X207750000Y-96779605D01*
X206794192Y-97735413D01*
X204480542Y-97735413D01*
X204530537Y-97674494D01*
X204589502Y-97564180D01*
X204625812Y-97444482D01*
X204638072Y-97320000D01*
X204638072Y-96662595D01*
X206108282Y-96662595D01*
X206152039Y-96981675D01*
X206257205Y-97286088D01*
X206350186Y-97460044D01*
X206614587Y-97555808D01*
X207570395Y-96600000D01*
X207929605Y-96600000D01*
X208885413Y-97555808D01*
X209149814Y-97460044D01*
X209290704Y-97170429D01*
X209372384Y-96858892D01*
X209391718Y-96537405D01*
X209378219Y-96438967D01*
X220615000Y-96438967D01*
X220615000Y-96761033D01*
X220677832Y-97076912D01*
X220801082Y-97374463D01*
X220980013Y-97642252D01*
X221207748Y-97869987D01*
X221304935Y-97934925D01*
X221294192Y-97964587D01*
X222250000Y-98920395D01*
X223205808Y-97964587D01*
X223195065Y-97934925D01*
X223292252Y-97869987D01*
X223519987Y-97642252D01*
X223698918Y-97374463D01*
X223822168Y-97076912D01*
X223885000Y-96761033D01*
X223885000Y-96438967D01*
X223822168Y-96123088D01*
X223698918Y-95825537D01*
X223519987Y-95557748D01*
X223292252Y-95330013D01*
X223024463Y-95151082D01*
X222726912Y-95027832D01*
X222411033Y-94965000D01*
X222088967Y-94965000D01*
X221773088Y-95027832D01*
X221475537Y-95151082D01*
X221207748Y-95330013D01*
X220980013Y-95557748D01*
X220801082Y-95825537D01*
X220677832Y-96123088D01*
X220615000Y-96438967D01*
X209378219Y-96438967D01*
X209347961Y-96218325D01*
X209242795Y-95913912D01*
X209149814Y-95739956D01*
X208885413Y-95644192D01*
X207929605Y-96600000D01*
X207570395Y-96600000D01*
X206614587Y-95644192D01*
X206350186Y-95739956D01*
X206209296Y-96029571D01*
X206127616Y-96341108D01*
X206108282Y-96662595D01*
X204638072Y-96662595D01*
X204638072Y-95720000D01*
X204625812Y-95595518D01*
X204589502Y-95475820D01*
X204583498Y-95464587D01*
X206794192Y-95464587D01*
X207750000Y-96420395D01*
X208705808Y-95464587D01*
X208610044Y-95200186D01*
X208320429Y-95059296D01*
X208008892Y-94977616D01*
X207687405Y-94958282D01*
X207368325Y-95002039D01*
X207063912Y-95107205D01*
X206889956Y-95200186D01*
X206794192Y-95464587D01*
X204583498Y-95464587D01*
X204530537Y-95365506D01*
X204451185Y-95268815D01*
X204354494Y-95189463D01*
X204244180Y-95130498D01*
X204124482Y-95094188D01*
X204000000Y-95081928D01*
X202400000Y-95081928D01*
X202275518Y-95094188D01*
X202155820Y-95130498D01*
X202045506Y-95189463D01*
X201948815Y-95268815D01*
X201869463Y-95365506D01*
X201810498Y-95475820D01*
X201774188Y-95595518D01*
X201761928Y-95720000D01*
X201761928Y-96490124D01*
X197771804Y-92500000D01*
X212511928Y-92500000D01*
X212511928Y-94500000D01*
X212524188Y-94624482D01*
X212560498Y-94744180D01*
X212619463Y-94854494D01*
X212698815Y-94951185D01*
X212795506Y-95030537D01*
X212905820Y-95089502D01*
X213025518Y-95125812D01*
X213150000Y-95138072D01*
X216350000Y-95138072D01*
X216474482Y-95125812D01*
X216594180Y-95089502D01*
X216704494Y-95030537D01*
X216801185Y-94951185D01*
X216880537Y-94854494D01*
X216939502Y-94744180D01*
X216975812Y-94624482D01*
X216988072Y-94500000D01*
X216988072Y-92500000D01*
X216975812Y-92375518D01*
X216939502Y-92255820D01*
X216880537Y-92145506D01*
X216801185Y-92048815D01*
X216704494Y-91969463D01*
X216594180Y-91910498D01*
X216474482Y-91874188D01*
X216350000Y-91861928D01*
X213150000Y-91861928D01*
X213025518Y-91874188D01*
X212905820Y-91910498D01*
X212795506Y-91969463D01*
X212698815Y-92048815D01*
X212619463Y-92145506D01*
X212560498Y-92255820D01*
X212524188Y-92375518D01*
X212511928Y-92500000D01*
X197771804Y-92500000D01*
X180558694Y-75286890D01*
X219538524Y-75286890D01*
X219583175Y-75434099D01*
X219708359Y-75696920D01*
X219882412Y-75930269D01*
X220098645Y-76125178D01*
X220348748Y-76274157D01*
X220623109Y-76371481D01*
X220853000Y-76250814D01*
X220853000Y-75057000D01*
X221107000Y-75057000D01*
X221107000Y-76250814D01*
X221336891Y-76371481D01*
X221611252Y-76274157D01*
X221861355Y-76125178D01*
X222077588Y-75930269D01*
X222251641Y-75696920D01*
X222376825Y-75434099D01*
X222421476Y-75286890D01*
X222300155Y-75057000D01*
X221107000Y-75057000D01*
X220853000Y-75057000D01*
X219659845Y-75057000D01*
X219538524Y-75286890D01*
X180558694Y-75286890D01*
X171731804Y-66460000D01*
X219491928Y-66460000D01*
X219491928Y-68160000D01*
X219504188Y-68284482D01*
X219540498Y-68404180D01*
X219599463Y-68514494D01*
X219678815Y-68611185D01*
X219775506Y-68690537D01*
X219885820Y-68749502D01*
X219958380Y-68771513D01*
X219826525Y-68903368D01*
X219664010Y-69146589D01*
X219552068Y-69416842D01*
X219495000Y-69703740D01*
X219495000Y-69996260D01*
X219552068Y-70283158D01*
X219664010Y-70553411D01*
X219826525Y-70796632D01*
X220033368Y-71003475D01*
X220207760Y-71120000D01*
X220033368Y-71236525D01*
X219826525Y-71443368D01*
X219664010Y-71686589D01*
X219552068Y-71956842D01*
X219495000Y-72243740D01*
X219495000Y-72536260D01*
X219552068Y-72823158D01*
X219664010Y-73093411D01*
X219826525Y-73336632D01*
X220033368Y-73543475D01*
X220215534Y-73665195D01*
X220098645Y-73734822D01*
X219882412Y-73929731D01*
X219708359Y-74163080D01*
X219583175Y-74425901D01*
X219538524Y-74573110D01*
X219659845Y-74803000D01*
X220853000Y-74803000D01*
X220853000Y-74783000D01*
X221107000Y-74783000D01*
X221107000Y-74803000D01*
X222300155Y-74803000D01*
X222421476Y-74573110D01*
X222376825Y-74425901D01*
X222251641Y-74163080D01*
X222077588Y-73929731D01*
X221861355Y-73734822D01*
X221744466Y-73665195D01*
X221926632Y-73543475D01*
X222133475Y-73336632D01*
X222295990Y-73093411D01*
X222407932Y-72823158D01*
X222465000Y-72536260D01*
X222465000Y-72243740D01*
X222407932Y-71956842D01*
X222295990Y-71686589D01*
X222133475Y-71443368D01*
X221926632Y-71236525D01*
X221752240Y-71120000D01*
X221926632Y-71003475D01*
X222133475Y-70796632D01*
X222295990Y-70553411D01*
X222407932Y-70283158D01*
X222465000Y-69996260D01*
X222465000Y-69703740D01*
X222407932Y-69416842D01*
X222295990Y-69146589D01*
X222133475Y-68903368D01*
X222001620Y-68771513D01*
X222074180Y-68749502D01*
X222184494Y-68690537D01*
X222281185Y-68611185D01*
X222360537Y-68514494D01*
X222419502Y-68404180D01*
X222455812Y-68284482D01*
X222468072Y-68160000D01*
X222468072Y-66460000D01*
X222455812Y-66335518D01*
X222419502Y-66215820D01*
X222360537Y-66105506D01*
X222281185Y-66008815D01*
X222184494Y-65929463D01*
X222074180Y-65870498D01*
X221954482Y-65834188D01*
X221830000Y-65821928D01*
X220130000Y-65821928D01*
X220005518Y-65834188D01*
X219885820Y-65870498D01*
X219775506Y-65929463D01*
X219678815Y-66008815D01*
X219599463Y-66105506D01*
X219540498Y-66215820D01*
X219504188Y-66335518D01*
X219491928Y-66460000D01*
X171731804Y-66460000D01*
X169530806Y-64259003D01*
X169507003Y-64229999D01*
X169391278Y-64135026D01*
X169259249Y-64064454D01*
X169115988Y-64020997D01*
X169004335Y-64010000D01*
X169004324Y-64010000D01*
X168967002Y-64006324D01*
X168929680Y-64010000D01*
X102131811Y-64010000D01*
X102169275Y-63989975D01*
X102285000Y-63895002D01*
X102308803Y-63865998D01*
X103524801Y-62650000D01*
X180121928Y-62650000D01*
X180121928Y-64350000D01*
X180134188Y-64474482D01*
X180170498Y-64594180D01*
X180229463Y-64704494D01*
X180308815Y-64801185D01*
X180405506Y-64880537D01*
X180515820Y-64939502D01*
X180635518Y-64975812D01*
X180760000Y-64988072D01*
X182460000Y-64988072D01*
X182584482Y-64975812D01*
X182704180Y-64939502D01*
X182814494Y-64880537D01*
X182911185Y-64801185D01*
X182990537Y-64704494D01*
X183049502Y-64594180D01*
X183071513Y-64521620D01*
X183203368Y-64653475D01*
X183446589Y-64815990D01*
X183716842Y-64927932D01*
X184003740Y-64985000D01*
X184296260Y-64985000D01*
X184583158Y-64927932D01*
X184853411Y-64815990D01*
X185096632Y-64653475D01*
X185303475Y-64446632D01*
X185420000Y-64272240D01*
X185536525Y-64446632D01*
X185743368Y-64653475D01*
X185986589Y-64815990D01*
X186256842Y-64927932D01*
X186543740Y-64985000D01*
X186836260Y-64985000D01*
X187123158Y-64927932D01*
X187393411Y-64815990D01*
X187636632Y-64653475D01*
X187843475Y-64446632D01*
X187960000Y-64272240D01*
X188076525Y-64446632D01*
X188283368Y-64653475D01*
X188526589Y-64815990D01*
X188796842Y-64927932D01*
X189083740Y-64985000D01*
X189376260Y-64985000D01*
X189663158Y-64927932D01*
X189933411Y-64815990D01*
X190176632Y-64653475D01*
X190383475Y-64446632D01*
X190500000Y-64272240D01*
X190616525Y-64446632D01*
X190823368Y-64653475D01*
X191066589Y-64815990D01*
X191336842Y-64927932D01*
X191623740Y-64985000D01*
X191916260Y-64985000D01*
X192203158Y-64927932D01*
X192473411Y-64815990D01*
X192716632Y-64653475D01*
X192923475Y-64446632D01*
X193040000Y-64272240D01*
X193156525Y-64446632D01*
X193363368Y-64653475D01*
X193606589Y-64815990D01*
X193876842Y-64927932D01*
X194163740Y-64985000D01*
X194456260Y-64985000D01*
X194743158Y-64927932D01*
X195013411Y-64815990D01*
X195256632Y-64653475D01*
X195463475Y-64446632D01*
X195580000Y-64272240D01*
X195696525Y-64446632D01*
X195903368Y-64653475D01*
X196146589Y-64815990D01*
X196416842Y-64927932D01*
X196703740Y-64985000D01*
X196996260Y-64985000D01*
X197283158Y-64927932D01*
X197553411Y-64815990D01*
X197796632Y-64653475D01*
X198003475Y-64446632D01*
X198120000Y-64272240D01*
X198236525Y-64446632D01*
X198443368Y-64653475D01*
X198686589Y-64815990D01*
X198956842Y-64927932D01*
X199243740Y-64985000D01*
X199536260Y-64985000D01*
X199823158Y-64927932D01*
X200093411Y-64815990D01*
X200336632Y-64653475D01*
X200543475Y-64446632D01*
X200660000Y-64272240D01*
X200776525Y-64446632D01*
X200983368Y-64653475D01*
X201226589Y-64815990D01*
X201496842Y-64927932D01*
X201783740Y-64985000D01*
X202076260Y-64985000D01*
X202363158Y-64927932D01*
X202633411Y-64815990D01*
X202876632Y-64653475D01*
X203083475Y-64446632D01*
X203200000Y-64272240D01*
X203316525Y-64446632D01*
X203523368Y-64653475D01*
X203766589Y-64815990D01*
X204036842Y-64927932D01*
X204323740Y-64985000D01*
X204616260Y-64985000D01*
X204903158Y-64927932D01*
X205173411Y-64815990D01*
X205416632Y-64653475D01*
X205623475Y-64446632D01*
X205740000Y-64272240D01*
X205856525Y-64446632D01*
X206063368Y-64653475D01*
X206306589Y-64815990D01*
X206576842Y-64927932D01*
X206863740Y-64985000D01*
X207156260Y-64985000D01*
X207443158Y-64927932D01*
X207713411Y-64815990D01*
X207956632Y-64653475D01*
X208163475Y-64446632D01*
X208280000Y-64272240D01*
X208396525Y-64446632D01*
X208603368Y-64653475D01*
X208846589Y-64815990D01*
X209116842Y-64927932D01*
X209403740Y-64985000D01*
X209696260Y-64985000D01*
X209983158Y-64927932D01*
X210253411Y-64815990D01*
X210496632Y-64653475D01*
X210703475Y-64446632D01*
X210820000Y-64272240D01*
X210936525Y-64446632D01*
X211143368Y-64653475D01*
X211386589Y-64815990D01*
X211656842Y-64927932D01*
X211943740Y-64985000D01*
X212236260Y-64985000D01*
X212523158Y-64927932D01*
X212793411Y-64815990D01*
X213036632Y-64653475D01*
X213243475Y-64446632D01*
X213360000Y-64272240D01*
X213476525Y-64446632D01*
X213683368Y-64653475D01*
X213926589Y-64815990D01*
X214196842Y-64927932D01*
X214483740Y-64985000D01*
X214776260Y-64985000D01*
X215063158Y-64927932D01*
X215333411Y-64815990D01*
X215576632Y-64653475D01*
X215783475Y-64446632D01*
X215900000Y-64272240D01*
X216016525Y-64446632D01*
X216223368Y-64653475D01*
X216466589Y-64815990D01*
X216736842Y-64927932D01*
X217023740Y-64985000D01*
X217316260Y-64985000D01*
X217603158Y-64927932D01*
X217873411Y-64815990D01*
X218116632Y-64653475D01*
X218323475Y-64446632D01*
X218440000Y-64272240D01*
X218556525Y-64446632D01*
X218763368Y-64653475D01*
X219006589Y-64815990D01*
X219276842Y-64927932D01*
X219563740Y-64985000D01*
X219856260Y-64985000D01*
X220143158Y-64927932D01*
X220413411Y-64815990D01*
X220656632Y-64653475D01*
X220863475Y-64446632D01*
X221025990Y-64203411D01*
X221137932Y-63933158D01*
X221195000Y-63646260D01*
X221195000Y-63353740D01*
X221137932Y-63066842D01*
X221025990Y-62796589D01*
X220863475Y-62553368D01*
X220656632Y-62346525D01*
X220413411Y-62184010D01*
X220143158Y-62072068D01*
X219856260Y-62015000D01*
X219563740Y-62015000D01*
X219276842Y-62072068D01*
X219006589Y-62184010D01*
X218763368Y-62346525D01*
X218556525Y-62553368D01*
X218440000Y-62727760D01*
X218323475Y-62553368D01*
X218116632Y-62346525D01*
X217873411Y-62184010D01*
X217603158Y-62072068D01*
X217316260Y-62015000D01*
X217023740Y-62015000D01*
X216736842Y-62072068D01*
X216466589Y-62184010D01*
X216223368Y-62346525D01*
X216016525Y-62553368D01*
X215900000Y-62727760D01*
X215783475Y-62553368D01*
X215576632Y-62346525D01*
X215333411Y-62184010D01*
X215063158Y-62072068D01*
X214776260Y-62015000D01*
X214483740Y-62015000D01*
X214196842Y-62072068D01*
X213926589Y-62184010D01*
X213683368Y-62346525D01*
X213476525Y-62553368D01*
X213360000Y-62727760D01*
X213243475Y-62553368D01*
X213036632Y-62346525D01*
X212793411Y-62184010D01*
X212523158Y-62072068D01*
X212236260Y-62015000D01*
X211943740Y-62015000D01*
X211656842Y-62072068D01*
X211386589Y-62184010D01*
X211143368Y-62346525D01*
X210936525Y-62553368D01*
X210820000Y-62727760D01*
X210703475Y-62553368D01*
X210496632Y-62346525D01*
X210253411Y-62184010D01*
X209983158Y-62072068D01*
X209696260Y-62015000D01*
X209403740Y-62015000D01*
X209116842Y-62072068D01*
X208846589Y-62184010D01*
X208603368Y-62346525D01*
X208396525Y-62553368D01*
X208280000Y-62727760D01*
X208163475Y-62553368D01*
X207956632Y-62346525D01*
X207713411Y-62184010D01*
X207443158Y-62072068D01*
X207156260Y-62015000D01*
X206863740Y-62015000D01*
X206576842Y-62072068D01*
X206306589Y-62184010D01*
X206063368Y-62346525D01*
X205856525Y-62553368D01*
X205740000Y-62727760D01*
X205623475Y-62553368D01*
X205416632Y-62346525D01*
X205173411Y-62184010D01*
X204903158Y-62072068D01*
X204616260Y-62015000D01*
X204323740Y-62015000D01*
X204036842Y-62072068D01*
X203766589Y-62184010D01*
X203523368Y-62346525D01*
X203316525Y-62553368D01*
X203200000Y-62727760D01*
X203083475Y-62553368D01*
X202876632Y-62346525D01*
X202633411Y-62184010D01*
X202363158Y-62072068D01*
X202076260Y-62015000D01*
X201783740Y-62015000D01*
X201496842Y-62072068D01*
X201226589Y-62184010D01*
X200983368Y-62346525D01*
X200776525Y-62553368D01*
X200660000Y-62727760D01*
X200543475Y-62553368D01*
X200336632Y-62346525D01*
X200093411Y-62184010D01*
X199823158Y-62072068D01*
X199536260Y-62015000D01*
X199243740Y-62015000D01*
X198956842Y-62072068D01*
X198686589Y-62184010D01*
X198443368Y-62346525D01*
X198236525Y-62553368D01*
X198120000Y-62727760D01*
X198003475Y-62553368D01*
X197796632Y-62346525D01*
X197553411Y-62184010D01*
X197283158Y-62072068D01*
X196996260Y-62015000D01*
X196703740Y-62015000D01*
X196416842Y-62072068D01*
X196146589Y-62184010D01*
X195903368Y-62346525D01*
X195696525Y-62553368D01*
X195580000Y-62727760D01*
X195463475Y-62553368D01*
X195256632Y-62346525D01*
X195013411Y-62184010D01*
X194743158Y-62072068D01*
X194456260Y-62015000D01*
X194163740Y-62015000D01*
X193876842Y-62072068D01*
X193606589Y-62184010D01*
X193363368Y-62346525D01*
X193156525Y-62553368D01*
X193040000Y-62727760D01*
X192923475Y-62553368D01*
X192716632Y-62346525D01*
X192473411Y-62184010D01*
X192203158Y-62072068D01*
X191916260Y-62015000D01*
X191623740Y-62015000D01*
X191336842Y-62072068D01*
X191066589Y-62184010D01*
X190823368Y-62346525D01*
X190616525Y-62553368D01*
X190500000Y-62727760D01*
X190383475Y-62553368D01*
X190176632Y-62346525D01*
X189933411Y-62184010D01*
X189663158Y-62072068D01*
X189376260Y-62015000D01*
X189083740Y-62015000D01*
X188796842Y-62072068D01*
X188526589Y-62184010D01*
X188283368Y-62346525D01*
X188076525Y-62553368D01*
X187960000Y-62727760D01*
X187843475Y-62553368D01*
X187636632Y-62346525D01*
X187393411Y-62184010D01*
X187123158Y-62072068D01*
X186836260Y-62015000D01*
X186543740Y-62015000D01*
X186256842Y-62072068D01*
X185986589Y-62184010D01*
X185743368Y-62346525D01*
X185536525Y-62553368D01*
X185420000Y-62727760D01*
X185303475Y-62553368D01*
X185096632Y-62346525D01*
X184853411Y-62184010D01*
X184583158Y-62072068D01*
X184296260Y-62015000D01*
X184003740Y-62015000D01*
X183716842Y-62072068D01*
X183446589Y-62184010D01*
X183203368Y-62346525D01*
X183071513Y-62478380D01*
X183049502Y-62405820D01*
X182990537Y-62295506D01*
X182911185Y-62198815D01*
X182814494Y-62119463D01*
X182704180Y-62060498D01*
X182584482Y-62024188D01*
X182460000Y-62011928D01*
X180760000Y-62011928D01*
X180635518Y-62024188D01*
X180515820Y-62060498D01*
X180405506Y-62119463D01*
X180308815Y-62198815D01*
X180229463Y-62295506D01*
X180170498Y-62405820D01*
X180134188Y-62525518D01*
X180121928Y-62650000D01*
X103524801Y-62650000D01*
X109824801Y-56350000D01*
X116671928Y-56350000D01*
X116671928Y-57950000D01*
X116684188Y-58074482D01*
X116720498Y-58194180D01*
X116779463Y-58304494D01*
X116858815Y-58401185D01*
X116955506Y-58480537D01*
X117065820Y-58539502D01*
X117185518Y-58575812D01*
X117310000Y-58588072D01*
X118910000Y-58588072D01*
X119034482Y-58575812D01*
X119154180Y-58539502D01*
X119264494Y-58480537D01*
X119361185Y-58401185D01*
X119440537Y-58304494D01*
X119499502Y-58194180D01*
X119535812Y-58074482D01*
X119548072Y-57950000D01*
X119548072Y-56350000D01*
X119535812Y-56225518D01*
X119499502Y-56105820D01*
X119440537Y-55995506D01*
X119361185Y-55898815D01*
X119264494Y-55819463D01*
X119154180Y-55760498D01*
X119034482Y-55724188D01*
X118910000Y-55711928D01*
X117310000Y-55711928D01*
X117185518Y-55724188D01*
X117065820Y-55760498D01*
X116955506Y-55819463D01*
X116858815Y-55898815D01*
X116779463Y-55995506D01*
X116720498Y-56105820D01*
X116684188Y-56225518D01*
X116671928Y-56350000D01*
X109824801Y-56350000D01*
X110123592Y-56051210D01*
X110343740Y-56095000D01*
X110636260Y-56095000D01*
X110923158Y-56037932D01*
X111193411Y-55925990D01*
X111436632Y-55763475D01*
X111643475Y-55556632D01*
X111805990Y-55313411D01*
X111917932Y-55043158D01*
X111975000Y-54756260D01*
X111975000Y-54463740D01*
X111917932Y-54176842D01*
X111805990Y-53906589D01*
X111708043Y-53760000D01*
X128051928Y-53760000D01*
X128051928Y-55460000D01*
X128064188Y-55584482D01*
X128100498Y-55704180D01*
X128159463Y-55814494D01*
X128238815Y-55911185D01*
X128335506Y-55990537D01*
X128445820Y-56049502D01*
X128565518Y-56085812D01*
X128690000Y-56098072D01*
X130390000Y-56098072D01*
X130514482Y-56085812D01*
X130634180Y-56049502D01*
X130744494Y-55990537D01*
X130841185Y-55911185D01*
X130920537Y-55814494D01*
X130979502Y-55704180D01*
X131001513Y-55631620D01*
X131133368Y-55763475D01*
X131376589Y-55925990D01*
X131646842Y-56037932D01*
X131933740Y-56095000D01*
X132226260Y-56095000D01*
X132513158Y-56037932D01*
X132783411Y-55925990D01*
X133026632Y-55763475D01*
X133233475Y-55556632D01*
X133350000Y-55382240D01*
X133466525Y-55556632D01*
X133673368Y-55763475D01*
X133916589Y-55925990D01*
X134186842Y-56037932D01*
X134473740Y-56095000D01*
X134766260Y-56095000D01*
X135053158Y-56037932D01*
X135323411Y-55925990D01*
X135566632Y-55763475D01*
X135773475Y-55556632D01*
X135890000Y-55382240D01*
X136006525Y-55556632D01*
X136213368Y-55763475D01*
X136456589Y-55925990D01*
X136726842Y-56037932D01*
X137013740Y-56095000D01*
X137306260Y-56095000D01*
X137593158Y-56037932D01*
X137863411Y-55925990D01*
X138106632Y-55763475D01*
X138313475Y-55556632D01*
X138430000Y-55382240D01*
X138546525Y-55556632D01*
X138753368Y-55763475D01*
X138996589Y-55925990D01*
X139266842Y-56037932D01*
X139553740Y-56095000D01*
X139846260Y-56095000D01*
X140133158Y-56037932D01*
X140403411Y-55925990D01*
X140646632Y-55763475D01*
X140853475Y-55556632D01*
X140970000Y-55382240D01*
X141086525Y-55556632D01*
X141293368Y-55763475D01*
X141536589Y-55925990D01*
X141806842Y-56037932D01*
X142093740Y-56095000D01*
X142386260Y-56095000D01*
X142673158Y-56037932D01*
X142943411Y-55925990D01*
X143186632Y-55763475D01*
X143393475Y-55556632D01*
X143510000Y-55382240D01*
X143626525Y-55556632D01*
X143833368Y-55763475D01*
X144076589Y-55925990D01*
X144346842Y-56037932D01*
X144633740Y-56095000D01*
X144926260Y-56095000D01*
X145213158Y-56037932D01*
X145483411Y-55925990D01*
X145726632Y-55763475D01*
X145933475Y-55556632D01*
X146050000Y-55382240D01*
X146166525Y-55556632D01*
X146373368Y-55763475D01*
X146616589Y-55925990D01*
X146886842Y-56037932D01*
X147173740Y-56095000D01*
X147466260Y-56095000D01*
X147753158Y-56037932D01*
X148023411Y-55925990D01*
X148266632Y-55763475D01*
X148473475Y-55556632D01*
X148590000Y-55382240D01*
X148706525Y-55556632D01*
X148913368Y-55763475D01*
X149156589Y-55925990D01*
X149426842Y-56037932D01*
X149713740Y-56095000D01*
X150006260Y-56095000D01*
X150293158Y-56037932D01*
X150563411Y-55925990D01*
X150806632Y-55763475D01*
X151013475Y-55556632D01*
X151130000Y-55382240D01*
X151246525Y-55556632D01*
X151453368Y-55763475D01*
X151696589Y-55925990D01*
X151966842Y-56037932D01*
X152253740Y-56095000D01*
X152546260Y-56095000D01*
X152833158Y-56037932D01*
X153103411Y-55925990D01*
X153346632Y-55763475D01*
X153553475Y-55556632D01*
X153670000Y-55382240D01*
X153786525Y-55556632D01*
X153993368Y-55763475D01*
X154236589Y-55925990D01*
X154506842Y-56037932D01*
X154793740Y-56095000D01*
X155086260Y-56095000D01*
X155373158Y-56037932D01*
X155643411Y-55925990D01*
X155886632Y-55763475D01*
X156093475Y-55556632D01*
X156210000Y-55382240D01*
X156326525Y-55556632D01*
X156533368Y-55763475D01*
X156776589Y-55925990D01*
X157046842Y-56037932D01*
X157333740Y-56095000D01*
X157626260Y-56095000D01*
X157913158Y-56037932D01*
X158183411Y-55925990D01*
X158426632Y-55763475D01*
X158633475Y-55556632D01*
X158750000Y-55382240D01*
X158866525Y-55556632D01*
X159073368Y-55763475D01*
X159316589Y-55925990D01*
X159586842Y-56037932D01*
X159873740Y-56095000D01*
X160166260Y-56095000D01*
X160453158Y-56037932D01*
X160723411Y-55925990D01*
X160966632Y-55763475D01*
X161173475Y-55556632D01*
X161290000Y-55382240D01*
X161406525Y-55556632D01*
X161613368Y-55763475D01*
X161856589Y-55925990D01*
X162126842Y-56037932D01*
X162413740Y-56095000D01*
X162706260Y-56095000D01*
X162993158Y-56037932D01*
X163263411Y-55925990D01*
X163506632Y-55763475D01*
X163713475Y-55556632D01*
X163830000Y-55382240D01*
X163946525Y-55556632D01*
X164153368Y-55763475D01*
X164396589Y-55925990D01*
X164666842Y-56037932D01*
X164953740Y-56095000D01*
X165246260Y-56095000D01*
X165533158Y-56037932D01*
X165803411Y-55925990D01*
X166046632Y-55763475D01*
X166253475Y-55556632D01*
X166370000Y-55382240D01*
X166486525Y-55556632D01*
X166693368Y-55763475D01*
X166936589Y-55925990D01*
X167206842Y-56037932D01*
X167493740Y-56095000D01*
X167786260Y-56095000D01*
X168073158Y-56037932D01*
X168343411Y-55925990D01*
X168586632Y-55763475D01*
X168793475Y-55556632D01*
X168955990Y-55313411D01*
X169067932Y-55043158D01*
X169125000Y-54756260D01*
X169125000Y-54463740D01*
X169067932Y-54176842D01*
X168955990Y-53906589D01*
X168793475Y-53663368D01*
X168586632Y-53456525D01*
X168343411Y-53294010D01*
X168073158Y-53182068D01*
X167786260Y-53125000D01*
X167493740Y-53125000D01*
X167206842Y-53182068D01*
X166936589Y-53294010D01*
X166693368Y-53456525D01*
X166486525Y-53663368D01*
X166370000Y-53837760D01*
X166253475Y-53663368D01*
X166046632Y-53456525D01*
X165803411Y-53294010D01*
X165533158Y-53182068D01*
X165246260Y-53125000D01*
X164953740Y-53125000D01*
X164666842Y-53182068D01*
X164396589Y-53294010D01*
X164153368Y-53456525D01*
X163946525Y-53663368D01*
X163830000Y-53837760D01*
X163713475Y-53663368D01*
X163506632Y-53456525D01*
X163263411Y-53294010D01*
X162993158Y-53182068D01*
X162706260Y-53125000D01*
X162413740Y-53125000D01*
X162126842Y-53182068D01*
X161856589Y-53294010D01*
X161613368Y-53456525D01*
X161406525Y-53663368D01*
X161290000Y-53837760D01*
X161173475Y-53663368D01*
X160966632Y-53456525D01*
X160723411Y-53294010D01*
X160453158Y-53182068D01*
X160166260Y-53125000D01*
X159873740Y-53125000D01*
X159586842Y-53182068D01*
X159316589Y-53294010D01*
X159073368Y-53456525D01*
X158866525Y-53663368D01*
X158750000Y-53837760D01*
X158633475Y-53663368D01*
X158426632Y-53456525D01*
X158183411Y-53294010D01*
X157913158Y-53182068D01*
X157626260Y-53125000D01*
X157333740Y-53125000D01*
X157046842Y-53182068D01*
X156776589Y-53294010D01*
X156533368Y-53456525D01*
X156326525Y-53663368D01*
X156210000Y-53837760D01*
X156093475Y-53663368D01*
X155886632Y-53456525D01*
X155643411Y-53294010D01*
X155373158Y-53182068D01*
X155086260Y-53125000D01*
X154793740Y-53125000D01*
X154506842Y-53182068D01*
X154236589Y-53294010D01*
X153993368Y-53456525D01*
X153786525Y-53663368D01*
X153670000Y-53837760D01*
X153553475Y-53663368D01*
X153346632Y-53456525D01*
X153103411Y-53294010D01*
X152833158Y-53182068D01*
X152546260Y-53125000D01*
X152253740Y-53125000D01*
X151966842Y-53182068D01*
X151696589Y-53294010D01*
X151453368Y-53456525D01*
X151246525Y-53663368D01*
X151130000Y-53837760D01*
X151013475Y-53663368D01*
X150806632Y-53456525D01*
X150563411Y-53294010D01*
X150293158Y-53182068D01*
X150006260Y-53125000D01*
X149713740Y-53125000D01*
X149426842Y-53182068D01*
X149156589Y-53294010D01*
X148913368Y-53456525D01*
X148706525Y-53663368D01*
X148590000Y-53837760D01*
X148473475Y-53663368D01*
X148266632Y-53456525D01*
X148023411Y-53294010D01*
X147753158Y-53182068D01*
X147466260Y-53125000D01*
X147173740Y-53125000D01*
X146886842Y-53182068D01*
X146616589Y-53294010D01*
X146373368Y-53456525D01*
X146166525Y-53663368D01*
X146050000Y-53837760D01*
X145933475Y-53663368D01*
X145726632Y-53456525D01*
X145483411Y-53294010D01*
X145213158Y-53182068D01*
X144926260Y-53125000D01*
X144633740Y-53125000D01*
X144346842Y-53182068D01*
X144076589Y-53294010D01*
X143833368Y-53456525D01*
X143626525Y-53663368D01*
X143510000Y-53837760D01*
X143393475Y-53663368D01*
X143186632Y-53456525D01*
X142943411Y-53294010D01*
X142673158Y-53182068D01*
X142386260Y-53125000D01*
X142093740Y-53125000D01*
X141806842Y-53182068D01*
X141536589Y-53294010D01*
X141293368Y-53456525D01*
X141086525Y-53663368D01*
X140970000Y-53837760D01*
X140853475Y-53663368D01*
X140646632Y-53456525D01*
X140403411Y-53294010D01*
X140133158Y-53182068D01*
X139846260Y-53125000D01*
X139553740Y-53125000D01*
X139266842Y-53182068D01*
X138996589Y-53294010D01*
X138753368Y-53456525D01*
X138546525Y-53663368D01*
X138430000Y-53837760D01*
X138313475Y-53663368D01*
X138106632Y-53456525D01*
X137863411Y-53294010D01*
X137593158Y-53182068D01*
X137306260Y-53125000D01*
X137013740Y-53125000D01*
X136726842Y-53182068D01*
X136456589Y-53294010D01*
X136213368Y-53456525D01*
X136006525Y-53663368D01*
X135890000Y-53837760D01*
X135773475Y-53663368D01*
X135566632Y-53456525D01*
X135323411Y-53294010D01*
X135053158Y-53182068D01*
X134766260Y-53125000D01*
X134473740Y-53125000D01*
X134186842Y-53182068D01*
X133916589Y-53294010D01*
X133673368Y-53456525D01*
X133466525Y-53663368D01*
X133350000Y-53837760D01*
X133233475Y-53663368D01*
X133026632Y-53456525D01*
X132783411Y-53294010D01*
X132513158Y-53182068D01*
X132226260Y-53125000D01*
X131933740Y-53125000D01*
X131646842Y-53182068D01*
X131376589Y-53294010D01*
X131133368Y-53456525D01*
X131001513Y-53588380D01*
X130979502Y-53515820D01*
X130920537Y-53405506D01*
X130841185Y-53308815D01*
X130744494Y-53229463D01*
X130634180Y-53170498D01*
X130514482Y-53134188D01*
X130390000Y-53121928D01*
X128690000Y-53121928D01*
X128565518Y-53134188D01*
X128445820Y-53170498D01*
X128335506Y-53229463D01*
X128238815Y-53308815D01*
X128159463Y-53405506D01*
X128100498Y-53515820D01*
X128064188Y-53635518D01*
X128051928Y-53760000D01*
X111708043Y-53760000D01*
X111643475Y-53663368D01*
X111511620Y-53531513D01*
X111584180Y-53509502D01*
X111694494Y-53450537D01*
X111791185Y-53371185D01*
X111870537Y-53274494D01*
X111929502Y-53164180D01*
X111936017Y-53142702D01*
X117296903Y-53142702D01*
X117368486Y-53386671D01*
X117623996Y-53507571D01*
X117898184Y-53576300D01*
X118180512Y-53590217D01*
X118460130Y-53548787D01*
X118726292Y-53453603D01*
X118851514Y-53386671D01*
X118923097Y-53142702D01*
X118110000Y-52329605D01*
X117296903Y-53142702D01*
X111936017Y-53142702D01*
X111965812Y-53044482D01*
X111978072Y-52920000D01*
X111975000Y-52355750D01*
X111839762Y-52220512D01*
X116669783Y-52220512D01*
X116711213Y-52500130D01*
X116806397Y-52766292D01*
X116873329Y-52891514D01*
X117117298Y-52963097D01*
X117930395Y-52150000D01*
X118289605Y-52150000D01*
X119102702Y-52963097D01*
X119346671Y-52891514D01*
X119467571Y-52636004D01*
X119536300Y-52361816D01*
X119550217Y-52079488D01*
X119508787Y-51799870D01*
X119413603Y-51533708D01*
X119346671Y-51408486D01*
X119102702Y-51336903D01*
X118289605Y-52150000D01*
X117930395Y-52150000D01*
X117117298Y-51336903D01*
X116873329Y-51408486D01*
X116752429Y-51663996D01*
X116683700Y-51938184D01*
X116669783Y-52220512D01*
X111839762Y-52220512D01*
X111816250Y-52197000D01*
X110617000Y-52197000D01*
X110617000Y-52217000D01*
X110363000Y-52217000D01*
X110363000Y-52197000D01*
X110343000Y-52197000D01*
X110343000Y-51943000D01*
X110363000Y-51943000D01*
X110363000Y-50743750D01*
X110617000Y-50743750D01*
X110617000Y-51943000D01*
X111816250Y-51943000D01*
X111975000Y-51784250D01*
X111978072Y-51220000D01*
X111971897Y-51157298D01*
X117296903Y-51157298D01*
X118110000Y-51970395D01*
X118923097Y-51157298D01*
X118851514Y-50913329D01*
X118596004Y-50792429D01*
X118321816Y-50723700D01*
X118039488Y-50709783D01*
X117759870Y-50751213D01*
X117493708Y-50846397D01*
X117368486Y-50913329D01*
X117296903Y-51157298D01*
X111971897Y-51157298D01*
X111965812Y-51095518D01*
X111929502Y-50975820D01*
X111870537Y-50865506D01*
X111791185Y-50768815D01*
X111694494Y-50689463D01*
X111584180Y-50630498D01*
X111464482Y-50594188D01*
X111340000Y-50581928D01*
X110775750Y-50585000D01*
X110617000Y-50743750D01*
X110363000Y-50743750D01*
X110204250Y-50585000D01*
X109640000Y-50581928D01*
X109515518Y-50594188D01*
X109395820Y-50630498D01*
X109285506Y-50689463D01*
X109188815Y-50768815D01*
X109109463Y-50865506D01*
X109050498Y-50975820D01*
X109028487Y-51048380D01*
X108896632Y-50916525D01*
X108653411Y-50754010D01*
X108383158Y-50642068D01*
X108096260Y-50585000D01*
X107803740Y-50585000D01*
X107516842Y-50642068D01*
X107246589Y-50754010D01*
X107003368Y-50916525D01*
X106796525Y-51123368D01*
X106680000Y-51297760D01*
X106563475Y-51123368D01*
X106356632Y-50916525D01*
X106113411Y-50754010D01*
X105843158Y-50642068D01*
X105556260Y-50585000D01*
X105263740Y-50585000D01*
X104976842Y-50642068D01*
X104706589Y-50754010D01*
X104463368Y-50916525D01*
X104256525Y-51123368D01*
X104140000Y-51297760D01*
X104023475Y-51123368D01*
X103816632Y-50916525D01*
X103573411Y-50754010D01*
X103303158Y-50642068D01*
X103016260Y-50585000D01*
X102723740Y-50585000D01*
X102436842Y-50642068D01*
X102166589Y-50754010D01*
X101923368Y-50916525D01*
X101716525Y-51123368D01*
X101600000Y-51297760D01*
X101483475Y-51123368D01*
X101276632Y-50916525D01*
X101033411Y-50754010D01*
X100763158Y-50642068D01*
X100476260Y-50585000D01*
X100183740Y-50585000D01*
X99896842Y-50642068D01*
X99626589Y-50754010D01*
X99383368Y-50916525D01*
X99176525Y-51123368D01*
X99014010Y-51366589D01*
X98902068Y-51636842D01*
X98845000Y-51923740D01*
X98845000Y-52216260D01*
X98902068Y-52503158D01*
X99014010Y-52773411D01*
X99176525Y-53016632D01*
X99383368Y-53223475D01*
X99557760Y-53340000D01*
X99383368Y-53456525D01*
X99176525Y-53663368D01*
X99014010Y-53906589D01*
X98902068Y-54176842D01*
X98845000Y-54463740D01*
X98845000Y-54756260D01*
X98902068Y-55043158D01*
X99014010Y-55313411D01*
X99176525Y-55556632D01*
X99383368Y-55763475D01*
X99626589Y-55925990D01*
X99896842Y-56037932D01*
X100183740Y-56095000D01*
X100476260Y-56095000D01*
X100763158Y-56037932D01*
X101033411Y-55925990D01*
X101276632Y-55763475D01*
X101483475Y-55556632D01*
X101600000Y-55382240D01*
X101716525Y-55556632D01*
X101923368Y-55763475D01*
X102166589Y-55925990D01*
X102436842Y-56037932D01*
X102723740Y-56095000D01*
X103016260Y-56095000D01*
X103303158Y-56037932D01*
X103573411Y-55925990D01*
X103816632Y-55763475D01*
X104023475Y-55556632D01*
X104140000Y-55382240D01*
X104256525Y-55556632D01*
X104463368Y-55763475D01*
X104706589Y-55925990D01*
X104976842Y-56037932D01*
X105263740Y-56095000D01*
X105556260Y-56095000D01*
X105843158Y-56037932D01*
X106113411Y-55925990D01*
X106356632Y-55763475D01*
X106563475Y-55556632D01*
X106680000Y-55382240D01*
X106796525Y-55556632D01*
X107003368Y-55763475D01*
X107246589Y-55925990D01*
X107516842Y-56037932D01*
X107803740Y-56095000D01*
X107930198Y-56095000D01*
X101430198Y-62595001D01*
X92830509Y-62595001D01*
X92875000Y-62371335D01*
X92875000Y-62088665D01*
X92819853Y-61811426D01*
X92711680Y-61550273D01*
X92554637Y-61315241D01*
X92354759Y-61115363D01*
X92122241Y-60960000D01*
X92354759Y-60804637D01*
X92554637Y-60604759D01*
X92711680Y-60369727D01*
X92819853Y-60108574D01*
X92875000Y-59831335D01*
X92875000Y-59548665D01*
X92819853Y-59271426D01*
X92711680Y-59010273D01*
X92554637Y-58775241D01*
X92354759Y-58575363D01*
X92122241Y-58420000D01*
X92354759Y-58264637D01*
X92554637Y-58064759D01*
X92711680Y-57829727D01*
X92819853Y-57568574D01*
X92875000Y-57291335D01*
X92875000Y-57008665D01*
X92819853Y-56731426D01*
X92711680Y-56470273D01*
X92554637Y-56235241D01*
X92354759Y-56035363D01*
X92119727Y-55878320D01*
X91858574Y-55770147D01*
X91581335Y-55715000D01*
X91298665Y-55715000D01*
X91021426Y-55770147D01*
X90760273Y-55878320D01*
X90525241Y-56035363D01*
X90325363Y-56235241D01*
X90168320Y-56470273D01*
X90060147Y-56731426D01*
X90005000Y-57008665D01*
X90005000Y-57291335D01*
X90060147Y-57568574D01*
X90168320Y-57829727D01*
X90325363Y-58064759D01*
X90525241Y-58264637D01*
X90757759Y-58420000D01*
X90525241Y-58575363D01*
X90325363Y-58775241D01*
X90168320Y-59010273D01*
X90060147Y-59271426D01*
X90005000Y-59548665D01*
X90005000Y-59831335D01*
X90060147Y-60108574D01*
X90168320Y-60369727D01*
X90325363Y-60604759D01*
X90525241Y-60804637D01*
X90757759Y-60960000D01*
X90525241Y-61115363D01*
X90325363Y-61315241D01*
X90168320Y-61550273D01*
X90060147Y-61811426D01*
X90005000Y-62088665D01*
X90005000Y-62371335D01*
X90060147Y-62648574D01*
X90168320Y-62909727D01*
X90325363Y-63144759D01*
X90325400Y-63144796D01*
X82965198Y-70504999D01*
X81016599Y-70504999D01*
X81016599Y-67198930D01*
X81020276Y-67161597D01*
X81005602Y-67012611D01*
X80962145Y-66869350D01*
X80891573Y-66737321D01*
X80820398Y-66650594D01*
X80796600Y-66621596D01*
X80767603Y-66597799D01*
X77314600Y-63144796D01*
X77314637Y-63144759D01*
X77471680Y-62909727D01*
X77579853Y-62648574D01*
X77635000Y-62371335D01*
X77635000Y-62088665D01*
X77579853Y-61811426D01*
X77471680Y-61550273D01*
X77314637Y-61315241D01*
X77114759Y-61115363D01*
X76882241Y-60960000D01*
X77114759Y-60804637D01*
X77314637Y-60604759D01*
X77471680Y-60369727D01*
X77579853Y-60108574D01*
X77635000Y-59831335D01*
X77635000Y-59548665D01*
X77579853Y-59271426D01*
X77471680Y-59010273D01*
X77314637Y-58775241D01*
X77114759Y-58575363D01*
X76882241Y-58420000D01*
X77114759Y-58264637D01*
X77314637Y-58064759D01*
X77471680Y-57829727D01*
X77579853Y-57568574D01*
X77635000Y-57291335D01*
X77635000Y-57008665D01*
X77579853Y-56731426D01*
X77471680Y-56470273D01*
X77314637Y-56235241D01*
X77114759Y-56035363D01*
X76879727Y-55878320D01*
X76618574Y-55770147D01*
X76341335Y-55715000D01*
X76058665Y-55715000D01*
X75781426Y-55770147D01*
X75520273Y-55878320D01*
X75285241Y-56035363D01*
X75085363Y-56235241D01*
X74928320Y-56470273D01*
X74820147Y-56731426D01*
X74765000Y-57008665D01*
X74765000Y-57291335D01*
X74820147Y-57568574D01*
X74928320Y-57829727D01*
X75085363Y-58064759D01*
X75285241Y-58264637D01*
X75517759Y-58420000D01*
X75285241Y-58575363D01*
X75085363Y-58775241D01*
X74928320Y-59010273D01*
X74820147Y-59271426D01*
X74765000Y-59548665D01*
X74765000Y-59831335D01*
X74801312Y-60013887D01*
X74564001Y-60251197D01*
X74534998Y-60275000D01*
X74479870Y-60342175D01*
X74440025Y-60390725D01*
X74369454Y-60522754D01*
X74369453Y-60522755D01*
X74325996Y-60666016D01*
X74314999Y-60777669D01*
X74314999Y-60777679D01*
X74311323Y-60815001D01*
X74314999Y-60852324D01*
X74315000Y-62732669D01*
X74311323Y-62770001D01*
X74315000Y-62807334D01*
X74322650Y-62884999D01*
X74325997Y-62918986D01*
X74369453Y-63062247D01*
X74440025Y-63194277D01*
X74511200Y-63281003D01*
X74534999Y-63310002D01*
X74563997Y-63333800D01*
X75085400Y-63855204D01*
X75085363Y-63855241D01*
X74928320Y-64090273D01*
X74820147Y-64351426D01*
X74765000Y-64628665D01*
X74765000Y-64911335D01*
X74820147Y-65188574D01*
X74928320Y-65449727D01*
X75085363Y-65684759D01*
X75285241Y-65884637D01*
X75517759Y-66040000D01*
X75285241Y-66195363D01*
X75085363Y-66395241D01*
X74928320Y-66630273D01*
X74820147Y-66891426D01*
X74765000Y-67168665D01*
X74765000Y-67451335D01*
X74820147Y-67728574D01*
X74928320Y-67989727D01*
X75085363Y-68224759D01*
X75285241Y-68424637D01*
X75517759Y-68580000D01*
X75285241Y-68735363D01*
X75085363Y-68935241D01*
X74928320Y-69170273D01*
X74820147Y-69431426D01*
X74765000Y-69708665D01*
X74765000Y-69991335D01*
X74820147Y-70268574D01*
X74928320Y-70529727D01*
X75085363Y-70764759D01*
X75085400Y-70764796D01*
X74831101Y-71019096D01*
X74831096Y-71019100D01*
X73795000Y-72055197D01*
X73795000Y-51336514D01*
X73826600Y-51035837D01*
X73908054Y-50785111D01*
X74039901Y-50556791D01*
X74216205Y-50360947D01*
X74429483Y-50206048D01*
X74670369Y-50098785D01*
X74928217Y-50044000D01*
X225191783Y-50044000D01*
X225449630Y-50098785D01*
%TA.AperFunction,Conductor*%
D22*
G36*
X225449630Y-50098785D02*
G01*
X225690521Y-50206050D01*
X225903793Y-50360945D01*
X226080100Y-50556792D01*
X226211947Y-50785113D01*
X226293400Y-51035837D01*
X226325001Y-51336524D01*
X226325001Y-55110752D01*
X226299651Y-55082570D01*
X226274621Y-55049534D01*
X226224323Y-55004877D01*
X226174695Y-54959553D01*
X226139227Y-54938112D01*
X226019732Y-54851373D01*
X225988796Y-54824595D01*
X225929885Y-54791089D01*
X225871413Y-54756852D01*
X225832749Y-54743463D01*
X225698088Y-54683497D01*
X225662102Y-54663648D01*
X225597669Y-54643171D01*
X225533547Y-54621867D01*
X225492774Y-54616767D01*
X225348454Y-54586078D01*
X225309085Y-54574135D01*
X225241815Y-54567510D01*
X225174735Y-54560009D01*
X225133758Y-54563500D01*
X224986141Y-54563500D01*
X224945164Y-54560009D01*
X224878076Y-54567510D01*
X224810815Y-54574135D01*
X224771447Y-54586077D01*
X224627054Y-54616783D01*
X224586212Y-54621899D01*
X224522165Y-54643192D01*
X224457798Y-54663648D01*
X224421750Y-54683531D01*
X224287180Y-54743488D01*
X224248587Y-54756852D01*
X224190064Y-54791119D01*
X224131088Y-54824677D01*
X224100211Y-54851414D01*
X223980883Y-54938033D01*
X223945514Y-54959397D01*
X223895738Y-55004823D01*
X223845379Y-55049534D01*
X223820430Y-55082464D01*
X223721562Y-55192301D01*
X223691584Y-55220383D01*
X223652212Y-55275336D01*
X223612123Y-55329778D01*
X223594687Y-55366973D01*
X223520954Y-55494707D01*
X223497429Y-55528477D01*
X223470381Y-55590353D01*
X223442520Y-55651857D01*
X223433178Y-55691938D01*
X223387631Y-55832228D01*
X223371710Y-55869942D01*
X223358043Y-55936305D01*
X223343544Y-56002463D01*
X223342750Y-56043387D01*
X223327305Y-56190044D01*
X223319532Y-56230537D01*
X223319984Y-56297990D01*
X223319529Y-56365426D01*
X223327299Y-56405917D01*
X223342754Y-56552736D01*
X223343556Y-56593745D01*
X223358060Y-56659877D01*
X223371699Y-56726123D01*
X223387646Y-56763904D01*
X223433192Y-56904121D01*
X223442520Y-56944143D01*
X223470388Y-57005661D01*
X223497482Y-57067618D01*
X223520981Y-57101341D01*
X223594687Y-57229027D01*
X223612123Y-57266222D01*
X223652212Y-57320664D01*
X223691584Y-57375617D01*
X223721562Y-57403699D01*
X223820331Y-57513427D01*
X223845186Y-57546258D01*
X223895662Y-57591108D01*
X223945514Y-57636603D01*
X223980757Y-57657892D01*
X224100234Y-57744688D01*
X224131350Y-57771608D01*
X224190067Y-57804984D01*
X224248328Y-57839128D01*
X224287200Y-57852606D01*
X224421890Y-57912546D01*
X224457798Y-57932352D01*
X224522290Y-57952847D01*
X224586526Y-57974173D01*
X224627220Y-57979253D01*
X224771447Y-58009923D01*
X224810815Y-58021865D01*
X224878076Y-58028490D01*
X224945164Y-58035991D01*
X224986141Y-58032500D01*
X225133758Y-58032500D01*
X225174735Y-58035991D01*
X225241815Y-58028490D01*
X225309085Y-58021865D01*
X225348454Y-58009922D01*
X225492613Y-57979267D01*
X225533234Y-57974204D01*
X225597546Y-57952868D01*
X225662102Y-57932352D01*
X225697945Y-57912582D01*
X225832726Y-57852632D01*
X225871672Y-57839129D01*
X225929890Y-57805010D01*
X225988533Y-57771691D01*
X226019711Y-57744727D01*
X226139347Y-57657815D01*
X226174695Y-57636447D01*
X226224421Y-57591034D01*
X226274814Y-57546258D01*
X226299750Y-57513320D01*
X226325001Y-57485248D01*
X226325000Y-111259486D01*
X226293400Y-111560163D01*
X226211947Y-111810887D01*
X226080100Y-112039208D01*
X225903793Y-112235055D01*
X225690521Y-112389950D01*
X225449630Y-112497215D01*
X225191783Y-112552000D01*
X74928217Y-112552000D01*
X74670369Y-112497215D01*
X74429483Y-112389952D01*
X74216205Y-112235053D01*
X74039901Y-112039209D01*
X73908054Y-111810889D01*
X73826600Y-111560163D01*
X73795000Y-111259486D01*
X73795000Y-99101401D01*
X74409600Y-99716001D01*
X74433398Y-99745000D01*
X74462396Y-99768798D01*
X74549122Y-99839973D01*
X74655516Y-99896842D01*
X74681152Y-99910545D01*
X74711928Y-99919881D01*
X74711928Y-101180000D01*
X74724188Y-101304482D01*
X74760498Y-101424180D01*
X74819463Y-101534494D01*
X74898815Y-101631185D01*
X74995506Y-101710537D01*
X75105820Y-101769502D01*
X75225518Y-101805812D01*
X75350000Y-101818072D01*
X77050000Y-101818072D01*
X77174482Y-101805812D01*
X77294180Y-101769502D01*
X77404494Y-101710537D01*
X77501185Y-101631185D01*
X77580537Y-101534494D01*
X77639502Y-101424180D01*
X77663966Y-101343534D01*
X77739731Y-101427588D01*
X77973080Y-101601641D01*
X78235901Y-101726825D01*
X78383110Y-101771476D01*
X78613000Y-101650155D01*
X78613000Y-100457000D01*
X78593000Y-100457000D01*
X78593000Y-100203000D01*
X78613000Y-100203000D01*
X78613000Y-99009845D01*
X78383110Y-98888524D01*
X78235901Y-98933175D01*
X77973080Y-99058359D01*
X77739731Y-99232412D01*
X77663966Y-99316466D01*
X77639502Y-99235820D01*
X77580537Y-99125506D01*
X77501185Y-99028815D01*
X77404494Y-98949463D01*
X77294180Y-98890498D01*
X77174482Y-98854188D01*
X77050000Y-98841928D01*
X75786729Y-98841928D01*
X75638803Y-98694001D01*
X75615000Y-98664998D01*
X75499275Y-98570025D01*
X75367246Y-98499453D01*
X75331947Y-98488745D01*
X74978800Y-98135599D01*
X74978800Y-93465276D01*
X75085363Y-93624759D01*
X75285241Y-93824637D01*
X75520273Y-93981680D01*
X75781426Y-94089853D01*
X76058665Y-94145000D01*
X76341335Y-94145000D01*
X76618574Y-94089853D01*
X76879727Y-93981680D01*
X77114759Y-93824637D01*
X77314637Y-93624759D01*
X77471680Y-93389727D01*
X77579853Y-93128574D01*
X77635000Y-92851335D01*
X77635000Y-92568665D01*
X77579853Y-92291426D01*
X77471680Y-92030273D01*
X77314637Y-91795241D01*
X77114759Y-91595363D01*
X76879727Y-91438320D01*
X76869135Y-91433933D01*
X77055131Y-91322385D01*
X77263519Y-91133414D01*
X77431037Y-90907420D01*
X77551246Y-90653087D01*
X77591904Y-90519039D01*
X77469915Y-90297000D01*
X76327000Y-90297000D01*
X76327000Y-90317000D01*
X76073000Y-90317000D01*
X76073000Y-90297000D01*
X76053000Y-90297000D01*
X76053000Y-90043000D01*
X76073000Y-90043000D01*
X76073000Y-90023000D01*
X76327000Y-90023000D01*
X76327000Y-90043000D01*
X77469915Y-90043000D01*
X77591904Y-89820961D01*
X77551246Y-89686913D01*
X77431037Y-89432580D01*
X77263519Y-89206586D01*
X77055131Y-89017615D01*
X76869135Y-88906067D01*
X76879727Y-88901680D01*
X77114759Y-88744637D01*
X77314637Y-88544759D01*
X77471680Y-88309727D01*
X77579853Y-88048574D01*
X77635000Y-87771335D01*
X77635000Y-87488665D01*
X77579853Y-87211426D01*
X77471680Y-86950273D01*
X77314637Y-86715241D01*
X77114759Y-86515363D01*
X76882241Y-86360000D01*
X77114759Y-86204637D01*
X77314637Y-86004759D01*
X77471680Y-85769727D01*
X77579853Y-85508574D01*
X77635000Y-85231335D01*
X77635000Y-84948665D01*
X77579853Y-84671426D01*
X77471680Y-84410273D01*
X77314637Y-84175241D01*
X77114759Y-83975363D01*
X76882241Y-83820000D01*
X77114759Y-83664637D01*
X77314637Y-83464759D01*
X77471680Y-83229727D01*
X77579853Y-82968574D01*
X77635000Y-82691335D01*
X77635000Y-82519801D01*
X93960198Y-98845000D01*
X93833740Y-98845000D01*
X93546842Y-98902068D01*
X93276589Y-99014010D01*
X93033368Y-99176525D01*
X92826525Y-99383368D01*
X92710000Y-99557760D01*
X92593475Y-99383368D01*
X92386632Y-99176525D01*
X92143411Y-99014010D01*
X91873158Y-98902068D01*
X91586260Y-98845000D01*
X91293740Y-98845000D01*
X91006842Y-98902068D01*
X90736589Y-99014010D01*
X90493368Y-99176525D01*
X90286525Y-99383368D01*
X90170000Y-99557760D01*
X90053475Y-99383368D01*
X89846632Y-99176525D01*
X89603411Y-99014010D01*
X89333158Y-98902068D01*
X89046260Y-98845000D01*
X88753740Y-98845000D01*
X88466842Y-98902068D01*
X88196589Y-99014010D01*
X87953368Y-99176525D01*
X87746525Y-99383368D01*
X87630000Y-99557760D01*
X87513475Y-99383368D01*
X87306632Y-99176525D01*
X87063411Y-99014010D01*
X86793158Y-98902068D01*
X86506260Y-98845000D01*
X86213740Y-98845000D01*
X85926842Y-98902068D01*
X85656589Y-99014010D01*
X85413368Y-99176525D01*
X85206525Y-99383368D01*
X85090000Y-99557760D01*
X84973475Y-99383368D01*
X84766632Y-99176525D01*
X84523411Y-99014010D01*
X84253158Y-98902068D01*
X83966260Y-98845000D01*
X83673740Y-98845000D01*
X83386842Y-98902068D01*
X83116589Y-99014010D01*
X82873368Y-99176525D01*
X82666525Y-99383368D01*
X82550000Y-99557760D01*
X82433475Y-99383368D01*
X82226632Y-99176525D01*
X81983411Y-99014010D01*
X81713158Y-98902068D01*
X81426260Y-98845000D01*
X81133740Y-98845000D01*
X80846842Y-98902068D01*
X80576589Y-99014010D01*
X80333368Y-99176525D01*
X80126525Y-99383368D01*
X80004805Y-99565534D01*
X79935178Y-99448645D01*
X79740269Y-99232412D01*
X79506920Y-99058359D01*
X79244099Y-98933175D01*
X79096890Y-98888524D01*
X78867000Y-99009845D01*
X78867000Y-100203000D01*
X78887000Y-100203000D01*
X78887000Y-100457000D01*
X78867000Y-100457000D01*
X78867000Y-101650155D01*
X79096890Y-101771476D01*
X79244099Y-101726825D01*
X79506920Y-101601641D01*
X79740269Y-101427588D01*
X79935178Y-101211355D01*
X80004805Y-101094466D01*
X80126525Y-101276632D01*
X80333368Y-101483475D01*
X80576589Y-101645990D01*
X80846842Y-101757932D01*
X81133740Y-101815000D01*
X81426260Y-101815000D01*
X81713158Y-101757932D01*
X81983411Y-101645990D01*
X82226632Y-101483475D01*
X82433475Y-101276632D01*
X82550000Y-101102240D01*
X82666525Y-101276632D01*
X82873368Y-101483475D01*
X83116589Y-101645990D01*
X83386842Y-101757932D01*
X83673740Y-101815000D01*
X83966260Y-101815000D01*
X84253158Y-101757932D01*
X84523411Y-101645990D01*
X84766632Y-101483475D01*
X84973475Y-101276632D01*
X85090000Y-101102240D01*
X85206525Y-101276632D01*
X85413368Y-101483475D01*
X85656589Y-101645990D01*
X85926842Y-101757932D01*
X86213740Y-101815000D01*
X86506260Y-101815000D01*
X86793158Y-101757932D01*
X87063411Y-101645990D01*
X87306632Y-101483475D01*
X87513475Y-101276632D01*
X87630000Y-101102240D01*
X87746525Y-101276632D01*
X87953368Y-101483475D01*
X88196589Y-101645990D01*
X88466842Y-101757932D01*
X88753740Y-101815000D01*
X89046260Y-101815000D01*
X89333158Y-101757932D01*
X89603411Y-101645990D01*
X89846632Y-101483475D01*
X90053475Y-101276632D01*
X90170000Y-101102240D01*
X90286525Y-101276632D01*
X90493368Y-101483475D01*
X90736589Y-101645990D01*
X91006842Y-101757932D01*
X91293740Y-101815000D01*
X91586260Y-101815000D01*
X91873158Y-101757932D01*
X92143411Y-101645990D01*
X92386632Y-101483475D01*
X92593475Y-101276632D01*
X92710000Y-101102240D01*
X92826525Y-101276632D01*
X93033368Y-101483475D01*
X93276589Y-101645990D01*
X93546842Y-101757932D01*
X93833740Y-101815000D01*
X94126260Y-101815000D01*
X94413158Y-101757932D01*
X94683411Y-101645990D01*
X94926632Y-101483475D01*
X95133475Y-101276632D01*
X95295990Y-101033411D01*
X95407932Y-100763158D01*
X95465000Y-100476260D01*
X95465000Y-100349802D01*
X103324001Y-108208804D01*
X103324002Y-108872669D01*
X103320325Y-108910001D01*
X103334999Y-109058986D01*
X103378455Y-109202247D01*
X103449027Y-109334277D01*
X103520202Y-109421003D01*
X103544001Y-109450002D01*
X103572999Y-109473800D01*
X105659001Y-111559803D01*
X105682799Y-111588801D01*
X105785252Y-111672882D01*
X105798524Y-111683774D01*
X105930553Y-111754346D01*
X106073814Y-111797803D01*
X106222800Y-111812477D01*
X106260133Y-111808800D01*
X167043878Y-111808800D01*
X167081200Y-111812476D01*
X167118522Y-111808800D01*
X167118533Y-111808800D01*
X167230186Y-111797803D01*
X167373447Y-111754346D01*
X167505476Y-111683774D01*
X167621201Y-111588801D01*
X167645004Y-111559797D01*
X171050425Y-108154377D01*
X171299899Y-108204000D01*
X171600101Y-108204000D01*
X171894534Y-108145434D01*
X172171885Y-108030551D01*
X172421493Y-107863768D01*
X172549030Y-107736231D01*
X173113374Y-107736231D01*
X173195727Y-107989289D01*
X173466418Y-108119086D01*
X173757230Y-108193580D01*
X174056988Y-108209908D01*
X174354171Y-108167443D01*
X174637359Y-108067816D01*
X174784273Y-107989289D01*
X174866626Y-107736231D01*
X173990000Y-106859605D01*
X173113374Y-107736231D01*
X172549030Y-107736231D01*
X172633768Y-107651493D01*
X172739417Y-107493378D01*
X172933769Y-107556626D01*
X173810395Y-106680000D01*
X174169605Y-106680000D01*
X175046231Y-107556626D01*
X175299289Y-107474273D01*
X175429086Y-107203582D01*
X175503580Y-106912770D01*
X175519908Y-106613012D01*
X175477443Y-106315829D01*
X175440212Y-106210000D01*
X196681928Y-106210000D01*
X196694188Y-106334482D01*
X196730498Y-106454180D01*
X196789463Y-106564494D01*
X196868815Y-106661185D01*
X196965506Y-106740537D01*
X197075820Y-106799502D01*
X197195518Y-106835812D01*
X197320000Y-106848072D01*
X197834250Y-106845000D01*
X197993000Y-106686250D01*
X197993000Y-105537000D01*
X198247000Y-105537000D01*
X198247000Y-106686250D01*
X198405750Y-106845000D01*
X198920000Y-106848072D01*
X199044482Y-106835812D01*
X199164180Y-106799502D01*
X199274494Y-106740537D01*
X199371185Y-106661185D01*
X199450537Y-106564494D01*
X199509502Y-106454180D01*
X199545812Y-106334482D01*
X199558072Y-106210000D01*
X199555000Y-105695750D01*
X199396250Y-105537000D01*
X198247000Y-105537000D01*
X197993000Y-105537000D01*
X196843750Y-105537000D01*
X196685000Y-105695750D01*
X196681928Y-106210000D01*
X175440212Y-106210000D01*
X175377816Y-106032641D01*
X175299289Y-105885727D01*
X175046231Y-105803374D01*
X174169605Y-106680000D01*
X173810395Y-106680000D01*
X172933769Y-105803374D01*
X172739417Y-105866622D01*
X172633768Y-105708507D01*
X172549030Y-105623769D01*
X173113374Y-105623769D01*
X173990000Y-106500395D01*
X174866626Y-105623769D01*
X174784273Y-105370711D01*
X174513582Y-105240914D01*
X174222770Y-105166420D01*
X173923012Y-105150092D01*
X173625829Y-105192557D01*
X173342641Y-105292184D01*
X173195727Y-105370711D01*
X173113374Y-105623769D01*
X172549030Y-105623769D01*
X172421493Y-105496232D01*
X172171885Y-105329449D01*
X171894534Y-105214566D01*
X171600101Y-105156000D01*
X171299899Y-105156000D01*
X171005466Y-105214566D01*
X170728115Y-105329449D01*
X170478507Y-105496232D01*
X170266232Y-105708507D01*
X170180000Y-105837562D01*
X170093768Y-105708507D01*
X169881493Y-105496232D01*
X169631885Y-105329449D01*
X169354534Y-105214566D01*
X169060101Y-105156000D01*
X168759899Y-105156000D01*
X168465466Y-105214566D01*
X168188115Y-105329449D01*
X167938507Y-105496232D01*
X167726232Y-105708507D01*
X167559449Y-105958115D01*
X167444566Y-106235466D01*
X167386000Y-106529899D01*
X167386000Y-106830101D01*
X167444566Y-107124534D01*
X167559449Y-107401885D01*
X167726232Y-107651493D01*
X167938507Y-107863768D01*
X168188115Y-108030551D01*
X168465466Y-108145434D01*
X168759899Y-108204000D01*
X168851198Y-108204000D01*
X166766399Y-110288800D01*
X106537602Y-110288800D01*
X104844001Y-108595200D01*
X104844001Y-107931323D01*
X104847677Y-107894000D01*
X104844001Y-107856677D01*
X104844001Y-107856668D01*
X104833004Y-107745015D01*
X104789547Y-107601754D01*
X104718975Y-107469725D01*
X104694580Y-107440000D01*
X104647800Y-107382997D01*
X104647796Y-107382993D01*
X104624002Y-107354000D01*
X104595011Y-107330208D01*
X100277185Y-103012382D01*
X107442000Y-103012382D01*
X107442000Y-103362618D01*
X107510328Y-103706123D01*
X107644357Y-104029699D01*
X107838937Y-104320909D01*
X108086591Y-104568563D01*
X108377801Y-104763143D01*
X108701377Y-104897172D01*
X109044882Y-104965500D01*
X109395118Y-104965500D01*
X109738623Y-104897172D01*
X110062199Y-104763143D01*
X110353409Y-104568563D01*
X110601063Y-104320909D01*
X110795643Y-104029699D01*
X110929672Y-103706123D01*
X110998000Y-103362618D01*
X110998000Y-103012382D01*
X110929672Y-102668877D01*
X110795643Y-102345301D01*
X110601063Y-102054091D01*
X110353409Y-101806437D01*
X110062199Y-101611857D01*
X109738623Y-101477828D01*
X109395118Y-101409500D01*
X109044882Y-101409500D01*
X108701377Y-101477828D01*
X108377801Y-101611857D01*
X108086591Y-101806437D01*
X107838937Y-102054091D01*
X107644357Y-102345301D01*
X107510328Y-102668877D01*
X107442000Y-103012382D01*
X100277185Y-103012382D01*
X97381034Y-100116231D01*
X105803374Y-100116231D01*
X105885727Y-100369289D01*
X106156418Y-100499086D01*
X106447230Y-100573580D01*
X106746988Y-100589908D01*
X107044171Y-100547443D01*
X107327359Y-100447816D01*
X107474273Y-100369289D01*
X107556626Y-100116231D01*
X106680000Y-99239605D01*
X105803374Y-100116231D01*
X97381034Y-100116231D01*
X96391791Y-99126988D01*
X105150092Y-99126988D01*
X105192557Y-99424171D01*
X105292184Y-99707359D01*
X105370711Y-99854273D01*
X105623769Y-99936626D01*
X106500395Y-99060000D01*
X106859605Y-99060000D01*
X107736231Y-99936626D01*
X107989289Y-99854273D01*
X108119086Y-99583582D01*
X108193580Y-99292770D01*
X108209908Y-98993012D01*
X108167443Y-98695829D01*
X108067816Y-98412641D01*
X107989289Y-98265727D01*
X107736231Y-98183374D01*
X106859605Y-99060000D01*
X106500395Y-99060000D01*
X105623769Y-98183374D01*
X105370711Y-98265727D01*
X105240914Y-98536418D01*
X105166420Y-98827230D01*
X105150092Y-99126988D01*
X96391791Y-99126988D01*
X91412874Y-94148072D01*
X92240000Y-94148072D01*
X92364482Y-94135812D01*
X92484180Y-94099502D01*
X92594494Y-94040537D01*
X92691185Y-93961185D01*
X92770537Y-93864494D01*
X92829502Y-93754180D01*
X92865812Y-93634482D01*
X92878072Y-93510000D01*
X92878072Y-91910000D01*
X92865812Y-91785518D01*
X92829502Y-91665820D01*
X92770537Y-91555506D01*
X92691185Y-91458815D01*
X92594494Y-91379463D01*
X92484180Y-91320498D01*
X92364482Y-91284188D01*
X92356039Y-91283357D01*
X92554637Y-91084759D01*
X92711680Y-90849727D01*
X92819853Y-90588574D01*
X92875000Y-90311335D01*
X92875000Y-90028665D01*
X92819853Y-89751426D01*
X92711680Y-89490273D01*
X92554637Y-89255241D01*
X92354759Y-89055363D01*
X92122241Y-88900000D01*
X92354759Y-88744637D01*
X92554637Y-88544759D01*
X92711680Y-88309727D01*
X92819853Y-88048574D01*
X92875000Y-87771335D01*
X92875000Y-87488665D01*
X92819853Y-87211426D01*
X92711680Y-86950273D01*
X92554637Y-86715241D01*
X92354759Y-86515363D01*
X92119727Y-86358320D01*
X92109135Y-86353933D01*
X92295131Y-86242385D01*
X92503519Y-86053414D01*
X92671037Y-85827420D01*
X92791246Y-85573087D01*
X92831904Y-85439039D01*
X92709915Y-85217000D01*
X91567000Y-85217000D01*
X91567000Y-85237000D01*
X91313000Y-85237000D01*
X91313000Y-85217000D01*
X90170085Y-85217000D01*
X90048096Y-85439039D01*
X90088754Y-85573087D01*
X90208963Y-85827420D01*
X90376481Y-86053414D01*
X90584869Y-86242385D01*
X90770865Y-86353933D01*
X90760273Y-86358320D01*
X90525241Y-86515363D01*
X90325363Y-86715241D01*
X90168320Y-86950273D01*
X90060147Y-87211426D01*
X90005000Y-87488665D01*
X90005000Y-87771335D01*
X90060147Y-88048574D01*
X90168320Y-88309727D01*
X90325363Y-88544759D01*
X90525241Y-88744637D01*
X90757759Y-88900000D01*
X90525241Y-89055363D01*
X90325363Y-89255241D01*
X90168320Y-89490273D01*
X90060147Y-89751426D01*
X90005000Y-90028665D01*
X90005000Y-90311335D01*
X90060147Y-90588574D01*
X90168320Y-90849727D01*
X90325363Y-91084759D01*
X90523961Y-91283357D01*
X90515518Y-91284188D01*
X90395820Y-91320498D01*
X90285506Y-91379463D01*
X90188815Y-91458815D01*
X90109463Y-91555506D01*
X90050498Y-91665820D01*
X90014188Y-91785518D01*
X90001928Y-91910000D01*
X90001928Y-92737126D01*
X77598688Y-80333887D01*
X77635000Y-80151335D01*
X77635000Y-79868665D01*
X77590509Y-79644999D01*
X80715196Y-79644999D01*
X85256199Y-84186003D01*
X85279998Y-84215002D01*
X85395723Y-84309975D01*
X85527752Y-84380547D01*
X85671013Y-84424004D01*
X85782666Y-84435001D01*
X85782674Y-84435001D01*
X85819999Y-84438677D01*
X85857324Y-84435001D01*
X90170007Y-84435001D01*
X90088754Y-84606913D01*
X90048096Y-84740961D01*
X90170085Y-84963000D01*
X91313000Y-84963000D01*
X91313000Y-84943000D01*
X91567000Y-84943000D01*
X91567000Y-84963000D01*
X92709915Y-84963000D01*
X92831904Y-84740961D01*
X92791246Y-84606913D01*
X92709993Y-84435001D01*
X96060200Y-84435001D01*
X103770704Y-92145506D01*
X105205623Y-93580425D01*
X105156000Y-93829899D01*
X105156000Y-94130101D01*
X105214566Y-94424534D01*
X105329449Y-94701885D01*
X105496232Y-94951493D01*
X105708507Y-95163768D01*
X105837562Y-95250000D01*
X105708507Y-95336232D01*
X105496232Y-95548507D01*
X105329449Y-95798115D01*
X105214566Y-96075466D01*
X105156000Y-96369899D01*
X105156000Y-96670101D01*
X105214566Y-96964534D01*
X105329449Y-97241885D01*
X105496232Y-97491493D01*
X105708507Y-97703768D01*
X105866622Y-97809417D01*
X105803374Y-98003769D01*
X106680000Y-98880395D01*
X107556626Y-98003769D01*
X107493378Y-97809417D01*
X107651493Y-97703768D01*
X107863768Y-97491493D01*
X108030551Y-97241885D01*
X108145434Y-96964534D01*
X108204000Y-96670101D01*
X108204000Y-96369899D01*
X108145434Y-96075466D01*
X108030551Y-95798115D01*
X107863768Y-95548507D01*
X107651493Y-95336232D01*
X107522438Y-95250000D01*
X107651493Y-95163768D01*
X107863768Y-94951493D01*
X108030551Y-94701885D01*
X108057865Y-94635944D01*
X116080000Y-102658080D01*
X116080001Y-105354916D01*
X115868507Y-105496232D01*
X115656232Y-105708507D01*
X115570000Y-105837562D01*
X115483768Y-105708507D01*
X115271493Y-105496232D01*
X115021885Y-105329449D01*
X114744534Y-105214566D01*
X114450101Y-105156000D01*
X114149899Y-105156000D01*
X113855466Y-105214566D01*
X113578115Y-105329449D01*
X113328507Y-105496232D01*
X113116232Y-105708507D01*
X112949449Y-105958115D01*
X112834566Y-106235466D01*
X112776000Y-106529899D01*
X112776000Y-106830101D01*
X112834566Y-107124534D01*
X112949449Y-107401885D01*
X113116232Y-107651493D01*
X113328507Y-107863768D01*
X113578115Y-108030551D01*
X113855466Y-108145434D01*
X114149899Y-108204000D01*
X114450101Y-108204000D01*
X114744534Y-108145434D01*
X115021885Y-108030551D01*
X115271493Y-107863768D01*
X115483768Y-107651493D01*
X115570000Y-107522438D01*
X115656232Y-107651493D01*
X115868507Y-107863768D01*
X116118115Y-108030551D01*
X116395466Y-108145434D01*
X116689899Y-108204000D01*
X116990101Y-108204000D01*
X117284534Y-108145434D01*
X117561885Y-108030551D01*
X117811493Y-107863768D01*
X117939030Y-107736231D01*
X118503374Y-107736231D01*
X118585727Y-107989289D01*
X118856418Y-108119086D01*
X119147230Y-108193580D01*
X119446988Y-108209908D01*
X119744171Y-108167443D01*
X120027359Y-108067816D01*
X120174273Y-107989289D01*
X120256626Y-107736231D01*
X119380000Y-106859605D01*
X118503374Y-107736231D01*
X117939030Y-107736231D01*
X118023768Y-107651493D01*
X118129417Y-107493378D01*
X118323769Y-107556626D01*
X119200395Y-106680000D01*
X119559605Y-106680000D01*
X120436231Y-107556626D01*
X120689289Y-107474273D01*
X120819086Y-107203582D01*
X120893580Y-106912770D01*
X120909908Y-106613012D01*
X120867443Y-106315829D01*
X120767816Y-106032641D01*
X120689289Y-105885727D01*
X120436231Y-105803374D01*
X119559605Y-106680000D01*
X119200395Y-106680000D01*
X118323769Y-105803374D01*
X118129417Y-105866622D01*
X118023768Y-105708507D01*
X117939030Y-105623769D01*
X118503374Y-105623769D01*
X119380000Y-106500395D01*
X120256626Y-105623769D01*
X120174273Y-105370711D01*
X119903582Y-105240914D01*
X119612770Y-105166420D01*
X119313012Y-105150092D01*
X119015829Y-105192557D01*
X118732641Y-105292184D01*
X118585727Y-105370711D01*
X118503374Y-105623769D01*
X117939030Y-105623769D01*
X117811493Y-105496232D01*
X117600000Y-105354917D01*
X117600000Y-103012382D01*
X122682000Y-103012382D01*
X122682000Y-103362618D01*
X122750328Y-103706123D01*
X122884357Y-104029699D01*
X123078937Y-104320909D01*
X123326591Y-104568563D01*
X123617801Y-104763143D01*
X123941377Y-104897172D01*
X124284882Y-104965500D01*
X124635118Y-104965500D01*
X124978623Y-104897172D01*
X125302199Y-104763143D01*
X125593409Y-104568563D01*
X125841063Y-104320909D01*
X126035643Y-104029699D01*
X126169672Y-103706123D01*
X126238000Y-103362618D01*
X126238000Y-103012382D01*
X126180586Y-102723740D01*
X142025000Y-102723740D01*
X142025000Y-103016260D01*
X142082068Y-103303158D01*
X142194010Y-103573411D01*
X142356525Y-103816632D01*
X142563368Y-104023475D01*
X142806589Y-104185990D01*
X143076842Y-104297932D01*
X143363740Y-104355000D01*
X143656260Y-104355000D01*
X143943158Y-104297932D01*
X144213411Y-104185990D01*
X144456632Y-104023475D01*
X144588487Y-103891620D01*
X144610498Y-103964180D01*
X144669463Y-104074494D01*
X144748815Y-104171185D01*
X144845506Y-104250537D01*
X144955820Y-104309502D01*
X145075518Y-104345812D01*
X145200000Y-104358072D01*
X145764250Y-104355000D01*
X145923000Y-104196250D01*
X145923000Y-102997000D01*
X146177000Y-102997000D01*
X146177000Y-104196250D01*
X146335750Y-104355000D01*
X146900000Y-104358072D01*
X147024482Y-104345812D01*
X147144180Y-104309502D01*
X147254494Y-104250537D01*
X147351185Y-104171185D01*
X147430537Y-104074494D01*
X147489502Y-103964180D01*
X147525812Y-103844482D01*
X147538072Y-103720000D01*
X147535000Y-103155750D01*
X147391632Y-103012382D01*
X162052000Y-103012382D01*
X162052000Y-103362618D01*
X162120328Y-103706123D01*
X162254357Y-104029699D01*
X162448937Y-104320909D01*
X162696591Y-104568563D01*
X162987801Y-104763143D01*
X163311377Y-104897172D01*
X163654882Y-104965500D01*
X164005118Y-104965500D01*
X164348623Y-104897172D01*
X164672199Y-104763143D01*
X164963409Y-104568563D01*
X165211063Y-104320909D01*
X165405643Y-104029699D01*
X165539672Y-103706123D01*
X165608000Y-103362618D01*
X165608000Y-103012382D01*
X165539672Y-102668877D01*
X165405643Y-102345301D01*
X165211063Y-102054091D01*
X164963409Y-101806437D01*
X164672199Y-101611857D01*
X164348623Y-101477828D01*
X164005118Y-101409500D01*
X163654882Y-101409500D01*
X163311377Y-101477828D01*
X162987801Y-101611857D01*
X162696591Y-101806437D01*
X162448937Y-102054091D01*
X162254357Y-102345301D01*
X162120328Y-102668877D01*
X162052000Y-103012382D01*
X147391632Y-103012382D01*
X147376250Y-102997000D01*
X146177000Y-102997000D01*
X145923000Y-102997000D01*
X145903000Y-102997000D01*
X145903000Y-102743000D01*
X145923000Y-102743000D01*
X145923000Y-101543750D01*
X146177000Y-101543750D01*
X146177000Y-102743000D01*
X147376250Y-102743000D01*
X147535000Y-102584250D01*
X147538072Y-102020000D01*
X147525812Y-101895518D01*
X147489502Y-101775820D01*
X147430537Y-101665506D01*
X147351185Y-101568815D01*
X147254494Y-101489463D01*
X147144180Y-101430498D01*
X147024482Y-101394188D01*
X146900000Y-101381928D01*
X146335750Y-101385000D01*
X146177000Y-101543750D01*
X145923000Y-101543750D01*
X145764250Y-101385000D01*
X145200000Y-101381928D01*
X145075518Y-101394188D01*
X144955820Y-101430498D01*
X144845506Y-101489463D01*
X144748815Y-101568815D01*
X144669463Y-101665506D01*
X144610498Y-101775820D01*
X144588487Y-101848380D01*
X144456632Y-101716525D01*
X144213411Y-101554010D01*
X143943158Y-101442068D01*
X143656260Y-101385000D01*
X143363740Y-101385000D01*
X143076842Y-101442068D01*
X142806589Y-101554010D01*
X142563368Y-101716525D01*
X142356525Y-101923368D01*
X142194010Y-102166589D01*
X142082068Y-102436842D01*
X142025000Y-102723740D01*
X126180586Y-102723740D01*
X126169672Y-102668877D01*
X126035643Y-102345301D01*
X125841063Y-102054091D01*
X125593409Y-101806437D01*
X125302199Y-101611857D01*
X124978623Y-101477828D01*
X124635118Y-101409500D01*
X124284882Y-101409500D01*
X123941377Y-101477828D01*
X123617801Y-101611857D01*
X123326591Y-101806437D01*
X123078937Y-102054091D01*
X122884357Y-102345301D01*
X122750328Y-102668877D01*
X122682000Y-103012382D01*
X117600000Y-103012382D01*
X117600000Y-102380601D01*
X117603676Y-102343278D01*
X117600000Y-102305955D01*
X117600000Y-102305945D01*
X117589003Y-102194292D01*
X117545546Y-102051031D01*
X117474974Y-101919002D01*
X117380001Y-101803277D01*
X117351004Y-101779480D01*
X115687755Y-100116231D01*
X160413374Y-100116231D01*
X160495727Y-100369289D01*
X160766418Y-100499086D01*
X161057230Y-100573580D01*
X161356988Y-100589908D01*
X161654171Y-100547443D01*
X161937359Y-100447816D01*
X162084273Y-100369289D01*
X162166626Y-100116231D01*
X161290000Y-99239605D01*
X160413374Y-100116231D01*
X115687755Y-100116231D01*
X114698512Y-99126988D01*
X159760092Y-99126988D01*
X159802557Y-99424171D01*
X159902184Y-99707359D01*
X159980711Y-99854273D01*
X160233769Y-99936626D01*
X161110395Y-99060000D01*
X161469605Y-99060000D01*
X162346231Y-99936626D01*
X162599289Y-99854273D01*
X162729086Y-99583582D01*
X162803580Y-99292770D01*
X162819908Y-98993012D01*
X162777443Y-98695829D01*
X162677816Y-98412641D01*
X162599289Y-98265727D01*
X162346231Y-98183374D01*
X161469605Y-99060000D01*
X161110395Y-99060000D01*
X160233769Y-98183374D01*
X159980711Y-98265727D01*
X159850914Y-98536418D01*
X159776420Y-98827230D01*
X159760092Y-99126988D01*
X114698512Y-99126988D01*
X109401423Y-93829899D01*
X159766000Y-93829899D01*
X159766000Y-94130101D01*
X159824566Y-94424534D01*
X159939449Y-94701885D01*
X160106232Y-94951493D01*
X160318507Y-95163768D01*
X160447562Y-95250000D01*
X160318507Y-95336232D01*
X160106232Y-95548507D01*
X159939449Y-95798115D01*
X159824566Y-96075466D01*
X159766000Y-96369899D01*
X159766000Y-96670101D01*
X159824566Y-96964534D01*
X159939449Y-97241885D01*
X160106232Y-97491493D01*
X160318507Y-97703768D01*
X160476622Y-97809417D01*
X160413374Y-98003769D01*
X161290000Y-98880395D01*
X162166626Y-98003769D01*
X162103378Y-97809417D01*
X162261493Y-97703768D01*
X162473768Y-97491493D01*
X162640551Y-97241885D01*
X162755434Y-96964534D01*
X162814000Y-96670101D01*
X162814000Y-96369899D01*
X162755434Y-96075466D01*
X162640551Y-95798115D01*
X162473768Y-95548507D01*
X162261493Y-95336232D01*
X162132438Y-95250000D01*
X162261493Y-95163768D01*
X162473768Y-94951493D01*
X162640551Y-94701885D01*
X162755434Y-94424534D01*
X162814000Y-94130101D01*
X162814000Y-93829899D01*
X162755434Y-93535466D01*
X162640551Y-93258115D01*
X162473768Y-93008507D01*
X162261493Y-92796232D01*
X162011885Y-92629449D01*
X161734534Y-92514566D01*
X161440101Y-92456000D01*
X161139899Y-92456000D01*
X160845466Y-92514566D01*
X160568115Y-92629449D01*
X160318507Y-92796232D01*
X160106232Y-93008507D01*
X159939449Y-93258115D01*
X159824566Y-93535466D01*
X159766000Y-93829899D01*
X109401423Y-93829899D01*
X96485525Y-80914002D01*
X96461722Y-80884998D01*
X96345997Y-80790025D01*
X96308533Y-80770000D01*
X101235341Y-80770000D01*
X108635468Y-88170128D01*
X108377801Y-88276857D01*
X108086591Y-88471437D01*
X107838937Y-88719091D01*
X107644357Y-89010301D01*
X107510328Y-89333877D01*
X107442000Y-89677382D01*
X107442000Y-90027618D01*
X107510328Y-90371123D01*
X107644357Y-90694699D01*
X107838937Y-90985909D01*
X108086591Y-91233563D01*
X108377801Y-91428143D01*
X108701377Y-91562172D01*
X109044882Y-91630500D01*
X109395118Y-91630500D01*
X109738623Y-91562172D01*
X110062199Y-91428143D01*
X110353409Y-91233563D01*
X110601063Y-90985909D01*
X110795643Y-90694699D01*
X110902372Y-90437032D01*
X111090344Y-90625004D01*
X111114142Y-90654002D01*
X111229867Y-90748975D01*
X111361896Y-90819547D01*
X111505157Y-90863004D01*
X111616810Y-90874001D01*
X111616819Y-90874001D01*
X111654142Y-90877677D01*
X111691465Y-90874001D01*
X121988535Y-90874001D01*
X122025857Y-90877677D01*
X122063179Y-90874001D01*
X122063190Y-90874001D01*
X122174843Y-90863004D01*
X122318104Y-90819547D01*
X122450133Y-90748975D01*
X122565858Y-90654002D01*
X122589661Y-90624998D01*
X122777628Y-90437031D01*
X122884357Y-90694699D01*
X123078937Y-90985909D01*
X123326591Y-91233563D01*
X123617801Y-91428143D01*
X123941377Y-91562172D01*
X124284882Y-91630500D01*
X124635118Y-91630500D01*
X124978623Y-91562172D01*
X125302199Y-91428143D01*
X125593409Y-91233563D01*
X125841063Y-90985909D01*
X126035643Y-90694699D01*
X126169672Y-90371123D01*
X126238000Y-90027618D01*
X126238000Y-89677382D01*
X126169672Y-89333877D01*
X126091229Y-89144499D01*
X162198771Y-89144499D01*
X162120328Y-89333877D01*
X162052000Y-89677382D01*
X162052000Y-90027618D01*
X162120328Y-90371123D01*
X162254357Y-90694699D01*
X162448937Y-90985909D01*
X162696591Y-91233563D01*
X162987801Y-91428143D01*
X163311377Y-91562172D01*
X163654882Y-91630500D01*
X164005118Y-91630500D01*
X164348623Y-91562172D01*
X164672199Y-91428143D01*
X164963409Y-91233563D01*
X165211063Y-90985909D01*
X165405643Y-90694699D01*
X165539672Y-90371123D01*
X165608000Y-90027618D01*
X165608000Y-89677382D01*
X165539672Y-89333877D01*
X165461229Y-89144499D01*
X165647976Y-89144499D01*
X178160381Y-101656905D01*
X177936591Y-101806437D01*
X177688937Y-102054091D01*
X177494357Y-102345301D01*
X177360328Y-102668877D01*
X177292000Y-103012382D01*
X177292000Y-103362618D01*
X177360328Y-103706123D01*
X177494357Y-104029699D01*
X177688937Y-104320909D01*
X177936591Y-104568563D01*
X178227801Y-104763143D01*
X178551377Y-104897172D01*
X178894882Y-104965500D01*
X179245118Y-104965500D01*
X179588623Y-104897172D01*
X179912199Y-104763143D01*
X180141394Y-104610000D01*
X196681928Y-104610000D01*
X196685000Y-105124250D01*
X196843750Y-105283000D01*
X197993000Y-105283000D01*
X197993000Y-104133750D01*
X198247000Y-104133750D01*
X198247000Y-105283000D01*
X199396250Y-105283000D01*
X199555000Y-105124250D01*
X199558072Y-104610000D01*
X199545812Y-104485518D01*
X199509502Y-104365820D01*
X199450537Y-104255506D01*
X199371185Y-104158815D01*
X199274494Y-104079463D01*
X199164180Y-104020498D01*
X199044482Y-103984188D01*
X198920000Y-103971928D01*
X198405750Y-103975000D01*
X198247000Y-104133750D01*
X197993000Y-104133750D01*
X197834250Y-103975000D01*
X197320000Y-103971928D01*
X197195518Y-103984188D01*
X197075820Y-104020498D01*
X196965506Y-104079463D01*
X196868815Y-104158815D01*
X196789463Y-104255506D01*
X196730498Y-104365820D01*
X196694188Y-104485518D01*
X196681928Y-104610000D01*
X180141394Y-104610000D01*
X180203409Y-104568563D01*
X180451063Y-104320909D01*
X180645643Y-104029699D01*
X180779672Y-103706123D01*
X180848000Y-103362618D01*
X180848000Y-103012382D01*
X180779672Y-102668877D01*
X180701229Y-102479499D01*
X199114698Y-102479499D01*
X201721312Y-105086114D01*
X201685000Y-105268665D01*
X201685000Y-105551335D01*
X201740147Y-105828574D01*
X201848320Y-106089727D01*
X202005363Y-106324759D01*
X202205241Y-106524637D01*
X202440273Y-106681680D01*
X202701426Y-106789853D01*
X202978665Y-106845000D01*
X203261335Y-106845000D01*
X203538574Y-106789853D01*
X203799727Y-106681680D01*
X204034759Y-106524637D01*
X204234637Y-106324759D01*
X204391680Y-106089727D01*
X204499853Y-105828574D01*
X204555000Y-105551335D01*
X204555000Y-105268665D01*
X204499853Y-104991426D01*
X204391680Y-104730273D01*
X204234637Y-104495241D01*
X204034759Y-104295363D01*
X203799727Y-104138320D01*
X203538574Y-104030147D01*
X203261335Y-103975000D01*
X202978665Y-103975000D01*
X202796114Y-104011312D01*
X202484802Y-103700000D01*
X212511928Y-103700000D01*
X212511928Y-105700000D01*
X212524188Y-105824482D01*
X212560498Y-105944180D01*
X212619463Y-106054494D01*
X212698815Y-106151185D01*
X212795506Y-106230537D01*
X212905820Y-106289502D01*
X213025518Y-106325812D01*
X213150000Y-106338072D01*
X216350000Y-106338072D01*
X216474482Y-106325812D01*
X216594180Y-106289502D01*
X216704494Y-106230537D01*
X216801185Y-106151185D01*
X216880537Y-106054494D01*
X216939502Y-105944180D01*
X216975812Y-105824482D01*
X216988072Y-105700000D01*
X216988072Y-103700000D01*
X216975812Y-103575518D01*
X216939502Y-103455820D01*
X216880537Y-103345506D01*
X216801185Y-103248815D01*
X216704494Y-103169463D01*
X216594180Y-103110498D01*
X216474482Y-103074188D01*
X216350000Y-103061928D01*
X213150000Y-103061928D01*
X213025518Y-103074188D01*
X212905820Y-103110498D01*
X212795506Y-103169463D01*
X212698815Y-103248815D01*
X212619463Y-103345506D01*
X212560498Y-103455820D01*
X212524188Y-103575518D01*
X212511928Y-103700000D01*
X202484802Y-103700000D01*
X199993303Y-101208502D01*
X199969500Y-101179498D01*
X199853775Y-101084525D01*
X199721746Y-101013953D01*
X199578485Y-100970496D01*
X199466832Y-100959499D01*
X199466821Y-100959499D01*
X199429499Y-100955823D01*
X199392177Y-100959499D01*
X179612579Y-100959499D01*
X176165782Y-97512702D01*
X197386903Y-97512702D01*
X197458486Y-97756671D01*
X197713996Y-97877571D01*
X197988184Y-97946300D01*
X198270512Y-97960217D01*
X198550130Y-97918787D01*
X198816292Y-97823603D01*
X198941514Y-97756671D01*
X199013097Y-97512702D01*
X198200000Y-96699605D01*
X197386903Y-97512702D01*
X176165782Y-97512702D01*
X175243592Y-96590512D01*
X196759783Y-96590512D01*
X196801213Y-96870130D01*
X196896397Y-97136292D01*
X196963329Y-97261514D01*
X197207298Y-97333097D01*
X198020395Y-96520000D01*
X197207298Y-95706903D01*
X196963329Y-95778486D01*
X196842429Y-96033996D01*
X196773700Y-96308184D01*
X196759783Y-96590512D01*
X175243592Y-96590512D01*
X168934439Y-90281359D01*
X169069273Y-90209289D01*
X169151626Y-89956231D01*
X168275000Y-89079605D01*
X168260858Y-89093748D01*
X168081253Y-88914143D01*
X168095395Y-88900000D01*
X168454605Y-88900000D01*
X169331231Y-89776626D01*
X169584289Y-89694273D01*
X169714086Y-89423582D01*
X169788580Y-89132770D01*
X169804908Y-88833012D01*
X169793032Y-88749899D01*
X173101000Y-88749899D01*
X173101000Y-89050101D01*
X173159566Y-89344534D01*
X173274449Y-89621885D01*
X173441232Y-89871493D01*
X173653507Y-90083768D01*
X173903115Y-90250551D01*
X174180466Y-90365434D01*
X174474899Y-90424000D01*
X174775101Y-90424000D01*
X175069534Y-90365434D01*
X175346885Y-90250551D01*
X175596493Y-90083768D01*
X175808768Y-89871493D01*
X175938469Y-89677382D01*
X177292000Y-89677382D01*
X177292000Y-90027618D01*
X177360328Y-90371123D01*
X177494357Y-90694699D01*
X177688937Y-90985909D01*
X177936591Y-91233563D01*
X178227801Y-91428143D01*
X178551377Y-91562172D01*
X178894882Y-91630500D01*
X179245118Y-91630500D01*
X179588623Y-91562172D01*
X179912199Y-91428143D01*
X180203409Y-91233563D01*
X180451063Y-90985909D01*
X180645643Y-90694699D01*
X180779672Y-90371123D01*
X180848000Y-90027618D01*
X180848000Y-89677382D01*
X180779672Y-89333877D01*
X180645643Y-89010301D01*
X180451063Y-88719091D01*
X180203409Y-88471437D01*
X179912199Y-88276857D01*
X179588623Y-88142828D01*
X179245118Y-88074500D01*
X178894882Y-88074500D01*
X178551377Y-88142828D01*
X178227801Y-88276857D01*
X177936591Y-88471437D01*
X177688937Y-88719091D01*
X177494357Y-89010301D01*
X177360328Y-89333877D01*
X177292000Y-89677382D01*
X175938469Y-89677382D01*
X175975551Y-89621885D01*
X176090434Y-89344534D01*
X176149000Y-89050101D01*
X176149000Y-88749899D01*
X176090434Y-88455466D01*
X175975551Y-88178115D01*
X175808768Y-87928507D01*
X175596493Y-87716232D01*
X175346885Y-87549449D01*
X175069534Y-87434566D01*
X174775101Y-87376000D01*
X174474899Y-87376000D01*
X174180466Y-87434566D01*
X173903115Y-87549449D01*
X173653507Y-87716232D01*
X173441232Y-87928507D01*
X173274449Y-88178115D01*
X173159566Y-88455466D01*
X173101000Y-88749899D01*
X169793032Y-88749899D01*
X169762443Y-88535829D01*
X169662816Y-88252641D01*
X169584289Y-88105727D01*
X169331231Y-88023374D01*
X168454605Y-88900000D01*
X168095395Y-88900000D01*
X167218769Y-88023374D01*
X166965711Y-88105727D01*
X166898654Y-88245575D01*
X166526581Y-87873502D01*
X166502778Y-87844498D01*
X166501890Y-87843769D01*
X167398374Y-87843769D01*
X168275000Y-88720395D01*
X169151626Y-87843769D01*
X169069273Y-87590711D01*
X168798582Y-87460914D01*
X168507770Y-87386420D01*
X168208012Y-87370092D01*
X167910829Y-87412557D01*
X167627641Y-87512184D01*
X167480727Y-87590711D01*
X167398374Y-87843769D01*
X166501890Y-87843769D01*
X166387053Y-87749525D01*
X166255024Y-87678953D01*
X166111763Y-87635496D01*
X166000110Y-87624499D01*
X166000099Y-87624499D01*
X165962777Y-87620823D01*
X165925455Y-87624499D01*
X123792681Y-87624499D01*
X123755358Y-87620823D01*
X123718035Y-87624499D01*
X123718026Y-87624499D01*
X123606373Y-87635496D01*
X123463112Y-87678953D01*
X123331083Y-87749525D01*
X123215358Y-87844498D01*
X123191560Y-87873496D01*
X121711056Y-89354001D01*
X121476513Y-89354001D01*
X121480434Y-89344534D01*
X121539000Y-89050101D01*
X121539000Y-88749899D01*
X121480434Y-88455466D01*
X121365551Y-88178115D01*
X121198768Y-87928507D01*
X120986493Y-87716232D01*
X120736885Y-87549449D01*
X120459534Y-87434566D01*
X120165101Y-87376000D01*
X119864899Y-87376000D01*
X119570466Y-87434566D01*
X119293115Y-87549449D01*
X119043507Y-87716232D01*
X118831232Y-87928507D01*
X118664449Y-88178115D01*
X118549566Y-88455466D01*
X118491000Y-88749899D01*
X118491000Y-89050101D01*
X118549566Y-89344534D01*
X118553487Y-89354001D01*
X115121910Y-89354001D01*
X115178580Y-89132770D01*
X115194908Y-88833012D01*
X115152443Y-88535829D01*
X115052816Y-88252641D01*
X114974289Y-88105727D01*
X114721231Y-88023374D01*
X113844605Y-88900000D01*
X113858748Y-88914143D01*
X113679143Y-89093748D01*
X113665000Y-89079605D01*
X113650858Y-89093748D01*
X113471253Y-88914143D01*
X113485395Y-88900000D01*
X112608769Y-88023374D01*
X112355711Y-88105727D01*
X112225914Y-88376418D01*
X112151420Y-88667230D01*
X112135092Y-88966988D01*
X112177557Y-89264171D01*
X112209160Y-89354001D01*
X111968945Y-89354001D01*
X110458713Y-87843769D01*
X112788374Y-87843769D01*
X113665000Y-88720395D01*
X114541626Y-87843769D01*
X114459273Y-87590711D01*
X114188582Y-87460914D01*
X113897770Y-87386420D01*
X113598012Y-87370092D01*
X113300829Y-87412557D01*
X113017641Y-87512184D01*
X112870727Y-87590711D01*
X112788374Y-87843769D01*
X110458713Y-87843769D01*
X106284843Y-83669899D01*
X112141000Y-83669899D01*
X112141000Y-83970101D01*
X112199566Y-84264534D01*
X112314449Y-84541885D01*
X112481232Y-84791493D01*
X112693507Y-85003768D01*
X112943115Y-85170551D01*
X113220466Y-85285434D01*
X113514899Y-85344000D01*
X113815101Y-85344000D01*
X114109534Y-85285434D01*
X114386885Y-85170551D01*
X114636493Y-85003768D01*
X114848768Y-84791493D01*
X115015551Y-84541885D01*
X115130434Y-84264534D01*
X115189000Y-83970101D01*
X115189000Y-83669899D01*
X118491000Y-83669899D01*
X118491000Y-83970101D01*
X118549566Y-84264534D01*
X118664449Y-84541885D01*
X118831232Y-84791493D01*
X119043507Y-85003768D01*
X119293115Y-85170551D01*
X119570466Y-85285434D01*
X119864899Y-85344000D01*
X120165101Y-85344000D01*
X120459534Y-85285434D01*
X120736885Y-85170551D01*
X120986493Y-85003768D01*
X121198768Y-84791493D01*
X121365551Y-84541885D01*
X121480434Y-84264534D01*
X121539000Y-83970101D01*
X121539000Y-83669899D01*
X166751000Y-83669899D01*
X166751000Y-83970101D01*
X166809566Y-84264534D01*
X166924449Y-84541885D01*
X167091232Y-84791493D01*
X167303507Y-85003768D01*
X167553115Y-85170551D01*
X167830466Y-85285434D01*
X168124899Y-85344000D01*
X168425101Y-85344000D01*
X168719534Y-85285434D01*
X168996885Y-85170551D01*
X169246493Y-85003768D01*
X169458768Y-84791493D01*
X169625551Y-84541885D01*
X169740434Y-84264534D01*
X169799000Y-83970101D01*
X169799000Y-83669899D01*
X173101000Y-83669899D01*
X173101000Y-83970101D01*
X173159566Y-84264534D01*
X173274449Y-84541885D01*
X173441232Y-84791493D01*
X173653507Y-85003768D01*
X173903115Y-85170551D01*
X174180466Y-85285434D01*
X174474899Y-85344000D01*
X174775101Y-85344000D01*
X175069534Y-85285434D01*
X175346885Y-85170551D01*
X175596493Y-85003768D01*
X175808768Y-84791493D01*
X175975551Y-84541885D01*
X176090434Y-84264534D01*
X176149000Y-83970101D01*
X176149000Y-83669899D01*
X176090434Y-83375466D01*
X175975551Y-83098115D01*
X175808768Y-82848507D01*
X175596493Y-82636232D01*
X175346885Y-82469449D01*
X175069534Y-82354566D01*
X174775101Y-82296000D01*
X174474899Y-82296000D01*
X174180466Y-82354566D01*
X173903115Y-82469449D01*
X173653507Y-82636232D01*
X173441232Y-82848507D01*
X173274449Y-83098115D01*
X173159566Y-83375466D01*
X173101000Y-83669899D01*
X169799000Y-83669899D01*
X169740434Y-83375466D01*
X169625551Y-83098115D01*
X169458768Y-82848507D01*
X169246493Y-82636232D01*
X168996885Y-82469449D01*
X168719534Y-82354566D01*
X168425101Y-82296000D01*
X168124899Y-82296000D01*
X167830466Y-82354566D01*
X167553115Y-82469449D01*
X167303507Y-82636232D01*
X167091232Y-82848507D01*
X166924449Y-83098115D01*
X166809566Y-83375466D01*
X166751000Y-83669899D01*
X121539000Y-83669899D01*
X121480434Y-83375466D01*
X121365551Y-83098115D01*
X121198768Y-82848507D01*
X120986493Y-82636232D01*
X120736885Y-82469449D01*
X120459534Y-82354566D01*
X120165101Y-82296000D01*
X119864899Y-82296000D01*
X119570466Y-82354566D01*
X119293115Y-82469449D01*
X119043507Y-82636232D01*
X118831232Y-82848507D01*
X118664449Y-83098115D01*
X118549566Y-83375466D01*
X118491000Y-83669899D01*
X115189000Y-83669899D01*
X115130434Y-83375466D01*
X115015551Y-83098115D01*
X114848768Y-82848507D01*
X114636493Y-82636232D01*
X114386885Y-82469449D01*
X114109534Y-82354566D01*
X113815101Y-82296000D01*
X113514899Y-82296000D01*
X113220466Y-82354566D01*
X112943115Y-82469449D01*
X112693507Y-82636232D01*
X112481232Y-82848507D01*
X112314449Y-83098115D01*
X112199566Y-83375466D01*
X112141000Y-83669899D01*
X106284843Y-83669899D01*
X102113946Y-79499003D01*
X102090143Y-79469999D01*
X101974418Y-79375026D01*
X101842389Y-79304454D01*
X101699128Y-79260997D01*
X101587475Y-79250000D01*
X101587464Y-79250000D01*
X101550142Y-79246324D01*
X101512820Y-79250000D01*
X92658043Y-79250000D01*
X92554637Y-79095241D01*
X92354759Y-78895363D01*
X92122241Y-78740000D01*
X92354759Y-78584637D01*
X92554637Y-78384759D01*
X92711680Y-78149727D01*
X92819853Y-77888574D01*
X92875000Y-77611335D01*
X92875000Y-77328665D01*
X92819853Y-77051426D01*
X92711680Y-76790273D01*
X92554637Y-76555241D01*
X92354759Y-76355363D01*
X92122241Y-76200000D01*
X92354759Y-76044637D01*
X92554637Y-75844759D01*
X92711680Y-75609727D01*
X92819853Y-75348574D01*
X92875000Y-75071335D01*
X92875000Y-74788665D01*
X92819853Y-74511426D01*
X92711680Y-74250273D01*
X92554637Y-74015241D01*
X92354759Y-73815363D01*
X92122241Y-73660000D01*
X92354759Y-73504637D01*
X92554637Y-73304759D01*
X92711680Y-73069727D01*
X92819853Y-72808574D01*
X92875000Y-72531335D01*
X92875000Y-72248665D01*
X92819853Y-71971426D01*
X92711680Y-71710273D01*
X92554637Y-71475241D01*
X92354759Y-71275363D01*
X92122241Y-71120000D01*
X92354759Y-70964637D01*
X92554637Y-70764759D01*
X92711680Y-70529727D01*
X92819853Y-70268574D01*
X92875000Y-69991335D01*
X92875000Y-69708665D01*
X92819853Y-69431426D01*
X92711680Y-69170273D01*
X92554637Y-68935241D01*
X92354759Y-68735363D01*
X92122241Y-68580000D01*
X92354759Y-68424637D01*
X92554637Y-68224759D01*
X92711680Y-67989727D01*
X92819853Y-67728574D01*
X92875000Y-67451335D01*
X92875000Y-67168665D01*
X92819853Y-66891426D01*
X92711680Y-66630273D01*
X92554637Y-66395241D01*
X92354759Y-66195363D01*
X92122241Y-66040000D01*
X92354759Y-65884637D01*
X92554637Y-65684759D01*
X92658043Y-65530000D01*
X168652201Y-65530000D01*
X198205742Y-95083542D01*
X198129488Y-95079783D01*
X197849870Y-95121213D01*
X197583708Y-95216397D01*
X197458486Y-95283329D01*
X197386903Y-95527298D01*
X198200000Y-96340395D01*
X198214143Y-96326253D01*
X198393748Y-96505858D01*
X198379605Y-96520000D01*
X199192702Y-97333097D01*
X199436671Y-97261514D01*
X199557571Y-97006004D01*
X199626300Y-96731816D01*
X199636998Y-96514797D01*
X205233203Y-102111003D01*
X205257001Y-102140001D01*
X205285999Y-102163799D01*
X205372726Y-102234974D01*
X205504755Y-102305546D01*
X205648016Y-102349003D01*
X205797002Y-102363677D01*
X205834335Y-102360000D01*
X206295091Y-102360000D01*
X206301082Y-102374463D01*
X206480013Y-102642252D01*
X206707748Y-102869987D01*
X206975537Y-103048918D01*
X207273088Y-103172168D01*
X207588967Y-103235000D01*
X207911033Y-103235000D01*
X208226912Y-103172168D01*
X208524463Y-103048918D01*
X208792252Y-102869987D01*
X209019987Y-102642252D01*
X209198918Y-102374463D01*
X209322168Y-102076912D01*
X209385000Y-101761033D01*
X209385000Y-101438967D01*
X209322168Y-101123088D01*
X209198918Y-100825537D01*
X209019987Y-100557748D01*
X208792252Y-100330013D01*
X208524463Y-100151082D01*
X208226912Y-100027832D01*
X207911033Y-99965000D01*
X207588967Y-99965000D01*
X207273088Y-100027832D01*
X206975537Y-100151082D01*
X206707748Y-100330013D01*
X206480013Y-100557748D01*
X206301082Y-100825537D01*
X206295091Y-100840000D01*
X206111804Y-100840000D01*
X204434399Y-99162595D01*
X220608282Y-99162595D01*
X220652039Y-99481675D01*
X220757205Y-99786088D01*
X220850186Y-99960044D01*
X220999223Y-100014024D01*
X220895506Y-100069463D01*
X220798815Y-100148815D01*
X220719463Y-100245506D01*
X220660498Y-100355820D01*
X220624188Y-100475518D01*
X220611928Y-100600000D01*
X220611928Y-102600000D01*
X220624188Y-102724482D01*
X220660498Y-102844180D01*
X220719463Y-102954494D01*
X220798815Y-103051185D01*
X220895506Y-103130537D01*
X221005820Y-103189502D01*
X221125518Y-103225812D01*
X221250000Y-103238072D01*
X223250000Y-103238072D01*
X223374482Y-103225812D01*
X223494180Y-103189502D01*
X223604494Y-103130537D01*
X223701185Y-103051185D01*
X223780537Y-102954494D01*
X223839502Y-102844180D01*
X223875812Y-102724482D01*
X223888072Y-102600000D01*
X223888072Y-100600000D01*
X223875812Y-100475518D01*
X223839502Y-100355820D01*
X223780537Y-100245506D01*
X223701185Y-100148815D01*
X223604494Y-100069463D01*
X223500777Y-100014024D01*
X223649814Y-99960044D01*
X223790704Y-99670429D01*
X223872384Y-99358892D01*
X223891718Y-99037405D01*
X223847961Y-98718325D01*
X223742795Y-98413912D01*
X223649814Y-98239956D01*
X223385413Y-98144192D01*
X222429605Y-99100000D01*
X222443748Y-99114143D01*
X222264143Y-99293748D01*
X222250000Y-99279605D01*
X222235858Y-99293748D01*
X222056253Y-99114143D01*
X222070395Y-99100000D01*
X221114587Y-98144192D01*
X220850186Y-98239956D01*
X220709296Y-98529571D01*
X220627616Y-98841108D01*
X220608282Y-99162595D01*
X204434399Y-99162595D01*
X203229876Y-97958072D01*
X204000000Y-97958072D01*
X204124482Y-97945812D01*
X204244180Y-97909502D01*
X204354494Y-97850537D01*
X204451185Y-97771185D01*
X204480542Y-97735413D01*
X206794192Y-97735413D01*
X206889956Y-97999814D01*
X207179571Y-98140704D01*
X207491108Y-98222384D01*
X207812595Y-98241718D01*
X208131675Y-98197961D01*
X208436088Y-98092795D01*
X208610044Y-97999814D01*
X208705808Y-97735413D01*
X207750000Y-96779605D01*
X206794192Y-97735413D01*
X204480542Y-97735413D01*
X204530537Y-97674494D01*
X204589502Y-97564180D01*
X204625812Y-97444482D01*
X204638072Y-97320000D01*
X204638072Y-96662595D01*
X206108282Y-96662595D01*
X206152039Y-96981675D01*
X206257205Y-97286088D01*
X206350186Y-97460044D01*
X206614587Y-97555808D01*
X207570395Y-96600000D01*
X207929605Y-96600000D01*
X208885413Y-97555808D01*
X209149814Y-97460044D01*
X209290704Y-97170429D01*
X209372384Y-96858892D01*
X209391718Y-96537405D01*
X209378219Y-96438967D01*
X220615000Y-96438967D01*
X220615000Y-96761033D01*
X220677832Y-97076912D01*
X220801082Y-97374463D01*
X220980013Y-97642252D01*
X221207748Y-97869987D01*
X221304935Y-97934925D01*
X221294192Y-97964587D01*
X222250000Y-98920395D01*
X223205808Y-97964587D01*
X223195065Y-97934925D01*
X223292252Y-97869987D01*
X223519987Y-97642252D01*
X223698918Y-97374463D01*
X223822168Y-97076912D01*
X223885000Y-96761033D01*
X223885000Y-96438967D01*
X223822168Y-96123088D01*
X223698918Y-95825537D01*
X223519987Y-95557748D01*
X223292252Y-95330013D01*
X223024463Y-95151082D01*
X222726912Y-95027832D01*
X222411033Y-94965000D01*
X222088967Y-94965000D01*
X221773088Y-95027832D01*
X221475537Y-95151082D01*
X221207748Y-95330013D01*
X220980013Y-95557748D01*
X220801082Y-95825537D01*
X220677832Y-96123088D01*
X220615000Y-96438967D01*
X209378219Y-96438967D01*
X209347961Y-96218325D01*
X209242795Y-95913912D01*
X209149814Y-95739956D01*
X208885413Y-95644192D01*
X207929605Y-96600000D01*
X207570395Y-96600000D01*
X206614587Y-95644192D01*
X206350186Y-95739956D01*
X206209296Y-96029571D01*
X206127616Y-96341108D01*
X206108282Y-96662595D01*
X204638072Y-96662595D01*
X204638072Y-95720000D01*
X204625812Y-95595518D01*
X204589502Y-95475820D01*
X204583498Y-95464587D01*
X206794192Y-95464587D01*
X207750000Y-96420395D01*
X208705808Y-95464587D01*
X208610044Y-95200186D01*
X208320429Y-95059296D01*
X208008892Y-94977616D01*
X207687405Y-94958282D01*
X207368325Y-95002039D01*
X207063912Y-95107205D01*
X206889956Y-95200186D01*
X206794192Y-95464587D01*
X204583498Y-95464587D01*
X204530537Y-95365506D01*
X204451185Y-95268815D01*
X204354494Y-95189463D01*
X204244180Y-95130498D01*
X204124482Y-95094188D01*
X204000000Y-95081928D01*
X202400000Y-95081928D01*
X202275518Y-95094188D01*
X202155820Y-95130498D01*
X202045506Y-95189463D01*
X201948815Y-95268815D01*
X201869463Y-95365506D01*
X201810498Y-95475820D01*
X201774188Y-95595518D01*
X201761928Y-95720000D01*
X201761928Y-96490124D01*
X197771804Y-92500000D01*
X212511928Y-92500000D01*
X212511928Y-94500000D01*
X212524188Y-94624482D01*
X212560498Y-94744180D01*
X212619463Y-94854494D01*
X212698815Y-94951185D01*
X212795506Y-95030537D01*
X212905820Y-95089502D01*
X213025518Y-95125812D01*
X213150000Y-95138072D01*
X216350000Y-95138072D01*
X216474482Y-95125812D01*
X216594180Y-95089502D01*
X216704494Y-95030537D01*
X216801185Y-94951185D01*
X216880537Y-94854494D01*
X216939502Y-94744180D01*
X216975812Y-94624482D01*
X216988072Y-94500000D01*
X216988072Y-92500000D01*
X216975812Y-92375518D01*
X216939502Y-92255820D01*
X216880537Y-92145506D01*
X216801185Y-92048815D01*
X216704494Y-91969463D01*
X216594180Y-91910498D01*
X216474482Y-91874188D01*
X216350000Y-91861928D01*
X213150000Y-91861928D01*
X213025518Y-91874188D01*
X212905820Y-91910498D01*
X212795506Y-91969463D01*
X212698815Y-92048815D01*
X212619463Y-92145506D01*
X212560498Y-92255820D01*
X212524188Y-92375518D01*
X212511928Y-92500000D01*
X197771804Y-92500000D01*
X180558694Y-75286890D01*
X219538524Y-75286890D01*
X219583175Y-75434099D01*
X219708359Y-75696920D01*
X219882412Y-75930269D01*
X220098645Y-76125178D01*
X220348748Y-76274157D01*
X220623109Y-76371481D01*
X220853000Y-76250814D01*
X220853000Y-75057000D01*
X221107000Y-75057000D01*
X221107000Y-76250814D01*
X221336891Y-76371481D01*
X221611252Y-76274157D01*
X221861355Y-76125178D01*
X222077588Y-75930269D01*
X222251641Y-75696920D01*
X222376825Y-75434099D01*
X222421476Y-75286890D01*
X222300155Y-75057000D01*
X221107000Y-75057000D01*
X220853000Y-75057000D01*
X219659845Y-75057000D01*
X219538524Y-75286890D01*
X180558694Y-75286890D01*
X171731804Y-66460000D01*
X219491928Y-66460000D01*
X219491928Y-68160000D01*
X219504188Y-68284482D01*
X219540498Y-68404180D01*
X219599463Y-68514494D01*
X219678815Y-68611185D01*
X219775506Y-68690537D01*
X219885820Y-68749502D01*
X219958380Y-68771513D01*
X219826525Y-68903368D01*
X219664010Y-69146589D01*
X219552068Y-69416842D01*
X219495000Y-69703740D01*
X219495000Y-69996260D01*
X219552068Y-70283158D01*
X219664010Y-70553411D01*
X219826525Y-70796632D01*
X220033368Y-71003475D01*
X220207760Y-71120000D01*
X220033368Y-71236525D01*
X219826525Y-71443368D01*
X219664010Y-71686589D01*
X219552068Y-71956842D01*
X219495000Y-72243740D01*
X219495000Y-72536260D01*
X219552068Y-72823158D01*
X219664010Y-73093411D01*
X219826525Y-73336632D01*
X220033368Y-73543475D01*
X220215534Y-73665195D01*
X220098645Y-73734822D01*
X219882412Y-73929731D01*
X219708359Y-74163080D01*
X219583175Y-74425901D01*
X219538524Y-74573110D01*
X219659845Y-74803000D01*
X220853000Y-74803000D01*
X220853000Y-74783000D01*
X221107000Y-74783000D01*
X221107000Y-74803000D01*
X222300155Y-74803000D01*
X222421476Y-74573110D01*
X222376825Y-74425901D01*
X222251641Y-74163080D01*
X222077588Y-73929731D01*
X221861355Y-73734822D01*
X221744466Y-73665195D01*
X221926632Y-73543475D01*
X222133475Y-73336632D01*
X222295990Y-73093411D01*
X222407932Y-72823158D01*
X222465000Y-72536260D01*
X222465000Y-72243740D01*
X222407932Y-71956842D01*
X222295990Y-71686589D01*
X222133475Y-71443368D01*
X221926632Y-71236525D01*
X221752240Y-71120000D01*
X221926632Y-71003475D01*
X222133475Y-70796632D01*
X222295990Y-70553411D01*
X222407932Y-70283158D01*
X222465000Y-69996260D01*
X222465000Y-69703740D01*
X222407932Y-69416842D01*
X222295990Y-69146589D01*
X222133475Y-68903368D01*
X222001620Y-68771513D01*
X222074180Y-68749502D01*
X222184494Y-68690537D01*
X222281185Y-68611185D01*
X222360537Y-68514494D01*
X222419502Y-68404180D01*
X222455812Y-68284482D01*
X222468072Y-68160000D01*
X222468072Y-66460000D01*
X222455812Y-66335518D01*
X222419502Y-66215820D01*
X222360537Y-66105506D01*
X222281185Y-66008815D01*
X222184494Y-65929463D01*
X222074180Y-65870498D01*
X221954482Y-65834188D01*
X221830000Y-65821928D01*
X220130000Y-65821928D01*
X220005518Y-65834188D01*
X219885820Y-65870498D01*
X219775506Y-65929463D01*
X219678815Y-66008815D01*
X219599463Y-66105506D01*
X219540498Y-66215820D01*
X219504188Y-66335518D01*
X219491928Y-66460000D01*
X171731804Y-66460000D01*
X169530806Y-64259003D01*
X169507003Y-64229999D01*
X169391278Y-64135026D01*
X169259249Y-64064454D01*
X169115988Y-64020997D01*
X169004335Y-64010000D01*
X169004324Y-64010000D01*
X168967002Y-64006324D01*
X168929680Y-64010000D01*
X102131811Y-64010000D01*
X102169275Y-63989975D01*
X102285000Y-63895002D01*
X102308803Y-63865998D01*
X103524801Y-62650000D01*
X180121928Y-62650000D01*
X180121928Y-64350000D01*
X180134188Y-64474482D01*
X180170498Y-64594180D01*
X180229463Y-64704494D01*
X180308815Y-64801185D01*
X180405506Y-64880537D01*
X180515820Y-64939502D01*
X180635518Y-64975812D01*
X180760000Y-64988072D01*
X182460000Y-64988072D01*
X182584482Y-64975812D01*
X182704180Y-64939502D01*
X182814494Y-64880537D01*
X182911185Y-64801185D01*
X182990537Y-64704494D01*
X183049502Y-64594180D01*
X183071513Y-64521620D01*
X183203368Y-64653475D01*
X183446589Y-64815990D01*
X183716842Y-64927932D01*
X184003740Y-64985000D01*
X184296260Y-64985000D01*
X184583158Y-64927932D01*
X184853411Y-64815990D01*
X185096632Y-64653475D01*
X185303475Y-64446632D01*
X185420000Y-64272240D01*
X185536525Y-64446632D01*
X185743368Y-64653475D01*
X185986589Y-64815990D01*
X186256842Y-64927932D01*
X186543740Y-64985000D01*
X186836260Y-64985000D01*
X187123158Y-64927932D01*
X187393411Y-64815990D01*
X187636632Y-64653475D01*
X187843475Y-64446632D01*
X187960000Y-64272240D01*
X188076525Y-64446632D01*
X188283368Y-64653475D01*
X188526589Y-64815990D01*
X188796842Y-64927932D01*
X189083740Y-64985000D01*
X189376260Y-64985000D01*
X189663158Y-64927932D01*
X189933411Y-64815990D01*
X190176632Y-64653475D01*
X190383475Y-64446632D01*
X190500000Y-64272240D01*
X190616525Y-64446632D01*
X190823368Y-64653475D01*
X191066589Y-64815990D01*
X191336842Y-64927932D01*
X191623740Y-64985000D01*
X191916260Y-64985000D01*
X192203158Y-64927932D01*
X192473411Y-64815990D01*
X192716632Y-64653475D01*
X192923475Y-64446632D01*
X193040000Y-64272240D01*
X193156525Y-64446632D01*
X193363368Y-64653475D01*
X193606589Y-64815990D01*
X193876842Y-64927932D01*
X194163740Y-64985000D01*
X194456260Y-64985000D01*
X194743158Y-64927932D01*
X195013411Y-64815990D01*
X195256632Y-64653475D01*
X195463475Y-64446632D01*
X195580000Y-64272240D01*
X195696525Y-64446632D01*
X195903368Y-64653475D01*
X196146589Y-64815990D01*
X196416842Y-64927932D01*
X196703740Y-64985000D01*
X196996260Y-64985000D01*
X197283158Y-64927932D01*
X197553411Y-64815990D01*
X197796632Y-64653475D01*
X198003475Y-64446632D01*
X198120000Y-64272240D01*
X198236525Y-64446632D01*
X198443368Y-64653475D01*
X198686589Y-64815990D01*
X198956842Y-64927932D01*
X199243740Y-64985000D01*
X199536260Y-64985000D01*
X199823158Y-64927932D01*
X200093411Y-64815990D01*
X200336632Y-64653475D01*
X200543475Y-64446632D01*
X200660000Y-64272240D01*
X200776525Y-64446632D01*
X200983368Y-64653475D01*
X201226589Y-64815990D01*
X201496842Y-64927932D01*
X201783740Y-64985000D01*
X202076260Y-64985000D01*
X202363158Y-64927932D01*
X202633411Y-64815990D01*
X202876632Y-64653475D01*
X203083475Y-64446632D01*
X203200000Y-64272240D01*
X203316525Y-64446632D01*
X203523368Y-64653475D01*
X203766589Y-64815990D01*
X204036842Y-64927932D01*
X204323740Y-64985000D01*
X204616260Y-64985000D01*
X204903158Y-64927932D01*
X205173411Y-64815990D01*
X205416632Y-64653475D01*
X205623475Y-64446632D01*
X205740000Y-64272240D01*
X205856525Y-64446632D01*
X206063368Y-64653475D01*
X206306589Y-64815990D01*
X206576842Y-64927932D01*
X206863740Y-64985000D01*
X207156260Y-64985000D01*
X207443158Y-64927932D01*
X207713411Y-64815990D01*
X207956632Y-64653475D01*
X208163475Y-64446632D01*
X208280000Y-64272240D01*
X208396525Y-64446632D01*
X208603368Y-64653475D01*
X208846589Y-64815990D01*
X209116842Y-64927932D01*
X209403740Y-64985000D01*
X209696260Y-64985000D01*
X209983158Y-64927932D01*
X210253411Y-64815990D01*
X210496632Y-64653475D01*
X210703475Y-64446632D01*
X210820000Y-64272240D01*
X210936525Y-64446632D01*
X211143368Y-64653475D01*
X211386589Y-64815990D01*
X211656842Y-64927932D01*
X211943740Y-64985000D01*
X212236260Y-64985000D01*
X212523158Y-64927932D01*
X212793411Y-64815990D01*
X213036632Y-64653475D01*
X213243475Y-64446632D01*
X213360000Y-64272240D01*
X213476525Y-64446632D01*
X213683368Y-64653475D01*
X213926589Y-64815990D01*
X214196842Y-64927932D01*
X214483740Y-64985000D01*
X214776260Y-64985000D01*
X215063158Y-64927932D01*
X215333411Y-64815990D01*
X215576632Y-64653475D01*
X215783475Y-64446632D01*
X215900000Y-64272240D01*
X216016525Y-64446632D01*
X216223368Y-64653475D01*
X216466589Y-64815990D01*
X216736842Y-64927932D01*
X217023740Y-64985000D01*
X217316260Y-64985000D01*
X217603158Y-64927932D01*
X217873411Y-64815990D01*
X218116632Y-64653475D01*
X218323475Y-64446632D01*
X218440000Y-64272240D01*
X218556525Y-64446632D01*
X218763368Y-64653475D01*
X219006589Y-64815990D01*
X219276842Y-64927932D01*
X219563740Y-64985000D01*
X219856260Y-64985000D01*
X220143158Y-64927932D01*
X220413411Y-64815990D01*
X220656632Y-64653475D01*
X220863475Y-64446632D01*
X221025990Y-64203411D01*
X221137932Y-63933158D01*
X221195000Y-63646260D01*
X221195000Y-63353740D01*
X221137932Y-63066842D01*
X221025990Y-62796589D01*
X220863475Y-62553368D01*
X220656632Y-62346525D01*
X220413411Y-62184010D01*
X220143158Y-62072068D01*
X219856260Y-62015000D01*
X219563740Y-62015000D01*
X219276842Y-62072068D01*
X219006589Y-62184010D01*
X218763368Y-62346525D01*
X218556525Y-62553368D01*
X218440000Y-62727760D01*
X218323475Y-62553368D01*
X218116632Y-62346525D01*
X217873411Y-62184010D01*
X217603158Y-62072068D01*
X217316260Y-62015000D01*
X217023740Y-62015000D01*
X216736842Y-62072068D01*
X216466589Y-62184010D01*
X216223368Y-62346525D01*
X216016525Y-62553368D01*
X215900000Y-62727760D01*
X215783475Y-62553368D01*
X215576632Y-62346525D01*
X215333411Y-62184010D01*
X215063158Y-62072068D01*
X214776260Y-62015000D01*
X214483740Y-62015000D01*
X214196842Y-62072068D01*
X213926589Y-62184010D01*
X213683368Y-62346525D01*
X213476525Y-62553368D01*
X213360000Y-62727760D01*
X213243475Y-62553368D01*
X213036632Y-62346525D01*
X212793411Y-62184010D01*
X212523158Y-62072068D01*
X212236260Y-62015000D01*
X211943740Y-62015000D01*
X211656842Y-62072068D01*
X211386589Y-62184010D01*
X211143368Y-62346525D01*
X210936525Y-62553368D01*
X210820000Y-62727760D01*
X210703475Y-62553368D01*
X210496632Y-62346525D01*
X210253411Y-62184010D01*
X209983158Y-62072068D01*
X209696260Y-62015000D01*
X209403740Y-62015000D01*
X209116842Y-62072068D01*
X208846589Y-62184010D01*
X208603368Y-62346525D01*
X208396525Y-62553368D01*
X208280000Y-62727760D01*
X208163475Y-62553368D01*
X207956632Y-62346525D01*
X207713411Y-62184010D01*
X207443158Y-62072068D01*
X207156260Y-62015000D01*
X206863740Y-62015000D01*
X206576842Y-62072068D01*
X206306589Y-62184010D01*
X206063368Y-62346525D01*
X205856525Y-62553368D01*
X205740000Y-62727760D01*
X205623475Y-62553368D01*
X205416632Y-62346525D01*
X205173411Y-62184010D01*
X204903158Y-62072068D01*
X204616260Y-62015000D01*
X204323740Y-62015000D01*
X204036842Y-62072068D01*
X203766589Y-62184010D01*
X203523368Y-62346525D01*
X203316525Y-62553368D01*
X203200000Y-62727760D01*
X203083475Y-62553368D01*
X202876632Y-62346525D01*
X202633411Y-62184010D01*
X202363158Y-62072068D01*
X202076260Y-62015000D01*
X201783740Y-62015000D01*
X201496842Y-62072068D01*
X201226589Y-62184010D01*
X200983368Y-62346525D01*
X200776525Y-62553368D01*
X200660000Y-62727760D01*
X200543475Y-62553368D01*
X200336632Y-62346525D01*
X200093411Y-62184010D01*
X199823158Y-62072068D01*
X199536260Y-62015000D01*
X199243740Y-62015000D01*
X198956842Y-62072068D01*
X198686589Y-62184010D01*
X198443368Y-62346525D01*
X198236525Y-62553368D01*
X198120000Y-62727760D01*
X198003475Y-62553368D01*
X197796632Y-62346525D01*
X197553411Y-62184010D01*
X197283158Y-62072068D01*
X196996260Y-62015000D01*
X196703740Y-62015000D01*
X196416842Y-62072068D01*
X196146589Y-62184010D01*
X195903368Y-62346525D01*
X195696525Y-62553368D01*
X195580000Y-62727760D01*
X195463475Y-62553368D01*
X195256632Y-62346525D01*
X195013411Y-62184010D01*
X194743158Y-62072068D01*
X194456260Y-62015000D01*
X194163740Y-62015000D01*
X193876842Y-62072068D01*
X193606589Y-62184010D01*
X193363368Y-62346525D01*
X193156525Y-62553368D01*
X193040000Y-62727760D01*
X192923475Y-62553368D01*
X192716632Y-62346525D01*
X192473411Y-62184010D01*
X192203158Y-62072068D01*
X191916260Y-62015000D01*
X191623740Y-62015000D01*
X191336842Y-62072068D01*
X191066589Y-62184010D01*
X190823368Y-62346525D01*
X190616525Y-62553368D01*
X190500000Y-62727760D01*
X190383475Y-62553368D01*
X190176632Y-62346525D01*
X189933411Y-62184010D01*
X189663158Y-62072068D01*
X189376260Y-62015000D01*
X189083740Y-62015000D01*
X188796842Y-62072068D01*
X188526589Y-62184010D01*
X188283368Y-62346525D01*
X188076525Y-62553368D01*
X187960000Y-62727760D01*
X187843475Y-62553368D01*
X187636632Y-62346525D01*
X187393411Y-62184010D01*
X187123158Y-62072068D01*
X186836260Y-62015000D01*
X186543740Y-62015000D01*
X186256842Y-62072068D01*
X185986589Y-62184010D01*
X185743368Y-62346525D01*
X185536525Y-62553368D01*
X185420000Y-62727760D01*
X185303475Y-62553368D01*
X185096632Y-62346525D01*
X184853411Y-62184010D01*
X184583158Y-62072068D01*
X184296260Y-62015000D01*
X184003740Y-62015000D01*
X183716842Y-62072068D01*
X183446589Y-62184010D01*
X183203368Y-62346525D01*
X183071513Y-62478380D01*
X183049502Y-62405820D01*
X182990537Y-62295506D01*
X182911185Y-62198815D01*
X182814494Y-62119463D01*
X182704180Y-62060498D01*
X182584482Y-62024188D01*
X182460000Y-62011928D01*
X180760000Y-62011928D01*
X180635518Y-62024188D01*
X180515820Y-62060498D01*
X180405506Y-62119463D01*
X180308815Y-62198815D01*
X180229463Y-62295506D01*
X180170498Y-62405820D01*
X180134188Y-62525518D01*
X180121928Y-62650000D01*
X103524801Y-62650000D01*
X109824801Y-56350000D01*
X116671928Y-56350000D01*
X116671928Y-57950000D01*
X116684188Y-58074482D01*
X116720498Y-58194180D01*
X116779463Y-58304494D01*
X116858815Y-58401185D01*
X116955506Y-58480537D01*
X117065820Y-58539502D01*
X117185518Y-58575812D01*
X117310000Y-58588072D01*
X118910000Y-58588072D01*
X119034482Y-58575812D01*
X119154180Y-58539502D01*
X119264494Y-58480537D01*
X119361185Y-58401185D01*
X119440537Y-58304494D01*
X119499502Y-58194180D01*
X119535812Y-58074482D01*
X119548072Y-57950000D01*
X119548072Y-56350000D01*
X119535812Y-56225518D01*
X119499502Y-56105820D01*
X119440537Y-55995506D01*
X119361185Y-55898815D01*
X119264494Y-55819463D01*
X119154180Y-55760498D01*
X119034482Y-55724188D01*
X118910000Y-55711928D01*
X117310000Y-55711928D01*
X117185518Y-55724188D01*
X117065820Y-55760498D01*
X116955506Y-55819463D01*
X116858815Y-55898815D01*
X116779463Y-55995506D01*
X116720498Y-56105820D01*
X116684188Y-56225518D01*
X116671928Y-56350000D01*
X109824801Y-56350000D01*
X110123592Y-56051210D01*
X110343740Y-56095000D01*
X110636260Y-56095000D01*
X110923158Y-56037932D01*
X111193411Y-55925990D01*
X111436632Y-55763475D01*
X111643475Y-55556632D01*
X111805990Y-55313411D01*
X111917932Y-55043158D01*
X111975000Y-54756260D01*
X111975000Y-54463740D01*
X111917932Y-54176842D01*
X111805990Y-53906589D01*
X111708043Y-53760000D01*
X128051928Y-53760000D01*
X128051928Y-55460000D01*
X128064188Y-55584482D01*
X128100498Y-55704180D01*
X128159463Y-55814494D01*
X128238815Y-55911185D01*
X128335506Y-55990537D01*
X128445820Y-56049502D01*
X128565518Y-56085812D01*
X128690000Y-56098072D01*
X130390000Y-56098072D01*
X130514482Y-56085812D01*
X130634180Y-56049502D01*
X130744494Y-55990537D01*
X130841185Y-55911185D01*
X130920537Y-55814494D01*
X130979502Y-55704180D01*
X131001513Y-55631620D01*
X131133368Y-55763475D01*
X131376589Y-55925990D01*
X131646842Y-56037932D01*
X131933740Y-56095000D01*
X132226260Y-56095000D01*
X132513158Y-56037932D01*
X132783411Y-55925990D01*
X133026632Y-55763475D01*
X133233475Y-55556632D01*
X133350000Y-55382240D01*
X133466525Y-55556632D01*
X133673368Y-55763475D01*
X133916589Y-55925990D01*
X134186842Y-56037932D01*
X134473740Y-56095000D01*
X134766260Y-56095000D01*
X135053158Y-56037932D01*
X135323411Y-55925990D01*
X135566632Y-55763475D01*
X135773475Y-55556632D01*
X135890000Y-55382240D01*
X136006525Y-55556632D01*
X136213368Y-55763475D01*
X136456589Y-55925990D01*
X136726842Y-56037932D01*
X137013740Y-56095000D01*
X137306260Y-56095000D01*
X137593158Y-56037932D01*
X137863411Y-55925990D01*
X138106632Y-55763475D01*
X138313475Y-55556632D01*
X138430000Y-55382240D01*
X138546525Y-55556632D01*
X138753368Y-55763475D01*
X138996589Y-55925990D01*
X139266842Y-56037932D01*
X139553740Y-56095000D01*
X139846260Y-56095000D01*
X140133158Y-56037932D01*
X140403411Y-55925990D01*
X140646632Y-55763475D01*
X140853475Y-55556632D01*
X140970000Y-55382240D01*
X141086525Y-55556632D01*
X141293368Y-55763475D01*
X141536589Y-55925990D01*
X141806842Y-56037932D01*
X142093740Y-56095000D01*
X142386260Y-56095000D01*
X142673158Y-56037932D01*
X142943411Y-55925990D01*
X143186632Y-55763475D01*
X143393475Y-55556632D01*
X143510000Y-55382240D01*
X143626525Y-55556632D01*
X143833368Y-55763475D01*
X144076589Y-55925990D01*
X144346842Y-56037932D01*
X144633740Y-56095000D01*
X144926260Y-56095000D01*
X145213158Y-56037932D01*
X145483411Y-55925990D01*
X145726632Y-55763475D01*
X145933475Y-55556632D01*
X146050000Y-55382240D01*
X146166525Y-55556632D01*
X146373368Y-55763475D01*
X146616589Y-55925990D01*
X146886842Y-56037932D01*
X147173740Y-56095000D01*
X147466260Y-56095000D01*
X147753158Y-56037932D01*
X148023411Y-55925990D01*
X148266632Y-55763475D01*
X148473475Y-55556632D01*
X148590000Y-55382240D01*
X148706525Y-55556632D01*
X148913368Y-55763475D01*
X149156589Y-55925990D01*
X149426842Y-56037932D01*
X149713740Y-56095000D01*
X150006260Y-56095000D01*
X150293158Y-56037932D01*
X150563411Y-55925990D01*
X150806632Y-55763475D01*
X151013475Y-55556632D01*
X151130000Y-55382240D01*
X151246525Y-55556632D01*
X151453368Y-55763475D01*
X151696589Y-55925990D01*
X151966842Y-56037932D01*
X152253740Y-56095000D01*
X152546260Y-56095000D01*
X152833158Y-56037932D01*
X153103411Y-55925990D01*
X153346632Y-55763475D01*
X153553475Y-55556632D01*
X153670000Y-55382240D01*
X153786525Y-55556632D01*
X153993368Y-55763475D01*
X154236589Y-55925990D01*
X154506842Y-56037932D01*
X154793740Y-56095000D01*
X155086260Y-56095000D01*
X155373158Y-56037932D01*
X155643411Y-55925990D01*
X155886632Y-55763475D01*
X156093475Y-55556632D01*
X156210000Y-55382240D01*
X156326525Y-55556632D01*
X156533368Y-55763475D01*
X156776589Y-55925990D01*
X157046842Y-56037932D01*
X157333740Y-56095000D01*
X157626260Y-56095000D01*
X157913158Y-56037932D01*
X158183411Y-55925990D01*
X158426632Y-55763475D01*
X158633475Y-55556632D01*
X158750000Y-55382240D01*
X158866525Y-55556632D01*
X159073368Y-55763475D01*
X159316589Y-55925990D01*
X159586842Y-56037932D01*
X159873740Y-56095000D01*
X160166260Y-56095000D01*
X160453158Y-56037932D01*
X160723411Y-55925990D01*
X160966632Y-55763475D01*
X161173475Y-55556632D01*
X161290000Y-55382240D01*
X161406525Y-55556632D01*
X161613368Y-55763475D01*
X161856589Y-55925990D01*
X162126842Y-56037932D01*
X162413740Y-56095000D01*
X162706260Y-56095000D01*
X162993158Y-56037932D01*
X163263411Y-55925990D01*
X163506632Y-55763475D01*
X163713475Y-55556632D01*
X163830000Y-55382240D01*
X163946525Y-55556632D01*
X164153368Y-55763475D01*
X164396589Y-55925990D01*
X164666842Y-56037932D01*
X164953740Y-56095000D01*
X165246260Y-56095000D01*
X165533158Y-56037932D01*
X165803411Y-55925990D01*
X166046632Y-55763475D01*
X166253475Y-55556632D01*
X166370000Y-55382240D01*
X166486525Y-55556632D01*
X166693368Y-55763475D01*
X166936589Y-55925990D01*
X167206842Y-56037932D01*
X167493740Y-56095000D01*
X167786260Y-56095000D01*
X168073158Y-56037932D01*
X168343411Y-55925990D01*
X168586632Y-55763475D01*
X168793475Y-55556632D01*
X168955990Y-55313411D01*
X169067932Y-55043158D01*
X169125000Y-54756260D01*
X169125000Y-54463740D01*
X169067932Y-54176842D01*
X168955990Y-53906589D01*
X168793475Y-53663368D01*
X168586632Y-53456525D01*
X168343411Y-53294010D01*
X168073158Y-53182068D01*
X167786260Y-53125000D01*
X167493740Y-53125000D01*
X167206842Y-53182068D01*
X166936589Y-53294010D01*
X166693368Y-53456525D01*
X166486525Y-53663368D01*
X166370000Y-53837760D01*
X166253475Y-53663368D01*
X166046632Y-53456525D01*
X165803411Y-53294010D01*
X165533158Y-53182068D01*
X165246260Y-53125000D01*
X164953740Y-53125000D01*
X164666842Y-53182068D01*
X164396589Y-53294010D01*
X164153368Y-53456525D01*
X163946525Y-53663368D01*
X163830000Y-53837760D01*
X163713475Y-53663368D01*
X163506632Y-53456525D01*
X163263411Y-53294010D01*
X162993158Y-53182068D01*
X162706260Y-53125000D01*
X162413740Y-53125000D01*
X162126842Y-53182068D01*
X161856589Y-53294010D01*
X161613368Y-53456525D01*
X161406525Y-53663368D01*
X161290000Y-53837760D01*
X161173475Y-53663368D01*
X160966632Y-53456525D01*
X160723411Y-53294010D01*
X160453158Y-53182068D01*
X160166260Y-53125000D01*
X159873740Y-53125000D01*
X159586842Y-53182068D01*
X159316589Y-53294010D01*
X159073368Y-53456525D01*
X158866525Y-53663368D01*
X158750000Y-53837760D01*
X158633475Y-53663368D01*
X158426632Y-53456525D01*
X158183411Y-53294010D01*
X157913158Y-53182068D01*
X157626260Y-53125000D01*
X157333740Y-53125000D01*
X157046842Y-53182068D01*
X156776589Y-53294010D01*
X156533368Y-53456525D01*
X156326525Y-53663368D01*
X156210000Y-53837760D01*
X156093475Y-53663368D01*
X155886632Y-53456525D01*
X155643411Y-53294010D01*
X155373158Y-53182068D01*
X155086260Y-53125000D01*
X154793740Y-53125000D01*
X154506842Y-53182068D01*
X154236589Y-53294010D01*
X153993368Y-53456525D01*
X153786525Y-53663368D01*
X153670000Y-53837760D01*
X153553475Y-53663368D01*
X153346632Y-53456525D01*
X153103411Y-53294010D01*
X152833158Y-53182068D01*
X152546260Y-53125000D01*
X152253740Y-53125000D01*
X151966842Y-53182068D01*
X151696589Y-53294010D01*
X151453368Y-53456525D01*
X151246525Y-53663368D01*
X151130000Y-53837760D01*
X151013475Y-53663368D01*
X150806632Y-53456525D01*
X150563411Y-53294010D01*
X150293158Y-53182068D01*
X150006260Y-53125000D01*
X149713740Y-53125000D01*
X149426842Y-53182068D01*
X149156589Y-53294010D01*
X148913368Y-53456525D01*
X148706525Y-53663368D01*
X148590000Y-53837760D01*
X148473475Y-53663368D01*
X148266632Y-53456525D01*
X148023411Y-53294010D01*
X147753158Y-53182068D01*
X147466260Y-53125000D01*
X147173740Y-53125000D01*
X146886842Y-53182068D01*
X146616589Y-53294010D01*
X146373368Y-53456525D01*
X146166525Y-53663368D01*
X146050000Y-53837760D01*
X145933475Y-53663368D01*
X145726632Y-53456525D01*
X145483411Y-53294010D01*
X145213158Y-53182068D01*
X144926260Y-53125000D01*
X144633740Y-53125000D01*
X144346842Y-53182068D01*
X144076589Y-53294010D01*
X143833368Y-53456525D01*
X143626525Y-53663368D01*
X143510000Y-53837760D01*
X143393475Y-53663368D01*
X143186632Y-53456525D01*
X142943411Y-53294010D01*
X142673158Y-53182068D01*
X142386260Y-53125000D01*
X142093740Y-53125000D01*
X141806842Y-53182068D01*
X141536589Y-53294010D01*
X141293368Y-53456525D01*
X141086525Y-53663368D01*
X140970000Y-53837760D01*
X140853475Y-53663368D01*
X140646632Y-53456525D01*
X140403411Y-53294010D01*
X140133158Y-53182068D01*
X139846260Y-53125000D01*
X139553740Y-53125000D01*
X139266842Y-53182068D01*
X138996589Y-53294010D01*
X138753368Y-53456525D01*
X138546525Y-53663368D01*
X138430000Y-53837760D01*
X138313475Y-53663368D01*
X138106632Y-53456525D01*
X137863411Y-53294010D01*
X137593158Y-53182068D01*
X137306260Y-53125000D01*
X137013740Y-53125000D01*
X136726842Y-53182068D01*
X136456589Y-53294010D01*
X136213368Y-53456525D01*
X136006525Y-53663368D01*
X135890000Y-53837760D01*
X135773475Y-53663368D01*
X135566632Y-53456525D01*
X135323411Y-53294010D01*
X135053158Y-53182068D01*
X134766260Y-53125000D01*
X134473740Y-53125000D01*
X134186842Y-53182068D01*
X133916589Y-53294010D01*
X133673368Y-53456525D01*
X133466525Y-53663368D01*
X133350000Y-53837760D01*
X133233475Y-53663368D01*
X133026632Y-53456525D01*
X132783411Y-53294010D01*
X132513158Y-53182068D01*
X132226260Y-53125000D01*
X131933740Y-53125000D01*
X131646842Y-53182068D01*
X131376589Y-53294010D01*
X131133368Y-53456525D01*
X131001513Y-53588380D01*
X130979502Y-53515820D01*
X130920537Y-53405506D01*
X130841185Y-53308815D01*
X130744494Y-53229463D01*
X130634180Y-53170498D01*
X130514482Y-53134188D01*
X130390000Y-53121928D01*
X128690000Y-53121928D01*
X128565518Y-53134188D01*
X128445820Y-53170498D01*
X128335506Y-53229463D01*
X128238815Y-53308815D01*
X128159463Y-53405506D01*
X128100498Y-53515820D01*
X128064188Y-53635518D01*
X128051928Y-53760000D01*
X111708043Y-53760000D01*
X111643475Y-53663368D01*
X111511620Y-53531513D01*
X111584180Y-53509502D01*
X111694494Y-53450537D01*
X111791185Y-53371185D01*
X111870537Y-53274494D01*
X111929502Y-53164180D01*
X111936017Y-53142702D01*
X117296903Y-53142702D01*
X117368486Y-53386671D01*
X117623996Y-53507571D01*
X117898184Y-53576300D01*
X118180512Y-53590217D01*
X118460130Y-53548787D01*
X118726292Y-53453603D01*
X118851514Y-53386671D01*
X118923097Y-53142702D01*
X118110000Y-52329605D01*
X117296903Y-53142702D01*
X111936017Y-53142702D01*
X111965812Y-53044482D01*
X111978072Y-52920000D01*
X111975000Y-52355750D01*
X111839762Y-52220512D01*
X116669783Y-52220512D01*
X116711213Y-52500130D01*
X116806397Y-52766292D01*
X116873329Y-52891514D01*
X117117298Y-52963097D01*
X117930395Y-52150000D01*
X118289605Y-52150000D01*
X119102702Y-52963097D01*
X119346671Y-52891514D01*
X119467571Y-52636004D01*
X119536300Y-52361816D01*
X119550217Y-52079488D01*
X119508787Y-51799870D01*
X119413603Y-51533708D01*
X119346671Y-51408486D01*
X119102702Y-51336903D01*
X118289605Y-52150000D01*
X117930395Y-52150000D01*
X117117298Y-51336903D01*
X116873329Y-51408486D01*
X116752429Y-51663996D01*
X116683700Y-51938184D01*
X116669783Y-52220512D01*
X111839762Y-52220512D01*
X111816250Y-52197000D01*
X110617000Y-52197000D01*
X110617000Y-52217000D01*
X110363000Y-52217000D01*
X110363000Y-52197000D01*
X110343000Y-52197000D01*
X110343000Y-51943000D01*
X110363000Y-51943000D01*
X110363000Y-50743750D01*
X110617000Y-50743750D01*
X110617000Y-51943000D01*
X111816250Y-51943000D01*
X111975000Y-51784250D01*
X111978072Y-51220000D01*
X111971897Y-51157298D01*
X117296903Y-51157298D01*
X118110000Y-51970395D01*
X118923097Y-51157298D01*
X118851514Y-50913329D01*
X118596004Y-50792429D01*
X118321816Y-50723700D01*
X118039488Y-50709783D01*
X117759870Y-50751213D01*
X117493708Y-50846397D01*
X117368486Y-50913329D01*
X117296903Y-51157298D01*
X111971897Y-51157298D01*
X111965812Y-51095518D01*
X111929502Y-50975820D01*
X111870537Y-50865506D01*
X111791185Y-50768815D01*
X111694494Y-50689463D01*
X111584180Y-50630498D01*
X111464482Y-50594188D01*
X111340000Y-50581928D01*
X110775750Y-50585000D01*
X110617000Y-50743750D01*
X110363000Y-50743750D01*
X110204250Y-50585000D01*
X109640000Y-50581928D01*
X109515518Y-50594188D01*
X109395820Y-50630498D01*
X109285506Y-50689463D01*
X109188815Y-50768815D01*
X109109463Y-50865506D01*
X109050498Y-50975820D01*
X109028487Y-51048380D01*
X108896632Y-50916525D01*
X108653411Y-50754010D01*
X108383158Y-50642068D01*
X108096260Y-50585000D01*
X107803740Y-50585000D01*
X107516842Y-50642068D01*
X107246589Y-50754010D01*
X107003368Y-50916525D01*
X106796525Y-51123368D01*
X106680000Y-51297760D01*
X106563475Y-51123368D01*
X106356632Y-50916525D01*
X106113411Y-50754010D01*
X105843158Y-50642068D01*
X105556260Y-50585000D01*
X105263740Y-50585000D01*
X104976842Y-50642068D01*
X104706589Y-50754010D01*
X104463368Y-50916525D01*
X104256525Y-51123368D01*
X104140000Y-51297760D01*
X104023475Y-51123368D01*
X103816632Y-50916525D01*
X103573411Y-50754010D01*
X103303158Y-50642068D01*
X103016260Y-50585000D01*
X102723740Y-50585000D01*
X102436842Y-50642068D01*
X102166589Y-50754010D01*
X101923368Y-50916525D01*
X101716525Y-51123368D01*
X101600000Y-51297760D01*
X101483475Y-51123368D01*
X101276632Y-50916525D01*
X101033411Y-50754010D01*
X100763158Y-50642068D01*
X100476260Y-50585000D01*
X100183740Y-50585000D01*
X99896842Y-50642068D01*
X99626589Y-50754010D01*
X99383368Y-50916525D01*
X99176525Y-51123368D01*
X99014010Y-51366589D01*
X98902068Y-51636842D01*
X98845000Y-51923740D01*
X98845000Y-52216260D01*
X98902068Y-52503158D01*
X99014010Y-52773411D01*
X99176525Y-53016632D01*
X99383368Y-53223475D01*
X99557760Y-53340000D01*
X99383368Y-53456525D01*
X99176525Y-53663368D01*
X99014010Y-53906589D01*
X98902068Y-54176842D01*
X98845000Y-54463740D01*
X98845000Y-54756260D01*
X98902068Y-55043158D01*
X99014010Y-55313411D01*
X99176525Y-55556632D01*
X99383368Y-55763475D01*
X99626589Y-55925990D01*
X99896842Y-56037932D01*
X100183740Y-56095000D01*
X100476260Y-56095000D01*
X100763158Y-56037932D01*
X101033411Y-55925990D01*
X101276632Y-55763475D01*
X101483475Y-55556632D01*
X101600000Y-55382240D01*
X101716525Y-55556632D01*
X101923368Y-55763475D01*
X102166589Y-55925990D01*
X102436842Y-56037932D01*
X102723740Y-56095000D01*
X103016260Y-56095000D01*
X103303158Y-56037932D01*
X103573411Y-55925990D01*
X103816632Y-55763475D01*
X104023475Y-55556632D01*
X104140000Y-55382240D01*
X104256525Y-55556632D01*
X104463368Y-55763475D01*
X104706589Y-55925990D01*
X104976842Y-56037932D01*
X105263740Y-56095000D01*
X105556260Y-56095000D01*
X105843158Y-56037932D01*
X106113411Y-55925990D01*
X106356632Y-55763475D01*
X106563475Y-55556632D01*
X106680000Y-55382240D01*
X106796525Y-55556632D01*
X107003368Y-55763475D01*
X107246589Y-55925990D01*
X107516842Y-56037932D01*
X107803740Y-56095000D01*
X107930198Y-56095000D01*
X101430198Y-62595001D01*
X92830509Y-62595001D01*
X92875000Y-62371335D01*
X92875000Y-62088665D01*
X92819853Y-61811426D01*
X92711680Y-61550273D01*
X92554637Y-61315241D01*
X92354759Y-61115363D01*
X92122241Y-60960000D01*
X92354759Y-60804637D01*
X92554637Y-60604759D01*
X92711680Y-60369727D01*
X92819853Y-60108574D01*
X92875000Y-59831335D01*
X92875000Y-59548665D01*
X92819853Y-59271426D01*
X92711680Y-59010273D01*
X92554637Y-58775241D01*
X92354759Y-58575363D01*
X92122241Y-58420000D01*
X92354759Y-58264637D01*
X92554637Y-58064759D01*
X92711680Y-57829727D01*
X92819853Y-57568574D01*
X92875000Y-57291335D01*
X92875000Y-57008665D01*
X92819853Y-56731426D01*
X92711680Y-56470273D01*
X92554637Y-56235241D01*
X92354759Y-56035363D01*
X92119727Y-55878320D01*
X91858574Y-55770147D01*
X91581335Y-55715000D01*
X91298665Y-55715000D01*
X91021426Y-55770147D01*
X90760273Y-55878320D01*
X90525241Y-56035363D01*
X90325363Y-56235241D01*
X90168320Y-56470273D01*
X90060147Y-56731426D01*
X90005000Y-57008665D01*
X90005000Y-57291335D01*
X90060147Y-57568574D01*
X90168320Y-57829727D01*
X90325363Y-58064759D01*
X90525241Y-58264637D01*
X90757759Y-58420000D01*
X90525241Y-58575363D01*
X90325363Y-58775241D01*
X90168320Y-59010273D01*
X90060147Y-59271426D01*
X90005000Y-59548665D01*
X90005000Y-59831335D01*
X90060147Y-60108574D01*
X90168320Y-60369727D01*
X90325363Y-60604759D01*
X90525241Y-60804637D01*
X90757759Y-60960000D01*
X90525241Y-61115363D01*
X90325363Y-61315241D01*
X90168320Y-61550273D01*
X90060147Y-61811426D01*
X90005000Y-62088665D01*
X90005000Y-62371335D01*
X90060147Y-62648574D01*
X90168320Y-62909727D01*
X90325363Y-63144759D01*
X90325400Y-63144796D01*
X82965198Y-70504999D01*
X81016599Y-70504999D01*
X81016599Y-67198930D01*
X81020276Y-67161597D01*
X81005602Y-67012611D01*
X80962145Y-66869350D01*
X80891573Y-66737321D01*
X80820398Y-66650594D01*
X80796600Y-66621596D01*
X80767603Y-66597799D01*
X77314600Y-63144796D01*
X77314637Y-63144759D01*
X77471680Y-62909727D01*
X77579853Y-62648574D01*
X77635000Y-62371335D01*
X77635000Y-62088665D01*
X77579853Y-61811426D01*
X77471680Y-61550273D01*
X77314637Y-61315241D01*
X77114759Y-61115363D01*
X76882241Y-60960000D01*
X77114759Y-60804637D01*
X77314637Y-60604759D01*
X77471680Y-60369727D01*
X77579853Y-60108574D01*
X77635000Y-59831335D01*
X77635000Y-59548665D01*
X77579853Y-59271426D01*
X77471680Y-59010273D01*
X77314637Y-58775241D01*
X77114759Y-58575363D01*
X76882241Y-58420000D01*
X77114759Y-58264637D01*
X77314637Y-58064759D01*
X77471680Y-57829727D01*
X77579853Y-57568574D01*
X77635000Y-57291335D01*
X77635000Y-57008665D01*
X77579853Y-56731426D01*
X77471680Y-56470273D01*
X77314637Y-56235241D01*
X77114759Y-56035363D01*
X76879727Y-55878320D01*
X76618574Y-55770147D01*
X76341335Y-55715000D01*
X76058665Y-55715000D01*
X75781426Y-55770147D01*
X75520273Y-55878320D01*
X75285241Y-56035363D01*
X75085363Y-56235241D01*
X74928320Y-56470273D01*
X74820147Y-56731426D01*
X74765000Y-57008665D01*
X74765000Y-57291335D01*
X74820147Y-57568574D01*
X74928320Y-57829727D01*
X75085363Y-58064759D01*
X75285241Y-58264637D01*
X75517759Y-58420000D01*
X75285241Y-58575363D01*
X75085363Y-58775241D01*
X74928320Y-59010273D01*
X74820147Y-59271426D01*
X74765000Y-59548665D01*
X74765000Y-59831335D01*
X74801312Y-60013887D01*
X74564001Y-60251197D01*
X74534998Y-60275000D01*
X74479870Y-60342175D01*
X74440025Y-60390725D01*
X74369454Y-60522754D01*
X74369453Y-60522755D01*
X74325996Y-60666016D01*
X74314999Y-60777669D01*
X74314999Y-60777679D01*
X74311323Y-60815001D01*
X74314999Y-60852324D01*
X74315000Y-62732669D01*
X74311323Y-62770001D01*
X74315000Y-62807334D01*
X74322650Y-62884999D01*
X74325997Y-62918986D01*
X74369453Y-63062247D01*
X74440025Y-63194277D01*
X74511200Y-63281003D01*
X74534999Y-63310002D01*
X74563997Y-63333800D01*
X75085400Y-63855204D01*
X75085363Y-63855241D01*
X74928320Y-64090273D01*
X74820147Y-64351426D01*
X74765000Y-64628665D01*
X74765000Y-64911335D01*
X74820147Y-65188574D01*
X74928320Y-65449727D01*
X75085363Y-65684759D01*
X75285241Y-65884637D01*
X75517759Y-66040000D01*
X75285241Y-66195363D01*
X75085363Y-66395241D01*
X74928320Y-66630273D01*
X74820147Y-66891426D01*
X74765000Y-67168665D01*
X74765000Y-67451335D01*
X74820147Y-67728574D01*
X74928320Y-67989727D01*
X75085363Y-68224759D01*
X75285241Y-68424637D01*
X75517759Y-68580000D01*
X75285241Y-68735363D01*
X75085363Y-68935241D01*
X74928320Y-69170273D01*
X74820147Y-69431426D01*
X74765000Y-69708665D01*
X74765000Y-69991335D01*
X74820147Y-70268574D01*
X74928320Y-70529727D01*
X75085363Y-70764759D01*
X75085400Y-70764796D01*
X74831101Y-71019096D01*
X74831096Y-71019100D01*
X73795000Y-72055197D01*
X73795000Y-51336514D01*
X73826600Y-51035837D01*
X73908054Y-50785111D01*
X74039901Y-50556791D01*
X74216205Y-50360947D01*
X74429483Y-50206048D01*
X74670369Y-50098785D01*
X74928217Y-50044000D01*
X225191783Y-50044000D01*
X225449630Y-50098785D01*
G37*
%TD.AperFunction*%
%TD*%
M02*
