%TF.GenerationSoftware,KiCad,Pcbnew,(5.1.7)-1*%
%TF.CreationDate,2020-12-08T13:51:12+10:00*%
%TF.ProjectId,Universal Controller Mk1,556e6976-6572-4736-916c-20436f6e7472,rev?*%
%TF.SameCoordinates,Original*%
%TF.FileFunction,Soldermask,Bot*%
%TF.FilePolarity,Negative*%
%FSLAX46Y46*%
G04 Gerber Fmt 4.6, Leading zero omitted, Abs format (unit mm)*
G04 Created by KiCad (PCBNEW (5.1.7)-1) date 2020-12-08 13:51:12*
%MOMM*%
%LPD*%
G01*
G04 APERTURE LIST*
%ADD10C,1.778000*%
%ADD11C,2.286000*%
%ADD12O,1.600000X1.600000*%
%ADD13R,1.600000X1.600000*%
%ADD14R,2.000000X2.000000*%
%ADD15C,2.000000*%
%ADD16R,3.200000X2.000000*%
%ADD17C,1.600000*%
%ADD18O,1.700000X1.700000*%
%ADD19R,1.700000X1.700000*%
G04 APERTURE END LIST*
D10*
%TO.C,U2*%
X106680000Y-99060000D03*
X106680000Y-96520000D03*
X106680000Y-93980000D03*
D11*
X124460000Y-89852500D03*
X124460000Y-103187500D03*
X109220000Y-103187500D03*
X109220000Y-89852500D03*
D10*
X119380000Y-106680000D03*
X116840000Y-106680000D03*
X114300000Y-106680000D03*
X120015000Y-88900000D03*
X113665000Y-88900000D03*
X120015000Y-83820000D03*
X113665000Y-83820000D03*
%TD*%
D12*
%TO.C,A1*%
X76200000Y-57150000D03*
X91440000Y-57150000D03*
X76200000Y-92710000D03*
X91440000Y-59690000D03*
X76200000Y-90170000D03*
X91440000Y-62230000D03*
X76200000Y-87630000D03*
X91440000Y-64770000D03*
X76200000Y-85090000D03*
X91440000Y-67310000D03*
X76200000Y-82550000D03*
X91440000Y-69850000D03*
X76200000Y-80010000D03*
X91440000Y-72390000D03*
X76200000Y-77470000D03*
X91440000Y-74930000D03*
X76200000Y-74930000D03*
X91440000Y-77470000D03*
X76200000Y-72390000D03*
X91440000Y-80010000D03*
X76200000Y-69850000D03*
X91440000Y-82550000D03*
X76200000Y-67310000D03*
X91440000Y-85090000D03*
X76200000Y-64770000D03*
X91440000Y-87630000D03*
X76200000Y-62230000D03*
X91440000Y-90170000D03*
X76200000Y-59690000D03*
D13*
X91440000Y-92710000D03*
%TD*%
D14*
%TO.C,SW1*%
X222250000Y-101600000D03*
D15*
X222250000Y-99100000D03*
X222250000Y-96600000D03*
D16*
X214750000Y-104700000D03*
X214750000Y-93500000D03*
D15*
X207750000Y-101600000D03*
X207750000Y-96600000D03*
%TD*%
D17*
%TO.C,C1*%
X203120000Y-105410000D03*
D13*
X198120000Y-105410000D03*
%TD*%
D17*
%TO.C,C2*%
X198200000Y-96520000D03*
D13*
X203200000Y-96520000D03*
%TD*%
D17*
%TO.C,C3*%
X118110000Y-52150000D03*
D13*
X118110000Y-57150000D03*
%TD*%
D18*
%TO.C,J1*%
X93980000Y-100330000D03*
X91440000Y-100330000D03*
X88900000Y-100330000D03*
X86360000Y-100330000D03*
X83820000Y-100330000D03*
X81280000Y-100330000D03*
X78740000Y-100330000D03*
D19*
X76200000Y-100330000D03*
%TD*%
%TO.C,J3*%
X220980000Y-67310000D03*
D18*
X220980000Y-69850000D03*
X220980000Y-72390000D03*
X220980000Y-74930000D03*
%TD*%
D19*
%TO.C,J4*%
X181610000Y-63500000D03*
D18*
X184150000Y-63500000D03*
X186690000Y-63500000D03*
X189230000Y-63500000D03*
X191770000Y-63500000D03*
X194310000Y-63500000D03*
X196850000Y-63500000D03*
X199390000Y-63500000D03*
X201930000Y-63500000D03*
X204470000Y-63500000D03*
X207010000Y-63500000D03*
X209550000Y-63500000D03*
X212090000Y-63500000D03*
X214630000Y-63500000D03*
X217170000Y-63500000D03*
X219710000Y-63500000D03*
%TD*%
%TO.C,J5*%
X167640000Y-54610000D03*
X165100000Y-54610000D03*
X162560000Y-54610000D03*
X160020000Y-54610000D03*
X157480000Y-54610000D03*
X154940000Y-54610000D03*
X152400000Y-54610000D03*
X149860000Y-54610000D03*
X147320000Y-54610000D03*
X144780000Y-54610000D03*
X142240000Y-54610000D03*
X139700000Y-54610000D03*
X137160000Y-54610000D03*
X134620000Y-54610000D03*
X132080000Y-54610000D03*
D19*
X129540000Y-54610000D03*
%TD*%
D18*
%TO.C,J6*%
X143510000Y-102870000D03*
D19*
X146050000Y-102870000D03*
%TD*%
D10*
%TO.C,U1*%
X161290000Y-99060000D03*
X161290000Y-96520000D03*
X161290000Y-93980000D03*
D11*
X179070000Y-89852500D03*
X179070000Y-103187500D03*
X163830000Y-103187500D03*
X163830000Y-89852500D03*
D10*
X173990000Y-106680000D03*
X171450000Y-106680000D03*
X168910000Y-106680000D03*
X174625000Y-88900000D03*
X168275000Y-88900000D03*
X174625000Y-83820000D03*
X168275000Y-83820000D03*
%TD*%
D18*
%TO.C,J2*%
X100330000Y-54610000D03*
X100330000Y-52070000D03*
X102870000Y-54610000D03*
X102870000Y-52070000D03*
X105410000Y-54610000D03*
X105410000Y-52070000D03*
X107950000Y-54610000D03*
X107950000Y-52070000D03*
X110490000Y-54610000D03*
D19*
X110490000Y-52070000D03*
%TD*%
M02*
