  0
SECTION
  2
BLOCKS
  0
ENDSEC
  0
SECTION
  2
ENTITIES
  0
LINE
  8
0
 10
60.618
 20
-31.9021
 11
61
 21
-31.732
  0
LINE
  8
0
 10
61
 20
-31.732
 11
61.3383
 21
-31.4863
  0
LINE
  8
0
 10
61.3383
 20
-31.4863
 11
61.618
 21
-31.1756
  0
LINE
  8
0
 10
61.618
 20
-31.1756
 11
61.8271
 21
-30.8135
  0
LINE
  8
0
 10
61.8271
 20
-30.8135
 11
61.9563
 21
-30.4158
  0
LINE
  8
0
 10
61.9563
 20
-30.4158
 11
62
 21
-30
  0
LINE
  8
0
 10
62
 20
-30
 11
62
 21
30
  0
LINE
  8
0
 10
62
 20
30
 11
61.9563
 21
30.4158
  0
LINE
  8
0
 10
61.9563
 20
30.4158
 11
61.8271
 21
30.8135
  0
LINE
  8
0
 10
61.8271
 20
30.8135
 11
61.618
 21
31.1756
  0
LINE
  8
0
 10
61.618
 20
31.1756
 11
61.3383
 21
31.4863
  0
LINE
  8
0
 10
61.3383
 20
31.4863
 11
61
 21
31.732
  0
LINE
  8
0
 10
61
 20
31.732
 11
60.618
 21
31.9021
  0
LINE
  8
0
 10
60.618
 20
31.9021
 11
60.209
 21
31.989
  0
LINE
  8
0
 10
60.209
 20
31.989
 11
-60.209
 21
31.989
  0
LINE
  8
0
 10
-60.209
 20
31.989
 11
-60.618
 21
31.9021
  0
LINE
  8
0
 10
-60.618
 20
31.9021
 11
-61
 21
31.732
  0
LINE
  8
0
 10
-61
 20
31.732
 11
-61.3383
 21
31.4863
  0
LINE
  8
0
 10
-61.3383
 20
31.4863
 11
-61.618
 21
31.1756
  0
LINE
  8
0
 10
-61.618
 20
31.1756
 11
-61.8271
 21
30.8135
  0
LINE
  8
0
 10
-61.8271
 20
30.8135
 11
-61.9563
 21
30.4158
  0
LINE
  8
0
 10
-61.9563
 20
30.4158
 11
-62
 21
30
  0
LINE
  8
0
 10
-62
 20
30
 11
-62
 21
-30
  0
LINE
  8
0
 10
-62
 20
-30
 11
-61.9563
 21
-30.4158
  0
LINE
  8
0
 10
-61.9563
 20
-30.4158
 11
-61.8271
 21
-30.8135
  0
LINE
  8
0
 10
-61.8271
 20
-30.8135
 11
-61.618
 21
-31.1756
  0
LINE
  8
0
 10
-61.618
 20
-31.1756
 11
-61.3383
 21
-31.4863
  0
LINE
  8
0
 10
-61.3383
 20
-31.4863
 11
-61
 21
-31.732
  0
LINE
  8
0
 10
-61
 20
-31.732
 11
-60.618
 21
-31.9021
  0
LINE
  8
0
 10
-60.618
 20
-31.9021
 11
-60.209
 21
-31.989
  0
LINE
  8
0
 10
-60.209
 20
-31.989
 11
60.209
 21
-31.989
  0
LINE
  8
0
 10
60.209
 20
-31.989
 11
60.618
 21
-31.9021
  0
LINE
  8
0
 10
59.8165
 20
28.2546
 11
59.4577
 21
28.3309
  0
LINE
  8
0
 10
59.4577
 20
28.3309
 11
59.1225
 21
28.4801
  0
LINE
  8
0
 10
59.1225
 20
28.4801
 11
58.8257
 21
28.6958
  0
LINE
  8
0
 10
58.8257
 20
28.6958
 11
58.5802
 21
28.9684
  0
LINE
  8
0
 10
58.5802
 20
28.9684
 11
58.3967
 21
29.2862
  0
LINE
  8
0
 10
58.3967
 20
29.2862
 11
58.2833
 21
29.6351
  0
LINE
  8
0
 10
58.2833
 20
29.6351
 11
58.245
 21
30
  0
LINE
  8
0
 10
58.245
 20
30
 11
58.2833
 21
30.3649
  0
LINE
  8
0
 10
58.2833
 20
30.3649
 11
58.3967
 21
30.7138
  0
LINE
  8
0
 10
58.3967
 20
30.7138
 11
58.5802
 21
31.0316
  0
LINE
  8
0
 10
58.5802
 20
31.0316
 11
58.8257
 21
31.3042
  0
LINE
  8
0
 10
58.8257
 20
31.3042
 11
59.1225
 21
31.5199
  0
LINE
  8
0
 10
59.1225
 20
31.5199
 11
59.4577
 21
31.6691
  0
LINE
  8
0
 10
59.4577
 20
31.6691
 11
59.8165
 21
31.7454
  0
LINE
  8
0
 10
59.8165
 20
31.7454
 11
60.1834
 21
31.7454
  0
LINE
  8
0
 10
60.1834
 20
31.7454
 11
60.5423
 21
31.6691
  0
LINE
  8
0
 10
60.5423
 20
31.6691
 11
60.8775
 21
31.5199
  0
LINE
  8
0
 10
60.8775
 20
31.5199
 11
61.1743
 21
31.3042
  0
LINE
  8
0
 10
61.1743
 20
31.3042
 11
61.4198
 21
31.0316
  0
LINE
  8
0
 10
61.4198
 20
31.0316
 11
61.6033
 21
30.7138
  0
LINE
  8
0
 10
61.6033
 20
30.7138
 11
61.7166
 21
30.3649
  0
LINE
  8
0
 10
61.7166
 20
30.3649
 11
61.755
 21
30
  0
LINE
  8
0
 10
61.755
 20
30
 11
61.7166
 21
29.6351
  0
LINE
  8
0
 10
61.7166
 20
29.6351
 11
61.6033
 21
29.2862
  0
LINE
  8
0
 10
61.6033
 20
29.2862
 11
61.4198
 21
28.9684
  0
LINE
  8
0
 10
61.4198
 20
28.9684
 11
61.1743
 21
28.6958
  0
LINE
  8
0
 10
61.1743
 20
28.6958
 11
60.8775
 21
28.4801
  0
LINE
  8
0
 10
60.8775
 20
28.4801
 11
60.5423
 21
28.3309
  0
LINE
  8
0
 10
60.5423
 20
28.3309
 11
60.1834
 21
28.2546
  0
LINE
  8
0
 10
60.1834
 20
28.2546
 11
59.8165
 21
28.2546
  0
LINE
  8
0
 10
-60.1834
 20
28.2546
 11
-60.5423
 21
28.3309
  0
LINE
  8
0
 10
-60.5423
 20
28.3309
 11
-60.8775
 21
28.4801
  0
LINE
  8
0
 10
-60.8775
 20
28.4801
 11
-61.1743
 21
28.6958
  0
LINE
  8
0
 10
-61.1743
 20
28.6958
 11
-61.4198
 21
28.9684
  0
LINE
  8
0
 10
-61.4198
 20
28.9684
 11
-61.6033
 21
29.2862
  0
LINE
  8
0
 10
-61.6033
 20
29.2862
 11
-61.7166
 21
29.6351
  0
LINE
  8
0
 10
-61.7166
 20
29.6351
 11
-61.755
 21
30
  0
LINE
  8
0
 10
-61.755
 20
30
 11
-61.7166
 21
30.3649
  0
LINE
  8
0
 10
-61.7166
 20
30.3649
 11
-61.6033
 21
30.7138
  0
LINE
  8
0
 10
-61.6033
 20
30.7138
 11
-61.4198
 21
31.0316
  0
LINE
  8
0
 10
-61.4198
 20
31.0316
 11
-61.1743
 21
31.3042
  0
LINE
  8
0
 10
-61.1743
 20
31.3042
 11
-60.8775
 21
31.5199
  0
LINE
  8
0
 10
-60.8775
 20
31.5199
 11
-60.5423
 21
31.6691
  0
LINE
  8
0
 10
-60.5423
 20
31.6691
 11
-60.1834
 21
31.7454
  0
LINE
  8
0
 10
-60.1834
 20
31.7454
 11
-59.8165
 21
31.7454
  0
LINE
  8
0
 10
-59.8165
 20
31.7454
 11
-59.4577
 21
31.6691
  0
LINE
  8
0
 10
-59.4577
 20
31.6691
 11
-59.1225
 21
31.5199
  0
LINE
  8
0
 10
-59.1225
 20
31.5199
 11
-58.8257
 21
31.3042
  0
LINE
  8
0
 10
-58.8257
 20
31.3042
 11
-58.5802
 21
31.0316
  0
LINE
  8
0
 10
-58.5802
 20
31.0316
 11
-58.3967
 21
30.7138
  0
LINE
  8
0
 10
-58.3967
 20
30.7138
 11
-58.2833
 21
30.3649
  0
LINE
  8
0
 10
-58.2833
 20
30.3649
 11
-58.245
 21
30
  0
LINE
  8
0
 10
-58.245
 20
30
 11
-58.2833
 21
29.6351
  0
LINE
  8
0
 10
-58.2833
 20
29.6351
 11
-58.3967
 21
29.2862
  0
LINE
  8
0
 10
-58.3967
 20
29.2862
 11
-58.5802
 21
28.9684
  0
LINE
  8
0
 10
-58.5802
 20
28.9684
 11
-58.8257
 21
28.6958
  0
LINE
  8
0
 10
-58.8257
 20
28.6958
 11
-59.1225
 21
28.4801
  0
LINE
  8
0
 10
-59.1225
 20
28.4801
 11
-59.4577
 21
28.3309
  0
LINE
  8
0
 10
-59.4577
 20
28.3309
 11
-59.8165
 21
28.2546
  0
LINE
  8
0
 10
-59.8165
 20
28.2546
 11
-60.1834
 21
28.2546
  0
LINE
  8
0
 10
59.8165
 20
-31.7454
 11
59.4577
 21
-31.6691
  0
LINE
  8
0
 10
59.4577
 20
-31.6691
 11
59.1225
 21
-31.5199
  0
LINE
  8
0
 10
59.1225
 20
-31.5199
 11
58.8257
 21
-31.3042
  0
LINE
  8
0
 10
58.8257
 20
-31.3042
 11
58.5802
 21
-31.0316
  0
LINE
  8
0
 10
58.5802
 20
-31.0316
 11
58.3967
 21
-30.7138
  0
LINE
  8
0
 10
58.3967
 20
-30.7138
 11
58.2833
 21
-30.3649
  0
LINE
  8
0
 10
58.2833
 20
-30.3649
 11
58.245
 21
-30
  0
LINE
  8
0
 10
58.245
 20
-30
 11
58.2833
 21
-29.6351
  0
LINE
  8
0
 10
58.2833
 20
-29.6351
 11
58.3967
 21
-29.2862
  0
LINE
  8
0
 10
58.3967
 20
-29.2862
 11
58.5802
 21
-28.9684
  0
LINE
  8
0
 10
58.5802
 20
-28.9684
 11
58.8257
 21
-28.6958
  0
LINE
  8
0
 10
58.8257
 20
-28.6958
 11
59.1225
 21
-28.4801
  0
LINE
  8
0
 10
59.1225
 20
-28.4801
 11
59.4577
 21
-28.3309
  0
LINE
  8
0
 10
59.4577
 20
-28.3309
 11
59.8165
 21
-28.2546
  0
LINE
  8
0
 10
59.8165
 20
-28.2546
 11
60.1834
 21
-28.2546
  0
LINE
  8
0
 10
60.1834
 20
-28.2546
 11
60.5423
 21
-28.3309
  0
LINE
  8
0
 10
60.5423
 20
-28.3309
 11
60.8775
 21
-28.4801
  0
LINE
  8
0
 10
60.8775
 20
-28.4801
 11
61.1743
 21
-28.6958
  0
LINE
  8
0
 10
61.1743
 20
-28.6958
 11
61.4198
 21
-28.9684
  0
LINE
  8
0
 10
61.4198
 20
-28.9684
 11
61.6033
 21
-29.2862
  0
LINE
  8
0
 10
61.6033
 20
-29.2862
 11
61.7166
 21
-29.6351
  0
LINE
  8
0
 10
61.7166
 20
-29.6351
 11
61.755
 21
-30
  0
LINE
  8
0
 10
61.755
 20
-30
 11
61.7166
 21
-30.3649
  0
LINE
  8
0
 10
61.7166
 20
-30.3649
 11
61.6033
 21
-30.7138
  0
LINE
  8
0
 10
61.6033
 20
-30.7138
 11
61.4198
 21
-31.0316
  0
LINE
  8
0
 10
61.4198
 20
-31.0316
 11
61.1743
 21
-31.3042
  0
LINE
  8
0
 10
61.1743
 20
-31.3042
 11
60.8775
 21
-31.5199
  0
LINE
  8
0
 10
60.8775
 20
-31.5199
 11
60.5423
 21
-31.6691
  0
LINE
  8
0
 10
60.5423
 20
-31.6691
 11
60.1834
 21
-31.7454
  0
LINE
  8
0
 10
60.1834
 20
-31.7454
 11
59.8165
 21
-31.7454
  0
LINE
  8
0
 10
-60.1834
 20
-31.7454
 11
-60.5423
 21
-31.6691
  0
LINE
  8
0
 10
-60.5423
 20
-31.6691
 11
-60.8775
 21
-31.5199
  0
LINE
  8
0
 10
-60.8775
 20
-31.5199
 11
-61.1743
 21
-31.3042
  0
LINE
  8
0
 10
-61.1743
 20
-31.3042
 11
-61.4198
 21
-31.0316
  0
LINE
  8
0
 10
-61.4198
 20
-31.0316
 11
-61.6033
 21
-30.7138
  0
LINE
  8
0
 10
-61.6033
 20
-30.7138
 11
-61.7166
 21
-30.3649
  0
LINE
  8
0
 10
-61.7166
 20
-30.3649
 11
-61.755
 21
-30
  0
LINE
  8
0
 10
-61.755
 20
-30
 11
-61.7166
 21
-29.6351
  0
LINE
  8
0
 10
-61.7166
 20
-29.6351
 11
-61.6033
 21
-29.2862
  0
LINE
  8
0
 10
-61.6033
 20
-29.2862
 11
-61.4198
 21
-28.9684
  0
LINE
  8
0
 10
-61.4198
 20
-28.9684
 11
-61.1743
 21
-28.6958
  0
LINE
  8
0
 10
-61.1743
 20
-28.6958
 11
-60.8775
 21
-28.4801
  0
LINE
  8
0
 10
-60.8775
 20
-28.4801
 11
-60.5423
 21
-28.3309
  0
LINE
  8
0
 10
-60.5423
 20
-28.3309
 11
-60.1834
 21
-28.2546
  0
LINE
  8
0
 10
-60.1834
 20
-28.2546
 11
-59.8165
 21
-28.2546
  0
LINE
  8
0
 10
-59.8165
 20
-28.2546
 11
-59.4577
 21
-28.3309
  0
LINE
  8
0
 10
-59.4577
 20
-28.3309
 11
-59.1225
 21
-28.4801
  0
LINE
  8
0
 10
-59.1225
 20
-28.4801
 11
-58.8257
 21
-28.6958
  0
LINE
  8
0
 10
-58.8257
 20
-28.6958
 11
-58.5802
 21
-28.9684
  0
LINE
  8
0
 10
-58.5802
 20
-28.9684
 11
-58.3967
 21
-29.2862
  0
LINE
  8
0
 10
-58.3967
 20
-29.2862
 11
-58.2833
 21
-29.6351
  0
LINE
  8
0
 10
-58.2833
 20
-29.6351
 11
-58.245
 21
-30
  0
LINE
  8
0
 10
-58.245
 20
-30
 11
-58.2833
 21
-30.3649
  0
LINE
  8
0
 10
-58.2833
 20
-30.3649
 11
-58.3967
 21
-30.7138
  0
LINE
  8
0
 10
-58.3967
 20
-30.7138
 11
-58.5802
 21
-31.0316
  0
LINE
  8
0
 10
-58.5802
 20
-31.0316
 11
-58.8257
 21
-31.3042
  0
LINE
  8
0
 10
-58.8257
 20
-31.3042
 11
-59.1225
 21
-31.5199
  0
LINE
  8
0
 10
-59.1225
 20
-31.5199
 11
-59.4577
 21
-31.6691
  0
LINE
  8
0
 10
-59.4577
 20
-31.6691
 11
-59.8165
 21
-31.7454
  0
LINE
  8
0
 10
-59.8165
 20
-31.7454
 11
-60.1834
 21
-31.7454
  0
ENDSEC
  0
SECTION
  2
OBJECTS
  0
DICTIONARY
  0
ENDSEC
  0
EOF
