%TF.GenerationSoftware,KiCad,Pcbnew,(5.1.7)-1*%
%TF.CreationDate,2021-01-15T10:10:13+10:00*%
%TF.ProjectId,Universal Controller Mk1,556e6976-6572-4736-916c-20436f6e7472,rev?*%
%TF.SameCoordinates,Original*%
%TF.FileFunction,Profile,NP*%
%FSLAX46Y46*%
G04 Gerber Fmt 4.6, Leading zero omitted, Abs format (unit mm)*
G04 Created by KiCad (PCBNEW (5.1.7)-1) date 2021-01-15 10:10:13*
%MOMM*%
%LPD*%
G01*
G04 APERTURE LIST*
%TA.AperFunction,Profile*%
%ADD10C,0.200000*%
%TD*%
G04 APERTURE END LIST*
D10*
X75714800Y-108246000D02*
X76011600Y-108461700D01*
X74295000Y-111435000D02*
X73959800Y-111285800D01*
X76554000Y-109401000D02*
X76592300Y-109765900D01*
X73234000Y-109052100D02*
X73417500Y-108734300D01*
X74653900Y-111511300D02*
X74295000Y-111435000D01*
X195020700Y-111511300D02*
X194653800Y-111511300D01*
X76440600Y-109052100D02*
X76554000Y-109401000D01*
X73663000Y-108461700D02*
X73959800Y-108246000D01*
X76257100Y-108734300D02*
X76440600Y-109052100D01*
X76011600Y-108461700D02*
X76257100Y-108734300D01*
X75020800Y-108020500D02*
X75379600Y-108096800D01*
X73234000Y-110479700D02*
X73120700Y-110130800D01*
X73082300Y-109765900D02*
X73120700Y-109401000D01*
X73417500Y-108734300D02*
X73663000Y-108461700D01*
X74653900Y-108020500D02*
X75020800Y-108020500D01*
X74295000Y-108096800D02*
X74653900Y-108020500D01*
X73959800Y-108246000D02*
X74295000Y-108096800D01*
X73120700Y-109401000D02*
X73234000Y-109052100D01*
X73663000Y-111070100D02*
X73417500Y-110797500D01*
X73120700Y-110130800D02*
X73082300Y-109765900D01*
X73959800Y-111285800D02*
X73663000Y-111070100D01*
X73417500Y-110797500D02*
X73234000Y-110479700D01*
X75379600Y-108096800D02*
X75714800Y-108246000D01*
X196837300Y-49765900D02*
X196793600Y-49350100D01*
X196175600Y-48279600D02*
X195837300Y-48033900D01*
X73837300Y-111497900D02*
X74219300Y-111668000D01*
X73219300Y-48590300D02*
X73010200Y-48952400D01*
X73499000Y-111252200D02*
X73837300Y-111497900D01*
X72881000Y-49350100D02*
X72837300Y-49765900D01*
X195455300Y-47863800D02*
X195046300Y-47776900D01*
X73010200Y-110579400D02*
X73219300Y-110941500D01*
X72881000Y-110181700D02*
X73010200Y-110579400D01*
X72837300Y-109765900D02*
X72881000Y-110181700D01*
X73010200Y-48952400D02*
X72881000Y-49350100D01*
X196793600Y-49350100D02*
X196664400Y-48952400D01*
X74219300Y-47863800D02*
X73837300Y-48033900D01*
X195046300Y-47776900D02*
X74628300Y-47776900D01*
X74628300Y-47776900D02*
X74219300Y-47863800D01*
X73219300Y-110941500D02*
X73499000Y-111252200D01*
X196664400Y-48952400D02*
X196455300Y-48590300D01*
X72837300Y-49765900D02*
X72837300Y-109765900D01*
X73499000Y-48279600D02*
X73219300Y-48590300D01*
X195837300Y-48033900D02*
X195455300Y-47863800D01*
X196455300Y-48590300D02*
X196175600Y-48279600D01*
X196837300Y-109765900D02*
X196837300Y-49765900D01*
X73837300Y-48033900D02*
X73499000Y-48279600D01*
X193234000Y-110479700D02*
X193120600Y-110130800D01*
X194653800Y-111511300D02*
X194295000Y-111435000D01*
X75714800Y-48246000D02*
X76011600Y-48461700D01*
X76440600Y-50479700D02*
X76257100Y-50797500D01*
X195379600Y-111435000D02*
X195020700Y-111511300D01*
X194295000Y-111435000D02*
X193959800Y-111285800D01*
X74295000Y-48096800D02*
X74653900Y-48020500D01*
X196257100Y-110797500D02*
X196011600Y-111070100D01*
X196440600Y-110479700D02*
X196257100Y-110797500D01*
X196553900Y-109401000D02*
X196592300Y-109765900D01*
X196440600Y-109052100D02*
X196553900Y-109401000D01*
X196257100Y-108734300D02*
X196440600Y-109052100D01*
X75379600Y-48096800D02*
X75714800Y-48246000D01*
X76011600Y-51070100D02*
X75714800Y-51285800D01*
X196011600Y-108461700D02*
X196257100Y-108734300D01*
X193234000Y-109052100D02*
X193417500Y-108734300D01*
X193959800Y-111285800D02*
X193663000Y-111070100D01*
X76011600Y-48461700D02*
X76257100Y-48734300D01*
X195714800Y-111285800D02*
X195379600Y-111435000D01*
X196011600Y-111070100D02*
X195714800Y-111285800D01*
X196553900Y-110130800D02*
X196440600Y-110479700D01*
X193417500Y-110797500D02*
X193234000Y-110479700D01*
X74653900Y-48020500D02*
X75020800Y-48020500D01*
X76554000Y-49401000D02*
X76592300Y-49765900D01*
X195714800Y-108246000D02*
X196011600Y-108461700D01*
X75020800Y-51511300D02*
X74653900Y-51511300D01*
X75714800Y-51285800D02*
X75379600Y-51435000D01*
X75379600Y-51435000D02*
X75020800Y-51511300D01*
X76257100Y-48734300D02*
X76440600Y-49052100D01*
X195379600Y-108096800D02*
X195714800Y-108246000D01*
X76440600Y-49052100D02*
X76554000Y-49401000D01*
X76592300Y-49765900D02*
X76554000Y-50130800D01*
X75020800Y-48020500D02*
X75379600Y-48096800D01*
X194653800Y-108020500D02*
X195020700Y-108020500D01*
X194295000Y-108096800D02*
X194653800Y-108020500D01*
X193663000Y-108461700D02*
X193959800Y-108246000D01*
X193417500Y-108734300D02*
X193663000Y-108461700D01*
X193120600Y-109401000D02*
X193234000Y-109052100D01*
X193663000Y-111070100D02*
X193417500Y-110797500D01*
X193120600Y-110130800D02*
X193082300Y-109765900D01*
X76257100Y-50797500D02*
X76011600Y-51070100D01*
X76554000Y-50130800D02*
X76440600Y-50479700D01*
X196592300Y-109765900D02*
X196553900Y-110130800D01*
X193082300Y-109765900D02*
X193120600Y-109401000D01*
X195020700Y-108020500D02*
X195379600Y-108096800D01*
X193959800Y-108246000D02*
X194295000Y-108096800D01*
X75379600Y-111435000D02*
X75020800Y-111511300D01*
X75714800Y-111285800D02*
X75379600Y-111435000D01*
X76592300Y-109765900D02*
X76554000Y-110130800D01*
X76554000Y-110130800D02*
X76440600Y-110479700D01*
X75020800Y-111511300D02*
X74653900Y-111511300D01*
X76257100Y-110797500D02*
X76011600Y-111070100D01*
X76011600Y-111070100D02*
X75714800Y-111285800D01*
X76440600Y-110479700D02*
X76257100Y-110797500D01*
X196793600Y-110181700D02*
X196837300Y-109765900D01*
X195837300Y-111497900D02*
X196175600Y-111252200D01*
X195455300Y-111668000D02*
X195837300Y-111497900D01*
X196664400Y-110579400D02*
X196793600Y-110181700D01*
X196455300Y-110941500D02*
X196664400Y-110579400D01*
X196175600Y-111252200D02*
X196455300Y-110941500D01*
X73959800Y-48246000D02*
X74295000Y-48096800D01*
X73959800Y-51285800D02*
X73663000Y-51070100D01*
X195379600Y-48096800D02*
X195714800Y-48246000D01*
X193959800Y-51285800D02*
X193663000Y-51070100D01*
X73663000Y-48461700D02*
X73959800Y-48246000D01*
X73417500Y-48734300D02*
X73663000Y-48461700D01*
X73234000Y-49052100D02*
X73417500Y-48734300D01*
X73082300Y-49765900D02*
X73120700Y-49401000D01*
X194653800Y-51511300D02*
X194295000Y-51435000D01*
X73120700Y-49401000D02*
X73234000Y-49052100D01*
X73120700Y-50130800D02*
X73082300Y-49765900D01*
X196440600Y-50479700D02*
X196257100Y-50797500D01*
X73234000Y-50479700D02*
X73120700Y-50130800D01*
X196011600Y-51070100D02*
X195714800Y-51285800D01*
X194295000Y-51435000D02*
X193959800Y-51285800D01*
X195020700Y-48020500D02*
X195379600Y-48096800D01*
X193082300Y-49765900D02*
X193120600Y-49401000D01*
X73417500Y-50797500D02*
X73234000Y-50479700D01*
X193234000Y-49052100D02*
X193417500Y-48734300D01*
X73663000Y-51070100D02*
X73417500Y-50797500D01*
X74653900Y-51511300D02*
X74295000Y-51435000D01*
X196257100Y-50797500D02*
X196011600Y-51070100D01*
X196440600Y-49052100D02*
X196553900Y-49401000D01*
X196592300Y-49765900D02*
X196553900Y-50130800D01*
X193417500Y-48734300D02*
X193663000Y-48461700D01*
X194295000Y-48096800D02*
X194653800Y-48020500D01*
X193234000Y-50479700D02*
X193120600Y-50130800D01*
X195046300Y-111754900D02*
X195455300Y-111668000D01*
X195020700Y-51511300D02*
X194653800Y-51511300D01*
X74219300Y-111668000D02*
X74628300Y-111754900D01*
X196553900Y-50130800D02*
X196440600Y-50479700D01*
X196011600Y-48461700D02*
X196257100Y-48734300D01*
X193959800Y-48246000D02*
X194295000Y-48096800D01*
X193663000Y-48461700D02*
X193959800Y-48246000D01*
X193120600Y-49401000D02*
X193234000Y-49052100D01*
X193663000Y-51070100D02*
X193417500Y-50797500D01*
X193417500Y-50797500D02*
X193234000Y-50479700D01*
X194653800Y-48020500D02*
X195020700Y-48020500D01*
X195714800Y-51285800D02*
X195379600Y-51435000D01*
X195379600Y-51435000D02*
X195020700Y-51511300D01*
X195714800Y-48246000D02*
X196011600Y-48461700D01*
X196553900Y-49401000D02*
X196592300Y-49765900D01*
X196257100Y-48734300D02*
X196440600Y-49052100D01*
X74628300Y-111754900D02*
X195046300Y-111754900D01*
X193120600Y-50130800D02*
X193082300Y-49765900D01*
X74295000Y-51435000D02*
X73959800Y-51285800D01*
M02*
