%TF.GenerationSoftware,KiCad,Pcbnew,(5.1.7)-1*%
%TF.CreationDate,2021-01-15T10:10:13+10:00*%
%TF.ProjectId,Universal Controller Mk1,556e6976-6572-4736-916c-20436f6e7472,rev?*%
%TF.SameCoordinates,Original*%
%TF.FileFunction,Legend,Top*%
%TF.FilePolarity,Positive*%
%FSLAX46Y46*%
G04 Gerber Fmt 4.6, Leading zero omitted, Abs format (unit mm)*
G04 Created by KiCad (PCBNEW (5.1.7)-1) date 2021-01-15 10:10:13*
%MOMM*%
%LPD*%
G01*
G04 APERTURE LIST*
%ADD10C,0.150000*%
%ADD11C,0.120000*%
%ADD12C,0.127000*%
%ADD13C,0.200000*%
%ADD14C,0.015000*%
G04 APERTURE END LIST*
D10*
X135763095Y-52205000D02*
X135667857Y-52157380D01*
X135525000Y-52157380D01*
X135382142Y-52205000D01*
X135286904Y-52300238D01*
X135239285Y-52395476D01*
X135191666Y-52585952D01*
X135191666Y-52728809D01*
X135239285Y-52919285D01*
X135286904Y-53014523D01*
X135382142Y-53109761D01*
X135525000Y-53157380D01*
X135620238Y-53157380D01*
X135763095Y-53109761D01*
X135810714Y-53062142D01*
X135810714Y-52728809D01*
X135620238Y-52728809D01*
X136239285Y-53157380D02*
X136239285Y-52157380D01*
X136810714Y-53157380D01*
X136810714Y-52157380D01*
X137286904Y-53157380D02*
X137286904Y-52157380D01*
X137525000Y-52157380D01*
X137667857Y-52205000D01*
X137763095Y-52300238D01*
X137810714Y-52395476D01*
X137858333Y-52585952D01*
X137858333Y-52728809D01*
X137810714Y-52919285D01*
X137763095Y-53014523D01*
X137667857Y-53109761D01*
X137525000Y-53157380D01*
X137286904Y-53157380D01*
X141422619Y-58507380D02*
X141613095Y-58507380D01*
X141708333Y-58555000D01*
X141803571Y-58650238D01*
X141851190Y-58840714D01*
X141851190Y-59174047D01*
X141803571Y-59364523D01*
X141708333Y-59459761D01*
X141613095Y-59507380D01*
X141422619Y-59507380D01*
X141327380Y-59459761D01*
X141232142Y-59364523D01*
X141184523Y-59174047D01*
X141184523Y-58840714D01*
X141232142Y-58650238D01*
X141327380Y-58555000D01*
X141422619Y-58507380D01*
X142755952Y-59507380D02*
X142279761Y-59507380D01*
X142279761Y-58507380D01*
X143089285Y-58983571D02*
X143422619Y-58983571D01*
X143565476Y-59507380D02*
X143089285Y-59507380D01*
X143089285Y-58507380D01*
X143565476Y-58507380D01*
X143994047Y-59507380D02*
X143994047Y-58507380D01*
X144232142Y-58507380D01*
X144375000Y-58555000D01*
X144470238Y-58650238D01*
X144517857Y-58745476D01*
X144565476Y-58935952D01*
X144565476Y-59078809D01*
X144517857Y-59269285D01*
X144470238Y-59364523D01*
X144375000Y-59459761D01*
X144232142Y-59507380D01*
X143994047Y-59507380D01*
X82716666Y-83453809D02*
X82716666Y-82977619D01*
X83002380Y-83549047D02*
X82002380Y-83215714D01*
X83002380Y-82882380D01*
X83002380Y-82549047D02*
X82335714Y-82549047D01*
X82526190Y-82549047D02*
X82430952Y-82501428D01*
X82383333Y-82453809D01*
X82335714Y-82358571D01*
X82335714Y-82263333D01*
X83002380Y-81501428D02*
X82002380Y-81501428D01*
X82954761Y-81501428D02*
X83002380Y-81596666D01*
X83002380Y-81787142D01*
X82954761Y-81882380D01*
X82907142Y-81930000D01*
X82811904Y-81977619D01*
X82526190Y-81977619D01*
X82430952Y-81930000D01*
X82383333Y-81882380D01*
X82335714Y-81787142D01*
X82335714Y-81596666D01*
X82383333Y-81501428D01*
X82335714Y-80596666D02*
X83002380Y-80596666D01*
X82335714Y-81025238D02*
X82859523Y-81025238D01*
X82954761Y-80977619D01*
X83002380Y-80882380D01*
X83002380Y-80739523D01*
X82954761Y-80644285D01*
X82907142Y-80596666D01*
X83002380Y-80120476D02*
X82335714Y-80120476D01*
X82002380Y-80120476D02*
X82050000Y-80168095D01*
X82097619Y-80120476D01*
X82050000Y-80072857D01*
X82002380Y-80120476D01*
X82097619Y-80120476D01*
X82335714Y-79644285D02*
X83002380Y-79644285D01*
X82430952Y-79644285D02*
X82383333Y-79596666D01*
X82335714Y-79501428D01*
X82335714Y-79358571D01*
X82383333Y-79263333D01*
X82478571Y-79215714D01*
X83002380Y-79215714D01*
X83002380Y-78596666D02*
X82954761Y-78691904D01*
X82907142Y-78739523D01*
X82811904Y-78787142D01*
X82526190Y-78787142D01*
X82430952Y-78739523D01*
X82383333Y-78691904D01*
X82335714Y-78596666D01*
X82335714Y-78453809D01*
X82383333Y-78358571D01*
X82430952Y-78310952D01*
X82526190Y-78263333D01*
X82811904Y-78263333D01*
X82907142Y-78310952D01*
X82954761Y-78358571D01*
X83002380Y-78453809D01*
X83002380Y-78596666D01*
X83002380Y-77072857D02*
X82002380Y-77072857D01*
X83002380Y-76501428D01*
X82002380Y-76501428D01*
X83002380Y-75596666D02*
X82478571Y-75596666D01*
X82383333Y-75644285D01*
X82335714Y-75739523D01*
X82335714Y-75930000D01*
X82383333Y-76025238D01*
X82954761Y-75596666D02*
X83002380Y-75691904D01*
X83002380Y-75930000D01*
X82954761Y-76025238D01*
X82859523Y-76072857D01*
X82764285Y-76072857D01*
X82669047Y-76025238D01*
X82621428Y-75930000D01*
X82621428Y-75691904D01*
X82573809Y-75596666D01*
X82335714Y-75120476D02*
X83002380Y-75120476D01*
X82430952Y-75120476D02*
X82383333Y-75072857D01*
X82335714Y-74977619D01*
X82335714Y-74834761D01*
X82383333Y-74739523D01*
X82478571Y-74691904D01*
X83002380Y-74691904D01*
X83002380Y-74072857D02*
X82954761Y-74168095D01*
X82907142Y-74215714D01*
X82811904Y-74263333D01*
X82526190Y-74263333D01*
X82430952Y-74215714D01*
X82383333Y-74168095D01*
X82335714Y-74072857D01*
X82335714Y-73930000D01*
X82383333Y-73834761D01*
X82430952Y-73787142D01*
X82526190Y-73739523D01*
X82811904Y-73739523D01*
X82907142Y-73787142D01*
X82954761Y-73834761D01*
X83002380Y-73930000D01*
X83002380Y-74072857D01*
X82478571Y-72215714D02*
X82526190Y-72072857D01*
X82573809Y-72025238D01*
X82669047Y-71977619D01*
X82811904Y-71977619D01*
X82907142Y-72025238D01*
X82954761Y-72072857D01*
X83002380Y-72168095D01*
X83002380Y-72549047D01*
X82002380Y-72549047D01*
X82002380Y-72215714D01*
X82050000Y-72120476D01*
X82097619Y-72072857D01*
X82192857Y-72025238D01*
X82288095Y-72025238D01*
X82383333Y-72072857D01*
X82430952Y-72120476D01*
X82478571Y-72215714D01*
X82478571Y-72549047D01*
X83002380Y-71549047D02*
X82335714Y-71549047D01*
X82526190Y-71549047D02*
X82430952Y-71501428D01*
X82383333Y-71453809D01*
X82335714Y-71358571D01*
X82335714Y-71263333D01*
X82954761Y-70549047D02*
X83002380Y-70644285D01*
X83002380Y-70834761D01*
X82954761Y-70930000D01*
X82859523Y-70977619D01*
X82478571Y-70977619D01*
X82383333Y-70930000D01*
X82335714Y-70834761D01*
X82335714Y-70644285D01*
X82383333Y-70549047D01*
X82478571Y-70501428D01*
X82573809Y-70501428D01*
X82669047Y-70977619D01*
X83002380Y-69644285D02*
X82478571Y-69644285D01*
X82383333Y-69691904D01*
X82335714Y-69787142D01*
X82335714Y-69977619D01*
X82383333Y-70072857D01*
X82954761Y-69644285D02*
X83002380Y-69739523D01*
X83002380Y-69977619D01*
X82954761Y-70072857D01*
X82859523Y-70120476D01*
X82764285Y-70120476D01*
X82669047Y-70072857D01*
X82621428Y-69977619D01*
X82621428Y-69739523D01*
X82573809Y-69644285D01*
X83002380Y-69168095D02*
X82002380Y-69168095D01*
X82621428Y-69072857D02*
X83002380Y-68787142D01*
X82335714Y-68787142D02*
X82716666Y-69168095D01*
X83002380Y-68215714D02*
X82954761Y-68310952D01*
X82907142Y-68358571D01*
X82811904Y-68406190D01*
X82526190Y-68406190D01*
X82430952Y-68358571D01*
X82383333Y-68310952D01*
X82335714Y-68215714D01*
X82335714Y-68072857D01*
X82383333Y-67977619D01*
X82430952Y-67930000D01*
X82526190Y-67882380D01*
X82811904Y-67882380D01*
X82907142Y-67930000D01*
X82954761Y-67977619D01*
X83002380Y-68072857D01*
X83002380Y-68215714D01*
X82335714Y-67025238D02*
X83002380Y-67025238D01*
X82335714Y-67453809D02*
X82859523Y-67453809D01*
X82954761Y-67406190D01*
X83002380Y-67310952D01*
X83002380Y-67168095D01*
X82954761Y-67072857D01*
X82907142Y-67025238D01*
X82335714Y-66691904D02*
X82335714Y-66310952D01*
X82002380Y-66549047D02*
X82859523Y-66549047D01*
X82954761Y-66501428D01*
X83002380Y-66406190D01*
X83002380Y-66310952D01*
X137144285Y-56586428D02*
X137906190Y-56586428D01*
X137525238Y-56967380D02*
X137525238Y-56205476D01*
X138858571Y-55967380D02*
X138382380Y-55967380D01*
X138334761Y-56443571D01*
X138382380Y-56395952D01*
X138477619Y-56348333D01*
X138715714Y-56348333D01*
X138810952Y-56395952D01*
X138858571Y-56443571D01*
X138906190Y-56538809D01*
X138906190Y-56776904D01*
X138858571Y-56872142D01*
X138810952Y-56919761D01*
X138715714Y-56967380D01*
X138477619Y-56967380D01*
X138382380Y-56919761D01*
X138334761Y-56872142D01*
X139191904Y-55967380D02*
X139525238Y-56967380D01*
X139858571Y-55967380D01*
X139360014Y-75652380D02*
X139455252Y-75652380D01*
X139544538Y-75700000D01*
X139586205Y-75747619D01*
X139621919Y-75842857D01*
X139645729Y-76033333D01*
X139615967Y-76271428D01*
X139544538Y-76461904D01*
X139485014Y-76557142D01*
X139431443Y-76604761D01*
X139330252Y-76652380D01*
X139235014Y-76652380D01*
X139145729Y-76604761D01*
X139104062Y-76557142D01*
X139068348Y-76461904D01*
X139044538Y-76271428D01*
X139074300Y-76033333D01*
X139145729Y-75842857D01*
X139205252Y-75747619D01*
X139258824Y-75700000D01*
X139360014Y-75652380D01*
X140312395Y-75652380D02*
X140407633Y-75652380D01*
X140496919Y-75700000D01*
X140538586Y-75747619D01*
X140574300Y-75842857D01*
X140598110Y-76033333D01*
X140568348Y-76271428D01*
X140496919Y-76461904D01*
X140437395Y-76557142D01*
X140383824Y-76604761D01*
X140282633Y-76652380D01*
X140187395Y-76652380D01*
X140098110Y-76604761D01*
X140056443Y-76557142D01*
X140020729Y-76461904D01*
X139996919Y-76271428D01*
X140026681Y-76033333D01*
X140098110Y-75842857D01*
X140157633Y-75747619D01*
X140211205Y-75700000D01*
X140312395Y-75652380D01*
X140979062Y-75652380D02*
X141598110Y-75652380D01*
X141217157Y-76033333D01*
X141360014Y-76033333D01*
X141449300Y-76080952D01*
X141490967Y-76128571D01*
X141526681Y-76223809D01*
X141496919Y-76461904D01*
X141437395Y-76557142D01*
X141383824Y-76604761D01*
X141282633Y-76652380D01*
X140996919Y-76652380D01*
X140907633Y-76604761D01*
X140865967Y-76557142D01*
X131803333Y-74747380D02*
X131470000Y-74271190D01*
X131231904Y-74747380D02*
X131231904Y-73747380D01*
X131612857Y-73747380D01*
X131708095Y-73795000D01*
X131755714Y-73842619D01*
X131803333Y-73937857D01*
X131803333Y-74080714D01*
X131755714Y-74175952D01*
X131708095Y-74223571D01*
X131612857Y-74271190D01*
X131231904Y-74271190D01*
X132136666Y-74080714D02*
X132374761Y-74747380D01*
X132612857Y-74080714D02*
X132374761Y-74747380D01*
X132279523Y-74985476D01*
X132231904Y-75033095D01*
X132136666Y-75080714D01*
X133422380Y-74747380D02*
X133422380Y-74223571D01*
X133374761Y-74128333D01*
X133279523Y-74080714D01*
X133089047Y-74080714D01*
X132993809Y-74128333D01*
X133422380Y-74699761D02*
X133327142Y-74747380D01*
X133089047Y-74747380D01*
X132993809Y-74699761D01*
X132946190Y-74604523D01*
X132946190Y-74509285D01*
X132993809Y-74414047D01*
X133089047Y-74366428D01*
X133327142Y-74366428D01*
X133422380Y-74318809D01*
X133898571Y-74080714D02*
X133898571Y-74747380D01*
X133898571Y-74175952D02*
X133946190Y-74128333D01*
X134041428Y-74080714D01*
X134184285Y-74080714D01*
X134279523Y-74128333D01*
X134327142Y-74223571D01*
X134327142Y-74747380D01*
X135470000Y-73747380D02*
X135708095Y-74747380D01*
X135898571Y-74033095D01*
X136089047Y-74747380D01*
X136327142Y-73747380D01*
X136708095Y-74747380D02*
X136708095Y-74080714D01*
X136708095Y-73747380D02*
X136660476Y-73795000D01*
X136708095Y-73842619D01*
X136755714Y-73795000D01*
X136708095Y-73747380D01*
X136708095Y-73842619D01*
X137327142Y-74747380D02*
X137231904Y-74699761D01*
X137184285Y-74604523D01*
X137184285Y-73747380D01*
X137850952Y-74747380D02*
X137755714Y-74699761D01*
X137708095Y-74604523D01*
X137708095Y-73747380D01*
X138231904Y-74747380D02*
X138231904Y-74080714D01*
X138231904Y-73747380D02*
X138184285Y-73795000D01*
X138231904Y-73842619D01*
X138279523Y-73795000D01*
X138231904Y-73747380D01*
X138231904Y-73842619D01*
X139136666Y-74747380D02*
X139136666Y-74223571D01*
X139089047Y-74128333D01*
X138993809Y-74080714D01*
X138803333Y-74080714D01*
X138708095Y-74128333D01*
X139136666Y-74699761D02*
X139041428Y-74747380D01*
X138803333Y-74747380D01*
X138708095Y-74699761D01*
X138660476Y-74604523D01*
X138660476Y-74509285D01*
X138708095Y-74414047D01*
X138803333Y-74366428D01*
X139041428Y-74366428D01*
X139136666Y-74318809D01*
X139612857Y-74747380D02*
X139612857Y-74080714D01*
X139612857Y-74175952D02*
X139660476Y-74128333D01*
X139755714Y-74080714D01*
X139898571Y-74080714D01*
X139993809Y-74128333D01*
X140041428Y-74223571D01*
X140041428Y-74747380D01*
X140041428Y-74223571D02*
X140089047Y-74128333D01*
X140184285Y-74080714D01*
X140327142Y-74080714D01*
X140422380Y-74128333D01*
X140470000Y-74223571D01*
X140470000Y-74747380D01*
X140898571Y-74699761D02*
X140993809Y-74747380D01*
X141184285Y-74747380D01*
X141279523Y-74699761D01*
X141327142Y-74604523D01*
X141327142Y-74556904D01*
X141279523Y-74461666D01*
X141184285Y-74414047D01*
X141041428Y-74414047D01*
X140946190Y-74366428D01*
X140898571Y-74271190D01*
X140898571Y-74223571D01*
X140946190Y-74128333D01*
X141041428Y-74080714D01*
X141184285Y-74080714D01*
X141279523Y-74128333D01*
X141898571Y-74747380D02*
X141803333Y-74699761D01*
X141755714Y-74652142D01*
X141708095Y-74556904D01*
X141708095Y-74271190D01*
X141755714Y-74175952D01*
X141803333Y-74128333D01*
X141898571Y-74080714D01*
X142041428Y-74080714D01*
X142136666Y-74128333D01*
X142184285Y-74175952D01*
X142231904Y-74271190D01*
X142231904Y-74556904D01*
X142184285Y-74652142D01*
X142136666Y-74699761D01*
X142041428Y-74747380D01*
X141898571Y-74747380D01*
X142660476Y-74080714D02*
X142660476Y-74747380D01*
X142660476Y-74175952D02*
X142708095Y-74128333D01*
X142803333Y-74080714D01*
X142946190Y-74080714D01*
X143041428Y-74128333D01*
X143089047Y-74223571D01*
X143089047Y-74747380D01*
X144850952Y-74747380D02*
X144279523Y-74747380D01*
X144565238Y-74747380D02*
X144565238Y-73747380D01*
X144470000Y-73890238D01*
X144374761Y-73985476D01*
X144279523Y-74033095D01*
X145755714Y-73747380D02*
X145279523Y-73747380D01*
X145231904Y-74223571D01*
X145279523Y-74175952D01*
X145374761Y-74128333D01*
X145612857Y-74128333D01*
X145708095Y-74175952D01*
X145755714Y-74223571D01*
X145803333Y-74318809D01*
X145803333Y-74556904D01*
X145755714Y-74652142D01*
X145708095Y-74699761D01*
X145612857Y-74747380D01*
X145374761Y-74747380D01*
X145279523Y-74699761D01*
X145231904Y-74652142D01*
X146946190Y-73699761D02*
X146089047Y-74985476D01*
X147803333Y-74747380D02*
X147231904Y-74747380D01*
X147517619Y-74747380D02*
X147517619Y-73747380D01*
X147422380Y-73890238D01*
X147327142Y-73985476D01*
X147231904Y-74033095D01*
X148946190Y-73699761D02*
X148089047Y-74985476D01*
X149231904Y-73842619D02*
X149279523Y-73795000D01*
X149374761Y-73747380D01*
X149612857Y-73747380D01*
X149708095Y-73795000D01*
X149755714Y-73842619D01*
X149803333Y-73937857D01*
X149803333Y-74033095D01*
X149755714Y-74175952D01*
X149184285Y-74747380D01*
X149803333Y-74747380D01*
X150755714Y-74747380D02*
X150184285Y-74747380D01*
X150470000Y-74747380D02*
X150470000Y-73747380D01*
X150374761Y-73890238D01*
X150279523Y-73985476D01*
X150184285Y-74033095D01*
X130517619Y-71842380D02*
X130517619Y-72651904D01*
X130565238Y-72747142D01*
X130612857Y-72794761D01*
X130708095Y-72842380D01*
X130898571Y-72842380D01*
X130993809Y-72794761D01*
X131041428Y-72747142D01*
X131089047Y-72651904D01*
X131089047Y-71842380D01*
X131565238Y-72175714D02*
X131565238Y-72842380D01*
X131565238Y-72270952D02*
X131612857Y-72223333D01*
X131708095Y-72175714D01*
X131850952Y-72175714D01*
X131946190Y-72223333D01*
X131993809Y-72318571D01*
X131993809Y-72842380D01*
X132470000Y-72842380D02*
X132470000Y-72175714D01*
X132470000Y-71842380D02*
X132422380Y-71890000D01*
X132470000Y-71937619D01*
X132517619Y-71890000D01*
X132470000Y-71842380D01*
X132470000Y-71937619D01*
X132850952Y-72175714D02*
X133089047Y-72842380D01*
X133327142Y-72175714D01*
X134089047Y-72794761D02*
X133993809Y-72842380D01*
X133803333Y-72842380D01*
X133708095Y-72794761D01*
X133660476Y-72699523D01*
X133660476Y-72318571D01*
X133708095Y-72223333D01*
X133803333Y-72175714D01*
X133993809Y-72175714D01*
X134089047Y-72223333D01*
X134136666Y-72318571D01*
X134136666Y-72413809D01*
X133660476Y-72509047D01*
X134565238Y-72842380D02*
X134565238Y-72175714D01*
X134565238Y-72366190D02*
X134612857Y-72270952D01*
X134660476Y-72223333D01*
X134755714Y-72175714D01*
X134850952Y-72175714D01*
X135136666Y-72794761D02*
X135231904Y-72842380D01*
X135422380Y-72842380D01*
X135517619Y-72794761D01*
X135565238Y-72699523D01*
X135565238Y-72651904D01*
X135517619Y-72556666D01*
X135422380Y-72509047D01*
X135279523Y-72509047D01*
X135184285Y-72461428D01*
X135136666Y-72366190D01*
X135136666Y-72318571D01*
X135184285Y-72223333D01*
X135279523Y-72175714D01*
X135422380Y-72175714D01*
X135517619Y-72223333D01*
X136422380Y-72842380D02*
X136422380Y-72318571D01*
X136374761Y-72223333D01*
X136279523Y-72175714D01*
X136089047Y-72175714D01*
X135993809Y-72223333D01*
X136422380Y-72794761D02*
X136327142Y-72842380D01*
X136089047Y-72842380D01*
X135993809Y-72794761D01*
X135946190Y-72699523D01*
X135946190Y-72604285D01*
X135993809Y-72509047D01*
X136089047Y-72461428D01*
X136327142Y-72461428D01*
X136422380Y-72413809D01*
X137041428Y-72842380D02*
X136946190Y-72794761D01*
X136898571Y-72699523D01*
X136898571Y-71842380D01*
X138755714Y-72842380D02*
X138422380Y-72366190D01*
X138184285Y-72842380D02*
X138184285Y-71842380D01*
X138565238Y-71842380D01*
X138660476Y-71890000D01*
X138708095Y-71937619D01*
X138755714Y-72032857D01*
X138755714Y-72175714D01*
X138708095Y-72270952D01*
X138660476Y-72318571D01*
X138565238Y-72366190D01*
X138184285Y-72366190D01*
X139517619Y-72318571D02*
X139184285Y-72318571D01*
X139184285Y-72842380D02*
X139184285Y-71842380D01*
X139660476Y-71842380D01*
X141374761Y-72747142D02*
X141327142Y-72794761D01*
X141184285Y-72842380D01*
X141089047Y-72842380D01*
X140946190Y-72794761D01*
X140850952Y-72699523D01*
X140803333Y-72604285D01*
X140755714Y-72413809D01*
X140755714Y-72270952D01*
X140803333Y-72080476D01*
X140850952Y-71985238D01*
X140946190Y-71890000D01*
X141089047Y-71842380D01*
X141184285Y-71842380D01*
X141327142Y-71890000D01*
X141374761Y-71937619D01*
X141946190Y-72842380D02*
X141850952Y-72794761D01*
X141803333Y-72747142D01*
X141755714Y-72651904D01*
X141755714Y-72366190D01*
X141803333Y-72270952D01*
X141850952Y-72223333D01*
X141946190Y-72175714D01*
X142089047Y-72175714D01*
X142184285Y-72223333D01*
X142231904Y-72270952D01*
X142279523Y-72366190D01*
X142279523Y-72651904D01*
X142231904Y-72747142D01*
X142184285Y-72794761D01*
X142089047Y-72842380D01*
X141946190Y-72842380D01*
X142708095Y-72175714D02*
X142708095Y-72842380D01*
X142708095Y-72270952D02*
X142755714Y-72223333D01*
X142850952Y-72175714D01*
X142993809Y-72175714D01*
X143089047Y-72223333D01*
X143136666Y-72318571D01*
X143136666Y-72842380D01*
X143470000Y-72175714D02*
X143850952Y-72175714D01*
X143612857Y-71842380D02*
X143612857Y-72699523D01*
X143660476Y-72794761D01*
X143755714Y-72842380D01*
X143850952Y-72842380D01*
X144184285Y-72842380D02*
X144184285Y-72175714D01*
X144184285Y-72366190D02*
X144231904Y-72270952D01*
X144279523Y-72223333D01*
X144374761Y-72175714D01*
X144470000Y-72175714D01*
X144946190Y-72842380D02*
X144850952Y-72794761D01*
X144803333Y-72747142D01*
X144755714Y-72651904D01*
X144755714Y-72366190D01*
X144803333Y-72270952D01*
X144850952Y-72223333D01*
X144946190Y-72175714D01*
X145089047Y-72175714D01*
X145184285Y-72223333D01*
X145231904Y-72270952D01*
X145279523Y-72366190D01*
X145279523Y-72651904D01*
X145231904Y-72747142D01*
X145184285Y-72794761D01*
X145089047Y-72842380D01*
X144946190Y-72842380D01*
X145850952Y-72842380D02*
X145755714Y-72794761D01*
X145708095Y-72699523D01*
X145708095Y-71842380D01*
X146374761Y-72842380D02*
X146279523Y-72794761D01*
X146231904Y-72699523D01*
X146231904Y-71842380D01*
X147136666Y-72794761D02*
X147041428Y-72842380D01*
X146850952Y-72842380D01*
X146755714Y-72794761D01*
X146708095Y-72699523D01*
X146708095Y-72318571D01*
X146755714Y-72223333D01*
X146850952Y-72175714D01*
X147041428Y-72175714D01*
X147136666Y-72223333D01*
X147184285Y-72318571D01*
X147184285Y-72413809D01*
X146708095Y-72509047D01*
X147612857Y-72842380D02*
X147612857Y-72175714D01*
X147612857Y-72366190D02*
X147660476Y-72270952D01*
X147708095Y-72223333D01*
X147803333Y-72175714D01*
X147898571Y-72175714D01*
X148993809Y-72842380D02*
X148993809Y-71842380D01*
X149327142Y-72556666D01*
X149660476Y-71842380D01*
X149660476Y-72842380D01*
X150136666Y-72842380D02*
X150136666Y-71842380D01*
X150231904Y-72461428D02*
X150517619Y-72842380D01*
X150517619Y-72175714D02*
X150136666Y-72556666D01*
X150898571Y-71937619D02*
X150946190Y-71890000D01*
X151041428Y-71842380D01*
X151279523Y-71842380D01*
X151374761Y-71890000D01*
X151422380Y-71937619D01*
X151470000Y-72032857D01*
X151470000Y-72128095D01*
X151422380Y-72270952D01*
X150850952Y-72842380D01*
X151470000Y-72842380D01*
X98270323Y-60599580D02*
X98270323Y-59599580D01*
X98841752Y-60599580D01*
X98841752Y-59599580D01*
X99889371Y-60599580D02*
X99556038Y-60123390D01*
X99317942Y-60599580D02*
X99317942Y-59599580D01*
X99698895Y-59599580D01*
X99794133Y-59647200D01*
X99841752Y-59694819D01*
X99889371Y-59790057D01*
X99889371Y-59932914D01*
X99841752Y-60028152D01*
X99794133Y-60075771D01*
X99698895Y-60123390D01*
X99317942Y-60123390D01*
X100651276Y-60075771D02*
X100317942Y-60075771D01*
X100317942Y-60599580D02*
X100317942Y-59599580D01*
X100794133Y-59599580D01*
X101127466Y-59694819D02*
X101175085Y-59647200D01*
X101270323Y-59599580D01*
X101508419Y-59599580D01*
X101603657Y-59647200D01*
X101651276Y-59694819D01*
X101698895Y-59790057D01*
X101698895Y-59885295D01*
X101651276Y-60028152D01*
X101079847Y-60599580D01*
X101698895Y-60599580D01*
X102556038Y-59932914D02*
X102556038Y-60599580D01*
X102317942Y-59551961D02*
X102079847Y-60266247D01*
X102698895Y-60266247D01*
X103556038Y-60599580D02*
X103079847Y-60599580D01*
X103079847Y-59599580D01*
X104079847Y-59599580D02*
X104175085Y-59599580D01*
X104270323Y-59647200D01*
X104317942Y-59694819D01*
X104365561Y-59790057D01*
X104413180Y-59980533D01*
X104413180Y-60218628D01*
X104365561Y-60409104D01*
X104317942Y-60504342D01*
X104270323Y-60551961D01*
X104175085Y-60599580D01*
X104079847Y-60599580D01*
X103984609Y-60551961D01*
X103936990Y-60504342D01*
X103889371Y-60409104D01*
X103841752Y-60218628D01*
X103841752Y-59980533D01*
X103889371Y-59790057D01*
X103936990Y-59694819D01*
X103984609Y-59647200D01*
X104079847Y-59599580D01*
X105365561Y-60599580D02*
X104794133Y-60599580D01*
X105079847Y-60599580D02*
X105079847Y-59599580D01*
X104984609Y-59742438D01*
X104889371Y-59837676D01*
X104794133Y-59885295D01*
X106889371Y-60075771D02*
X107032228Y-60123390D01*
X107079847Y-60171009D01*
X107127466Y-60266247D01*
X107127466Y-60409104D01*
X107079847Y-60504342D01*
X107032228Y-60551961D01*
X106936990Y-60599580D01*
X106556038Y-60599580D01*
X106556038Y-59599580D01*
X106889371Y-59599580D01*
X106984609Y-59647200D01*
X107032228Y-59694819D01*
X107079847Y-59790057D01*
X107079847Y-59885295D01*
X107032228Y-59980533D01*
X106984609Y-60028152D01*
X106889371Y-60075771D01*
X106556038Y-60075771D01*
X107556038Y-60599580D02*
X107556038Y-59932914D01*
X107556038Y-60123390D02*
X107603657Y-60028152D01*
X107651276Y-59980533D01*
X107746514Y-59932914D01*
X107841752Y-59932914D01*
X108556038Y-60551961D02*
X108460800Y-60599580D01*
X108270323Y-60599580D01*
X108175085Y-60551961D01*
X108127466Y-60456723D01*
X108127466Y-60075771D01*
X108175085Y-59980533D01*
X108270323Y-59932914D01*
X108460800Y-59932914D01*
X108556038Y-59980533D01*
X108603657Y-60075771D01*
X108603657Y-60171009D01*
X108127466Y-60266247D01*
X109460800Y-60599580D02*
X109460800Y-60075771D01*
X109413180Y-59980533D01*
X109317942Y-59932914D01*
X109127466Y-59932914D01*
X109032228Y-59980533D01*
X109460800Y-60551961D02*
X109365561Y-60599580D01*
X109127466Y-60599580D01*
X109032228Y-60551961D01*
X108984609Y-60456723D01*
X108984609Y-60361485D01*
X109032228Y-60266247D01*
X109127466Y-60218628D01*
X109365561Y-60218628D01*
X109460800Y-60171009D01*
X109936990Y-60599580D02*
X109936990Y-59599580D01*
X110032228Y-60218628D02*
X110317942Y-60599580D01*
X110317942Y-59932914D02*
X109936990Y-60313866D01*
X110889371Y-60599580D02*
X110794133Y-60551961D01*
X110746514Y-60504342D01*
X110698895Y-60409104D01*
X110698895Y-60123390D01*
X110746514Y-60028152D01*
X110794133Y-59980533D01*
X110889371Y-59932914D01*
X111032228Y-59932914D01*
X111127466Y-59980533D01*
X111175085Y-60028152D01*
X111222704Y-60123390D01*
X111222704Y-60409104D01*
X111175085Y-60504342D01*
X111127466Y-60551961D01*
X111032228Y-60599580D01*
X110889371Y-60599580D01*
X112079847Y-59932914D02*
X112079847Y-60599580D01*
X111651276Y-59932914D02*
X111651276Y-60456723D01*
X111698895Y-60551961D01*
X111794133Y-60599580D01*
X111936990Y-60599580D01*
X112032228Y-60551961D01*
X112079847Y-60504342D01*
X112413180Y-59932914D02*
X112794133Y-59932914D01*
X112556038Y-59599580D02*
X112556038Y-60456723D01*
X112603657Y-60551961D01*
X112698895Y-60599580D01*
X112794133Y-60599580D01*
X123743980Y-55783028D02*
X123743980Y-56354457D01*
X123743980Y-56068742D02*
X122743980Y-56068742D01*
X122886838Y-56163980D01*
X122982076Y-56259219D01*
X123029695Y-56354457D01*
X122743980Y-55163980D02*
X122743980Y-55068742D01*
X122791600Y-54973504D01*
X122839219Y-54925885D01*
X122934457Y-54878266D01*
X123124933Y-54830647D01*
X123363028Y-54830647D01*
X123553504Y-54878266D01*
X123648742Y-54925885D01*
X123696361Y-54973504D01*
X123743980Y-55068742D01*
X123743980Y-55163980D01*
X123696361Y-55259219D01*
X123648742Y-55306838D01*
X123553504Y-55354457D01*
X123363028Y-55402076D01*
X123124933Y-55402076D01*
X122934457Y-55354457D01*
X122839219Y-55306838D01*
X122791600Y-55259219D01*
X122743980Y-55163980D01*
X123077314Y-53973504D02*
X123743980Y-53973504D01*
X123077314Y-54402076D02*
X123601123Y-54402076D01*
X123696361Y-54354457D01*
X123743980Y-54259219D01*
X123743980Y-54116361D01*
X123696361Y-54021123D01*
X123648742Y-53973504D01*
X123220171Y-53163980D02*
X123220171Y-53497314D01*
X123743980Y-53497314D02*
X122743980Y-53497314D01*
X122743980Y-53021123D01*
X142282990Y-99985580D02*
X142616323Y-100985580D01*
X142949657Y-99985580D01*
X143282990Y-100985580D02*
X143282990Y-100318914D01*
X143282990Y-99985580D02*
X143235371Y-100033200D01*
X143282990Y-100080819D01*
X143330609Y-100033200D01*
X143282990Y-99985580D01*
X143282990Y-100080819D01*
X143759180Y-100318914D02*
X143759180Y-100985580D01*
X143759180Y-100414152D02*
X143806800Y-100366533D01*
X143902038Y-100318914D01*
X144044895Y-100318914D01*
X144140133Y-100366533D01*
X144187752Y-100461771D01*
X144187752Y-100985580D01*
X173775952Y-53319419D02*
X173823571Y-53271800D01*
X173918809Y-53224180D01*
X174156904Y-53224180D01*
X174252142Y-53271800D01*
X174299761Y-53319419D01*
X174347380Y-53414657D01*
X174347380Y-53509895D01*
X174299761Y-53652752D01*
X173728333Y-54224180D01*
X174347380Y-54224180D01*
X174966428Y-53224180D02*
X175061666Y-53224180D01*
X175156904Y-53271800D01*
X175204523Y-53319419D01*
X175252142Y-53414657D01*
X175299761Y-53605133D01*
X175299761Y-53843228D01*
X175252142Y-54033704D01*
X175204523Y-54128942D01*
X175156904Y-54176561D01*
X175061666Y-54224180D01*
X174966428Y-54224180D01*
X174871190Y-54176561D01*
X174823571Y-54128942D01*
X174775952Y-54033704D01*
X174728333Y-53843228D01*
X174728333Y-53605133D01*
X174775952Y-53414657D01*
X174823571Y-53319419D01*
X174871190Y-53271800D01*
X174966428Y-53224180D01*
X175918809Y-53224180D02*
X176014047Y-53224180D01*
X176109285Y-53271800D01*
X176156904Y-53319419D01*
X176204523Y-53414657D01*
X176252142Y-53605133D01*
X176252142Y-53843228D01*
X176204523Y-54033704D01*
X176156904Y-54128942D01*
X176109285Y-54176561D01*
X176014047Y-54224180D01*
X175918809Y-54224180D01*
X175823571Y-54176561D01*
X175775952Y-54128942D01*
X175728333Y-54033704D01*
X175680714Y-53843228D01*
X175680714Y-53605133D01*
X175728333Y-53414657D01*
X175775952Y-53319419D01*
X175823571Y-53271800D01*
X175918809Y-53224180D01*
X176680714Y-53557514D02*
X176680714Y-54224180D01*
X176680714Y-53652752D02*
X176728333Y-53605133D01*
X176823571Y-53557514D01*
X176966428Y-53557514D01*
X177061666Y-53605133D01*
X177109285Y-53700371D01*
X177109285Y-54224180D01*
X177918809Y-53700371D02*
X177585476Y-53700371D01*
X177585476Y-54224180D02*
X177585476Y-53224180D01*
X178061666Y-53224180D01*
X198490152Y-110240819D02*
X198537771Y-110193200D01*
X198633009Y-110145580D01*
X198871104Y-110145580D01*
X198966342Y-110193200D01*
X199013961Y-110240819D01*
X199061580Y-110336057D01*
X199061580Y-110431295D01*
X199013961Y-110574152D01*
X198442533Y-111145580D01*
X199061580Y-111145580D01*
X199680628Y-110145580D02*
X199775866Y-110145580D01*
X199871104Y-110193200D01*
X199918723Y-110240819D01*
X199966342Y-110336057D01*
X200013961Y-110526533D01*
X200013961Y-110764628D01*
X199966342Y-110955104D01*
X199918723Y-111050342D01*
X199871104Y-111097961D01*
X199775866Y-111145580D01*
X199680628Y-111145580D01*
X199585390Y-111097961D01*
X199537771Y-111050342D01*
X199490152Y-110955104D01*
X199442533Y-110764628D01*
X199442533Y-110526533D01*
X199490152Y-110336057D01*
X199537771Y-110240819D01*
X199585390Y-110193200D01*
X199680628Y-110145580D01*
X200633009Y-110145580D02*
X200728247Y-110145580D01*
X200823485Y-110193200D01*
X200871104Y-110240819D01*
X200918723Y-110336057D01*
X200966342Y-110526533D01*
X200966342Y-110764628D01*
X200918723Y-110955104D01*
X200871104Y-111050342D01*
X200823485Y-111097961D01*
X200728247Y-111145580D01*
X200633009Y-111145580D01*
X200537771Y-111097961D01*
X200490152Y-111050342D01*
X200442533Y-110955104D01*
X200394914Y-110764628D01*
X200394914Y-110526533D01*
X200442533Y-110336057D01*
X200490152Y-110240819D01*
X200537771Y-110193200D01*
X200633009Y-110145580D01*
X201394914Y-110478914D02*
X201394914Y-111145580D01*
X201394914Y-110574152D02*
X201442533Y-110526533D01*
X201537771Y-110478914D01*
X201680628Y-110478914D01*
X201775866Y-110526533D01*
X201823485Y-110621771D01*
X201823485Y-111145580D01*
X202633009Y-110621771D02*
X202299676Y-110621771D01*
X202299676Y-111145580D02*
X202299676Y-110145580D01*
X202775866Y-110145580D01*
X186308028Y-52700180D02*
X185974695Y-52223990D01*
X185736600Y-52700180D02*
X185736600Y-51700180D01*
X186117552Y-51700180D01*
X186212790Y-51747800D01*
X186260409Y-51795419D01*
X186308028Y-51890657D01*
X186308028Y-52033514D01*
X186260409Y-52128752D01*
X186212790Y-52176371D01*
X186117552Y-52223990D01*
X185736600Y-52223990D01*
X186879457Y-52700180D02*
X186784219Y-52652561D01*
X186736600Y-52604942D01*
X186688980Y-52509704D01*
X186688980Y-52223990D01*
X186736600Y-52128752D01*
X186784219Y-52081133D01*
X186879457Y-52033514D01*
X187022314Y-52033514D01*
X187117552Y-52081133D01*
X187165171Y-52128752D01*
X187212790Y-52223990D01*
X187212790Y-52509704D01*
X187165171Y-52604942D01*
X187117552Y-52652561D01*
X187022314Y-52700180D01*
X186879457Y-52700180D01*
X187498504Y-52033514D02*
X187879457Y-52033514D01*
X187641361Y-51700180D02*
X187641361Y-52557323D01*
X187688980Y-52652561D01*
X187784219Y-52700180D01*
X187879457Y-52700180D01*
X188641361Y-52700180D02*
X188641361Y-52176371D01*
X188593742Y-52081133D01*
X188498504Y-52033514D01*
X188308028Y-52033514D01*
X188212790Y-52081133D01*
X188641361Y-52652561D02*
X188546123Y-52700180D01*
X188308028Y-52700180D01*
X188212790Y-52652561D01*
X188165171Y-52557323D01*
X188165171Y-52462085D01*
X188212790Y-52366847D01*
X188308028Y-52319228D01*
X188546123Y-52319228D01*
X188641361Y-52271609D01*
X189117552Y-52700180D02*
X189117552Y-52033514D01*
X189117552Y-52223990D02*
X189165171Y-52128752D01*
X189212790Y-52081133D01*
X189308028Y-52033514D01*
X189403266Y-52033514D01*
X189641361Y-52033514D02*
X189879457Y-52700180D01*
X190117552Y-52033514D02*
X189879457Y-52700180D01*
X189784219Y-52938276D01*
X189736600Y-52985895D01*
X189641361Y-53033514D01*
X191260409Y-52176371D02*
X191593742Y-52176371D01*
X191736600Y-52700180D02*
X191260409Y-52700180D01*
X191260409Y-51700180D01*
X191736600Y-51700180D01*
X192165171Y-52033514D02*
X192165171Y-52700180D01*
X192165171Y-52128752D02*
X192212790Y-52081133D01*
X192308028Y-52033514D01*
X192450885Y-52033514D01*
X192546123Y-52081133D01*
X192593742Y-52176371D01*
X192593742Y-52700180D01*
X193498504Y-52652561D02*
X193403266Y-52700180D01*
X193212790Y-52700180D01*
X193117552Y-52652561D01*
X193069933Y-52604942D01*
X193022314Y-52509704D01*
X193022314Y-52223990D01*
X193069933Y-52128752D01*
X193117552Y-52081133D01*
X193212790Y-52033514D01*
X193403266Y-52033514D01*
X193498504Y-52081133D01*
X194069933Y-52700180D02*
X193974695Y-52652561D01*
X193927076Y-52604942D01*
X193879457Y-52509704D01*
X193879457Y-52223990D01*
X193927076Y-52128752D01*
X193974695Y-52081133D01*
X194069933Y-52033514D01*
X194212790Y-52033514D01*
X194308028Y-52081133D01*
X194355647Y-52128752D01*
X194403266Y-52223990D01*
X194403266Y-52509704D01*
X194355647Y-52604942D01*
X194308028Y-52652561D01*
X194212790Y-52700180D01*
X194069933Y-52700180D01*
X195260409Y-52700180D02*
X195260409Y-51700180D01*
X195260409Y-52652561D02*
X195165171Y-52700180D01*
X194974695Y-52700180D01*
X194879457Y-52652561D01*
X194831838Y-52604942D01*
X194784219Y-52509704D01*
X194784219Y-52223990D01*
X194831838Y-52128752D01*
X194879457Y-52081133D01*
X194974695Y-52033514D01*
X195165171Y-52033514D01*
X195260409Y-52081133D01*
X196117552Y-52652561D02*
X196022314Y-52700180D01*
X195831838Y-52700180D01*
X195736600Y-52652561D01*
X195688980Y-52557323D01*
X195688980Y-52176371D01*
X195736600Y-52081133D01*
X195831838Y-52033514D01*
X196022314Y-52033514D01*
X196117552Y-52081133D01*
X196165171Y-52176371D01*
X196165171Y-52271609D01*
X195688980Y-52366847D01*
X196593742Y-52700180D02*
X196593742Y-52033514D01*
X196593742Y-52223990D02*
X196641361Y-52128752D01*
X196688980Y-52081133D01*
X196784219Y-52033514D01*
X196879457Y-52033514D01*
X169404019Y-110297980D02*
X169404019Y-111012266D01*
X169356400Y-111155123D01*
X169261161Y-111250361D01*
X169118304Y-111297980D01*
X169023066Y-111297980D01*
X170023066Y-111297980D02*
X169927828Y-111250361D01*
X169880209Y-111202742D01*
X169832590Y-111107504D01*
X169832590Y-110821790D01*
X169880209Y-110726552D01*
X169927828Y-110678933D01*
X170023066Y-110631314D01*
X170165923Y-110631314D01*
X170261161Y-110678933D01*
X170308780Y-110726552D01*
X170356400Y-110821790D01*
X170356400Y-111107504D01*
X170308780Y-111202742D01*
X170261161Y-111250361D01*
X170165923Y-111297980D01*
X170023066Y-111297980D01*
X170689733Y-110631314D02*
X170927828Y-111297980D01*
X171165923Y-110631314D02*
X170927828Y-111297980D01*
X170832590Y-111536076D01*
X170784971Y-111583695D01*
X170689733Y-111631314D01*
X171499257Y-111250361D02*
X171594495Y-111297980D01*
X171784971Y-111297980D01*
X171880209Y-111250361D01*
X171927828Y-111155123D01*
X171927828Y-111107504D01*
X171880209Y-111012266D01*
X171784971Y-110964647D01*
X171642114Y-110964647D01*
X171546876Y-110917028D01*
X171499257Y-110821790D01*
X171499257Y-110774171D01*
X171546876Y-110678933D01*
X171642114Y-110631314D01*
X171784971Y-110631314D01*
X171880209Y-110678933D01*
X172213542Y-110631314D02*
X172594495Y-110631314D01*
X172356400Y-110297980D02*
X172356400Y-111155123D01*
X172404019Y-111250361D01*
X172499257Y-111297980D01*
X172594495Y-111297980D01*
X172927828Y-111297980D02*
X172927828Y-110631314D01*
X172927828Y-110297980D02*
X172880209Y-110345600D01*
X172927828Y-110393219D01*
X172975447Y-110345600D01*
X172927828Y-110297980D01*
X172927828Y-110393219D01*
X173832590Y-111250361D02*
X173737352Y-111297980D01*
X173546876Y-111297980D01*
X173451638Y-111250361D01*
X173404019Y-111202742D01*
X173356400Y-111107504D01*
X173356400Y-110821790D01*
X173404019Y-110726552D01*
X173451638Y-110678933D01*
X173546876Y-110631314D01*
X173737352Y-110631314D01*
X173832590Y-110678933D01*
X174261161Y-111297980D02*
X174261161Y-110297980D01*
X174356400Y-110917028D02*
X174642114Y-111297980D01*
X174642114Y-110631314D02*
X174261161Y-111012266D01*
X114286019Y-110653580D02*
X114286019Y-111367866D01*
X114238400Y-111510723D01*
X114143161Y-111605961D01*
X114000304Y-111653580D01*
X113905066Y-111653580D01*
X114905066Y-111653580D02*
X114809828Y-111605961D01*
X114762209Y-111558342D01*
X114714590Y-111463104D01*
X114714590Y-111177390D01*
X114762209Y-111082152D01*
X114809828Y-111034533D01*
X114905066Y-110986914D01*
X115047923Y-110986914D01*
X115143161Y-111034533D01*
X115190780Y-111082152D01*
X115238400Y-111177390D01*
X115238400Y-111463104D01*
X115190780Y-111558342D01*
X115143161Y-111605961D01*
X115047923Y-111653580D01*
X114905066Y-111653580D01*
X115571733Y-110986914D02*
X115809828Y-111653580D01*
X116047923Y-110986914D02*
X115809828Y-111653580D01*
X115714590Y-111891676D01*
X115666971Y-111939295D01*
X115571733Y-111986914D01*
X116381257Y-111605961D02*
X116476495Y-111653580D01*
X116666971Y-111653580D01*
X116762209Y-111605961D01*
X116809828Y-111510723D01*
X116809828Y-111463104D01*
X116762209Y-111367866D01*
X116666971Y-111320247D01*
X116524114Y-111320247D01*
X116428876Y-111272628D01*
X116381257Y-111177390D01*
X116381257Y-111129771D01*
X116428876Y-111034533D01*
X116524114Y-110986914D01*
X116666971Y-110986914D01*
X116762209Y-111034533D01*
X117095542Y-110986914D02*
X117476495Y-110986914D01*
X117238400Y-110653580D02*
X117238400Y-111510723D01*
X117286019Y-111605961D01*
X117381257Y-111653580D01*
X117476495Y-111653580D01*
X117809828Y-111653580D02*
X117809828Y-110986914D01*
X117809828Y-110653580D02*
X117762209Y-110701200D01*
X117809828Y-110748819D01*
X117857447Y-110701200D01*
X117809828Y-110653580D01*
X117809828Y-110748819D01*
X118714590Y-111605961D02*
X118619352Y-111653580D01*
X118428876Y-111653580D01*
X118333638Y-111605961D01*
X118286019Y-111558342D01*
X118238400Y-111463104D01*
X118238400Y-111177390D01*
X118286019Y-111082152D01*
X118333638Y-111034533D01*
X118428876Y-110986914D01*
X118619352Y-110986914D01*
X118714590Y-111034533D01*
X119143161Y-111653580D02*
X119143161Y-110653580D01*
X119238400Y-111272628D02*
X119524114Y-111653580D01*
X119524114Y-110986914D02*
X119143161Y-111367866D01*
X77399428Y-106065580D02*
X77399428Y-105065580D01*
X77732761Y-105779866D01*
X78066095Y-105065580D01*
X78066095Y-106065580D01*
X78542285Y-106065580D02*
X78542285Y-105065580D01*
X78923238Y-105065580D01*
X79018476Y-105113200D01*
X79066095Y-105160819D01*
X79113714Y-105256057D01*
X79113714Y-105398914D01*
X79066095Y-105494152D01*
X79018476Y-105541771D01*
X78923238Y-105589390D01*
X78542285Y-105589390D01*
X79542285Y-105065580D02*
X79542285Y-105875104D01*
X79589904Y-105970342D01*
X79637523Y-106017961D01*
X79732761Y-106065580D01*
X79923238Y-106065580D01*
X80018476Y-106017961D01*
X80066095Y-105970342D01*
X80113714Y-105875104D01*
X80113714Y-105065580D01*
X81018476Y-105065580D02*
X80828000Y-105065580D01*
X80732761Y-105113200D01*
X80685142Y-105160819D01*
X80589904Y-105303676D01*
X80542285Y-105494152D01*
X80542285Y-105875104D01*
X80589904Y-105970342D01*
X80637523Y-106017961D01*
X80732761Y-106065580D01*
X80923238Y-106065580D01*
X81018476Y-106017961D01*
X81066095Y-105970342D01*
X81113714Y-105875104D01*
X81113714Y-105637009D01*
X81066095Y-105541771D01*
X81018476Y-105494152D01*
X80923238Y-105446533D01*
X80732761Y-105446533D01*
X80637523Y-105494152D01*
X80589904Y-105541771D01*
X80542285Y-105637009D01*
X81732761Y-105065580D02*
X81828000Y-105065580D01*
X81923238Y-105113200D01*
X81970857Y-105160819D01*
X82018476Y-105256057D01*
X82066095Y-105446533D01*
X82066095Y-105684628D01*
X82018476Y-105875104D01*
X81970857Y-105970342D01*
X81923238Y-106017961D01*
X81828000Y-106065580D01*
X81732761Y-106065580D01*
X81637523Y-106017961D01*
X81589904Y-105970342D01*
X81542285Y-105875104D01*
X81494666Y-105684628D01*
X81494666Y-105446533D01*
X81542285Y-105256057D01*
X81589904Y-105160819D01*
X81637523Y-105113200D01*
X81732761Y-105065580D01*
X82970857Y-105065580D02*
X82494666Y-105065580D01*
X82447047Y-105541771D01*
X82494666Y-105494152D01*
X82589904Y-105446533D01*
X82828000Y-105446533D01*
X82923238Y-105494152D01*
X82970857Y-105541771D01*
X83018476Y-105637009D01*
X83018476Y-105875104D01*
X82970857Y-105970342D01*
X82923238Y-106017961D01*
X82828000Y-106065580D01*
X82589904Y-106065580D01*
X82494666Y-106017961D01*
X82447047Y-105970342D01*
X83637523Y-105065580D02*
X83732761Y-105065580D01*
X83828000Y-105113200D01*
X83875619Y-105160819D01*
X83923238Y-105256057D01*
X83970857Y-105446533D01*
X83970857Y-105684628D01*
X83923238Y-105875104D01*
X83875619Y-105970342D01*
X83828000Y-106017961D01*
X83732761Y-106065580D01*
X83637523Y-106065580D01*
X83542285Y-106017961D01*
X83494666Y-105970342D01*
X83447047Y-105875104D01*
X83399428Y-105684628D01*
X83399428Y-105446533D01*
X83447047Y-105256057D01*
X83494666Y-105160819D01*
X83542285Y-105113200D01*
X83637523Y-105065580D01*
X85494666Y-105541771D02*
X85637523Y-105589390D01*
X85685142Y-105637009D01*
X85732761Y-105732247D01*
X85732761Y-105875104D01*
X85685142Y-105970342D01*
X85637523Y-106017961D01*
X85542285Y-106065580D01*
X85161333Y-106065580D01*
X85161333Y-105065580D01*
X85494666Y-105065580D01*
X85589904Y-105113200D01*
X85637523Y-105160819D01*
X85685142Y-105256057D01*
X85685142Y-105351295D01*
X85637523Y-105446533D01*
X85589904Y-105494152D01*
X85494666Y-105541771D01*
X85161333Y-105541771D01*
X86161333Y-106065580D02*
X86161333Y-105398914D01*
X86161333Y-105589390D02*
X86208952Y-105494152D01*
X86256571Y-105446533D01*
X86351809Y-105398914D01*
X86447047Y-105398914D01*
X87161333Y-106017961D02*
X87066095Y-106065580D01*
X86875619Y-106065580D01*
X86780380Y-106017961D01*
X86732761Y-105922723D01*
X86732761Y-105541771D01*
X86780380Y-105446533D01*
X86875619Y-105398914D01*
X87066095Y-105398914D01*
X87161333Y-105446533D01*
X87208952Y-105541771D01*
X87208952Y-105637009D01*
X86732761Y-105732247D01*
X88066095Y-106065580D02*
X88066095Y-105541771D01*
X88018476Y-105446533D01*
X87923238Y-105398914D01*
X87732761Y-105398914D01*
X87637523Y-105446533D01*
X88066095Y-106017961D02*
X87970857Y-106065580D01*
X87732761Y-106065580D01*
X87637523Y-106017961D01*
X87589904Y-105922723D01*
X87589904Y-105827485D01*
X87637523Y-105732247D01*
X87732761Y-105684628D01*
X87970857Y-105684628D01*
X88066095Y-105637009D01*
X88542285Y-106065580D02*
X88542285Y-105065580D01*
X88637523Y-105684628D02*
X88923238Y-106065580D01*
X88923238Y-105398914D02*
X88542285Y-105779866D01*
X89494666Y-106065580D02*
X89399428Y-106017961D01*
X89351809Y-105970342D01*
X89304190Y-105875104D01*
X89304190Y-105589390D01*
X89351809Y-105494152D01*
X89399428Y-105446533D01*
X89494666Y-105398914D01*
X89637523Y-105398914D01*
X89732761Y-105446533D01*
X89780380Y-105494152D01*
X89828000Y-105589390D01*
X89828000Y-105875104D01*
X89780380Y-105970342D01*
X89732761Y-106017961D01*
X89637523Y-106065580D01*
X89494666Y-106065580D01*
X90685142Y-105398914D02*
X90685142Y-106065580D01*
X90256571Y-105398914D02*
X90256571Y-105922723D01*
X90304190Y-106017961D01*
X90399428Y-106065580D01*
X90542285Y-106065580D01*
X90637523Y-106017961D01*
X90685142Y-105970342D01*
X91018476Y-105398914D02*
X91399428Y-105398914D01*
X91161333Y-105065580D02*
X91161333Y-105922723D01*
X91208952Y-106017961D01*
X91304190Y-106065580D01*
X91399428Y-106065580D01*
X89947714Y-93060780D02*
X89376285Y-93060780D01*
X89662000Y-93060780D02*
X89662000Y-92060780D01*
X89566761Y-92203638D01*
X89471523Y-92298876D01*
X89376285Y-92346495D01*
D11*
%TO.C,J3*%
X152460000Y-48835000D02*
X152460000Y-50165000D01*
X151130000Y-48835000D02*
X152460000Y-48835000D01*
X149860000Y-48835000D02*
X149860000Y-51495000D01*
X149860000Y-51495000D02*
X134560000Y-51495000D01*
X149860000Y-48835000D02*
X134560000Y-48835000D01*
X134560000Y-48835000D02*
X134560000Y-51495000D01*
D12*
%TO.C,U1*%
X165380000Y-88520000D02*
X166000000Y-88520000D01*
X166000000Y-88520000D02*
X166000000Y-82220000D01*
X166000000Y-82220000D02*
X176900000Y-82220000D01*
X176900000Y-82220000D02*
X176900000Y-88520000D01*
X176900000Y-88520000D02*
X177530000Y-88520000D01*
X179400000Y-92420000D02*
X180950000Y-92420000D01*
X180950000Y-92420000D02*
X180950000Y-100520000D01*
X180950000Y-100520000D02*
X179400000Y-100520000D01*
X179400000Y-100520000D02*
X179400000Y-101640000D01*
X177530000Y-104420000D02*
X176300000Y-104420000D01*
X176300000Y-104420000D02*
X176300000Y-107620000D01*
X166600000Y-107620000D02*
X166600000Y-104420000D01*
X166600000Y-104420000D02*
X165380000Y-104420000D01*
X163500000Y-101690000D02*
X163500000Y-101420000D01*
X163500000Y-101420000D02*
X160350000Y-101420000D01*
X160350000Y-101420000D02*
X160350000Y-91620000D01*
X160350000Y-91620000D02*
X163500000Y-91620000D01*
D13*
X165500000Y-83170000D02*
G75*
G03*
X165500000Y-83170000I-100000J0D01*
G01*
D11*
%TO.C,A1*%
X74800000Y-96650000D02*
X92840000Y-96650000D01*
X74800000Y-53210000D02*
X74800000Y-96650000D01*
X92840000Y-53210000D02*
X74800000Y-53210000D01*
X90170000Y-55880000D02*
X92840000Y-55880000D01*
X90170000Y-91440000D02*
X90170000Y-55880000D01*
X90170000Y-91440000D02*
X92840000Y-91440000D01*
X77470000Y-55880000D02*
X74800000Y-55880000D01*
X77470000Y-93980000D02*
X77470000Y-55880000D01*
X77470000Y-93980000D02*
X74800000Y-93980000D01*
X92840000Y-96650000D02*
X92840000Y-93980000D01*
X92840000Y-91440000D02*
X92840000Y-53210000D01*
X90170000Y-93980000D02*
X92840000Y-93980000D01*
X90170000Y-91440000D02*
X90170000Y-93980000D01*
%TO.C,SW1*%
X187270000Y-62270000D02*
G75*
G03*
X187270000Y-62270000I-3000000J0D01*
G01*
X182270000Y-68170000D02*
X178170000Y-68170000D01*
X178170000Y-56370000D02*
X182270000Y-56370000D01*
X186270000Y-56370000D02*
X190370000Y-56370000D01*
X186270000Y-68170000D02*
X190370000Y-68170000D01*
X190370000Y-68170000D02*
X190370000Y-56370000D01*
X191770000Y-66070000D02*
X192070000Y-66370000D01*
X192070000Y-66370000D02*
X191470000Y-66370000D01*
X191470000Y-66370000D02*
X191770000Y-66070000D01*
X178170000Y-68170000D02*
X178170000Y-65770000D01*
X178170000Y-63570000D02*
X178170000Y-60970000D01*
X178170000Y-58770000D02*
X178170000Y-56370000D01*
X184270000Y-62770000D02*
X184270000Y-61770000D01*
X184770000Y-62270000D02*
X183770000Y-62270000D01*
%TO.C,C1*%
X164860302Y-65230000D02*
X164860302Y-66030000D01*
X164460302Y-65630000D02*
X165260302Y-65630000D01*
X172990000Y-67945000D02*
G75*
G03*
X172990000Y-67945000I-4120000J0D01*
G01*
%TO.C,C2*%
X173594698Y-59865000D02*
X173594698Y-59065000D01*
X173994698Y-59465000D02*
X173194698Y-59465000D01*
X173705000Y-57150000D02*
G75*
G03*
X173705000Y-57150000I-4120000J0D01*
G01*
%TO.C,C3*%
X115395000Y-58659698D02*
X116195000Y-58659698D01*
X115795000Y-59059698D02*
X115795000Y-58259698D01*
X122230000Y-54650000D02*
G75*
G03*
X122230000Y-54650000I-4120000J0D01*
G01*
%TO.C,J1*%
X74870000Y-101660000D02*
X74870000Y-100330000D01*
X76200000Y-101660000D02*
X74870000Y-101660000D01*
X77470000Y-101660000D02*
X77470000Y-99000000D01*
X77470000Y-99000000D02*
X95310000Y-99000000D01*
X77470000Y-101660000D02*
X95310000Y-101660000D01*
X95310000Y-101660000D02*
X95310000Y-99000000D01*
%TO.C,J6*%
X147380000Y-101540000D02*
X147380000Y-102870000D01*
X146050000Y-101540000D02*
X147380000Y-101540000D01*
X144780000Y-101540000D02*
X144780000Y-104200000D01*
X144780000Y-104200000D02*
X142180000Y-104200000D01*
X144780000Y-101540000D02*
X142180000Y-101540000D01*
X142180000Y-101540000D02*
X142180000Y-104200000D01*
%TO.C,J2*%
X111820000Y-50740000D02*
X111820000Y-52070000D01*
X110490000Y-50740000D02*
X111820000Y-50740000D01*
X111820000Y-53340000D02*
X111820000Y-55940000D01*
X109220000Y-53340000D02*
X111820000Y-53340000D01*
X109220000Y-50740000D02*
X109220000Y-53340000D01*
X111820000Y-55940000D02*
X99000000Y-55940000D01*
X109220000Y-50740000D02*
X99000000Y-50740000D01*
X99000000Y-50740000D02*
X99000000Y-55940000D01*
D13*
%TO.C,U2*%
X110890000Y-83170000D02*
G75*
G03*
X110890000Y-83170000I-100000J0D01*
G01*
D12*
X105740000Y-91620000D02*
X108890000Y-91620000D01*
X105740000Y-101420000D02*
X105740000Y-91620000D01*
X108890000Y-101420000D02*
X105740000Y-101420000D01*
X108890000Y-101690000D02*
X108890000Y-101420000D01*
X111990000Y-104420000D02*
X110770000Y-104420000D01*
X111990000Y-107620000D02*
X111990000Y-104420000D01*
X121690000Y-104420000D02*
X121690000Y-107620000D01*
X122920000Y-104420000D02*
X121690000Y-104420000D01*
X124790000Y-100520000D02*
X124790000Y-101640000D01*
X126340000Y-100520000D02*
X124790000Y-100520000D01*
X126340000Y-92420000D02*
X126340000Y-100520000D01*
X124790000Y-92420000D02*
X126340000Y-92420000D01*
X122290000Y-88520000D02*
X122920000Y-88520000D01*
X122290000Y-82220000D02*
X122290000Y-88520000D01*
X111390000Y-82220000D02*
X122290000Y-82220000D01*
X111390000Y-88520000D02*
X111390000Y-82220000D01*
X110770000Y-88520000D02*
X111390000Y-88520000D01*
D13*
%TO.C,S1*%
X188505000Y-76580000D02*
G75*
G03*
X188505000Y-76580000I-100000J0D01*
G01*
D12*
X190695000Y-74930000D02*
X188975000Y-74930000D01*
X195835000Y-74930000D02*
X194115000Y-74930000D01*
X188975000Y-87630000D02*
X188975000Y-74930000D01*
X190695000Y-87630000D02*
X188975000Y-87630000D01*
X195835000Y-87630000D02*
X194115000Y-87630000D01*
X195835000Y-74930000D02*
X195835000Y-87630000D01*
%TO.C,J3*%
D10*
X152912380Y-50498333D02*
X153626666Y-50498333D01*
X153769523Y-50545952D01*
X153864761Y-50641190D01*
X153912380Y-50784047D01*
X153912380Y-50879285D01*
X152912380Y-50117380D02*
X152912380Y-49498333D01*
X153293333Y-49831666D01*
X153293333Y-49688809D01*
X153340952Y-49593571D01*
X153388571Y-49545952D01*
X153483809Y-49498333D01*
X153721904Y-49498333D01*
X153817142Y-49545952D01*
X153864761Y-49593571D01*
X153912380Y-49688809D01*
X153912380Y-49974523D01*
X153864761Y-50069761D01*
X153817142Y-50117380D01*
%TO.C,U1*%
D14*
X168063095Y-80737380D02*
X168063095Y-81546904D01*
X168110714Y-81642142D01*
X168158333Y-81689761D01*
X168253571Y-81737380D01*
X168444047Y-81737380D01*
X168539285Y-81689761D01*
X168586904Y-81642142D01*
X168634523Y-81546904D01*
X168634523Y-80737380D01*
X169634523Y-81737380D02*
X169063095Y-81737380D01*
X169348809Y-81737380D02*
X169348809Y-80737380D01*
X169253571Y-80880238D01*
X169158333Y-80975476D01*
X169063095Y-81023095D01*
%TO.C,A1*%
D10*
X83105714Y-97956666D02*
X83581904Y-97956666D01*
X83010476Y-98242380D02*
X83343809Y-97242380D01*
X83677142Y-98242380D01*
X84534285Y-98242380D02*
X83962857Y-98242380D01*
X84248571Y-98242380D02*
X84248571Y-97242380D01*
X84153333Y-97385238D01*
X84058095Y-97480476D01*
X83962857Y-97528095D01*
%TO.C,SW1*%
X187636666Y-69874761D02*
X187779523Y-69922380D01*
X188017619Y-69922380D01*
X188112857Y-69874761D01*
X188160476Y-69827142D01*
X188208095Y-69731904D01*
X188208095Y-69636666D01*
X188160476Y-69541428D01*
X188112857Y-69493809D01*
X188017619Y-69446190D01*
X187827142Y-69398571D01*
X187731904Y-69350952D01*
X187684285Y-69303333D01*
X187636666Y-69208095D01*
X187636666Y-69112857D01*
X187684285Y-69017619D01*
X187731904Y-68970000D01*
X187827142Y-68922380D01*
X188065238Y-68922380D01*
X188208095Y-68970000D01*
X188541428Y-68922380D02*
X188779523Y-69922380D01*
X188970000Y-69208095D01*
X189160476Y-69922380D01*
X189398571Y-68922380D01*
X190303333Y-69922380D02*
X189731904Y-69922380D01*
X190017619Y-69922380D02*
X190017619Y-68922380D01*
X189922380Y-69065238D01*
X189827142Y-69160476D01*
X189731904Y-69208095D01*
%TO.C,C1*%
X168703333Y-63052142D02*
X168655714Y-63099761D01*
X168512857Y-63147380D01*
X168417619Y-63147380D01*
X168274761Y-63099761D01*
X168179523Y-63004523D01*
X168131904Y-62909285D01*
X168084285Y-62718809D01*
X168084285Y-62575952D01*
X168131904Y-62385476D01*
X168179523Y-62290238D01*
X168274761Y-62195000D01*
X168417619Y-62147380D01*
X168512857Y-62147380D01*
X168655714Y-62195000D01*
X168703333Y-62242619D01*
X169655714Y-63147380D02*
X169084285Y-63147380D01*
X169370000Y-63147380D02*
X169370000Y-62147380D01*
X169274761Y-62290238D01*
X169179523Y-62385476D01*
X169084285Y-62433095D01*
%TO.C,C2*%
X169418333Y-62757142D02*
X169370714Y-62804761D01*
X169227857Y-62852380D01*
X169132619Y-62852380D01*
X168989761Y-62804761D01*
X168894523Y-62709523D01*
X168846904Y-62614285D01*
X168799285Y-62423809D01*
X168799285Y-62280952D01*
X168846904Y-62090476D01*
X168894523Y-61995238D01*
X168989761Y-61900000D01*
X169132619Y-61852380D01*
X169227857Y-61852380D01*
X169370714Y-61900000D01*
X169418333Y-61947619D01*
X169799285Y-61947619D02*
X169846904Y-61900000D01*
X169942142Y-61852380D01*
X170180238Y-61852380D01*
X170275476Y-61900000D01*
X170323095Y-61947619D01*
X170370714Y-62042857D01*
X170370714Y-62138095D01*
X170323095Y-62280952D01*
X169751666Y-62852380D01*
X170370714Y-62852380D01*
%TO.C,C3*%
X113217142Y-54816666D02*
X113264761Y-54864285D01*
X113312380Y-55007142D01*
X113312380Y-55102380D01*
X113264761Y-55245238D01*
X113169523Y-55340476D01*
X113074285Y-55388095D01*
X112883809Y-55435714D01*
X112740952Y-55435714D01*
X112550476Y-55388095D01*
X112455238Y-55340476D01*
X112360000Y-55245238D01*
X112312380Y-55102380D01*
X112312380Y-55007142D01*
X112360000Y-54864285D01*
X112407619Y-54816666D01*
X112312380Y-54483333D02*
X112312380Y-53864285D01*
X112693333Y-54197619D01*
X112693333Y-54054761D01*
X112740952Y-53959523D01*
X112788571Y-53911904D01*
X112883809Y-53864285D01*
X113121904Y-53864285D01*
X113217142Y-53911904D01*
X113264761Y-53959523D01*
X113312380Y-54054761D01*
X113312380Y-54340476D01*
X113264761Y-54435714D01*
X113217142Y-54483333D01*
%TO.C,J1*%
X73322380Y-100663333D02*
X74036666Y-100663333D01*
X74179523Y-100710952D01*
X74274761Y-100806190D01*
X74322380Y-100949047D01*
X74322380Y-101044285D01*
X74322380Y-99663333D02*
X74322380Y-100234761D01*
X74322380Y-99949047D02*
X73322380Y-99949047D01*
X73465238Y-100044285D01*
X73560476Y-100139523D01*
X73608095Y-100234761D01*
%TO.C,J6*%
X147832380Y-103203333D02*
X148546666Y-103203333D01*
X148689523Y-103250952D01*
X148784761Y-103346190D01*
X148832380Y-103489047D01*
X148832380Y-103584285D01*
X147832380Y-102298571D02*
X147832380Y-102489047D01*
X147880000Y-102584285D01*
X147927619Y-102631904D01*
X148070476Y-102727142D01*
X148260952Y-102774761D01*
X148641904Y-102774761D01*
X148737142Y-102727142D01*
X148784761Y-102679523D01*
X148832380Y-102584285D01*
X148832380Y-102393809D01*
X148784761Y-102298571D01*
X148737142Y-102250952D01*
X148641904Y-102203333D01*
X148403809Y-102203333D01*
X148308571Y-102250952D01*
X148260952Y-102298571D01*
X148213333Y-102393809D01*
X148213333Y-102584285D01*
X148260952Y-102679523D01*
X148308571Y-102727142D01*
X148403809Y-102774761D01*
%TO.C,J2*%
X112272380Y-53673333D02*
X112986666Y-53673333D01*
X113129523Y-53720952D01*
X113224761Y-53816190D01*
X113272380Y-53959047D01*
X113272380Y-54054285D01*
X112367619Y-53244761D02*
X112320000Y-53197142D01*
X112272380Y-53101904D01*
X112272380Y-52863809D01*
X112320000Y-52768571D01*
X112367619Y-52720952D01*
X112462857Y-52673333D01*
X112558095Y-52673333D01*
X112700952Y-52720952D01*
X113272380Y-53292380D01*
X113272380Y-52673333D01*
%TO.C,U2*%
D14*
X113453095Y-80737380D02*
X113453095Y-81546904D01*
X113500714Y-81642142D01*
X113548333Y-81689761D01*
X113643571Y-81737380D01*
X113834047Y-81737380D01*
X113929285Y-81689761D01*
X113976904Y-81642142D01*
X114024523Y-81546904D01*
X114024523Y-80737380D01*
X114453095Y-80832619D02*
X114500714Y-80785000D01*
X114595952Y-80737380D01*
X114834047Y-80737380D01*
X114929285Y-80785000D01*
X114976904Y-80832619D01*
X115024523Y-80927857D01*
X115024523Y-81023095D01*
X114976904Y-81165952D01*
X114405476Y-81737380D01*
X115024523Y-81737380D01*
%TO.C,S1*%
X191318095Y-74049761D02*
X191460952Y-74097380D01*
X191699047Y-74097380D01*
X191794285Y-74049761D01*
X191841904Y-74002142D01*
X191889523Y-73906904D01*
X191889523Y-73811666D01*
X191841904Y-73716428D01*
X191794285Y-73668809D01*
X191699047Y-73621190D01*
X191508571Y-73573571D01*
X191413333Y-73525952D01*
X191365714Y-73478333D01*
X191318095Y-73383095D01*
X191318095Y-73287857D01*
X191365714Y-73192619D01*
X191413333Y-73145000D01*
X191508571Y-73097380D01*
X191746666Y-73097380D01*
X191889523Y-73145000D01*
X192841904Y-74097380D02*
X192270476Y-74097380D01*
X192556190Y-74097380D02*
X192556190Y-73097380D01*
X192460952Y-73240238D01*
X192365714Y-73335476D01*
X192270476Y-73383095D01*
%TD*%
M02*
