M48
METRIC,TZ
T1C0.800
T2C0.889
T3C0.900
T4C1.000
T5C1.397
T6C1.500
T7C1.850
%
G90
G05
T1
X166370Y-67945
X167085Y-57150
X172085Y-57150
X118110Y-52150
X118110Y-57150
X171370Y-67945
T2
X106680Y-93980
X106680Y-96520
X106680Y-99060
X114300Y-106680
X116840Y-106680
X119380Y-106680
X161290Y-93980
X161290Y-96520
X161290Y-99060
X168910Y-106680
X171450Y-106680
X173990Y-106680
T3
X113665Y-83820
X113665Y-88900
X120015Y-83820
X120015Y-88900
X168275Y-83820
X168275Y-88900
X174625Y-83820
X174625Y-88900
T4
X135890Y-50165
X138430Y-50165
X140970Y-50165
X143510Y-50165
X146050Y-50165
X148590Y-50165
X151130Y-50165
X143510Y-102870
X146050Y-102870
X100330Y-52070
X100330Y-54610
X102870Y-52070
X102870Y-54610
X105410Y-52070
X105410Y-54610
X107950Y-52070
X107950Y-54610
X110490Y-52070
X110490Y-54610
X177270Y-59770
X177270Y-64770
X191770Y-59770
X191770Y-62270
X191770Y-64770
X76200Y-57150
X76200Y-59690
X76200Y-62230
X76200Y-64770
X76200Y-67310
X76200Y-69850
X76200Y-72390
X76200Y-74930
X76200Y-77470
X76200Y-80010
X76200Y-82550
X76200Y-85090
X76200Y-87630
X76200Y-90170
X76200Y-92710
X91440Y-57150
X91440Y-59690
X91440Y-62230
X91440Y-64770
X91440Y-67310
X91440Y-69850
X91440Y-72390
X91440Y-74930
X91440Y-77470
X91440Y-80010
X91440Y-82550
X91440Y-85090
X91440Y-87630
X91440Y-90170
X91440Y-92710
X76200Y-100330
X78740Y-100330
X81280Y-100330
X83820Y-100330
X86360Y-100330
X88900Y-100330
X91440Y-100330
X93980Y-100330
T5
X109220Y-89852
X109220Y-103188
X124460Y-89852
X124460Y-103188
X163830Y-89852
X163830Y-103188
X179070Y-89852
X179070Y-103188
T7
X192405Y-76580
X192405Y-81280
X192405Y-85980
T6
G00X184920Y-56670
M15
G01X183620Y-56670
M16
G05
G00X184920Y-67870
M15
G01X183620Y-67870
M16
G05
T0
M30
